<?xml version="1.0" standalone="no"?>
<!DOCTYPE svg PUBLIC "-//W3C//DTD SVG 1.1//EN" "http://www.w3.org/Graphics/SVG/1.1/DTD/svg11.dtd" >
<svg xmlns="http://www.w3.org/2000/svg">
<metadata></metadata>
<defs>
<font id="a_song_for_jennifer_boldRg" horiz-adv-x="1443" >
<font-face units-per-em="2048" ascent="1536" descent="-512" />
<missing-glyph horiz-adv-x="569" />
<glyph horiz-adv-x="2048" />
<glyph horiz-adv-x="2048" />
<glyph unicode="&#xd;" horiz-adv-x="2048" />
<glyph unicode=" "  horiz-adv-x="569" />
<glyph unicode="&#x09;" horiz-adv-x="569" />
<glyph unicode="&#xa0;" horiz-adv-x="569" />
<glyph unicode="!" horiz-adv-x="333" d="M16 1149q2 6 9 8q-6 0 -9 8v2q-2 10 -3 20.5t3 18.5q2 14 4.5 26.5t6.5 27.5v14q-2 2 -2 8t8 18q2 10 4 17.5t6 17.5l2 15l2 2q0 27 5 51t22 41l14 14q0 4 2 6q31 31 64 37l8 -4l4 -8l4 -2h2l2 -2q25 -4 49 -31q4 16 19 6q14 -29 21 -41t10 -19t2 -12.5t-3 -17.5 q6 -16 9.5 -29.5t5.5 -23.5q4 -23 3 -42.5t-1 -41.5q0 -100 -6 -199q2 -23 1 -43t-5 -41q-4 -4 -5 -4l-18 -160q2 -2 2 -10l-4 -4q-4 -29 -8 -58.5t-8 -58.5q-4 -20 -10.5 -36.5t-12.5 -32.5q2 0 3 -1t3 -1q2 -2 2 -13q-6 -14 -16 -28v-49q4 6 10 3t6 -14q-2 -6 -2 -11 t-4 -9q-6 -35 -6 -68h2q10 -10 -2 -18q16 6 39 18q10 4 12 -3t-4 -13q-27 -12 -45 -19v-6h2q10 -4 9 -10t-11 -10q-12 -2 -30.5 -10.5t-38 -15.5t-38 -9t-30.5 6q-4 8 0 12l-2 11q-10 8 -11.5 18t9.5 19l-6 63v25l-3 22q-4 4 -4 10q0 16 -4 34t-4 34v2q2 12 10 8v25l-2 37v2 l-2 41q-4 0 -6 -1t-6 -1q-8 2 -6 14q4 6 7 13t9 14q-4 29 -5 58.5t-3 57.5q-4 4 -2 13l-6 65q-4 -4 -6 -4q-6 -4 -11.5 0t-1.5 12l3 2v2l14 19q-2 29 -4 58.5t-2 60.5q-2 0 -2 -2h-4q-4 0 -7 2q-2 0 -2 6v92zM29 53q-14 25 -8 61t28 58q4 10 12 16q-6 6 5 15v2q2 0 2 1t2 1 q10 6 19 8t20 4q2 0 2 2v4h6l28 8q8 -2 11 -8v-4q39 -8 65 -41l2 4l2 -8h4l11 -8q27 -8 26 -45q0 -12 -8 -12v-9h2q16 -6 4 -18l-2 -2q2 -2 2 -6l-6 -10q6 -8 0 -15l-6 -6q-2 0 -2 -2q-18 -10 -34.5 -17.5t-35.5 -11.5q-2 0 -2 -2h-2q-16 -4 -33.5 -7t-33.5 3q-8 0 -9 8 q-4 -4 -8 -2q-20 6 -35 25l-8 4q-6 2 -6 8q0 2 -2 2q-8 -2 -12 0z" />
<glyph unicode="&#x22;" horiz-adv-x="466" d="M51 928q-8 4 -7 9t7 9l-2 6l-12 -16q2 4 -2 43q2 0 2 1t2 1q-14 51 -19.5 105.5t-13.5 103.5l-4 18l-14 -6q-10 6 -8 15l16 26q-4 29 -7 59.5t5 55.5v4q2 0 4 2q4 20 33 41q33 20 46 25.5t42 -3.5q8 10 16 3l4 -5v-2h2q10 -6 6 -14q18 -10 31 -31q0 -4 4 -8l2 2 q0 -2 1 -2t1 -2l-2 -2q14 -35 15.5 -93.5t-4 -122t-16.5 -121.5t-21 -91l-6 -6v-2h-7l2 2q-8 0 -8 10l-41 -6l-4 -2h-10zM313 928q-8 4 -7 9t7 9l-2 6l-12 -16q2 4 -2 43q2 0 2 1t2 1q-14 51 -19.5 105.5t-13.5 103.5l-4 18l-14 -6q-10 6 -8 15l16 26q-4 29 -7 59.5t5 55.5 v4q2 0 4 2q4 20 33 41q33 20 46 25.5t42 -3.5q8 10 16 3l4 -5v-2h2q10 -6 7 -14q18 -10 30 -31q0 -4 4 -8l2 2q0 -2 1.5 -2t1.5 -2l-3 -2q14 -35 15.5 -93.5t-3.5 -122t-16.5 -121.5t-21.5 -91l-6 -6v-2h-6l2 2q-8 0 -9 10l-41 -6l-4 -2h-10z" />
<glyph unicode="#" horiz-adv-x="1073" d="M469 754q4 4 9 1t5 -12q-2 -20 -5 -42.5t-9 -45.5q4 0 6 2l-10 -16q-4 -16 14 -12l-4 -13q-2 -2 -2 -6q-4 -4 -11 -9t-13 -11q41 -2 82.5 2t82.5 4l2 2q10 35 19.5 67.5t13.5 79.5q-2 -2 -6 -2t-6 -1t-6 3q0 2 -4 7q-18 0 -30.5 1t-27 1t-33 -1t-49.5 -3q-8 2 -8 10h-2 l4 2zM47 371q-8 -6 -12 2q-6 2 -6 12q0 14 -1 43t-1 59.5t3 57t11 37.5q2 2 8 2l2 2q45 8 94.5 4t94.5 -4l2 4q10 23 18 48.5t12 49.5l-4 4q-6 8 8 27v16q0 2 1.5 3t1.5 3q-45 0 -86 5.5t-84 9.5q-4 -4 -10.5 -4t-6.5 10q0 47 2 90t2 88q0 2 -2 2q-4 10 2 16.5t15 -2.5 q4 -4 4 -8q43 0 86 4t86 9q4 10 10 34.5t12 59.5h-4q-2 2 -3 2t-3 4q-10 23 20 53l23 137q-4 -2 -12 -2q-8 4 -8 11q4 12 24 30l6 45l-6 4q-4 8 2 15q-35 0 -29.5 1t35.5 3q25 0 56.5 1t62.5 1t55.5 -1t32.5 -1q8 -4 9 -10.5t-9 -10.5q-4 -94 -22.5 -184t-24.5 -184 q29 -2 58.5 -4t58.5 -7l14 5q8 2 12 -7q2 16 4.5 34t6.5 36h-11q-8 4 -8 10q2 14 27 35q4 10 5 20.5t3 20.5q-4 4 -4 6q-2 8 2 15l10 14q10 39 16.5 76t10.5 73q-4 6 2 15v8h-2q-8 4 -7 10t7 8v2h2q6 2 8 2q2 2 6 0l2 2l4 -2h52q31 10 59.5 18.5t36.5 6.5q16 -6 4 -18 q-4 -4 -12 -9h32q8 8 13 0h8q10 -4 9 -10t-11 -10h-2q-12 -162 -49 -315l24 6q10 -2 10 -15q-8 -18 -38 -39q27 -4 53 -6t53 -4q8 0 12 2q6 0 9 -4q10 -2 21 -2h24q8 -4 8 -9t-6 -9q-2 -37 -9.5 -73t-3.5 -73q4 -4 4 -12l-2 -4l-6 -6q0 -6 -10 -11h-102q-43 2 -52 -10h-2 q0 -4 -2 -4v-2q-4 -4 -4 -9t-2 -11q-2 -2 -4 -2q-6 -29 -14 -59t-11 -58l5 2h67l23 4q4 -4 6 -4q33 -4 61 -12q4 10 10.5 7t6.5 -14q-4 -51 -8.5 -98t-4.5 -100l-4 -4q-2 0 -2 -2q-8 -2 -12 4h-33l-4 -4q-6 -6 -10 -3t-4 7l-58 4q-8 -2 -22 -2q-2 0 -6 4h-28.5t-29.5 2 q-2 -29 -3 -62.5t-5 -68.5q4 -6 -2 -12q-4 -47 -11 -93.5t-15 -87.5q8 2 10 -4t-4 -12l-11 -8l-6 -25q-4 -4 -10 -6h-2q-43 0 -84 3t-86 -1q-2 0 -4 2q0 -4 -2 -5t-2 -5q-4 -8 -12.5 -5t-4.5 13q6 6 12.5 31.5t14.5 60.5q-2 4 2 13l6 34l2 13q4 16 4 26l2 15q2 6 3.5 11 t1.5 11v6q-6 2 -3 13q0 2 5 6l4 26h2q0 14 2 23v8q-6 6 -4 14l8 15q2 16 3 26.5t1 16.5q-41 0 -83 -7.5t-81 5.5q-6 -96 -33.5 -187.5t-36.5 -187.5q-4 -4 -11 -5t-7 7q-16 2 -32.5 3t-32.5 5q-12 -4 -21 2l-4 4q-18 4 -37.5 7.5t-40.5 7.5q-6 -2 -8 0q-6 2 -7 6t3 8 q0 16 6 26.5t6 14.5q4 35 11.5 71.5t15.5 71.5l2 8q0 6 4 23l2 12l6 39q0 -2 -2 -2l6 31l4 26v11h-45q-23 -10 -45 -18.5t-45 -12.5q-10 6 -8 14l6 17h-39z" />
<glyph unicode="$" horiz-adv-x="1024" d="M690 463q-6 -20 -7 -42t1 -44q2 2 4 1t6 1q63 27 86 65q-2 16 -5 33t-7 33v4q-8 -4 -10 4q-10 25 -72 45q0 -20 1 -39.5t3 -38.5v-22zM410 885l4 -2v-2q12 -10 35 -17q4 10 5 26.5t5 33.5l-2 -2v4l2 2q0 4 1 5t1 3q-2 6 -2 20l-2 -2v27q-2 10 -2 31q-23 -2 -29 -8 q-4 -16 -11 -34t-14 -34v-4q6 -8 0 -14v-23zM373 664q-10 -4 -13.5 4t2.5 12l-6 6q-18 10 -35.5 20.5t-31.5 22.5l-4 4h-6l-3 2q-12 12 -22 33l-6 -12q-8 -8 -15 0q-6 10 -9 26.5l-7 38.5q-16 23 -26.5 43.5t4.5 36.5v4q-2 6 -2 21q-10 0 -11 10q4 23 11.5 49.5t19.5 48.5 q0 4 2 8t4 5.5t6 5.5q2 6 11 14l4 8t6 8q-4 8 2 15q18 25 53 43t78 35q16 18 45 22t55 2q-2 20 -4 38.5t-2 37.5v20l6 21q0 2 4 14l-6 -4v16q-2 2 -2 5q-2 14 1 25t7 24q0 2 -1 3t-1 3q-2 0 -4 -2v14l2 2l-4 21q-6 0 -18 4q-6 6 -6 10q6 20 20 37q0 16 2 32.5t4 32.5v15l2 2 v8q0 2 1 3t1 3l8 6v2h3q4 0 7 1t7 1q2 0 2 1t2 1h8h13.5t15.5 2h22.5t35 1.5t34.5 1.5h23h4v-5l4 5q12 8 16 -5q2 -4 2 -6t2 -4q6 -8 2 -14t-12 -4v-2q4 -18 3 -38t-3 -38v-4h-2q0 -10 -1 -17.5t-3 -17.5l6 4v-22l-6 -4v-25l6 4v-20q-4 -4 -4 -5q0 -20 2 -30l2 2v-29h-2 l6 -115q4 -2 16 -2q33 -6 74 -22q2 2 8 -4q27 -10 53.5 -20.5t57.5 -14.5q-2 10 4 25q-4 4 -1 8t7 6v2l8 6q4 0 4 -2h7q14 2 24 0h6v-2l2 2v-2q2 -2 4 -2h7l-2 -6q10 -18 4 -43q2 -2 2 -11q0 -10 -3 -17t-8 -17v-2q-2 0 -2 -2q-2 0 -2 -2v-3q4 0 4 -6h3v-26q0 -12 -3 -19 q0 -16 -1 -29.5t-3 -27.5q0 -29 -6 -49v-12l-12 -7q-16 -14 -45 -16q-6 0 -6 4q-14 2 -17.5 11.5t-3.5 29.5q-4 6 -8 23q-6 0 -8 4l-2 -2q0 4 -1 5t-1 5q0 2 -1 3t-1 3q-4 12 -4 18q-20 4 -27 23l-33 14h-2q-14 -4 -14 6q-2 2 -6 2l-17 -14q-6 -6 -12 -2t-2 12l6 13 q-12 2 -24.5 3t-22.5 1q4 -4 4 -6q0 -12 1 -24.5t-1 -25.5q-2 -2 -2 -4q0 -14 -1 -27.5t-3 -27.5v-18q0 -2 1 -3t1 -6v-36l31 10q16 -4 6 -17q-18 -23 -37 -36v-2q2 0 8 -11h2q-2 -2 -2 -4q0 -12 -2 -18q45 -16 102.5 -43t100.5 -62q10 -2 18.5 -7t10.5 -21l12 -17h-2 l10 -14l4 2q6 -8 15 -25q4 -10 8 -30l2 2l6 -21q-4 -4 -6 -4v-2q6 0 10 -10v-8q0 -6 1 -13.5t1 -13.5q-2 0 -2 -2q0 -6 -1 -12t-1 -13q2 0 2 1t2 1q0 -8 -1 -14t-1 -14l-4 -2q0 -6 -1 -11.5t-1 -11.5l-4 -16q-4 -25 -8 -39v-4q-6 -25 -19 -43q-4 -6 -10 -11.5t-12 -11.5 q0 -4 -2 -6q-31 -35 -58.5 -60.5t-75.5 -35.5q-6 2 -6 6l-12 -2q-10 -8 -20.5 -14t-20.5 -13q-16 -10 -39 -12q-8 -4 -14 -4v-10l2 2q0 -8 -1 -15.5t-1 -15.5v-37q0 -31 8 -47v-16q0 -4 1 -9.5t1 -9.5v-88l4 -2v-12q18 6 29 6q18 -4 4 -18l-31 -19q-4 -20 -8 -31q2 -2 2 -8 v-13t-2 -15h-2l2 -2t2 -5q2 -2 -2 -6v-2l-8 -4q-12 0 -32.5 -1t-42 -2t-39 -3t-25.5 -2l-21 -6q-4 0 -4 -2l-2 2l-2 -2q-8 4 -8 8q-4 0 -10.5 1t-10.5 1q-8 4 -7 10t5 10q-2 2 -2 7q2 8 2 24q0 8 6 12q-2 16 -2 32v32h-2v174h-4q-12 4 -4 16l10 15v8l-2 -2v4h2v35 q-8 -4 -13 -6t-15 0q-6 2 -9 8q-2 4 0 10t4 10q-23 6 -38 17l-9 -2q-4 -2 -5 -1t-3 -1q-6 2 -6 6q-16 2 -28.5 11t-25 19.5t-24.5 18.5t-28 10q-2 -8 -3 -18v-8l-10 -5q-4 -20 -14 -35.5t-31 -0.5q-4 4 -9 8t-7 10q-4 18 -2 36.5t2 35.5l6 8v2q-4 -2 -10 -2q-8 2 -6 14 q4 14 12 25v16h-8q-8 4 -9 12q2 14 13 31q-2 18 -3 37t-1 39l-4 16q-14 6 -2 19v10h-9q-14 4 -6 14l49 15h4q4 2 11 2h6l8 -13q4 0 4 -6h2q2 4 6 5t8 -3q0 -2 3 -4q0 -2 -1.5 -3t-1.5 -3t-1 -3t-1 -3q2 0 2 -1t3 -1q8 -8 8 -18.5v-20.5q12 -23 14 -38t8 -30q4 0 5 -1t3 -1 l2 2q8 -8 15 -10v-16l2 -2l10 4v2h2v2q23 -10 48.5 -15.5t52.5 -7.5l-13 -4h39q-4 27 -6 57.5t8 57.5v27l4 6l4 22q-4 0 -4 6v3l-4 -5v21q-12 0 -4 16l4 4v19l2 2q0 6 -1 11t1 11q-2 0 -2 2h-2l-20 13v-4q-25 10 -44.5 18t-29.5 21h-8z" />
<glyph unicode="%" horiz-adv-x="1886" d="M1587 911q20 -2 45 -16q0 2 6 6q18 -6 39 -17.5t31 -27.5q4 -4 8 -4q20 -4 29 -8q14 -8 26.5 -18.5t22.5 -20.5h6q8 -2 8 -12q0 -2 -1 -3.5t-1 -3.5q23 -35 30 -77.5t9 -85.5l2 -2q6 -29 9.5 -56.5t-1.5 -56.5q-6 -37 -28.5 -78t-53 -83t-67.5 -79t-74 -63v-2 q4 -8 -4 -15.5t-12 2.5l-2 3q-25 -16 -55 -27l-13 -10q-16 -8 -34.5 -13.5t-36.5 -7.5q10 6 16 17q-16 -4 -36.5 -6.5t-41.5 -4.5l-6 -6q-12 0 -25 6q-29 0 -52 7.5t-34 23.5q-18 10 -33.5 26.5t-31.5 32.5q-39 45 -57.5 83t-24.5 73q-8 0 -12 2q-10 6 -9 14l19 27 q0 14 1 29.5t3 32.5v6h2q0 8 4 24q-2 -2 -4 -2v12l6 5l4 26l-6 -4q0 8 4 25q2 0 3 1t3 1l2 14l-6 8v10q-4 4 0 11l11 16q0 6 4 19v12q6 10 10 10q16 25 36.5 46.5t28.5 33.5q45 55 91.5 84t97.5 39q8 4 20 16q12 10 17 -6h4q-2 0 -2 -1t-2 -1v-2h4q8 4 10 6t10 0q2 2 10 2 q2 0 7 4q4 0 7 1t7 1l16 6q4 -4 6 -4l9 -2q2 0 2 1t2 1l12 -4zM1532 735q-10 -4 -12 2q-55 -12 -101.5 -42.5t-75 -76t-37 -98.5t12.5 -108q2 0 4 -2l6 -11q10 4 10 -6l4 -4t5 -12v-2q12 -12 28.5 -19.5t32.5 -13.5q27 -10 44 -14t34 -2q8 4 15 8t16 8l-9 -8q12 6 23.5 16 t28.5 27l51 53q10 20 26 37q8 12 11 20h2q23 49 14.5 88t-25.5 76l-6 8q-6 33 -38.5 49.5t-61.5 26.5h-2zM627 172q4 10 9 10t7 -6q2 4 4 7t4 7q-16 -4 -22 3.5t4 13.5q20 6 26.5 31.5t10.5 33.5q16 35 18 67t14 64l25 43q-6 10 4 17l27 45q-4 2 2 8l-2 2q-6 4 -5 9t5 10 l12 6q8 33 13 64.5t12.5 63t20.5 64.5t42 68l86 205q-6 -6 -12 1t0 13q10 14 23.5 33.5t23.5 42.5q-16 14 6 24l2 -2l2 2q0 4 2 6q4 10 12.5 33t18.5 51q-12 0 -16 2q-10 4 -9 15q4 12 16.5 22.5t28.5 20.5q0 2 1 2t1 2h-18l4 6l-22 -4l-4 -4q-4 -2 -17 4q-16 -4 -34.5 -6 t-34.5 -4q-2 0 -3 -2h-12q-23 -4 -45 -6.5t-45 -2.5q-4 0 -7 -1t-7 -1q-2 0 -6 5h-41q-10 -2 -17.5 -1t-15.5 3q-14 -10 -28.5 -16.5t-26.5 -8.5q2 -2 2 -10q-2 -2 -2 -6l36 -58q0 -4 1 -6t1 -6l3 2l4 -20q6 -29 9 -56.5t-1 -56.5q-6 -37 -28.5 -78t-53.5 -83t-68 -79 t-73 -63v-2q4 -8 -4.5 -15.5t-12.5 2.5l-2 3q-25 -16 -55 -27l-12 -10q-16 -8 -35 -13.5t-37 -7.5q10 6 16 17q-16 -4 -36.5 -6.5t-41.5 -4.5l-6 -6q-12 0 -24 6q-29 0 -52.5 7.5t-33.5 23.5q-18 10 -33.5 26.5t-32.5 32.5q-39 45 -57.5 83t-24.5 73q-8 0 -12 2q-10 6 -8 14 l18 27q0 14 1 29.5t3 32.5v6h2q0 8 4 24q-2 -2 -4 -2v12l6 5l5 26l-7 -4q0 8 5 25q2 0 3 1t3 1l4 22h-2l2 4l-4 2q-6 6 -4 15l10 16q0 6 4 19v12q6 10 10 10q16 25 36.5 46.5t29.5 33.5q45 55 91 84t97 39q8 4 21 16q12 10 16 -6h4q-2 0 -2 -1t-2 -1v-2h4q8 4 10 6t11 0 q2 2 10 2q2 0 6 4q4 0 7 1t7 1q10 4 16.5 6.5t20.5 2.5q12 0 33 -11h4v-2q4 0 6 -2q4 2 12 2h2v2h3q14 4 25 5t24 -3l8 -6q2 -2 2 -4v-2h16l6 -4q66 -4 133.5 -10t133.5 -11l16 9q12 2 12 -11q31 -2 62 -1t61 3q0 2 4 2v3h2q10 4 21.5 6t21.5 4q16 10 30.5 15t31.5 13l4 5 l12 8v2l10 8l15 2q35 12 78 16.5t79 8.5q14 0 15 -7l2 -8q6 -16 -10.5 -55t-38.5 -80q6 -6 6 -8q0 -16 -16.5 -33.5t-18.5 -23.5q-12 -29 -24.5 -57.5t-28.5 -57.5l10 35l-16 -37l-2 -4l-13 -37h6l-10 -19q0 -2 2 -4t2 -6q-16 -78 -52 -154.5t-77 -152.5l-6 -23q-2 -2 -4 -1 t-6 -3l-14 -22l6 2l-8 -4l-9 -23q0 -2 1 -3t1 -5l11 6l-9 -20q-2 0 -2 -2v-2q-10 -59 -31.5 -121t-43.5 -125q-10 -25 -26.5 -54.5t-14.5 -56.5q6 -14 -9 -16l-2 -2h-6q-2 0 -2 2q-2 -2 -2 -4q12 2 17 -10q-18 -29 -28.5 -46.5t-18 -32t-14.5 -31.5t-19 -48 q-8 -23 -11.5 -47.5t-15.5 -50.5q2 0 6 -5q12 -6 4 -14t-24 -4q-4 0 -6 2q-16 -6 -41 -12t-52.5 -10.5t-54.5 -6.5t-45 2q0 -2 -4 -2h-10q-23 4 -6 17q0 2 -2 2q0 8 6 12q2 0 4 2q10 45 27.5 66.5t39.5 50.5q11 18 15 47zM500 1192q-4 8 2 13t12 1q-4 4 -8 8.5t-8 8.5 l-21 12q-6 -4 -22 -4l-6 2q-4 8 -5 14q-10 2 -17 3t-17 -1q6 -10 -11 -14q-57 -10 -103 -42t-76 -76t-38 -98t13 -110q2 0 4 -2l6 -10q10 4 10 -6l4 -4t4 -13v-2q12 -12 28.5 -19t33.5 -13q27 -10 44 -14.5t33 -2.5q8 4 15.5 8.5t15.5 8.5l-8 -9q12 6 23.5 16.5t27.5 26.5 q23 23 42.5 43.5t35.5 47.5q8 12 10 20h2q14 31 14.5 57.5t-6 51t-16.5 49t-18 49.5z" />
<glyph unicode="&#x26;" horiz-adv-x="1497" d="M631 123l-4 -2q14 4 27.5 9t27.5 9q2 0 10 4l15 11q37 16 65.5 35.5t44.5 35.5l12 17q-8 10 -16 21t-18 22h-7q-6 4 -8 6q-2 4 -2 12q-37 43 -78 85t-75 85q-23 29 -42.5 57.5t-37.5 57.5q-6 0 -19 4q-6 6 -4 12l6 10l-14 25q-2 2 -4 2h-2l-23 -14l-16 -9h-2 q-12 -6 -24.5 -11t-24.5 -9q-66 -39 -99 -115q6 -8 0 -14q-8 -8 -10 -12q-16 -51 -13 -104.5t26 -102.5q12 -29 39.5 -50.5t50.5 -37.5t45 -32.5t51 -20.5q16 -4 33.5 -3.5t36.5 3.5l4 4zM567 942q0 -2 2 -4q10 -14 18.5 -30.5t12.5 -33.5q0 -2 -1 -3t-1 -3l4 2 q8 6 19.5 13.5t17.5 11.5q20 12 40.5 24.5t37.5 28.5q49 41 71 101q-4 4 -4 6q-4 10 13 22q8 41 1 83t-32 85q-14 20 -27.5 34.5t-29.5 23.5q-8 -2 -21 2q-8 0 -8 6q-4 2 -12 2l-56 -10q-4 -4 -8 -5q-33 -6 -57 -32q-4 -4 -5 -8.5t-5 -8.5l-2 -2q-18 -35 -23 -73l-8 -7 q-4 -47 9 -95t34 -91q8 -4 4 -10q4 -8 8 -15.5t8 -13.5zM137 117q-2 2 -2 6l-2 2q-10 8 -2 16l2 2l-24 52l-7 4q-6 8 -2 18q-8 18 -13 36.5t-9 37.5q-2 0 -2 4q-6 29 -8 51.5t2 38.5q12 47 28.5 107.5t40.5 101.5q6 10 16.5 18.5t20.5 16.5l8 8l4 2q0 4 7 8l16 6l14 9 q8 8 15 20q10 12 14 0l55 37q27 20 53.5 38.5t61.5 28.5q-4 4 -6 11.5t-6 13.5q-23 23 -40.5 55.5t-29.5 65.5q-47 86 -38 179t73 171h-8q-8 2 -7 14q8 14 39 34t68 38q55 35 123 51l-8 -6l10 4l4 2h2q29 10 55 13q0 -2 2 -2q4 0 10.5 1t10.5 1q31 16 53 24h2v-2 q14 -6 4 -16q-2 0 -2 -1t-2 -1h-2q-4 -4 -4 -2q29 -4 60.5 -16.5t86.5 -35.5q33 -14 48 -34q23 -18 37 -44t26 -51q2 -4 6 -14t7 -19.5t5.5 -16.5t0.5 -5q10 -14 -5 -18q14 -74 -12 -150t-74 -135h2q10 -4 9.5 -10t-11.5 -11q-16 -4 -24 -8q-47 -49 -96 -78q-8 -4 -20.5 -15 t-27 -22.5t-29 -20.5t-24.5 -11l15 -29l10 -14h-2l12 -21l2 2l23 -32l16 6l8 -4q2 0 2 -2q10 -6 2 -15l-12 -14l4 -4l2 2l10 -14l-2 -2l15 -17l2 2l2 -4q10 -4 8 -12l16 -19l4 -6q10 -12 20.5 -24.5t20.5 -22.5q4 0 5.5 -1t5.5 -1q4 -8 2 -10q16 -16 31.5 -29.5t31.5 -23.5 q0 6 8 10q12 35 23.5 62.5t21 54t15.5 55.5t10 63q4 31 3 66t-28 47q-12 -6 -22 -2l-8 6h-2q-4 0 -4 2q-8 0 -9 10v18.5t-4 18.5q0 10 8 10l3 3q31 -2 61.5 -4.5t60.5 -6.5l11 6h30q-2 0 -3 -1t-3 -1l-8 -6h20q0 6 -2 8l52 2l-21 -10h26.5t26.5 4q18 2 48 11.5t55 5.5 q6 6 14 4q10 -6 22.5 -16.5t18.5 -20.5v-4q2 -6 -5 -11.5t-11 1.5l-27 -7l-18 -6q-16 -6 -27.5 -15t-24.5 -22q-8 -86 -37.5 -145t-66.5 -123l-4 -8h-2l-27 -51l-12 -19q8 -4 2 -14h2l-16 -12q-16 -41 -35 -62q33 -20 78 -59q8 6 16 6q10 -2 10 -12q0 -4 -1 -6t-1 -7 q41 -35 86 -60.5t86 -18.5q29 4 50.5 29.5t44.5 43.5q-2 4 3 9.5t13 3.5q12 -6 19.5 -15.5t15.5 -19.5q4 6 10 3t6 -13l-4 -2q4 -8 -2 -15q-4 -2 -20.5 -21.5t-34.5 -41.5q-20 -31 -51 -61.5t-78 -55.5q-76 -37 -154 -21l-18 -4l-7 2l-4 11q-51 16 -95 51t-73 82l-6 -4 l-71 -41q-6 -8 -11.5 -15.5t-9.5 -13.5q-4 -8 -12 -6t-6 12q-37 -20 -70 -34.5t-67.5 -23.5t-75.5 -14.5t-92 -7.5l-11 -8q-59 2 -105 6t-86 16.5t-75 33t-74 53.5l-2 2q-6 2 -8 8z" />
<glyph unicode="'" horiz-adv-x="196" d="M51 928q-8 4 -7 9t7 9l-2 6l-12 -16q2 4 -2 43q2 0 2 1t2 1q-14 51 -19.5 105.5t-13.5 103.5l-4 18l-14 -6q-10 6 -8 15l16 26q-4 29 -7 59.5t5 55.5v4q2 0 4 2q4 20 33 41q33 20 46 25.5t42 -3.5q8 10 16 3l4 -5v-2h2q10 -6 6 -14q18 -10 31 -31q0 -4 4 -8l2 2 q0 -2 1 -2t1 -2l-2 -2q14 -35 15.5 -93.5t-4 -122t-16.5 -121.5t-21 -91l-6 -6v-2h-7l2 2q-8 0 -8 10l-41 -6l-4 -2h-10l-33 -6v0z" />
<glyph unicode="(" horiz-adv-x="595" d="M250 1280l8 12l14 25q-2 -2 -4 -2l29 39l68 116v3q-4 4 2 12q23 18 49 51t37 59q6 10 14 2l6 5q2 0 2 -1.5t2 -1.5q6 2 8 -2q39 -10 79 -32.5t59 -55.5q4 -8 -1.5 -13t-15.5 -1l-2 2q-20 -23 -34.5 -46.5t-27 -48t-25.5 -49t-32 -46.5q-18 -23 -32.5 -36.5t-30.5 -35.5 q12 -4 0 -16l-23 -21l-10 -20q-6 -16 -13 -29.5t-11 -30.5q4 -4 0 -10l-7 -6q-18 -49 -31.5 -98.5t-25.5 -98.5l-22 -102l-3 -23h-2l-4 -30l4 2v-21l-6 -2q0 -6 -1 -12t-1 -10l6 2v-29l-8 -6q0 -20 2 -31q2 2 3 1t3 1v-10q-4 -4 -6 -4l6 -29l2 2v-8q2 -10 15 -27 q4 -20 -13 -16v-2q-2 -2 -6 -2q0 -6 1 -11.5t1 -9.5q4 0 7 2q2 -8 2 -22l-5 -4l5 -35l6 4q0 -10 2 -16l-4 -4q0 -4 1 -7.5t1 -7.5q2 0 4 2q0 -2 1 -4t1 -4l-4 -2q0 -8 4 -20l4 2q0 -8 4 -21l-4 -4q4 -20 8 -31l2 2q0 -4 1 -5t1 -5l-2 -2l6 -24l2 2q0 -4 1 -6.5t1 -6.5 q4 -16 9 -26l2 -2l-2 -2q4 -14 8 -27.5t8 -28.5q2 0 2 1t2 1q8 -2 8 -14l-4 -8q4 -10 9.5 -21.5t11.5 -21.5q0 -2 1 -2t1 -2l30 -68h3q10 -2 10 -12q-2 -2 -2 -6q59 -109 149 -226q23 0 15 -18q4 -10 2 -16.5t12 -16.5q4 -6 2 -8q4 0 8 1t8 1q10 -4 9 -10t-11 -10 q-16 -2 -30.5 -10.5t-30.5 -18.5q-27 -27 -51 -41l-2 -2l-2 -2q-6 -6 -15 -2q-33 29 -57.5 57.5t-46.5 61.5q-23 -10 -35 -7q-12 4 -4 17q4 8 16 20l-26 37q-27 37 -57.5 73t-53.5 75q-23 35 -41 73.5t-35 79.5q-18 35 -44.5 84t-26.5 92q-8 2 -7 15q-8 16 -12 35.5t-8 39.5 q-23 57 -31 123q0 4 4 9v32l-2 2q-8 8 -9 27.5t1 41t6 40t4 29.5q12 59 37 118q2 12 3 25.5t5 26.5q4 27 19.5 44t25.5 40l7 12q-2 -2 -5 -2l5 8l2 2q4 6 8 23q-2 0 -2 -3l4 9q4 20 18 47q12 25 25.5 48t28.5 46l-3 -2l7 10l4 2l12 21l-4 -2l16 28l8 4l13 19q-4 -4 0 3t8 11 z" />
<glyph unicode=")" horiz-adv-x="595" d="M344 14l-8 -12l-14 -25q2 2 4 3l-29 -39l-68 -117v-2q4 -4 -2 -12q-23 -18 -49 -51t-37 -60q-6 -10 -14 -2q0 -2 -6 -4q-2 0 -2 1t-2 1q-6 -2 -8 2q-39 10 -79 32.5t-59 55.5q-4 8 1 13t16 1l2 -2q39 45 60.5 94.5t58.5 96.5q18 23 32.5 36t30.5 35q-12 4 0 17l23 20 l10 21q6 16 13 29.5t11 29.5q-4 4 0 10l7 7q18 49 31.5 98t25.5 98l22 103l2 22h2l5 31l-5 -2v20l7 2q0 6 1 12.5t1 10.5l-6 -2v28l8 7q0 20 -2 30q-2 -2 -3 -1t-3 -1v10q4 4 6 5l-6 28l-3 -2v8q-2 10 -14 27q-4 20 12 16v2q2 2 7 2q0 6 -1 11.5t-1 9.5q-4 0 -7 -2 q-2 8 -2 22l4 5l-4 34l-6 -4q0 10 -2 17l4 4q0 4 -1 7t-1 7q-2 0 -4 -2q0 2 -1 4t-1 4l4 2q0 8 -4 21l-4 -2q0 8 -4 20l4 4q-4 20 -8 31l-2 -2q0 4 -1 5t-1 5l2 2l-6 25l-2 -2q0 4 -1.5 6t-1.5 6q-4 16 -8 27l-2 2l2 2q-4 14 -8 27.5t-8 27.5q-2 0 -2 -1t-2 -1q-8 2 -8 14 l4 9q-4 10 -9.5 21t-11.5 22q0 2 -1 2t-1 2l-31 67h-2q-10 2 -10 13q2 2 2 6q-59 109 -149 225q-25 0 -15 18q-4 10 -2 16.5t-12 16.5q-6 4 -2 8q-4 0 -8 -1t-8 -1q-10 4 -9.5 10.5t11.5 10.5q16 2 30.5 10t30.5 18q27 27 51 41l2 2l2 2q4 4 15 3q33 -29 57.5 -57.5 t46.5 -61.5q23 10 35 6t4 -16q-4 -8 -16 -21l26 -37q27 -37 57.5 -72.5t53.5 -74.5q23 -35 41 -74t35 -80q18 -35 44.5 -84t26.5 -92q8 -2 7 -14q8 -16 12 -36l8 -40q20 -59 31 -123q0 -4 -4 -8v-33l2 -2q8 -10 9 -28.5t-1 -40t-6 -41t-4 -27.5q-12 -59 -37 -119 q-2 -12 -3 -25.5t-5 -25.5q-4 -27 -19.5 -44.5t-25.5 -39.5l-7 -12q2 2 4 2l-4 -9l-2 -2q-4 -6 -8 -22q2 0 2 2l-4 -8q-6 -20 -18 -47q-12 -25 -25.5 -48.5t-28.5 -46.5l2 2l-6 -10l-4 -2l-12 -20l4 2l-16 -29l-9 -4l-12 -19q4 4 0 -3t-8 -11z" />
<glyph unicode="*" horiz-adv-x="1024" d="M8 1192q4 12 12 8q4 27 19.5 44.5t44.5 17.5q8 0 14 -2q2 2 11 2l-5 -5l29 -8h6l6 4l2 -2q-2 -2 -4 -2q27 -2 51.5 -11t43.5 -30v-10l63 -35q4 -8 4 -10l10 -6h9q20 -12 28 -16.5t13.5 -7.5t13.5 -7t29 -16q6 -8 0 -15l41 -30l-5 14q-12 -4 -12 10q0 35 -11 57.5 t-22 51.5q-6 2 -8 8q-4 14 -6 27.5t-6 25.5q-6 2 -6 11v2q0 2 -1 3t-1 3q-4 6 0 11t10 3v21q-12 -4 -12 10q4 18 11 32.5t11 24.5q2 16 12 33v10q2 12 11 8q20 33 45 45q0 2 6 7h6q14 8 29 10q6 0 8 -4q8 0 20 -4q12 8 33 14q8 -2 8 -14q-2 -4 -4 -8.5t-6 -8.5 q29 -27 38 -79t7 -111v-27.5t-2 -30.5v-2h-2l-6 -47q6 -6 0 -12q-4 -12 -5 -24.5t-3 -22.5q2 -4 1 -5t-1 -3q-2 -12 -3 -21.5t-1 -17.5l24 22q0 8 2 13q10 16 28.5 31.5t35.5 25.5q4 4 6 7t4 5q4 8 10 4l4 4q10 6 24.5 16.5t35.5 24.5q6 4 10 0l43 31q16 8 26.5 12t20.5 6 q6 4 13.5 5.5t15.5 5.5q12 2 12 -8q2 0 3 -1.5t5 -1.5l10 9q6 4 13 0q2 0 3 -1t3 -1q8 -8 0 -17l-4 -4q10 -6 18 -14t17 -15q35 -33 38 -57t-13.5 -43.5t-45.5 -35t-57 -27.5q-25 -12 -51 -19l-9 -4q-2 0 -3 -1t-5 -1q-16 -6 -31 -6q-8 -4 -10 -4l-18 -8q-2 -4 -10 -4 q-27 -10 -78 -27q10 -6 2 -14q-2 -2 -2 -5q4 -2 14 -2q4 8 16 7q16 -10 33 -16.5t33 -12.5q8 -2 8 -12l10 -7h11q12 -8 25.5 -14t27.5 -12q8 -4 8 -8v-2q6 4 12 -2q6 -8 14.5 -13.5t16.5 -11.5l23 -21h6q10 -10 22.5 -19t16.5 -26q0 -2 -2 -4q6 -8 12 -15t2 -15 q-4 -10 -5 -11.5t-5 -5.5q-2 -14 -10 -28l-5 -2q-6 -18 -16 -27q-4 -4 -10 -4q-8 -4 -10 -4q-16 -6 -31 -6q-14 -6 -29.5 -7.5t-25.5 13.5h-3l-18 6q-4 2 -8 2q-2 0 -3 1t-3 1q-31 14 -60 31q-8 2 -13 5t-9 7l-4 4q-23 6 -37 25q-61 43 -96 86q0 -4 1 -10.5t1 -10.5 q14 -14 17 -33.5t3 -38.5l-4 -4q8 -53 12 -105t-6 -106v-4l-2 -2q0 -6 -2 -10q-6 -25 -26.5 -40t-45 -19t-51 1t-47.5 19h-2q-8 0 -8 8q-10 10 -18.5 23.5t-12.5 30.5q-6 0 -6 10q0 16 -1 30.5t3 30.5q4 10 10 10v7q4 18 7.5 35.5t5.5 33.5v2q-4 0 -5 11q4 29 15.5 48 t13.5 40q4 12 12 8q0 6 2 10h-4q-8 4 -8 12q0 18 15 33l-25 -18q0 -2 -2 -4q-14 -12 -26.5 -30t-28.5 -28l-33 -30q-8 -6 -12 2q0 -2 -3 -2q6 -6 -2 -15q-18 -10 -33.5 -23.5t-37.5 -23.5q-12 -2 -15 6l-16 -10q0 -4 -10 -8q-4 0 -5 -1t-5 -1q-33 -14 -45 -15 q-10 -2 -20.5 -1t-20.5 3q-8 0 -21 5l2 2l-22 8q-4 0 -7 2q-20 4 -38.5 16.5t-22.5 34.5q0 4 4 8q-8 23 -2 43q-8 4 -7 10.5t9 10.5l8 4l6 8q6 8 34 22.5t61 28.5l8 4q0 6 8 11h12l19 8h2l22 12q2 2 2 3t4 3q37 20 66 31h6q35 14 70 22v7q-16 4 -38 12t-46 18q-2 -2 -4 -2 q-18 4 -41 8.5t-43 14.5q-12 2 -24.5 6t-20.5 14q-4 6 0 10l-37 15q-6 -6 -15 0l-10 10q-6 2 -6 10q-10 10 -16 33q-4 4 -4 10q-2 2 -2 6q-4 0 -5 7q-2 4 -1 6t1 6q-4 -4 -9 -2t-5 10q0 10 1 19.5t1 17.5z" />
<glyph unicode="+" horiz-adv-x="911" d="M369 655q6 10 11 6t5 -14l-4 -8l35 18q20 18 51 35q2 6 10 19q-29 -16 -57.5 -31.5t-52.5 -15.5q-2 0 -5 -2q0 -4 -2 -7q-4 -6 -47 -7t-100 0t-113.5 2t-85.5 1q-2 0 -2 -2h-8l-2 2q-2 0 -2 6v2q0 14 4 34t7 40.5t4 39t-7 28.5q-4 8 2 14l-2 4h19q2 2 6 2l4 -2 q78 -2 154.5 -6t154.5 -4l6 16q4 10 8.5 10.5t8.5 -6.5q0 4 2 7v6q-16 0 -23 2q-8 2 -6 14q8 16 27 35l-7 96q-16 -4 -24 0q-10 6 -4 19q12 18 28 34v41q-8 0 -10 7.5t6 11.5l4 2v22q-8 6 -2 19q14 14 37 17t46.5 2t46 -3t40.5 4q14 -6 7 -14q2 -2 2 -6q-4 -6 -5.5 -21.5 t-3.5 -38.5l17 5q16 -4 6 -17q-4 -8 -10 -14t-13 -12v-33q12 2 19 0q8 -8 -2 -17l-15 -10q2 -55 6.5 -104t8.5 -60v-2h49q6 0 10 2q2 -2 6 -2q66 0 130.5 -2t127.5 -10q6 -2 9 -8l2 2v-6q4 -4 4 -13q0 -2 1 -18t1 -37.5v-45.5t-2 -40q6 2 8 -4t-4 -12t-44 -6t-88 5 t-101.5 10t-86.5 7v-6q-2 -2 -2 -4h2q-4 -4 -4 -2l-16 -19q0 -43 1 -86t1 -86q6 0 6 -12l-6 -18v-84l2 -23q4 -12 -4 -14v-8q-4 -6 -11.5 -6.5t-7.5 10.5v6h-8q-31 -10 -62.5 -14.5t-66.5 -8.5q-6 -4 -6 2h-2q-2 0 -3 -1t-3 -1q-10 -6 -10 11v6h-9q-12 4 -4 16q2 4 11 12 v20.5t-2 22.5q-6 2 -7 13q0 4 4 12v33h-6q-8 6 -6 14l10 14q-2 10 -2 18.5v16.5q-10 8 0 19q-2 53 -0.5 97t11.5 62z" />
<glyph unicode="," horiz-adv-x="323" d="M6 -178q-4 6 0 12v2l4 2q2 2 4 2q12 23 28.5 40.5t32 33.5t29 35.5t19.5 46.5h-10h-19q-29 0 -49 14q-6 4 -11 11.5l-9 13.5q-4 4 -6.5 8t-4.5 10l-6 21q-4 12 -4 16v23v14v2l6 23h-2q2 8 10 20t15 18q-4 4 6 13h6q14 8 29 14l4 -4q33 10 65 4l-10 -6q31 2 57.5 -5 t38.5 -28q16 -35 21 -78q6 -16 6 -30l-2 -2q0 -2 1 -4.5t1 -4.5q0 -10 -2 -16t-4 -10l-4 -4v-2l4 4q2 0 6 4l-6 -51l-14 -9l-7 -26l15 8q-4 -8 -4 -12l-11 -6l-6 -19l8 6v-2l-8 -6q-4 -4 -4 -10l-12 -23l10 6l-18 -28q-8 -4 -13 -8q-23 -29 -50 -57.5t-52 -43.5q0 -2 1 -2 t1 -2q4 -8 -4 -15t-12 3l-2 8l-5 -6l-4 4q-18 8 -2 20q-2 4 -10 13l-4 -4l-6 8q2 0 2 2l2 2q-8 10 -17.5 19.5z" />
<glyph unicode="-" horiz-adv-x="649" d="M29 657q-10 4 -6 11q-2 2 -3 4h-2v4q0 4 -1 8t-1 8q-4 -2 -12 -2q-8 2 -8 12q4 10 8 23.5t12 26.5v20q-10 -2 -12 6t6 13q2 2 4 2t6 2v8h-8q-8 4 -7 10t9 10h131q6 6 19 15q8 6 11 2t3 -13q0 -2 -1 -2t-1 -2q10 0 18.5 1t16.5 1l10 6q8 2 12 -6q96 4 191.5 6.5t193.5 2.5 l5 -5q4 4 9 1t5 -11q0 -33 -3 -65.5t-3 -67.5l2 -35q4 -6 2 -8v-8q0 -8 -7 -11t-12 7v2q-6 0 -10 2l4 2h-26l-2 -2h-7l3 2q-96 0 -191.5 3t-191.5 7q-41 2 -82 8t-84 2z" />
<glyph unicode="." horiz-adv-x="288" d="M25 53q-14 25 -8 61t28 58q4 10 12 16q-6 6 4 15v2q2 0 2 1t3 1q10 6 19 8t19 4q2 0 2 2v4h7l28 8q8 -2 11 -8v-4q39 -8 65 -41l2 4l2 -8h4l11 -8q27 -8 26 -45q0 -12 -8 -12v-9h2q16 -6 4 -18l-2 -2q2 -2 2 -6l-6 -10q6 -8 0 -15l-6 -6q-2 0 -2 -2q-18 -10 -34.5 -17.5 t-35.5 -11.5q-2 0 -2 -2h-2q-16 -4 -33.5 -7t-34.5 3q-8 0 -8 8q-4 -4 -8 -2q-20 6 -35 25l-8 4q-6 2 -6 8q0 2 -2 2q-8 -2 -12 0z" />
<glyph unicode="/" horiz-adv-x="794" d="M98 174q4 10 9.5 10t7.5 -6q2 4 4 7t4 8q-16 -4 -22.5 3t3.5 13q20 6 26.5 31.5t10.5 33.5q16 35 18.5 67t14.5 65l25 43q-6 10 4 16l26 45q-2 4 7 12v2q12 35 17 70t12 69.5t20.5 69.5t44.5 72l86 205q-6 -6 -12.5 1t-0.5 13q10 14 23.5 33.5t24.5 42.5q-16 14 6 24 l2 -2l2 2q0 4 2 6q10 23 22.5 56t34.5 106l9 3t8 1l43 119q-10 10 -2 19l12 8v2l10 8l14 2q35 12 78 16.5t80 8.5q14 0 14 -6l2 -9q6 -16 -10 -55t-39 -80q6 -6 6 -8q0 -16 -16 -33.5t-18 -23.5q-12 -29 -24.5 -57.5t-29.5 -57.5l11 35l-17 -37l-2 -4l-12 -37h6l-10 -19 q0 -2 2 -4t2 -6q-16 -78 -52 -154.5t-77 -152.5l-6 -22q-2 -2 -4 -1t-6 -4l-15 -22l6 2l-8 -4l-8 -23q0 -2 1 -3t1 -5l10 6l-8 -20q-2 0 -2 -2v-2q-10 -59 -31.5 -121t-44.5 -125q-10 -25 -26.5 -54.5t-14.5 -56.5q6 -14 -8 -16l-2 -2h-6q-2 0 -2 2q-2 -2 -2 -4q12 2 16 -10 q-18 -29 -28.5 -46.5t-17.5 -32t-14 -31.5t-20 -48q-8 -23 -11 -47.5t-15 -50.5q2 0 6 -4q12 -6 4 -14.5t-25 -4.5q-4 0 -6 2q-16 -6 -40.5 -12t-52.5 -10t-54.5 -6.5t-44.5 2.5q0 -2 -4 -3h-11q-23 4 -6 17q0 2 -2 2q0 8 6 12q2 0 4 2q10 45 27.5 66.5t40.5 50.5 q10 18 14 47z" />
<glyph unicode="0" horiz-adv-x="1058" d="M795 428q4 35 12 65.5t18 59.5q2 61 10.5 120.5t12.5 119.5q-4 18 -6 37.5t-2 39.5v7l-29 196q-4 0 -7 -1t-7 1q-8 4 -9 10q2 12 11 27q-16 39 -43 72q-2 -6 -7.5 -8.5t-9.5 8.5l-6 28q-29 29 -58.5 55.5t-56.5 53.5q-2 2 -2 6q-6 0 -10 4h-6q-2 0 -6 4q-6 0 -8 2 q-6 0 -6 4l-35 -4q-20 -4 -38 -17t-34 -30q-2 -2 -2 -4v-4l-2 -2q-16 -20 -30.5 -40.5t-26.5 -43.5q-2 -4 -2 -10l-7 -6q-27 -53 -42 -112.5t-21 -119.5v-8q-2 -10 -2 -18.5v-16.5l-4 -4q-6 -43 -15.5 -86t-15.5 -86q12 4 16 4q16 -6 5 -18q-6 -4 -11.5 -10.5t-9.5 -10.5 v-27.5t4 -27.5l4 -23l21 4q16 -4 8 -16q-4 -8 -10 -14t-11 -13l15 -47l4 -6q0 -10 2 -14q0 -2 1 -3t1 -3q8 0 8 -13q-2 -4 -2 -6t-2 -4l6 -45q8 -43 25 -94h6q8 -2 8 -14l-4 -17q20 -57 50 -103t69 -67q0 2 1 2t1 2l18 -6q-2 -2 -4 -2h4l6 -4q6 0 23 4q45 10 86 41t71.5 71 t51 86t24.5 87zM938 293q10 6 14 0t-4 -14q-14 -14 -30.5 -36t-34.5 -50q-2 -4 -2 -11q-4 -6 -11 -6q-16 -23 -32.5 -44t-34.5 -44q4 -8 -2 -14l-27 -19q-35 -39 -73.5 -61.5t-79.5 -16.5q-45 -10 -99.5 -7t-79.5 14q-145 57 -240.5 161.5t-129.5 249.5l-2 2 q-10 31 -18.5 75t-14.5 93h-4l-8 4q-4 10 -2 25l-7 -4q-2 2 -2 4t-2 6q4 4 4 8v13l13 14q-2 10 -3 21.5t-1 21.5l-15 -6q0 8 -4 20l19 8q-2 2 -2 5v67h-7q-8 2 -8 12q4 14 15 23l4 37v4q-2 2 -2 6q0 14 8 25q2 12 8 22v21q-4 -2 -10 -2l-6 2q0 2 -5 6q-2 4 0 10q6 16 31 45 q18 92 66.5 176t113.5 152h-2l9 8v4q10 29 35.5 43t48.5 31q14 10 27 25.5t30 27.5q33 10 64.5 24.5t62.5 24.5q8 -6 16 -6q43 2 86 -7t84 -26q2 0 3 -1t3 -1q25 -10 49.5 -22.5t47.5 -24.5q10 -14 -7 -18q0 -2 3 -2l8 -11l15 7.5t11 7.5q16 10 17 -11q-6 -16 -23 -32 l27 -33q29 12 47 6q8 -8 -2 -16l-23 -21l9 -8l2 2l6 -10l2 -4l2 -2h-2l10 -17h2l12 -20h-2q16 -25 28.5 -50.5t23.5 -52.5q14 -37 20 -82l4 -6q16 -8 0 -16v-6l4 2q0 -6 2 -10h-2q2 -2 2 -11q0 -2 -2 -2l4 -8q0 -4 4 -12q8 -20 15.5 -69.5t17.5 -86.5q-2 2 -6 2v-104 q4 -16 10 -31q0 -8 -1 -15t-1 -16l-8 -34l-4 -72q0 -6 -2 -8q-4 -31 -9 -60.5t-16 -58.5l15 4l-7 -25l-14 -4l-24 -57q-10 -23 -31 -53z" />
<glyph unicode="1" horiz-adv-x="645" d="M481 555v-20l6 4v-4q-2 -2 -6 -3v-14q16 -6 6 -24v-11l-6 -4v-22l6 4v-25q-4 -4 -6 -4v-24l6 4v-17l-6 -4q25 4 23 -6t-17 -27v-28q-2 0 -2 -2q0 -20 2 -29v-6q0 -18 2 -29q12 -6 3 -16h-3q6 -55 17.5 -98.5t28.5 -65.5q27 -2 69 0l4 -2q12 8 13 -12q0 -4 2 -11 q2 -4 2 -11t2 -15q2 0 4 2q10 6 14 0t-4 -15q-4 -4 -12 -4q-2 -2 -2 -4q-8 -6 -15 0q-35 -6 -102.5 -9t-138 -4t-131 -1h-80.5q-8 4 -8 9t6 9q-4 14 -6 27.5t1 22t13 13.5t33 5l4 -4q29 4 49 16q-2 20 7 39t15 41l-6 -4v18q-12 0 -4 17l6 10h-2v6l2 2l4 23q-2 0 -4 -2v20 q2 0 6 4v15q-6 -2 -11 -2h-9q-10 6 -4 18q12 8 18 14v7l2 2q0 12 -2 18v4q-4 35 -6 66.5t-4 66.5q0 4 2 6q-6 31 -7 69t1 78t6 80t8 74q-4 41 -6 82l-4 82q0 4 4 8v3q-4 35 -7 70.5t-5 72.5q0 2 -1 4t-1 6q-2 2 -2 6q-18 -4 -25 -2q-12 4 -4 17l4 2v2l27 18l-12 33 q-6 -6 -11.5 -3t-3.5 9q-4 0 -6 2l-39 -24l-57 -52q-6 -10 -13.5 -21t-15.5 -22q-8 -8 -16 0q-4 -4 -10 2q-4 -6 -13 0q-20 35 -30.5 72t-18.5 78q0 6 4 9t8 1q16 14 37 21.5t37 17.5q63 43 122.5 87t127.5 73l2 2q18 20 51 24t64 11q6 8 12 2l8 4l6 -4q12 8 13 -13v-30 q0 -45 1 -90.5t3 -90.5q2 0 6 -4l2 -4q4 -6 -2 -12q-4 -4 -4 -6q0 -25 1 -49.5t1 -49.5q-6 -8 -15 -8q2 -2 3 -6v-2q6 -47 11 -102.5t-11 -98.5q-2 -57 -3.5 -113.5t-1.5 -113.5v-61l-6 -7v-45q2 0 6 5v-19z" />
<glyph unicode="2" horiz-adv-x="964" d="M449 -27q-6 4 -7.5 8.5t2.5 8.5h-88q-6 6 -6 4h-149l-8 -4q-23 0 -45.5 -1t-45.5 -5q-8 2 -8 10h-61q-8 4 -7 10t9 10v19q-2 6 -2 18l-6 23q0 2 -1 2t-1 2q-2 4 0 10q12 25 31.5 33t41.5 31l31 32q4 6 10 11.5t11 13.5q2 0 4 2l71 80l31 35q-6 -6 -18 -15l53 64q4 0 4 2 q-4 6 2 14q10 10 22.5 17.5t24.5 17.5l21 23l-21 -15l25 33l24 16l35 43l-20 -14l22 27l14 10l21 26l-10 -6l51 68h-6q-12 4 -4 16l4 2v2q10 6 18 11.5t19 9.5q4 4 8 12v2l18 31l27 51h2l6 17q-6 0 -6 10q2 10 9 16t15 12l2 5l-4 -3v5l7 4q2 4 4 9t4 11q-12 8 4 17l8 26 l-4 -2q4 10 6 21.5t4 21.5h2q-4 4 -4 10q0 10 2 18.5t4 16.5q-4 8 2 17q-2 14 -2 27.5t-4 27.5v2q-4 18 -7 26.5t-13 16.5q-8 16 6 16l-8 25l-7 8q-2 27 -28 43q-4 6 0 12v2l-4 5q-2 2 -3 4t-3 4q-4 8 -15.5 11t-21.5 9q-2 2 -2 6q-8 4 -16.5 7.5t-18.5 7.5h-12q-6 0 -7 4 l-20 4q-4 -4 -8 -4q-23 0 -45.5 -3t-46.5 -3q-2 0 -9 6q-12 -4 -18 -4q-4 0 -8 4l-39 -8l-10 -9q12 -4 0 -16q-10 -6 -21.5 -11t-15.5 -18q-6 -10 -15 -6q-4 -4 -8 -12q0 -4 -2 -6l-12 -21v-2l-4 -4q-14 -20 -29.5 -34.5t-34.5 -10.5h-10q-2 0 -3 -1t-3 -1q-8 -4 -12 2t0 10 q-18 18 -27 41h-2l-6 8l4 3q-4 8 -6 14t-4 14q0 -2 -2 -2q-4 16 -2 27q0 25 6 37v2q-4 8 4 14q2 0 6 4l12 23v2q-10 23 10.5 42t40.5 23q4 -4 5 -4q0 6 6 10q23 12 38 29.5t42 22.5l2 -2q35 27 78.5 35t87.5 8q4 -4 4 -5q8 2 22 4.5t29.5 3.5t29 0t21.5 -8q147 -29 238 -114 h4q14 -10 22 -21.5t15 -25.5q12 -16 22 -34t18 -38q2 0 7 -6v-6q20 -51 32 -121l2 -2v-6q0 -10 2 -15q0 -4 -2 -6q4 -51 4.5 -101t-20.5 -98l-6 -22q6 -4 6 -12q-2 -10 -7 -20.5t-9 -22.5q-4 -6 -9 -6l-18 -46q-4 -20 -14.5 -44.5t-26.5 -36.5l-35 -56q-6 -12 -14 -23.5 t-12 -25.5q-6 -6 -13 -6q0 -2 -2 -2q0 -6 -4 -10q-6 -8 -14 -17q-6 -8 -12.5 -16t-8.5 -16q-8 -8 -12 -7q-12 -16 -25.5 -31.5t-27.5 -31.5q0 -8 -4 -12t-13 -9l-12 -16l-4 -4l-8 -12l-8 -4l-35 -41q2 -2 2 -9q0 -4 -2 -11t-4 -13q-4 -6 -11.5 -6t-7.5 8l-6 -6h2l-18 -21 l-10 -14q4 0 5 -6t-3 -10q-8 -8 -14.5 -15.5t-12.5 -17.5q-8 -10 -14 -4l-6 -13l16 7q8 -2 8 -15q0 -2 -2 -2q16 -2 30.5 -5t28.5 -3q10 0 22.5 -1t29.5 -3q25 12 43 12q10 -6 8 -14q6 0 13 -1t16 -1q6 6 12 0q16 0 32.5 1t32.5 1q16 4 29.5 8t30.5 8l8 -6q16 4 30.5 8 t26.5 13q2 6 8 6q33 20 41 57q4 10 9.5 9t7.5 -7h2l2 -2h49q10 -6 8 -14v-4l-4 -7q2 -4 -2 -8q-16 -35 -27.5 -70.5t-21.5 -70.5v-8q0 -2 -4 -11q-2 -4 -2 -6l-2 -2l-13 -57q6 -4 -2 -12v-2q-4 -6 -11 -6.5t-7 10.5l-39 6q-8 -8 -12 0q-18 0 -35.5 -1t-34.5 -1 q-18 -2 -35 -2h-100l-4 -4t-6 -4q-35 0 -69.5 -4.5t-69.5 -4.5z" />
<glyph unicode="3" horiz-adv-x="894" d="M770 877q-4 -2 -8 -3q-10 -16 -22.5 -30.5t-30.5 -24.5l-4 -4q-4 -6 -11 -12q-12 -12 -22 -12q-6 0 -6 4q-2 -2 -4 -2l28 -23l4 2q8 -4 8 -10q74 -49 109 -110.5t41 -133.5l2 -2q0 -12 2 -18l-2 -2v-35l4 2v-19l-4 -4q2 -25 0 -49l2 2l-4 -18l-6 -33q4 2 7 -3t-1 -11h2 l-6 -4l-12 -13l-17 -32v-3l-12 -32h2l-6 -11q-10 -25 -25.5 -46t-38.5 -40q-4 -2 -8 -2l-18 -22l-2 -2q-6 -10 -14.5 -19.5t-24.5 -11.5h-2l-4 -4t-11.5 -9t-15.5 -9q0 -2 -4 -7q-10 -8 -24.5 -14t-28.5 -8q-12 -6 -24.5 -11t-22.5 -10q6 -6 -3 -14q-10 -8 -25 -10l-30 -4 q-8 2 -8 10q-10 -4 -19.5 -5t-19.5 -3q-16 -4 -31.5 -7t-31.5 -8q-29 16 -64 14.5t-70 -7.5q-88 23 -153 45l-8 8t-9 8q-12 8 -22 21l-16 12q-8 4 -6.5 9t6.5 9q-4 12 0 24.5t14 22.5q6 18 22.5 28.5t34.5 14.5l8 -6l27 6q0 8 10 13q23 0 44.5 -4.5t43.5 -4.5q6 -6 7 -6 l26 -6l35 -8l6 4q10 0 22.5 -3t22.5 -3q8 -4 8 -8q16 -4 25 -4l6 4q10 0 20.5 -2t20.5 -2l2 -2q10 2 17.5 2t17.5 4q0 2 -1 2t-1 2q-4 10 2 16t14 -2v-2q16 0 38 7t26 24q6 8 12 2l20 22q0 8 11 13l12 16l23 31q2 12 7 22.5t11 20.5q6 8 10 4l13 27l-5 -5l-8 -10 q-8 -8 -12 -2t0 14q10 12 13 26.5t5 29.5q4 10 8.5 10t8.5 -6v8q-4 0 -6 2q-4 4 -4 6l-9 -6q0 4 -1 9t-1 10l11 8q-18 -6 -34 -9.5t-20 1.5q-10 8 -2 16l16.5 16.5t24.5 20.5l-2 6q-33 55 -84 100q-10 -2 -18 -3t-15 3q-8 6 -2 17l6 6q-10 8 -21 15l-22 14q-4 -2 -8 2h-12 q-10 2 -6 12q-18 2 -45 10h-76q-16 -8 -31.5 -12t-31.5 -8v4q-10 6 -3 14q-6 0 -10 4q-6 0 -6 6q-12 29 -19.5 80t5.5 84q-4 2 -4 7t6 9q16 10 51 15l4 2h6q35 0 70 6q0 10 6 14h2q8 0 10 -2h26.5t25.5 4q0 16 16 11q16 4 32.5 14t32.5 23q-4 4 -2 12q8 20 25.5 35.5 t30.5 31.5q4 4 8 2q12 27 18 48q-2 16 -3 34.5t-1 36.5q-2 2 -2 6h-4q-8 6 -6 15l2 4q-12 20 -31 43q-18 -4 -28 2q-6 6 -5 14l5 8q-23 16 -54 29q-6 4 -12 5t-10 3q-29 4 -53 0q-16 -4 -31 -10t-31 -12q-31 -20 -53 -29q-41 -29 -83 -58.5t-77 -27.5l-6 -6q-8 -4 -12 0 t0 10l-2 2q-16 -4 -25.5 10.5t-13.5 53.5q-4 -2 -8.5 2t0.5 12q2 8 10 25q0 6 2 10l4 4q23 41 61.5 75.5t85.5 61.5l11 10q6 2 12 0q25 12 50.5 21.5t49.5 17.5h2q2 0 2 2q16 6 31.5 11.5t34.5 9.5q6 -4 6 -6q4 2 12 2q0 2 6 6q6 -2 21 -2h4h9t14 -2q27 8 45 0q2 -2 2 -6 q2 0 10 4q8 -4 8 -8l39 -13q10 4 16 -6q16 -10 21 -16q12 -6 24.5 -12.5t24.5 -14.5q4 0 8 -1t8 -1q14 -4 9 -14q72 -51 106 -123l21 -39q16 -33 18 -74t-8 -86l4 -6q2 -12 -4 -20.5t-12 -18.5l-27 -65q6 -6 0 -13q-14 -18 -19 -28q4 -4 5 -11q-5 -22 -23 -34z" />
<glyph unicode="4" horiz-adv-x="1064" d="M575 1100v-2q-10 -16 -19 -30.5t-21 -31.5q-4 -4 -7 -4q2 -2 2 -10l-10 -14q-8 -12 -14 -24.5t-17 -22.5q-8 -12 -12 -3q-4 -6 -8 -13t-8 -15q0 -2 1 -2t1 -2q-8 -16 -16.5 -31.5t-18.5 -32.5q-6 -10 -14 -6q-4 -4 -6 -5t-5 -5h5q10 -2 10 -15q-8 -16 -33 -20 q-14 -18 -23.5 -39.5t-23.5 -40.5q-10 -14 -26.5 -29.5t-30.5 -31.5q0 -2 2 -2h14q18 -4 4 -19q-25 -25 -55 -37q0 -2 1 -3t1 -3q-6 -12 -15 -20q4 -4 5 -6q6 2 10 -2h19t20 2h2v2h2q10 0 21.5 1t23.5 1h57v2h58v-2h2l55 -6q0 8 10 12q12 0 24.5 -2t24.5 -2q14 25 19 73 q-4 0 -4 9v143q-4 82 -10.5 159t6.5 117zM514 1298q2 12 6 22.5t10 20.5v7q0 8 7 14q0 4 4 8v2h2q8 8 12 10q-4 4 -3 9.5t9 9.5l23 6q20 29 26 59q4 10 9.5 9.5t9.5 -9.5l6 4q33 6 64.5 11.5t62.5 1.5q8 -4 8 -8q12 2 23.5 2h21.5q8 -4 8 -9.5t-6 -9.5q0 -2 1 -4t1 -6 q0 -55 -2 -111.5t-2 -111.5l21 4q8 -2 8 -12q-8 -18 -25 -35q-2 -10 -3 -19.5t-1 -19.5l-6 -6v-7l2 3v-17q8 -4 8 -14q-2 -4 -2 -8t-2 -11v-43q10 -6 2 -14l-2 -2q0 -16 1 -31.5t1 -31.5q6 -4 0 -13v-67.5t-2 -67.5l-6 -37l2 -2q4 -53 10 -104.5t6 -104.5h47 q23 10 41.5 16.5t26.5 4.5q12 -6 6 -15h45l23 13q18 4 10 -13q12 -4 17.5 -17t5.5 -30.5t-3.5 -34t-5.5 -24.5q6 -35 7 -68q-8 -12 -17 -4q-18 -6 -39 -6q-4 -4 -8 -4h-12q-12 0 -31.5 -2t-40 -3t-41 -1h-35.5q-6 -6 -6 -10v-21q0 -2 1 -4t1 -4v-47q0 -12 -8 -12 q0 -4 -1 -7.5t-1 -7.5q2 0 6 4v-35l-8 -6v-20l6 6v-6l-6 -4v-41l6 4v-14l-6 -5v-28l4 2v-6l-4 -4v-23l4 4v-6q-2 -2 -4 -2l4 -6q4 -16 2 -35q0 -4 -3 -9t-1 -3q-4 -4 -10 -4q-4 -4 -8.5 -2t-6.5 6v4l-24 -19q0 -2 -4 -6q10 -2 17 -1t18 1l20 15v-5l-2 -2q4 2 7 -3t3 -11 q-10 -14 -42 -13t-66 5h-13q-12 -2 -24 -2h-25h-2v2h-2q-25 -4 -39 -8q-2 -6 -8 -9.5t-10 7.5q-4 23 -5 45t3 45q-6 2 -8 8q-2 10 10 27v22q-10 6 -4 17l6 6q0 4 1 9t1 9q0 16 -1 33.5t-1 34.5q-4 0 -4 6q-4 29 -8.5 59.5t0.5 57.5q2 6 6 8t8 -2v14q-8 -4 -14 0v2 q-43 4 -88.5 3t-86.5 -7l-6 -4h-2q-8 -2 -19 -1t-20 7q-39 2 -75.5 -5t-75.5 -7q-47 -4 -88 0q-16 8 -4 20l-58 -8v-6q-12 -14 -18 2v4q-6 2 -2 10q-4 20 -7 40t-3 42q-8 4 -7.5 9.5t7.5 9.5q0 10 2 16q0 2 2 4v4q-2 6 -11 19l-2 2h-2q-2 0 -3 1t-3 1q-4 6 0 12l2 2v2l4 2h4 q8 0 25 8q-8 4 -4 15v2l8 8v2q4 12 11.5 23.5t15.5 21.5l22 33q8 2 10 0q18 23 31 42t35 50v4q0 4 2 6q4 12 12.5 27.5t20.5 25.5l14 29q12 25 33 39l4 4l6 12h-2q-12 6 -6 19q4 4 13.5 9t19.5 11l8 17q0 2 -1 3t1 5l12 20q2 2 6 2l7 11q0 4 2 6l8 16t10 19h-6q-12 6 -6 18 q10 10 21 17.5t22 15.5q6 16 18 31.5t23 25.5q10 14 20 26.5t23 35.5q10 33 30 47q2 2 7 2q6 14 16 24h2q0 2 2 2v2z" />
<glyph unicode="5" horiz-adv-x="907" d="M131 1161q-8 4 -7 10.5t9 10.5h2q6 25 14.5 52.5t26.5 43.5q4 10 7 19.5t7 19.5l5 16l-5 -6v-2h-2v-2q-6 -6 -11 -3t-5 9q4 27 15.5 53.5t27.5 44.5q10 6 14 -2q33 4 70 -6l2 2l4 -2q27 18 62 31q8 -2 8 -14q-4 -8 -17 -21q20 -2 40 -3t40 -1q23 10 45 14q10 -2 11 -12 q0 -2 -2 -2h33.5t33.5 2q35 6 67.5 12.5t67.5 6.5l4 -5q6 4 12.5 7.5t14.5 7.5q12 4 12 -12q0 -2 -1 -2.5t-1 -2.5h2q-2 0 -2 -2q-2 0 -2 -4q16 8 29.5 18.5t21.5 28.5q-4 8 9 15q16 -4 33.5 -5t33.5 3q4 10 10.5 8t8.5 -12q0 -6 -2 -9q-4 -29 -13.5 -55.5t-19.5 -52.5 l-6 -41q10 -6 0 -17l-9 -6q-2 -8 -10 -24l-12 -17q-4 -16 -4 -26q-6 -8 -15 -4q-2 -2 -2 -4t-2 -2h-2q-8 -12 -12 -15q-12 -8 -63.5 -11t-114 -5t-120.5 -2h-85q-6 0 -6 4h-24.5t-24.5 4q-4 0 -4 2v-14q-2 -35 -11.5 -84t-33.5 -70q-2 -2 -7 -2v-2h37l4 2q53 0 118 -3 t112 -38q4 -4 4 -8h4l2 2l8 -6l13 -6q10 0 22 -6.5t21 -10.5q0 -2 2 -2q29 -14 55.5 -30.5t34.5 -38.5h2l-2 -3q4 0 6 -2q4 -4 8 -10l8 -12q4 4 13 -2q2 -4 4 -5t6 -5h2q10 -4 8 -13q4 -8 4 -14q18 -10 23 -35q0 -6 -4 -10l4 2h6q8 -2 10 -8q2 -8 5 -14.5t3 -16.5v-6 q8 4 12 -6q4 -8 5.5 -16.5t-2.5 -16.5q4 -20 8 -31h4q4 -8 10 -26.5t14 -22.5q6 -8 2 -14t-12 -4q2 -16 3 -32.5t1 -33.5q-6 -6 -8 -6q2 -8 1 -14t-1 -13q2 0 3 -1t3 -1q2 -2 2 -8q14 0 23 -8q2 -2 2 -10q-4 -12 -13.5 -15.5t-19.5 -5.5q0 -16 -2 -33.5t-8 -35.5q6 -2 6 -13 q-2 -4 -6 -10q-8 -12 -17 -20v-2l5 4q0 -8 -5 -17l-2 -2q0 -2 -1 -3t-1 -3q6 -4 6 -12q-4 -25 -22 -58.5t-45 -50.5v-4q-14 -31 -43 -51l-4 -4q10 -6 0 -17l-15 -6q-14 -8 -14 9l-22 -11l-7 -6q-16 -10 -30.5 -17t-30.5 -16q-29 -23 -48.5 -36t-25.5 -11q-8 2 -8 11 q-29 -12 -57 -13l-31 -6q-35 -6 -69.5 -6t-69.5 2l-4 -4l-37 4q-39 0 -74 10q-51 0 -88 25q-23 6 -37 26l-4 2l-2 -2h-2q-12 0 -8 13v2l4 4q-2 2 -2 8v12q-2 2 -2 6q-8 31 16 60q18 23 43 31q0 6 8 10q10 0 15 -2l18 4q8 -4 8 -10q18 -4 31.5 -10.5t36.5 -8.5l6 -4 q16 -8 23 -16l41 -6q29 10 66.5 6t72.5 -6q0 4 8 8q20 2 41 16q2 2 2 3t4 3l10 4q8 6 14.5 12.5t16.5 10.5q10 16 19.5 30.5t25.5 20.5l2 -2q2 2 4 3t4 5q6 6 13 0l6 17q4 10 12 6q0 4 2 6q4 4 7 14.5l7 24.5l5 20q0 4 4 9q6 20 6 38q4 10 10 11v4l2 6v4q0 33 -7 61.5 t-11 61.5q0 10 8 10q-2 10 -2 19.5v19.5q-16 23 -29.5 44.5t-7.5 39.5q-4 4 -4 6q-4 6 -7 11.5t-8 9.5l-8 6q-4 0 -6 2h-2v2q-18 16 -45 31q-4 0 -4 2q-4 2 -4 8q-14 6 -28.5 11t-26.5 13q-4 4 -5 9h-2q-10 -2 -30 2q2 -4 -2 -9.5t-11 -3.5q-37 16 -82 20.5t-88 0.5 q-4 -4 -10 -4q-25 -6 -59 -2h-2q-10 6 -6 12q-20 -2 -38 -4t-26 -2q-6 0 -6 6h-2q-2 0 -4 -1t-6 -1q-8 2 -9 10q2 8 3.5 10t5.5 11l6 4v4q-12 -4 -12 10q2 18 8 29q-12 0 -11 12l9 14q2 20 12 43q-2 4 2 13q0 2 4 6q4 14 10 26.5t11 22.5q-6 2 -2 12v2q6 14 10 21.5t6 14.5 t4 14.5t4 21.5q0 6 6 6l11 10v7l-7 -7q-14 -4 -14 11l4 24h-2v0z" />
<glyph unicode="6" horiz-adv-x="966" d="M504 952q27 6 47 2t43 -12q23 -2 43 -5t41 -11q8 -14 33.5 -35t54.5 -37l2 -2q16 -10 29.5 -18.5t19.5 -12.5q0 -2 2 -2q0 -2 4 -10q20 4 31 2q8 -2 8 -14q-6 -14 -16 -23l4 -4q0 -4 4 -16v2l10 -21q4 -6 6 -12t7 -10q4 -12 8 -19l12 -28v4l2 -6h6l6 -5q8 4 11.5 -2 t-2.5 -12q-4 -4 -7 -4v-14q2 -23 9.5 -50.5t12.5 -58.5t6 -63.5t-11 -67.5q-2 -2 -8 -6q-8 -53 -25.5 -99t-42.5 -85l-6 -11q-57 -80 -146 -131l-40 -30q-18 -10 -40 -14.5t-44 -8.5q-4 -2 -11 -2q-6 -2 -18 -2q-20 0 -40 -1t-42 -3q-25 4 -50.5 6t-47.5 -2q-14 4 -26.5 11 t-25.5 16q-29 6 -49 14t-30 18q-2 0 -2 2q-33 10 -62 55.5t-51 98.5l-8 12l2 2l-8 15q-2 0 -3 4l3 2l-9 16l-2 -4l-6 16l2 3l-4 14l-2 -2l-12 33l4 2q-2 6 -4 11t-4 9l-2 -2l-7 27l-4 20q-6 -4 -10 8q-2 25 -5 41.5t-7 29.5t-7 27.5t-5 37.5q-4 25 0 49t8 47v20l4 2 q0 16 2 25q-4 -4 -6 -4q0 14 1 27.5t1 27.5l8 4q0 12 1 23.5t1 21.5l-6 -4v4l6 4q2 8 2 25l-4 -4q0 12 2 16l4 2q0 8 1 14.5t1 14.5q0 -2 -2 -2l4 22q4 29 9.5 56.5t13.5 56.5l6 18q0 4 4 13q10 20 21.5 39.5t23.5 38.5q-2 2 2 10v2h2l19 24q8 10 14 22.5t12 25.5l-24 -25 q-8 -8 -12.5 -2t-0.5 14l76 78q0 4 2 8q23 23 49.5 46.5t57.5 43.5q55 45 118.5 77t145.5 46l18 6l8 7h7l2 -2q14 4 27.5 6t25.5 2q51 0 100 -12.5t101 -16.5l4 -4q4 6 10 3t6 -13v-49.5t-10 -49.5q-6 -6 -10 -6q0 -4 -1 -5t-1 -3v-8q4 -10 -11 -14q-57 2 -115.5 3 t-117.5 -8q-68 -10 -130.5 -51t-109.5 -96q6 -6 -2 -14q-2 0 -2 -2q-2 0 -3 -1t-3 -1l-10 -7q-16 -20 -29.5 -39.5t-23.5 -39.5q0 -6 -5 -11q-2 0 -2 -2q-12 -23 -18 -43q-10 -29 -15.5 -59.5t-9.5 -59.5q12 8 26.5 14.5t31.5 12.5q23 10 46 28.5t46 22.5q16 4 29.5 2 t27.5 -6q12 4 17 4l2 2h6zM473 119q14 10 36.5 12t39.5 6q6 0 8 2q4 10 16.5 19.5t26.5 9.5q2 0 4 -2v2l8 4q6 10 12.5 18.5t16.5 16.5q4 14 8 27.5t8 27.5q0 4 7 8l6 21q-4 0 -4 10q4 18 10 37.5t12 38.5v6v29.5t2 27.5q-8 -8 -12 6q-6 20 -4 41q-8 4 -2 17l8 4v2 q-2 12 -2 23.5v23.5q-4 0 -4 6q-2 10 -2 18.5v16.5l-6 4v4l-11 43l-12 41q-2 0 -2 4t-4 13q-4 -4 -8 2q-2 0 -2 4l-15 18q-10 16 -32 31q0 -2 -5 -2q-10 -2 -17 -1t-15 9q-2 2 -2 4q-23 -12 -33 -10q-10 6 -8 14q0 2 1 4t1 4l-10 7q-20 -4 -31 -9q-31 -23 -58.5 -37 t-50.5 -18h-2q-12 -10 -21.5 -22.5t-19.5 -24.5q2 -6 0 -12l2 -2l-6 -4q-6 -4 -10 -11q-8 -12 -12 -28l-4 -19l-3 -2q-4 -12 -6 -23.5t-4 -23.5q2 0 4 2v-10l-6 -6q0 -8 -1 -15.5t-1 -15.5l4 4v-26.5t2 -26.5l-4 -4q0 -6 1 -12.5t1 -14.5l4 4v-24l4 -23l-2 -2l7 -25l2 2 q0 -4 2 -6l-4 -4l6 -18l2 2q0 -2 1 -3t1 -3q-2 -2 -4 -2l6 -23l4 4l6 -18l-2 -2q4 -8 10 -17.5t13 -19.5q14 6 30 6q16 -4 6 -16l-6 -6q2 0 6 -5q16 -16 27 -47h8l21 -16q12 -8 25.5 -14.5t27.5 -14.5q8 -8 -6 -16zM852 1323l-4 2l-2 -2h6z" />
<glyph unicode="7" horiz-adv-x="931" d="M358 487q2 2 2 5l11 4l8 6l4 12t6 14l-20 -14q0 4 1 8t1 8l30 21q8 16 15 22q-2 2 -2 9q0 27 10 49t20 45v4q0 6 2.5 12t4.5 15q4 18 12 40.5t20 36.5l19 33v4q0 23 9 47.5t21 49.5l19 61q-4 2 0 12l16 39q-2 0 -2 10q0 16 6 39h-4q-4 4 -5 9.5t5 9.5v2h2l17 10l26 41 q4 29 14.5 58.5t26.5 43.5q-70 0 -140.5 1t-137.5 3q-55 0 -98.5 5.5t-77 2.5t-62 -17.5t-53.5 -51.5q6 -6 -2 -14l-10 -8q-6 -4 -11 0h-2q-14 6 -23 9t-26 5q-8 4 -4 12v6q2 8 4 15.5t6 15.5q2 14 11 33q0 35 16 71q-4 0 -5 -1t-5 -1q-8 6 -6 15q4 10 16 20t27 21q4 8 8 12 l4 16h-2q-8 -4 -11 4.5t3 12.5q25 14 54.5 18t60 3t61.5 -4t57 -3q115 0 228.5 -3t228.5 -5l20 10q6 4 11 -4q2 0 2 -1t2 -1q0 -2 2 -4h92q2 0 10 -4q10 -14 13.5 -33.5t2 -41t-3.5 -42t-2 -37.5q-8 -12 -16 -4q2 -2 2 -6q-6 -23 -12 -41t-17 -39q4 2 13 2q8 -2 8 -14 q-4 -10 -15.5 -19.5t-27.5 -21.5q-16 -35 -31 -72q6 0 6 -12l-6 -10l-37 -95q2 -2 2 -8q-4 -10 -9 -21.5t-11 -21.5l-6 -16l-13 -37l-28 -72q-4 -23 -12.5 -41t-18.5 -37q-2 -41 -20.5 -94t-32.5 -92v-2l-4 -4l-9 -16q0 -2 1 -4.5t1 -4.5l-2 -4q4 -6 -2 -12q-2 -2 -4 -2 l-16 -45q0 -4 -2 -6q0 -4 -1 -5t-1 -5l-4 -7l-13 -20q0 -2 -1 -2t-1 -2h2q4 -4 3 -6t-1 -7l-8 -12h17q16 -6 4 -18q-2 0 -2 -2h-2q-16 -12 -25 -17v-2h2l-4 -6l-8 -16l-14 -27q-4 -14 -9.5 -27.5t-11.5 -27.5q0 -18 -5 -28.5t-15 -24.5q2 -2 2 -7q-2 -16 -4.5 -36.5 t-16.5 -30.5q0 -4 -4 -8l-14 -13q0 -2 2 -4q4 -12 -8 -16q-2 -10 -4.5 -16.5t-8.5 -12.5q-10 0 -12 2q-14 0 -18 -2q-4 0 -6.5 -1t-4.5 -1q4 -6 -2 -11t-14 -1l-8 8l-35 -6q-10 4 -8 12q-2 0 -4 -2q-16 -4 -31.5 -2t-32.5 4q-10 -4 -22.5 -5t-24.5 -3q-6 4 -7 10t5 11h2 q-4 8 2 12l4 10v4l6 29l-6 8q-4 20 6.5 37.5t20.5 34.5v2l6 24l2 2q4 14 9 27.5t14 28.5q4 20 11 41.5t23 31.5q0 4 2 9q-6 2 -8 8q-2 8 0 14q8 14 27 33q0 4 6 14q8 29 20 45q2 8 2 16.5t5 18.5v2q-8 -4 -13 -4q4 8 4 16z" />
<glyph unicode="8" horiz-adv-x="931" d="M57 1161l-18 -22q0 18 -2 26l35 37q27 63 88 133q10 10 21.5 22.5t23.5 24.5q-6 10 4 17q12 6 22.5 16t22.5 17q59 29 138 40t145 3q66 -6 127 -31h8q10 -2 10 -12q2 -4 3 -7.5t5 -7.5l2 2q12 2 13 -8l26 -14q47 -27 67.5 -65t37.5 -85q20 -66 24 -113t-8 -84.5 t-39 -70.5t-65 -68q-18 -16 -37 -31.5t-35 -29.5l-70 -59q-10 -4 -12 2l-4 -5v-2h10q6 -8 23 -20l14 -12h4q-2 0 -2 -2l20 -17q2 0 5 2q8 -8 14 -10q-2 -2 -2 -4l14 -10l2 2l21 -17l-2 -2q39 -29 73.5 -57.5t60 -64t42 -79.5t18.5 -106v-6q2 -25 0 -42t-10 -31.5t-18.5 -30 t-22.5 -37.5q2 -2 2 -11q-4 -4 -4 -8l18 15q-18 -35 -45 -70l-8 -6q-16 -31 -38.5 -55.5t-61.5 -40.5q-20 -8 -31 -11q-2 0 -2 -1t-2 -1q-10 -4 -18.5 -8t-18.5 -8q-10 -16 -16 -37q-4 -6 -11.5 -6t-7.5 10q2 8 11 25h-7q-14 -8 -33.5 -16.5t-39.5 -16.5q-45 -25 -116 -14.5 t-136 34.5q-2 0 -3 1t-3 1q-41 16 -75 35t-52 35q-47 45 -84 111.5t-37 130.5q-10 20 -7 36.5t7 36.5q4 14 2 27.5t-2 30.5q-6 2 -6 10t14 31q12 31 41 64.5t63.5 65.5t70.5 60.5t63 50.5q-29 33 -58.5 60.5t-58.5 58.5q-57 59 -84 115q0 6 -4 8l-4 14q-12 -4 -15 -4l-4 4 v19.5t-2 19.5q2 0 6 4q-8 25 -8 58l-12 -10q-2 2 -2 4l4 24q4 2 12 10zM668 326q4 8 6 8q6 16 2 31q-6 18 -12.5 35.5t-14.5 33.5h-2q-10 6 -8 15v2q-14 25 -37 51q-4 -8 -14 -2q-27 51 -72 80q-4 0 -4 4l-76 47q-14 -16 -27.5 -33.5t-29.5 -34.5v-2q-4 -14 -13.5 -22.5 t-17.5 -22.5q-8 -10 -14 -4q-25 -31 -43 -61v-2l-19 -35l-10 -23q-8 -23 -8 -49q-2 -10 2 -29l4 4t6 5q8 2 13 -3q8 -14 6 -32q10 -10 19 -21.5t15 -23.5q4 0 9 -4q8 -12 21 -18.5t28 -8.5q10 -4 9 -10t-11 -11h-6q4 -4 10 -5t10 -3l12 4q10 -4 11 -12q10 -4 22 -6t23 -4 l8 6l6 6v-2q16 4 12 -10q2 0 4 1t5 1q0 20 16 12q10 14 14 -2q18 4 39 16.5t39 30.5l2 2l25 27q8 8 14 16t12 19q4 10 8.5 20.5t6.5 18.5zM473 897q6 6 12 2l11 6q12 23 36.5 44.5t47.5 39.5q6 8 11 16.5t11 18.5q6 8 14 29q-6 4 -4 14l6 10h-8q-12 4 -4 17l23 22v18.5 t-2 18.5q-4 16 -4 23q-6 -2 -17 -2q-6 2 -8 8q-2 8 12 26q-18 -6 -35 -4q-8 4 -8 13q2 20 21 45q-27 37 -68 51h-2q-4 0 -4 2q-35 8 -71.5 0t-69.5 -31q4 -4 -4 -12q-27 -27 -48.5 -49.5t-37.5 -44.5q-14 -41 -9 -76q2 0 11 -4q16 -16 20 -39t8 -41q23 -25 45 -41 q16 -10 34 -19.5t34 -21.5q10 -8 21.5 -20.5t21.5 -14.5z" />
<glyph unicode="9" horiz-adv-x="966" d="M461 522q-27 -6 -47.5 -2t-42.5 12q-23 2 -43.5 5.5t-40.5 11.5q-8 14 -34 34.5t-54 37.5l-2 2q-16 10 -29.5 18t-20.5 12q0 2 -2 2q0 2 -4 11q-20 -4 -30 -2q-8 2 -9 14q6 14 17 22q-4 4 -4 5q0 4 -4 16v-2l-11 20q-4 6 -6 12.5t-6 10.5q-4 12 -8 18l-12 29v-4l-2 6h-7 l-6 4q-8 -4 -11 2t3 12q4 4 6 5v14q-2 23 -9 50.5t-12 58t-6 63.5t11 67q2 2 8 7q8 53 25.5 99t42.5 85l6 10q57 80 145 131l41 31q18 10 40 14t44 9q4 2 10 2q6 2 19 2q20 0 39.5 1t42.5 3q25 -4 50 -6t48 2q14 -4 26.5 -11.5t24.5 -15.5q29 -6 49.5 -14.5t30.5 -18.5 q2 0 2 -2q33 -10 61.5 -55t51.5 -98l8 -13l-2 -2l8 -14q2 0 2 -4l-2 -2l8 -17l2 4l6 -16l-2 -2l4 -14l3 2l12 -33l-4 -2q2 -6 4 -11l4 -10l2 2l6 -26l4 -21q6 4 10 -8q2 -25 5.5 -41t7.5 -29.5t7 -28.5t5 -36q4 -25 0 -49.5t-8 -46.5v-21l-4 -2q0 -16 -2 -24q4 4 6 4 q0 -14 -1 -27.5t-1 -28.5l-8 -4q0 -12 -1 -23t-1 -22l6 4v-4l-6 -4q-2 -8 -2 -24l4 4q0 -12 -2 -17l-5 -2q0 -8 -1 -14t-1 -14q0 2 2 2l-4 -23q-4 -29 -9 -56.5t-13 -55.5l-6 -19q0 -4 -4 -12q-10 -20 -21.5 -40t-23.5 -38q2 -2 -3 -10v-2h-2l-18 -25q-8 -10 -14 -22.5 t-13 -24.5l25 25q8 8 12 1.5t0 -14.5l-76 -78q0 -4 -2 -8q-23 -23 -49 -46t-57 -44q-55 -45 -118.5 -76.5t-145.5 -46.5l-19 -6l-8 -6h-6l-2 2q-14 -4 -27.5 -6t-25.5 -2q-51 0 -100.5 12t-100.5 17l-4 4q-4 -6 -10.5 -3t-6.5 13v49.5t11 48.5q6 6 10 6q0 4 1 5t1 4v8 q-4 10 10 14q57 -2 115.5 -3t118.5 7q68 10 130 51t109 97q-6 6 2 14q2 0 2 2q2 0 3.5 1t3.5 1l10 6q16 20 29.5 40t23.5 40q0 6 4 10q2 0 2 2q12 20 19 43q10 29 15 59.5t9 59.5q-12 -8 -26.5 -14t-30.5 -13q-23 -10 -46.5 -28.5t-45.5 -22.5q-16 -4 -29.5 -2t-28.5 6 q-12 -4 -16 -4l-2 -2h-6zM492 1356q-14 -10 -37 -12.5t-39 -6.5q-6 0 -8 -2q-4 -10 -16.5 -19t-26.5 -9q-2 0 -5 2v-2l-8 -4q-6 -10 -12 -18.5t-16 -16.5q-4 -14 -8.5 -27.5t-8.5 -28.5q0 -6 -6 -8l-6 -20q4 0 4 -10q-4 -18 -10 -38t-13 -38v-6v-29.5t-2 -28.5q8 8 13 -6 q6 -20 4 -41q8 -4 2 -16l-8 -4v-2q2 -12 2 -23.5v-23.5q4 0 4 -7q2 -10 2 -18v-16l6 -5v-4l10 -43l13 -41q2 0 2 -4t4 -12q2 2 8 -2q2 0 2 -4l14 -19q10 -16 33 -30q0 2 4 2q10 2 17.5 1t15.5 -9q2 -2 2 -5q23 12 33 11q10 -6 8 -15q0 -2 -1 -4t-1 -4l10 -6q20 4 31 8 q31 23 58.5 37t49.5 19h2q12 10 21.5 22t19.5 25q-4 6 0 12l-2 2l6 4q6 4 11 10q8 12 12 29l4 18l2 2q4 12 6 23.5t4 24.5q-2 0 -4 -2v10l6 6q0 8 1 15t1 16l-4 -4v26t-2 27l4 4q0 6 -1 12t-1 14l-4 -4v25l-4 22l2 3l-6 24l-2 -2q0 4 -2 6l4 4l-6 19l-2 -2q0 2 -1 3t-1 3 q2 2 4 2l-6 22l-4 -4l-6 19l2 2q-4 8 -10.5 17t-12.5 20q-16 -6 -31 -6q-16 4 -6 16l6 6q-2 0 -6 4q-16 16 -26 47h-9l-20 17q-12 8 -25.5 14t-27.5 14q-8 8 6 17zM113 152l4 -2l2 2h-6z" />
<glyph unicode=":" horiz-adv-x="352" d="M25 53q-14 25 -8 61t28 58q4 10 12 16q-6 6 4 15v2q2 0 2 1t3 1q10 6 19 8t19 4q2 0 2 2v4h7l28 8q8 -2 11 -8v-4q39 -8 65 -41l2 4l2 -8h4l11 -8q27 -8 26 -45q0 -12 -8 -12v-9h2q16 -6 4 -18l-2 -2q2 -2 2 -6l-6 -10q6 -8 0 -15l-6 -6q-2 0 -2 -2q-18 -10 -34.5 -17.5 t-35.5 -11.5q-2 0 -2 -2h-2q-16 -4 -33.5 -7t-34.5 3q-8 0 -8 8q-4 -4 -8 -2q-20 6 -35 25l-8 4q-6 2 -6 8q0 2 -2 2q-8 -2 -12 0zM25 721q-14 25 -8 60.5t28 58.5q4 10 12 16q-6 6 4 14v2q2 0 2 1t3 1q10 6 19 8.5t19 4.5q2 0 2 2v4h7l28 8q8 -2 11 -8v-4q39 -8 65 -41l2 4 l2 -8h4l11 -8q27 -8 26 -45q0 -12 -8 -13v-8h2q16 -6 4 -18l-2 -2q2 -2 2 -7l-6 -10q6 -8 0 -14l-6 -6q-2 0 -2 -2q-18 -10 -34.5 -17.5t-35.5 -11.5q-2 0 -2 -2h-2q-16 -4 -33.5 -7t-34.5 3q-8 0 -8 8q-4 -4 -8 -2q-20 6 -35 25l-8 4q-6 2 -6 8q0 2 -2 2q-8 -2 -12 0z" />
<glyph unicode=";" horiz-adv-x="352" d="M25 721q-14 25 -8 60.5t28 58.5q4 10 12 16q-6 6 4 14v2q2 0 2 1t3 1q10 6 19 8.5t19 4.5q2 0 2 2v4h7l28 8q8 -2 11 -8v-4q39 -8 65 -41l2 4l2 -8h4l11 -8q27 -8 26 -45q0 -12 -8 -13v-8h2q16 -6 4 -18l-2 -2q2 -2 2 -7l-6 -10q6 -8 0 -14l-6 -6q-2 0 -2 -2 q-18 -10 -34.5 -17.5t-35.5 -11.5q-2 0 -2 -2h-2q-16 -4 -33.5 -7t-34.5 3q-8 0 -8 8q-4 -4 -8 -2q-20 6 -35 25l-8 4q-6 2 -6 8q0 2 -2 2q-8 -2 -12 0zM20 -178q-4 6 0 12v2l5 2q2 2 4 2q12 23 28.5 40.5t31.5 33.5t28.5 35.5t19.5 46.5h-10h-18q-29 0 -50 14 q-6 4 -11 11.5l-9 13.5q-4 4 -6 8t-4 10l-6 21q-4 12 -5 16v23v14v2l7 23h-2q2 8 10 20t14 18q-4 4 6 13h6q14 8 29 14l4 -4q33 10 66 4l-11 -6q31 2 57.5 -5t39.5 -28q16 -35 20 -78q6 -16 6 -30l-2 -2q0 -2 1 -4.5t1 -4.5q0 -10 -2 -16t-4 -10l-4 -4v-2l4 4q2 0 6 4 l-6 -51l-14 -9l-6 -26l14 8q-4 -8 -4 -12l-10 -6l-6 -19l8 6v-2l-8 -6q-4 -4 -5 -10l-12 -23l10 6l-18 -28q-8 -4 -12 -8q-23 -29 -50.5 -57.5t-52.5 -43.5q0 -2 1 -2t1 -2q4 -8 -4 -15t-12 3l-2 8l-4 -6l-4 4q-18 8 -2 20q-2 4 -11 13l-4 -4l-6 8q2 0 2 2l2 2 q-8 10 -17.5 19.5z" />
<glyph unicode="&#x3c;" horiz-adv-x="1071" d="M51 428q-10 6 -5 14.5t15 3.5l15 -6q-4 8 2 15l-21 4l-4 -4h-2q-4 -4 -8 -5t-8 9q-4 23 -5 48t3 48q-12 8 4 16v2q-6 6 0 17q12 12 31.5 20t42.5 15l4 4h2v2h2q23 12 43 17t39 9l51 25l2 2l4 2h4l64 29l92 57l2 2v-2l2 2q8 0 10 -2l4 4q16 14 40 25.5t42 21.5l10 6h2l2 2 v-2q6 0 7 -2q10 8 27.5 18.5t38 21t40 19.5t33.5 15q31 20 62.5 34.5t60.5 16.5q2 0 4 -2q16 10 33.5 16.5t33.5 8.5l5 4l8 6h4q0 2 4 2q16 8 27 10q6 2 10 -2l28 13h9l41 18q10 4 10 -4q4 -4 4 -10v-21q6 -33 5 -69.5t1 -71.5q4 -4 4 -12q0 -20 -2 -31q-6 -10 -14 -6 q-12 -10 -27 -13q-10 -4 -24.5 -10t-26.5 -6q-16 -10 -38.5 -21.5t-46.5 -22.5t-45.5 -19.5t-33.5 -10.5q-20 -10 -41.5 -19t-44.5 -13l-29 -15q-2 0 -2 -2q-2 0 -3 -1t-3 -1v2l-35 -18q2 -6 -6 -13h-2l-33 -8q-16 -10 -31.5 -16t-29.5 -12q-25 -16 -59.5 -30.5t-69.5 -31.5 q2 -2 4 -2q4 4 10.5 5t10.5 3l2 2v-2l2 2q8 4 11 -2t-1 -12l-2 -2h2q-2 0 -2 -2l-6 -4l26 -12q33 -8 56 -19q20 -6 40.5 -12t39.5 -17q33 -8 65.5 -21t54.5 -30q0 -2 2 -2l103 -41l2 2l2 2v-2q16 8 12 -8q18 -10 35 -16l35 -19v-2l2 2q8 6 11 2t3 -12v-2l23 -14q8 2 12 -6 l29 -13q0 2 2 4l8 -4q-2 -2 -4 -2q20 -10 37 -10q6 10 11 6t5 -14q-4 -16 -4 -25q0 -10 1 -17t1 -16v-12q10 -4 2 -12q2 -12 3 -22.5t1 -20.5l-2 -2q0 -16 -1 -33.5t-1 -30.5v-6q2 -10 2 -22.5v-22.5q-4 -4 -10 -6q-2 0 -3 -1t-5 -1h-8q-8 4 -15.5 8t-15.5 8q-4 -6 -12 -4 l-33 17h-6l-56 32q-4 2 -4 3t-2 3l-10 7q0 -10 -10 -11v-2q-2 0 -2 2q-4 2 -7.5 4.5t-7.5 4.5h-8q-23 10 -43 25.5t-43 29.5q-2 -2 -8 0q-14 6 -25.5 11t-23.5 16q-14 6 -29 16q-4 0 -4 2h-2q-20 10 -58 27.5t-67 40.5q-2 2 -4 2l-2 2l-12 8h-2q-31 10 -63 22.5t-56 28.5 q-31 10 -54 25h-2l-28 8q-8 0 -13 2q-4 4 -6 4q-29 10 -57.5 20.5t-54.5 26.5q-4 0 -4 4q-27 10 -52.5 18.5t-50.5 20.5z" />
<glyph unicode="=" horiz-adv-x="942" d="M37 782q-10 2 -6 13q-12 -8 -13 8v59q-6 -4 -22 -8q-10 4 -8 14q6 10 14 20.5t16 22.5v11q0 8 -4 24q0 4 4 8q-8 4 -7 10.5t9 10.5h7q4 6 10 7t8 -7h139q0 -2 2 -2q2 -2 2 -4q4 -4 5 -6h4l8 6q47 0 94 -6l20 22q0 2 1.5 2t1.5 2v-2l2 2q8 6 11 2t3 -12l-6 -16 q14 0 28.5 -1t28.5 -1q4 0 6 -3l56 -6h114q18 18 41 27l8 -4l4 -6v-8q-4 -4 -4 -9q25 0 51.5 -1t51.5 -3l47 35q8 4 11 -3t-1 -13q-6 -8 -22 -21l53 -4q4 2 8 -2l55 -6h33l-2 -2q4 -4 4 -12v-29l2 2v-6h-2q4 -23 4 -43.5v-40.5v-8l-4 -4v-7q-4 -4 -10 -6h-47q-8 -4 -23 -4 l-8 4q-23 2 -43 2h-43q-16 0 -30.5 1t-30.5 1h-13q-27 -4 -51 -7t-51 -3q-23 0 -48.5 4t-60.5 2q-4 -4 -6 -4h-26q-2 0 -3 1t-3 1q-27 2 -53.5 0t-53.5 2h-4v2q-6 4 -2 13h-10q6 -10 -9 -15q-59 0 -119.5 -6t-117.5 10zM41 504q-14 6 -2 18q-4 20 -5 45t3 45v23q0 2 2 4 q-8 8 8 16q10 -2 20.5 -2h20.5l2 2v-2h25l4 4h20l4 2v3h2q16 2 35 3t37 -1q37 4 73 7t68 -9q8 -8 -2 -17q-4 -4 -6 -4h4l17 14l-15 -14q6 0 12.5 -1t12.5 -1l18 18h9l-21 -18h23l6 6q0 4 2 6v-2l2 2q8 4 10 2q0 2 2 4h17l-15 -14q8 0 14.5 1t14.5 1l12 12h2l-10 -12 q6 2 18 2l11 10h28l-6 -6q10 2 20.5 3t20.5 1l2 2h8q23 2 43.5 4.5t42.5 2.5h21.5t21.5 -2q8 6 15.5 11t15.5 9l4 4v-2q8 2 9 -5t-3 -11q-2 -2 -4 -3t-4 -6q41 -2 84 -2t78 11l4 -2q6 2 12 -7v-10q2 -2 2 -8q0 -10 -1 -22.5t-3 -24.5q10 -23 9 -49.5t-7 -50.5q2 -4 -2 -9 q-2 -4 -2 -8q-4 -4 -10 -6h-2q-8 2 -8 10q-23 -2 -45.5 -6t-44.5 0q-53 -4 -108.5 2t-111.5 8h-26q-6 0 -6 4l-49 5q-45 -6 -72 2q-8 2 -8 10h-21l-4 -4h-24q0 2 1 2t1 2h-25v-2h-2q0 -4 -4 -4v-2h-4q-23 -2 -47.5 -2h-46.5l-5 -4q-18 -8 -38.5 -5.5t-40.5 9.5l-93 8 q-4 -14 -16 0h-4z" />
<glyph unicode="&#x3e;" horiz-adv-x="1071" d="M1008 596q10 -6 5 -14.5t-16 -3.5l-14 6q4 -8 -2 -15l20 -4l5 4h2q4 4 8 5t8 -9q4 -23 5 -48t-3 -48q12 -8 -4 -16v-2q6 -6 0 -17q-12 -12 -31.5 -20t-42.5 -15l-4 -4h-2v-2h-2q-23 -12 -43 -17t-39 -9l-51 -25l-2 -2l-4 -2h-4l-64 -29l-92 -57l-2 -2v2l-2 -2q-8 0 -10 2 l-4 -4q-16 -14 -40 -25.5t-42 -21.5l-11 -6h-2l-2 -2v2q-6 0 -6 2q-10 -8 -27.5 -18.5t-38 -21t-40 -19.5t-33.5 -15q-31 -20 -62.5 -34.5t-60.5 -16.5q-2 0 -4 2q-16 -10 -33.5 -16.5t-34.5 -8.5l-4 -4l-8 -6h-4q0 -2 -4 -2q-16 -8 -27 -10q-6 -2 -10 2l-29 -13h-8l-41 -18 q-10 -4 -10 4q-4 4 -4 10v21q-6 33 -5 69.5t-1 71.5q-4 4 -4 12q0 20 2 31q6 10 14 6q12 10 27 13q10 4 24.5 10t26.5 6q16 8 38.5 20.5t46 23.5t45 19.5t34.5 10.5q20 10 41.5 19t44.5 13l28 15q2 0 2 2q2 0 3.5 1t3.5 1v-2l34 18q-4 6 7 13h2l32 8q16 10 31.5 16t30.5 12 q25 16 59.5 30.5t69.5 31.5q-2 2 -4 2q-4 -4 -10.5 -5t-10.5 -3l-2 -2v2l-2 -2q-8 -4 -11 2t1 12l2 2h-2q2 0 2 2l6 4l-27 12q-33 8 -55 19q-20 6 -40.5 12t-39.5 17q-33 8 -65.5 21t-55.5 30q0 2 -2 2l-102 41l-2 -2l-2 -2v2q-16 -8 -12 8q-18 10 -35 16l-35 19v2l-2 -2 q-8 -6 -11 -2t-3 12v2l-23 14q-8 -2 -12 6l-29 13q0 -2 -2 -4l-8 4q2 2 4 2q-20 10 -37 10q-6 -10 -11 -6t-5 14q4 16 4 25q0 10 -1 17t-1 16v12q-10 4 -2 12q-2 12 -3 22.5t-1 20.5l2 2q0 16 1 33.5t1 30.5v6q-2 10 -2 22.5v22.5q4 4 10 6q2 0 3 1t5 1h8q8 -4 15.5 -8 t15.5 -8q4 6 12 4l33 -17h6l56 -32q4 -2 4 -3t2 -3l10 -7q0 10 10 11v2q2 0 2 -2q4 -2 7 -4.5t8 -4.5h8q23 -10 43 -25.5t43 -29.5q2 2 8 0q14 -6 25.5 -11t23.5 -16q14 -6 29 -16q4 0 4 -2h2q20 -10 58 -27.5t67 -40.5q2 -2 4 -2l2 -2l12 -8h2q31 -10 63 -22.5t56 -28.5 q31 -10 53 -25h2l29 -8q8 0 12 -2q4 -4 6 -4q29 -10 57.5 -20.5t55.5 -26.5q4 0 4 -4q27 -10 52.5 -18.5t50.5 -20.5z" />
<glyph unicode="?" horiz-adv-x="843" d="M201 1419q20 10 41.5 18.5t44.5 14.5q10 14 48 20.5t83 8.5h6q53 0 101 -8.5t61 -22.5q23 -4 42 -15.5t42 -25.5q59 -39 88.5 -77t40.5 -83l4 -4q6 -4 6 -14v-4q0 -4 -4 -8q4 -23 4 -46.5t-2 -52.5v-4q6 -14 4 -32.5t-8 -37t-13.5 -37t-11.5 -32.5h-2l-4 -4q6 -2 6 -8.5 t-4 -10.5l-8 -4q4 -8 -2 -14l-14 -8q10 -6 4 -13q-6 -10 -17 -16l-14 -18q-2 -2 -4 -2q2 -2 2 -7l-2 -4q0 -2 -1 -2t-1 -2l2 -2q-2 0 -3 -1t-3 -1l-4 -8l-19 -29v-4q-2 0 -4 2q-4 -2 -6 -1t-6 1q4 -8 -2 -14h2q-2 -2 -4 -2q-10 -10 -19 -12l-4 -5q2 -2 2 -6 q-14 -29 -33.5 -44t-35.5 -36v-4l-21 -41l-8 -6l-12 -24v-2q-4 -18 -15.5 -38t-17.5 -38l-14 -45q6 -4 6 -10l-9 -11q-6 -35 -6 -69.5v-69.5q8 -4 7 -9t-11 -9h-10l-25 6q-16 -2 -29.5 -3t-27.5 -1q-10 0 -19.5 -1t-19.5 -3q-6 2 -7 6t1 8v4q-23 6 -25 28.5t0 67.5q0 2 1 3 t1 3v5q-6 0 -8 8q-8 -2 -20 -2q-12 6 -6 18q8 8 15 14.5t15 12.5q2 8 11 20v2q-4 0 -4 6q-2 0 -5 2q0 4 -4 5q-4 8 2 14q4 4 7.5 7t7.5 7q2 12 10 23v2l6 10q-2 2 -2 8t6 19q-4 4 -2 10l12 18v2q0 6 2 11q-6 -2 -12 -4.5t-12 -2.5l-6 5q0 2 -2 4q-2 8 0 14q29 23 63 45 l10 21q2 4 5.5 9t7.5 9q0 2 4 6l2 4v4q0 10 20 25q2 23 13.5 48.5t29 52t36 54t32.5 54.5q4 41 22 80q-2 2 3 10l2 2v2h2l2 4q-4 0 -9 -2q-8 4 -8 12q0 4 1 9.5t1 9.5q0 2 -1 2t-1 2q-10 20 -9 43.5t3 46.5l-4 10q-2 -2 -8 2q-8 8 -14.5 18.5t-10.5 20.5l-30 27q-2 -2 -9 -2 h-2q-2 0 -4 2l-12 6l-2 2q-10 2 -19.5 7t-19.5 9h-2q-2 0 -4 2l2 2l-2 2l-2 3q-14 0 -23 -3q8 -8 -2 -14v-2h-4q-37 -6 -69.5 -16.5t-53.5 -44.5q-10 -23 -14 -58q4 0 5 -6t-3 -10l-8 -6q-4 -16 -10.5 -28.5t-22.5 -16.5q-10 -4 -17.5 -4t-15.5 2h-6q-6 2 -11 4t-9 4 q-6 -6 -11 -6h-4q-14 4 -29.5 8t-25.5 18q-12 4 -23.5 16.5t-19.5 26.5q-14 16 -10 41v6q0 18 7 36t23 26h2q2 2 3 6q-4 4 2 12t13 14.5t13 12.5q4 2 10 2q14 12 28.5 23.5t33.5 19.5h8zM291 53q-14 25 -8 61t28 58q4 10 13 16q-6 6 4 15v2q2 0 2 1t2 1q10 6 19 8t20 4 q2 0 2 2v4h6l29 8q8 -2 10 -8v-4q39 -8 65 -41l2 4l2 -8h5l10 -8q27 -8 26 -45q0 -12 -8 -12v-9h2q16 -6 4 -18l-2 -2q2 -2 2 -6l-6 -10q6 -8 0 -15l-6 -6q-2 0 -2 -2q-18 -10 -34.5 -17.5t-35.5 -11.5q-2 0 -2 -2h-2q-16 -4 -33.5 -7t-33.5 3q-8 0 -9 8q-4 -4 -8 -2 q-20 6 -35 25l-8 4q-6 2 -6 8q0 2 -2 2q-8 -2 -12 0z" />
<glyph unicode="@" horiz-adv-x="1454" d="M725 180q47 37 82 105.5t55 134.5q-6 4 -4 14q8 23 14 45q4 18 7.5 40t1.5 38q-4 29 -25.5 48.5t-48.5 29.5q-20 -10 -39 -10q-8 4 -8 8q-6 -2 -11.5 -4t-9.5 -4l-2 -2l-28.5 -28.5t-22.5 -23.5l-4 -4q-10 -10 -18.5 -21t-16.5 -26q0 -4 -2 -6l-4 -4l-18 -39 q2 -8 -11 -12h-4q-10 -23 -17 -42.5t-16 -41.5q2 -2 3 -8q-2 -23 -13 -48q0 -14 -4 -20l-2 -2q-6 -16 -10 -34.5t-2 -35.5q0 -23 10 -47q10 10 14 -8l11 -8h2q0 2 4 6v-2q8 4 13 0t-1 -12q16 -6 31.5 -9.5t25.5 0.5q18 10 29.5 22.5t32.5 16.5q6 -4 6 -6zM754 793q6 -4 6 -7 q37 4 71 0l29 13q12 4 12 -13q0 -4 -6 -6q35 -10 61.5 -29.5t43.5 -56.5q4 20 16 33l2 2q0 6 10 12q16 0 25 -2q6 10 14 -2l68 -6h14l-2 -2q4 0 8 -1t9 -1q8 6 20 6q2 -2 6 -2h13l-3 -4q4 -4 5 -12l-15 -49q8 -8 0 -17q-4 -2 -5 -4t-3 -4q-4 -10 -9 -21.5t-11 -21.5 q0 -8 -3 -10q2 -2 3 -10q0 -4 -9 -13l-7 -14t-7 -12l-2 -7q-2 -2 -4 -2l-6 -10q2 -2 2 -8q-10 -61 -22.5 -122.5t-26.5 -125.5q-2 -10 -6.5 -21.5t-8.5 -23.5q8 0 8 -12l-12 -17q0 -14 6 -26l11 12v-2q8 4 11 -2t-1 -12l-2 -2q8 0 12 -8q20 -2 47 10q-4 4 0 10t12 4 q29 20 52.5 48t40.5 61q-4 0 -5.5 -1t-5.5 3q-6 10 6.5 30.5t34.5 46.5q-4 4 0 11q4 8 6.5 15t4.5 15v29q-2 41 -7.5 81t-9.5 81q0 6 8 10l-16 39l-10 21h-6q-10 6 -9 14q0 2 2 4q-12 20 -22 40.5t-16 43.5v4q-20 23 -43 46.5t-48 39.5q-6 0 -6 4l-28 19h-2 q-47 12 -91.5 35.5t-95.5 31.5q-16 2 -34.5 0t-36.5 -4q-6 -6 -9 -2h-4q-12 0 -23.5 1t-21.5 5q-2 0 -4 2q-70 0 -147 -22q-31 -16 -87.5 -50t-101.5 -75q-10 -16 -25.5 -40t-31.5 -52v-9q-4 -6 -8 -6q-16 -29 -31.5 -57.5t-26.5 -54.5q2 -6 -2 -11l-2 -2q-4 -14 -8 -41 q10 2 10 -12l-12 -18q0 -12 -1 -25.5t-3 -23.5q-2 -39 -3 -64t-1 -47l16 4q16 -6 4 -18l-18 -15q0 -10 4 -30h8q16 -4 6 -17q-2 -4 -4 -5t-4 -3l6 -16q4 0 6 -2v-15q4 -12 9 -18q14 6 28 6q8 -2 8 -14l-20 -31l16 -35l4 -6q2 -2 2 -8q0 -2 -1 -3t-1 -3q8 0 9 -13 q-2 -2 -2 -4q8 -10 15 -20.5t17 -20.5q2 -4 11 -12q10 -6 8 -12q35 -39 77 -81t89 -67l2 -2q10 -4 18 -7t19 -7h2q2 0 4 1t6 1q8 -4 8 -6l23 -4q35 -2 68.5 -6.5t68.5 -6.5l10 6q10 10 14 -8q27 -2 53.5 -2t53.5 4q10 2 23.5 6.5t29.5 8.5q2 0 3 1t3 1q2 2 6 0q29 8 61 21.5 t61.5 26.5t52 26.5t34.5 25.5q0 4 4 4q0 4 7 4q29 -8 58.5 -22.5t53.5 -30.5q4 -6 2 -8h6q10 4 12.5 -3t-3.5 -14h-2q0 -8 -11 -8q-23 -18 -45 -41.5t-51 -42.5q-43 -29 -96 -55.5t-109.5 -46t-114 -30.5t-110.5 -11q-33 0 -64 6q-47 6 -99 17.5t-99 24.5t-85 27.5t-59 26.5 l-2 2q-20 10 -37.5 22.5t-37.5 20.5q-10 8 -4 15l-17 8q-6 4 -10 10q-4 2 -7 5l-7 7h-2q-4 4 -5 7q-12 12 -22 24t-19 21q-53 63 -86.5 127.5t-56.5 138.5q-2 0 -4 -1t-4 -1q-6 2 -8 8t8 25l-12 57q0 4 -4 4q-4 8 2 14q-2 6 -2 19q-8 6 -3 16q-4 61 0.5 121.5t8.5 124.5 q4 10 8 10v6q0 4 2 6q10 47 24.5 77t38.5 67l9 16q0 2 1 2t1 2q4 8 13 18.5t19 20.5q0 2 5 6q0 2 4 6l18 39l-4 -2l10 15q8 14 16.5 27.5t18.5 27.5q20 25 43 43l12 16q-6 4 -6 9.5t4 9.5v2h6l4 2l9 2l2 -2h2q27 27 67 47q47 33 98.5 47t110.5 27l68 18l35 23v-2l2 2 q12 -4 8 -11l65 13q4 -4 5 -4q4 0 9 1t9 1l16 8q12 4 13 -6h2v-2q10 0 22 -1t23 -3q2 0 3 1t3 1l6 -4q86 -16 171 -55.5t144 -80.5l37 -32l15 -11l24 11q16 -6 4 -19l-8 -6l39 -27q2 0 6 -4l17 -14v-2q8 4 12 0t0 -10q8 -10 18 -25l23 14q12 4 12 -12q-2 -14 -20 -33 q0 -4 4 -8v-2q0 2 4 2l4 2v-2l2 2q16 -6 4 -18l-4 -4l10 -23l14 4q16 -6 5 -18l-7 -6v-2q0 -2 -2 -2q4 -16 9 -25l8 8l8 8q8 6 11 2t3 -12q-4 -10 -10 -17t-12 -16q0 -6 4 -14q12 2 12 -12l-6 -12l4 -27v-4l4 -31q6 -2 6 -12l-4 -8q0 -18 2 -29v-47h2v-4h-2q2 -23 1 -43.5 t-5 -42.5l-6 -29l4 4l-2 -4q8 -4 8 -14q-14 -29 -17 -58.5t-11 -58.5q14 -6 4 -16q-4 -2 -6 -2t-5 -3q-10 -23 -20 -38l-31 -39l11 10l-11 -21l-28 -22q-8 -8 -14.5 -16.5t-12.5 -16.5q-12 -14 -22.5 -26.5t-22.5 -24.5q-4 -6 -10 -12l-4 -4q-2 -4 -11 -7h-2 q-12 -10 -27.5 -17t-31.5 -13q-35 -25 -83 -29t-95 10.5t-87 43t-59 69.5q-47 -31 -69.5 -45.5t-48.5 -24.5q-57 -25 -104.5 -25.5t-98.5 27.5h-2q-29 4 -53.5 30t-44 59.5t-31 69.5t-13.5 60q0 6 2 9v28q-2 6 -2 19q-4 0 -4 10v21.5t2 23.5v18q0 4 2 5q10 78 40 160.5 t81 129.5l19 15q0 4 6 10l12 8q18 35 53 55.5t72 26.5q12 6 25.5 9t29.5 7l19 7l4 -5q4 0 8 1.5t8 1.5z" />
<glyph unicode="A" horiz-adv-x="1460" d="M385 338q-4 -16 -14.5 -43t-20.5 -55q-4 -23 -12 -42.5t-14 -41.5l-7 -33v-4l-2 -2q-2 -10 -5 -20.5t-7 -20.5q4 -14 13.5 -17.5t25.5 -3.5q4 4 14 4l9 -4v-2q4 0 8 -6q2 -12 0 -27q0 -2 -2 -2v-6q-8 -12 -15 -6l-45 -4q-14 -4 -31.5 -7t-33.5 1q-66 -8 -130.5 -13.5 t-115.5 7.5q-10 8 -4 14h-6q-8 -2 -11.5 3t1.5 13q4 2 7 4.5t7 2.5v2q0 8 6 12q4 0 4 1t2 1q16 4 12 -10q4 2 9.5 4t13.5 6q0 8 10 12q10 2 16.5 9.5t12.5 15.5q4 4 10 0l8 8l6 2q6 23 8.5 44.5t12.5 39.5q18 41 39.5 83t42.5 81q0 2 1 2t1 2v6q0 2 1 3t1 3q0 10 2 13 q4 18 10 35.5t17 29.5l-4 8q-2 23 11 41.5t29 34.5l31 68q-2 2 0 8q8 12 15 18l12 27l-4 -2l18 45l6 4l11 21l-3 -3q-6 -6 -12 -1.5t-2 12.5q23 53 40.5 111.5t41.5 111.5q10 33 25 59q4 8 9 15.5l9 13.5l8 16v4q6 23 17.5 44.5t21.5 44.5q-8 0 -12 2q-10 4 -8 14 q4 12 32 33q0 6 3 8q12 41 31.5 72.5t35.5 66.5q-12 -2 -20 0t-7 14q12 29 48 48q4 39 16 65v2q0 8 6 10t10 -4q2 0 2 1t2 1h5l8 7q27 4 51.5 3t48.5 -6q23 -2 41 -4t35 -4q8 -4 9 -10t-9 -10h-4q16 -25 21 -63t16 -60q10 -29 22 -58.5t25 -58.5q2 0 4 1t4 1q10 -2 10 -12 v-4q0 -2 -1 -3t-1 -3l-8 -6q4 -12 8 -24.5t8 -23.5q12 -25 24.5 -52t24.5 -56h7q4 -4 3 -6t-1 -6q0 -2 -1 -2t-1 -2q16 -35 28.5 -72t26.5 -74q6 -6 4 -12q16 -47 29.5 -93t25.5 -94h8q8 -2 9 -14q0 -2 -2 -4t-3 -5t-4 -5l19 -76l2 2l2 -10v-2q25 6 35 -2q6 -8 0 -15 l-19 -20l5 -10q4 2 12 -2q0 -6 4 -11q6 -6 4 -12q18 -49 32.5 -104.5t35.5 -108.5h2l2 -6h-2q6 -20 14 -33l2 2l14 -35q18 -39 47 -67l9 4q16 4 12 -10q0 -2 2 -2l-6 -4l-2 -3l8 -8q10 4 16 8.5t11 6.5q10 6 13 -1.5t-3 -15.5h2q-2 -2 -6 -2l-11 -10q12 -8 37 -14q2 0 2 1 t2 1t3.5 1t3.5 1q8 -4 8 -8q4 -2 10 -3q10 -4 9 -10t-11 -10q4 -4 4 -12v-19l23 4q8 -2 8 -14q-4 -10 -6 -12t-13 -6h-6q4 -10 -10 -17q-16 0 -66.5 1t-112 2t-125 3t-104.5 7q-2 0 -2 -3q-12 -2 -25.5 -5t-27.5 -3l-6 -10q-10 -4 -14 6q-10 35 -13 66h-4q-6 4 -7 10t5 10 q16 10 42 13.5t34 17.5q4 14 2 31q-10 -4 -14 0q-8 6 -2 16q4 4 12 8h2q-6 35 -23 82q-8 0 -12 2q-8 4 -8 10q0 14 6 31q-10 33 -23.5 63.5t-23.5 55.5q0 -8 -7 -11t-11 7q-2 18 -12.5 33.5t-16.5 33.5q-23 -2 -47.5 -2h-46.5q-6 -2 -17 -2h-10l-201 -8q-39 -2 -73.5 -5 t-73.5 3q4 -4 -4 -12t-14 -21q-2 -10 -6.5 -18t-8.5 -19q0 -4 -1 -9t-1 -9zM844 647q-2 -4 -6 -5t-9 5q-4 4 -4 8l-6 4q-6 14 -12 27.5t-10 28.5q0 2 -1 3t-1 3q-12 35 -19 80l-8 18q-6 0 -8 2l-2 2q-27 45 -39 105q-12 29 -26.5 58.5t-10.5 55.5q-4 10 -8 20.5t-6 20.5 q-2 4 -2 13l-4 -15q4 -4 -5 -12h2q-4 -4 -6 -4l-2 -2l-24 -45l-4 -14v-7l-2 -2h2q-4 -4 -5 -4l-10 -28l-8 -17q0 -2 -2 -2q0 -6 -4 -14q0 -2 1 -2t1 -2q-4 -10 -8 -19.5t-10 -19.5l-7 -6l-12 -39h4q8 -2 8 -15q-2 -12 -9 -22t-17 -21v-2l-10 -22q6 -6 -3 -15q-2 -2 -6 -2 q0 -2 -1 -3t-1 -3q4 -2 8 -12h3l-3 -4q-4 -14 -12 -27.5t-14 -27.5v-2h-2l-6 -19q0 -6 -2 -8q0 -2 1 -2t1 -2q29 -4 57.5 1t60.5 5q6 -4 7 -6q27 2 51 3t49 1q47 8 102 8q8 -2 9 -14v-4q-12 -12 -19 -2h-4z" />
<glyph unicode="B" horiz-adv-x="1118" d="M365 164l2 -2l12 -4q10 0 18.5 -1t18.5 -1q0 10 10 12q10 0 20.5 1t20.5 1q10 4 25.5 2t27.5 -2h8l2 -2q16 4 34 5t34 -3q12 4 26.5 6t24.5 -2q4 0 6 1t4 1l9 6q23 6 46 8.5t44 12.5l22 18l8 6v9l5 4v2q-6 4 -5 12q14 23 26.5 45.5t29.5 44.5v6l2 -2q0 6 2 10 q-2 8 -1 15.5t1 15.5q-6 6 -6 8q-2 10 -2 31q-2 16 -2 33.5v34.5q-10 10 -12.5 23t-6.5 24q-8 -8 -12 2l-6 16l-17 35q-2 0 -2 2q-8 4 -10 7t-6 13v5l-4 4l-19 8q-2 0 -4 2q-6 0 -6 4q-2 0 -10 4q0 -2 -4 -2q-8 -4 -14.5 -1t-12.5 7h-6v2q-4 0 -4 4q-6 0 -10 2 q-16 -4 -37 -4t-37 4q-29 -2 -56.5 7.5t-54.5 15.5q-20 -2 -38.5 -3t-36.5 -1h-2q-2 0 -2 2q-12 -2 -24.5 -3t-25.5 -5q0 -10 -2 -21.5t-6 -21.5q10 4 15 0q14 -14 11 -43t-7 -54q0 -20 -2 -30l2 -4q6 -2 6 -13v-4l-4 -4v-18t-2 -19h4l-2 -14v-12q0 -47 -9 -86 q0 -6 -1 -12.5t-1 -12.5q0 -2 2 -2q0 -10 1.5 -18.5t1.5 -18.5q0 -2 1 -3t1 -5v-2q2 -6 3 -14.5t-1 -18.5q2 -2 2 -6q0 -10 1 -17.5t-1 -17.5q-4 -6 -6 -6v-8zM375 872q-2 -6 -2 -16q8 -4 16 -4q2 0 2 2v2h6q25 8 51.5 5t53.5 -7q6 0 12 1t10 1q25 4 49.5 5t47.5 -3h2 q4 2 14 2l2 2l2 4q10 14 30.5 20.5t37.5 2.5l18 12l2 4q8 16 14 25q14 27 25.5 55.5t24.5 44.5q0 2 1 2t1 2q-6 0 -7 8h-2q0 2 5 7q4 23 5 33t11 32v55q-4 4 -4 11q-4 8 -9.5 15t-9.5 17q-2 2 -2 9l-6 8q-2 -4 -6 -7t-8 5l-2 2q-4 12 -18.5 18t-22.5 23q-2 4 -1 5t1 3 q-12 8 -25 10q-12 0 -16 2q-10 4 -6 10q-23 4 -41.5 8.5t-40.5 6.5h-6q2 -6 -9 -12l-61 18h-42t-28.5 -2t-29 -4t-39.5 -6v-4q-6 -25 -6 -45q0 -2 2 -5v-4v-43t2 -43q6 4 10 -6q4 -20 2 -39.5t-6 -40.5v-12h2q0 -2 -2 -2q2 -10 2 -19.5v-19.5l2 -2q8 -23 9 -64.5t-15 -62.5 v-23zM31 1460q6 12 14 0q33 2 75 8.5t87 10.5q31 10 49 15t49 5q8 -2 8 -14l-4 -8q6 0 15 -4q39 2 77.5 -0.5t75.5 -6.5l109 13q8 -2 8 -11q6 0 12 -1t12 -1q68 6 138 0h2v-2q6 -4 6 -8q37 -6 66.5 -18.5t52.5 -26.5q6 -10 0 -16q29 -14 54.5 -34t20.5 -46q4 0 9 -6 q2 -23 12 -39.5t22.5 -32.5t23.5 -34.5t15 -41.5q0 -16 -14 -12q2 -18 3 -37.5t-1 -38.5q-2 -16 -14 -39l8 4q-4 -16 -7 -30.5t-7 -28.5q0 -4 1 -7t-1 -7q-4 -4 -7.5 -11.5t-7.5 -13.5q-2 -20 -18 -31q-2 0 -2 -2q-16 -23 -35 -41l-4 -2q0 -4 -2 -6q-6 -10 -7 -11t-7 -5v-6 q-8 -23 -37 -37l-4 -6l34 6q8 -2 9 -15q-6 -18 -27 -28l45 -23q4 -4 8 -11t6 -11q4 -4 6.5 -5t4.5 -6h4q6 -2 10 -6l8 -8v-8q12 -14 25.5 -26.5t21.5 -28.5q4 -10 -8 -17q4 -8 4 -12q8 6 14 0q4 -8 5.5 -16.5t1.5 -18.5t-7 -12l5 -6l6 -19l4 -6q0 -4 1 -5t1 -5v-8l6 -17 q6 2 10 -6q4 -10 3 -21.5t-1 -23.5v-55l-4 -4q2 -8 2 -25h4q-2 -4 -2 -8q-2 -8 -3 -16.5t-5 -16.5l-10 -31v-16q0 -10 -10 -12l-5 -13h5q8 -8 -2 -16q-20 -20 -41 -54t-50 -42q-10 -8 -26 -15q-6 -2 -8 0l-4 -4q-10 -6 -21.5 -13t-24.5 -11q-8 -6 -6 -11.5t-6 -9.5 t-31.5 -12t-51 -15t-52.5 -11.5t-37 -2.5h-2q-2 0 -2 2h-2q-10 0 -11 -1t-12 -7q0 -4 -8 -10h-14q-4 0 -4 2q-37 2 -75 0t-73 -4q-2 0 -2 -2h-116l-2 4q-33 0 -66 1t-66 1q0 -2 11.5 -2t9.5 -2v-2h-2q-18 -2 -40 -6t-40 2l-4 4q-23 -4 -47.5 -5t-46.5 -1l-8 6l-35 4 q-12 -12 -17 -2v2q-4 16 -7 38.5t16 33.5q6 2 10 -2q61 2 83.5 13t25.5 32.5t-1 52.5t9 72q2 10 2 18v18h-5q-4 0 -6 3l-2 2v14l-2 2q-12 14 4 35q2 20 4 39.5t2 40.5q-8 0 -10 8q-4 16 -8 44t16 40q0 2 -1 4t-1 6q-2 0 -2 -1t-2 -1h-6q-12 4 -4 16l10 9l-4 24q-4 10 -8 31 h-4q-12 4 -4 16q2 2 3 4t5 4v25q-2 6 -2 16q-2 12 0 26.5t6 27.5q0 8 4 10q0 8 2 12q0 2 4 6q-2 10 -3 19.5t-1 15.5q-2 0 -2 2q-6 4 -5 9.5t5 9.5l2 2q0 12 1 29.5t1 50.5q-2 14 -2 27.5v27.5q-12 -2 -20 0q-14 4 -6 16l4 2v2l22 17v61l4 8q-4 35 -9 71t-7 73q0 4 4 8 q-2 16 -2 30.5v30.5v4q0 33 1 45.5t-1 18.5t-6 14t-15 33q-6 4 -10 8l-8 8h-6q-6 0 -6 4q-18 2 -45 -4q-10 2 -6 13q-4 0 -5 8v37q-16 12 5 20h6z" />
<glyph unicode="C" horiz-adv-x="1275" d="M664 1464q12 0 18 -2q0 8 10 13h34.5t35.5 -5h2q4 0 10 -1t10 -1q4 6 7 9q10 6 36.5 4t58.5 -9.5t66.5 -17.5t61.5 -18q27 -4 47 -13h6q8 -4 10 -8l21 -18q10 0 22 -13q4 16 10.5 34t20.5 26q-2 0 -2 2q-2 0 -2 2q-2 2 -2 4t1 2t1 2t2 4l2 2l4 2h16q0 2 5 6v5h43 q12 -4 8 -13q6 -6 4 -12q0 -2 1 -4t1 -4q0 -12 -2 -17q2 -2 2 -6l-4 -20l2 -4q0 -16 1 -30.5t1 -31.5q2 -14 3 -26.5t1 -22.5q0 -6 -4 -10v-41q12 -33 -4 -66q4 4 8 0t4 -10v-22q2 -18 2 -38t-4 -38q-6 -6 -8 -6l-8 -6h-43q-6 -2 -19 -3h-4q-4 -4 -10 3h-2l-2 2q-6 2 -6 10 q-4 12 -4 14q-4 6 -5.5 13.5t-3.5 13.5t-10 18v2q-10 14 -21.5 29.5t-19.5 32.5q-2 0 -4 2q-4 2 -5 4t-3 4h-2q-10 8 -18.5 14t-18.5 13q-25 6 -41 14q-35 6 -72 22h-2q-2 0 -2 2q-4 2 -4 9q-12 4 -14 4q0 -4 -4 -8.5t-11 0.5q-10 4 -18 7t-16 7q-23 4 -44.5 5t-48.5 1h-4 q-92 -8 -172 -35.5t-145 -103.5q-29 -31 -51.5 -68t-40.5 -76l-10 -20l20 4q16 -6 4 -18q-2 0 -2 -2h-2q-8 -6 -16.5 -13.5t-18.5 -11.5l-6 -18q0 -2 1 -4.5t1 -6.5q0 -6 -4 -14l-6 -64l-4 -6l-2 -8l2 -2q2 -10 2 -17v-18q0 -10 -10 -14v-4q10 4 10 -12q-2 -10 -2 -31l2 -2 l4 4q8 4 11 -3t-1 -13q-16 -16 -12 -43q2 0 2 1t2 1q10 4 12 -4.5t-4 -14.5q-8 -8 -12 -29q2 -4 1 -5t1 -5l-4 -2q4 -14 9 -27.5t5 -29.5v-2h-2q4 -12 4 -21l2 2l4 -20l-4 -2l4 -21q2 0 6 4q0 -2 1.5 -4t1.5 -4l-9 -4q0 -2 2 -2q0 -8 4 -16l9 4q4 -8 4 -12q-4 -4 -6 -5l4 -8 q6 0 8 -2l2 2q2 -6 4 -10l4 -8q10 -18 22.5 -41t26.5 -33q18 -16 37 -34.5t33 -41.5l31 19q6 4 10 -4q2 0 2 -1t2 -1q2 -2 2 -13q-4 -10 -9 -17t-11 -15l8 -7q23 10 37 7q18 -6 6 -19l-4 -4q10 -4 21 -7t22 -7l8 4q8 2 12 -2l2 -2q6 -8 0 -15q14 -4 26.5 -8t26.5 -6 q47 4 86 -10h33q-4 -4 -8 -6l-8 -4q2 0 3 1t3 1q8 -2 8 -9h6q8 0 13 2l30 19l58 8l-29 -16l53 8l39 22q2 0 4 1t6 1q66 39 129 58l2 2v-2l3 2q4 0 4 -2q4 4 12 8l2 2q10 10 17.5 14t19.5 9h6q4 4 8 6t10 6h7q4 8 10 5t6 -13q-2 -10 14.5 -27.5t26.5 -32.5q4 -4 6 -4l-2 -2 q4 -12 -8 -12q0 -6 2 -8q4 6 9 2t5 -13q-4 -12 -14 -15t-21 -11q-23 -18 -38 -41t-44 -37q-29 -16 -59.5 -24.5t-58.5 -16.5q0 -6 -4 -10q-12 -6 -21 -8q-4 0 -4 2l-57 -15q-4 0 -4 2q-4 -2 -11 -2q-4 -4 -8 -4q-10 -6 -14 4q-16 -4 -34.5 -9t-37.5 -9q-23 -4 -43 -4h-43 q-14 -2 -28.5 0t-28.5 2q-6 6 -6 4q-2 2 -2 6q-16 0 -29.5 2t-30.5 4q-2 0 -6 4q-6 2 -13 2t-14 4l7 4l4 3l-25 6l-12 -6l-21 6l6 4l-22 6q-2 0 -2 -2l-8 -6h-2q-23 4 -44.5 10t-52.5 16h-4v2q-4 4 -4 7q-4 0 -6 2q-8 -8 -16 -2q-2 0 -2 1t-2 1q0 2 -1.5 2t-1.5 2l-28 18 q-20 10 -29 21h-6q-2 0 -2 2q-10 8 -17.5 16t-15.5 16q-2 0 -2 2q-23 25 -39 62l-4 6q-6 -6 -12 0q-25 16 -45 59q-4 0 -4 5l-25 36q-6 -6 -14 4v3q-6 27 -14.5 52t-12.5 54q-6 0 -8 4q-18 49 -23 98q-2 8 -2 25q-4 10 -5 18.5t-3 18.5q-4 -6 -10 -6v10q0 16 -2 25 q2 27 -2 54t-4 56q4 8 4 14q-4 0 -9 -1t-10 -1q-12 6 -6 19q6 10 14.5 17t16.5 16q0 16 2 32.5t10 30.5v8q-8 -4 -8 11q2 10 4 19t6 19l13 43q2 23 12 46.5t14 35.5q4 8 13 4l6 19q4 16 8 30.5t8 28.5v2l2 2q8 12 12 2l9 5l10 24h-2l2 4q8 18 22 25l2 2q0 6 2 8h-2l17 25h4 q16 25 31.5 44t29.5 29l2 2v-2l2 2h5l12 13q4 10 23.5 24.5t41 28.5t40 24.5t24.5 14.5t10 -4q8 4 15.5 7t15.5 7l18 12h8q23 8 47.5 13.5t47.5 11.5l6 4h6q12 4 24.5 8t24.5 8h2l2 2v-2q8 0 8 -12q1 4 9 8z" />
<glyph unicode="D" horiz-adv-x="1316" d="M958 356h3q37 63 52 140t21 149q-2 2 -2 8v6q6 39 6 82l2 2q-2 39 -4 83t-6 77q-6 0 -8 2q-10 16 -14 33.5t-9 36.5q-4 4 -4 6q-10 37 -20 62.5t-27 48.5l2 2q-27 41 -52.5 67.5t-57.5 67.5q-4 6 0 10q-6 6 -13.5 10t-21.5 11h-4v2l-6 6l-2 2q-8 -4 -13 -2q-2 0 -2 2h-2 q-6 6 -14 10t-17 8q-20 8 -40.5 13.5t-38.5 13.5q-2 0 -4 2q-27 0 -62 10q-2 0 -4 2h-25q-27 -2 -57 0h-2q-6 -2 -18 -2q-33 -10 -64 -4q-14 -2 -27.5 -2h-29.5q8 -12 9 -31.5t-1 -39t-5 -37t-5 -27.5q-2 -23 4 -46.5t-4 -45.5l-4 -4l-5 -72v-30.5t-2 -31.5 q10 -35 9.5 -70.5t-7.5 -70.5v-4l9 4v-2q18 -4 4 -18l-10 -7q0 -20 1 -38.5t1 -38.5q6 -4 6 -11q0 -16 -2 -29.5t-6 -29.5q0 -23 -1.5 -47.5t-5.5 -48.5v-62l-6 -4v-18q2 0 3 1t3 1v-6l4 -4q4 -53 8.5 -107.5t-12.5 -103.5v-58h19q16 -4 6 -16q2 -2 2 -8h25v-2q4 2 8 1t8 1 l8 -6q10 4 20.5 4t20.5 -2l2 2h25q14 0 26.5 1t24.5 3q6 2 11 4t11 2l3 2h4l43 4q0 4 6 4v2h2q10 2 31 2l4 4v2h4q23 4 41 10.5t41 6.5h2l20 8l4 2q0 2 2 4v2h2l2 2q10 4 18.5 8.5t18.5 8.5q2 0 3 1t3 1q18 10 40 22t34 23l31 32q-2 0 -2 -1t-2 -1zM6 1444q-8 4 -7 10t9 10 q12 0 25.5 1t27.5 3q0 6 9 9q29 6 76 9t102 3t112.5 -2t106.5 -6q31 4 63.5 2t61.5 -10q41 6 83 4t79 -17q33 -8 65 -28q23 0 43.5 -6.5t42.5 -14.5q25 -8 50.5 -17.5t45.5 -25.5q6 -6 0 -12l33 -17l4 -8l13 -16q4 2 10 0v-2l2 2v-2q18 -14 36.5 -25.5t35.5 -25.5v-2h2 l-2 -3q8 -8 -2 -12l18 -28q6 0 8 -3l4 -10l4 -2q10 -10 20.5 -29.5t10.5 -37.5q2 0 3 1t3 1q16 -6 4 -19l-6 -6q4 -8 7 -15t8 -14v-8q6 -10 11 -22.5t5 -22.5q23 -29 14 -55q-2 -4 -3 -4t-3 -2l4 -27q16 -31 23.5 -64.5t3.5 -68.5q6 -25 10 -51.5t-6 -48.5q-6 -6 -10 -7 q0 -4 -1 -6t-1 -6q0 -10 -2 -14q2 -14 3 -26.5t1 -24.5q0 -2 2 -4v-21v-35.5t-6 -36.5q-6 -8 -13 -8q-6 -104 -38.5 -177t-96.5 -134q6 0 9 -5t-1 -11q-14 -23 -55 -50.5t-90 -53.5t-98.5 -44t-81.5 -18l-35 -7q-4 -4 -6 -4q-20 -4 -33 -4v-2h-4q-35 -4 -68 -4t-65 -4 l-37 -6q-14 6 -6 18q-6 0 -11.5 -1t-11.5 -1v-2q0 -4 -2 -6q-2 -4 -6 -4l-8 -6q-18 -4 -35.5 -3t-36.5 3q-2 0 -2 1t-2 1h-4v2q-8 4 -4 10q-18 -2 -36.5 -3t-37.5 -5q8 -8 -8 -14h-53q-2 0 -2 2h-2q-12 2 -25.5 2h-26.5l-6 -4h-33l-2 2l-2 -2v2l-2 2h-60.5t-60.5 8h-2v2 q-6 0 -6 4q-6 0 -14 4q-8 2 -8 10q-4 0 -4 2v-10q0 -2 -2 -2v-2q-2 0 -4 -2h-3q-6 -4 -10 4v66q4 10 10 10h9l6 -4l4 4v2h2q2 0 3 1t3 1l4 -4h8q12 8 31 6v-2l2 2v-2q2 0 6 -4h13l12 20l6 29q0 16 -1 30.5t-1 31.5q-6 0 -11 -1t-12 -1q-6 2 -8 8q0 8 -2 10q0 2 4 10l29 23 q0 2 1 3t1 5q-4 0 -4 2q-20 0 -29 2q-12 4 -4 16l4 2v2l33 21q0 6 1 12t1 13q-2 10 -2 19v19q-6 -4 -10 -1t-4 10q0 39 3 75.5t5 73.5q-2 16 -1 30.5t1 29.5q0 10 8 10v6l-4 22q-4 0 -4 9v6h2q0 6 6 6v27q-4 16 -6 36.5t-2 40.5q-20 0 -31 4q-8 2 -6 15q10 23 35 39 q-8 35 -8 75.5t2 77.5q-4 16 0 35h-2q-6 12 6 17q-2 10 -1 22t3 25q-2 18 -3 40.5t7 38.5q-6 23 -11 44.5t-1 46.5v2q-4 18 -3 36.5t1 36.5v11q-2 14 -3.5 27.5t3.5 27.5q0 2 4 6q-6 4 -12.5 9t-12.5 14q-18 -4 -38.5 -4.5t-41.5 -0.5q-8 4 -7 10.5t9 10.5h6v37h-12z" />
<glyph unicode="E" horiz-adv-x="1122" d="M942 1194q-4 -4 -10 -4t-6 10q0 8 2 12q-8 0 -8 11q0 43 -8.5 54t-43.5 13q-2 0 -3 1t-3 1q-55 8 -119.5 8t-129 -3t-127 -7t-115.5 -4v-80q10 -74 14 -149.5t-14 -145.5l-4 -4v-4q4 -4 0 -12v-35l8 -4q37 0 75.5 -1t77.5 -5h2q8 -4 9 -10l184 -7q33 10 59 17q8 -2 9 -15 v-2l30 2q25 10 43.5 26.5t24.5 47.5h-8q-8 4 -7.5 10.5t9.5 10.5h39.5t38.5 6h6l2 -2q8 -4 0 -17v-93t-6 -93l-7 -33q2 -16 2 -31.5t-4 -27.5q0 -2 -2 -2v-17l4 2v-24q0 -6 2 -8h-6q0 -4 -4 -8v-3h-2q-4 -4 -8 -4t-6 4q-27 -2 -33 -8q-2 -8 -8 -10t-10 8q-2 10 -3 18.5 t-6 16.5l-8 21q-4 10 -12 17t-18 13q-41 4 -78 12.5t-72 10.5q-80 4 -161 2t-161 -2q4 -33 5.5 -66t-2.5 -67q-2 -2 -3 -4v-7h3q-2 -2 -3 -4v-86q2 0 3.5 1t3.5 1l8 -4q0 -2 1 -3t1 -3q4 -6 -2 -14l-15 -12q0 -29 1.5 -58t3.5 -57h2q6 0 8 -4l2 -4q4 -6 -2 -13q-2 -6 -8 -8 q0 -2 2 -4l8 -100q0 -4 -4 -8h2q33 -2 63.5 -3.5t63.5 -5.5q98 4 195.5 12.5t197.5 12.5h6q31 20 60.5 53t44.5 66q0 2 1 3t1 3q-4 8 2 14v2q4 10 9 9t7 -7l45 -4h23q6 -4 6 -6q14 -4 2 -16l-8 -7l-6 -10q-2 -10 -13 -20q-4 -29 -6 -60.5t-12 -60.5q-4 -6 -8 -6q0 -4 -4 -13 q0 -4 -5 -16h2v-8q-2 -2 -4 -2q-2 -4 -3 -7t-1 -7q0 -2 1 -3.5t1 -5.5q0 -2 -2 -4h2q0 -2 -1 -3t-1 -3t-1 -2t-1 -2q-4 -20 -8 -29v-4q0 -2 -2 -2v-2q-2 0 -3 -1t-3 -1q-8 -4 -10 -2h-17v-2q-16 -10 -21 -14t-22 -4q-8 6 -6 14q0 2 2 4h-162l-604 -8l-14 -12q-8 -4 -12.5 1 t0.5 11q-31 0 -62 -1t-59 -1q-6 2 -6 6q-6 -2 -11 6v4l4 4q0 10 -4 31q0 4 6 10q4 8 17 6q8 -6 29 -6v2q16 8 28 17.5t29 15.5q0 12 4 20l-2 3l2 4q2 12 7 23t9 22l2 10q-6 31 -2 70q-2 10 -1 22t3 23q0 12 2.5 22t6.5 21q-10 45 -11.5 94t-1.5 96l-2 2v53q-8 -2 -10 3.5 t2 13.5l6 6q-4 31 6 59q-8 0 -8 9q-4 16 -2 35.5t6 37.5l8 41q0 2 -1 2t-1 2q-6 12 -9 38t-4 55.5t-2 58.5t-3 45q0 10 6 10q-6 45 -10 91t10 85q-8 0 -10 2q-8 6 -2 17l18 16v47q-4 6 0 10q0 10 2 15q-10 25 -16 50.5t-10 47.5q0 10 8 10q-12 8 -21 11q-14 0 -27.5 1 t-25.5 1q-6 -6 -10 0q-4 -4 -4 -5q-2 0 -2 -2h-8q-4 4 -5 11v43h-14q-8 4 -7 10t9 10h17q6 4 10 0h237q31 18 62 25q8 -2 8 -13l-4 -12h180q2 2 4 2t6 2l7 -4h161q12 0 17 2q2 0 3 1t3 1q14 4 29.5 5t31.5 1q12 0 24.5 1t26.5 1q12 -4 9 -12h159q16 -6 2 -18q0 -2 3 -4v-54 q12 0 4 -12l4 -2q-2 -2 -6 -2l-2 -2v-29q2 0 3 1t3 1q16 -6 4 -18l-10 -6q0 -25 1 -48.5t3 -45.5v-7q10 -6 2 -14q-4 -4 -9 -4h-59v0z" />
<glyph unicode="F" horiz-adv-x="1120" d="M426 948q0 -6 -1 -14t-3 -19h10q12 4 12 -12q-2 -12 -1 -13t-9 -7q4 -6 -1 -11.5t-11 -3.5v-12h8q25 -14 68 -18q39 2 87 4t90 5t70.5 6t30.5 3q16 10 16.5 22.5t2.5 28.5q0 2 4 6q2 6 8 9q18 0 36.5 4t37.5 6v-2q6 -2 7 -6t-3 -9q2 -2 2 -6q0 -47 4 -93t6 -93 q4 -35 -4 -66.5t-4 -66.5v-2q4 -4 4 -9.5t-10 -7.5q-18 0 -37 -3t-39 -3q-10 2 -6 15q-4 18 -4 35.5t-4 25.5q-10 20 -49 28.5t-89.5 8.5t-104.5 -5t-93 -9q-8 -4 -15.5 -10.5t-15.5 -12.5l2 -18q-2 -8 -4 -31q-2 -18 -3 -53t-1 -93q2 0 4 1.5t6 1.5q16 -4 6 -17 q-4 -4 -8 -9t-8 -9q0 -29 -1 -58.5t-1 -68.5q6 4 11 6t11 4q16 -6 4 -18l-26 -19q0 -29 1 -54.5t1 -60.5q25 -23 39 -33t28.5 -13t34 0t51.5 5q10 -4 9.5 -10t-11.5 -10v-59l-2 -2q-2 -8 -3 -14.5t-1 -12.5q-8 -8 -16 -4l-2 -2q-115 0 -226.5 -5t-228.5 -10q-10 4 -6 13 q-2 0 -2 2l-4 65q-4 4 -3 9.5t9 9.5q33 -2 64.5 -1t35.5 29q4 10 8.5 10.5t8.5 -6.5q-2 10 -4 22.5t-2 23.5v38.5t-2 38.5v11q0 33 -2.5 64.5t-2.5 66.5q-8 4 0 14v12h-8q-8 2 -6 15l14 22v12q0 2 3 5q-4 35 3 61.5t7 60.5q-2 86 -4 168t-6 166q0 6 2 8q-2 63 -5.5 127 t-3.5 127v2q4 12 13 9q-8 45 -14.5 89t-6.5 91q-20 12 -38.5 13t-45.5 -1v-2q-4 -6 -11 -6t-7 10q0 23 -8.5 38t2.5 34q-6 10 6 16q4 4 8 2l2 2h150l4 -2q2 -2 2 -4h2q6 0 13 -1t13 -1l11 4l6 -4h37.5t37.5 4q2 0 3.5 -1t3.5 -1h24q35 10 73 6t75 -8q29 2 58.5 1t57.5 1 q29 6 62 11.5t61 -5.5q4 -6 2 -8q23 0 43.5 3t42.5 3l33 4v2h47l4 -4h72v-2h29q6 -4 8 -8t-2 -8v-80h8q16 -4 8 -16l-14 -17q0 -23 1 -44t1 -44q0 -4 -1 -5t-1 -3v-31q-2 -2 -2 -4q-4 -14 -21.5 -15t-31.5 -1q-8 2 -9 10q-4 0 -4 6q-2 29 -14 45.5t-31 24.5q-131 4 -263 10 t-263 -2q-2 -6 -3 -11t-1 -11q8 -4 8 -15q0 -39 -2 -75.5t-2 -77.5l-2 -2q0 -33 1 -65t1 -64q4 -5 4 -13z" />
<glyph unicode="G" horiz-adv-x="1370" d="M954 678q-6 0 -6 6h-10q-8 2 -8 10l-15 -6q-8 -4 -12 1t0 11q-6 10 -4 25.5t0 26.5q-8 6 0 14q4 8 12 4h52l6 4q16 0 36.5 -1t41.5 1l6 4q16 6 34 2q6 -4 7 -6l151 4q6 0 8 2q6 2 11 -2h67q4 10 11.5 7t7.5 -13v-51q2 -2 2 -6v-6q-2 -6 -7.5 -8.5t-9.5 1.5q-23 0 -40 -7 t-17 -33q-6 -6 -12 -7q-4 -14 -9 -49v-8l-2 -2q0 -14 -2 -23l2 2v-18q-2 0 -2 -1t-2 -1v-20l4 2q0 -6 -1 -12.5t-1 -12.5l-4 -2q0 -6 -1 -11t-1 -10l6 3v-21l-6 -4q0 -6 -1 -13.5t-1 -13.5l6 2v-24l-6 -4v-17l6 4q-2 -14 -2 -27.5v-27.5q-2 -2 -6 -2v-25l4 3q0 -6 -1 -12.5 t-1 -12.5h15q8 -2 8 -14q-2 -10 -25 -29v-21q4 -4 4 -12l-4 -18v-60q-8 -8 -12 -6q-10 -16 -26.5 -26.5t-30.5 -20.5l-25 -16l-55 -31q-76 -39 -142.5 -56.5t-140.5 -21.5l-51 -6l-4 -4q-10 2 -18.5 2h-18.5h-48.5t-45.5 4q-4 2 -13 2h-47q-8 2 -8 10q-33 4 -64.5 13.5 t-62.5 19.5q-4 0 -17.5 9.5t-30.5 21.5t-36.5 25.5t-34.5 23.5h-2l-2 -2l-2 2q-6 -4 -10 0t0 12q-4 2 -5 4t-3 4q-8 6 -12.5 15.5t-10.5 15.5q-2 2 -4 3t-4 5q-6 0 -6 5q-16 16 -34.5 30.5t-25.5 24.5q-6 6 -14 18h-6h-4q-8 6 -11 8t-6.5 6.5t-7.5 11.5t-14 19q-4 12 4 17 l-4 6q0 -6 -4 -10.5t-12 0.5q-18 31 -28.5 65.5t-14.5 69.5q-14 14 -24.5 34.5t-14.5 61.5q0 6 4 9t8 1q-2 18 -4 39t-2 43v45v43.5t2 40.5h-2q-16 8 -20.5 24.5t-1.5 35t11.5 37t14.5 34.5l6 13q0 4 2 6q4 4 10 4l2 4q8 31 17.5 62.5t25.5 68.5l4 8h-4q-6 4 -7 9t5 10h2v2 h2l27 20q12 16 16 23q4 6 7 10q4 10 6 20.5t6 20.5q16 29 31.5 44t25.5 36q2 6 8 6l15 16q27 23 50 46.5t48 43.5q20 18 55 32.5t75 26t80 19.5t75 12l2 3h4l33 4l4 -4q70 4 138.5 5t135.5 -10q8 -2 25 -10q10 -4 17 -8t16 -8l4 -2l2 2l10 6v-6l4 -4q12 -2 25.5 -4t25.5 -7 q16 -8 25.5 -16t17.5 -12q10 8 21.5 19t15.5 28h-4q-8 4 -7 10t9 10q14 0 35.5 -3t28.5 3q6 4 11 1t3 -7q4 -4 4 -6q8 -27 8 -60.5t-2 -64.5q2 0 3 1t3 1v-2l2 2v-2q12 -6 2 -16l-12 -6v-17q14 -4 2 -16l-2 -2v-35q10 -8 2 -16v-97q2 0 4 1t6 1q18 -4 4 -18q-2 0 -2 -2h-2 l-10 -6v-37q-6 -6 -10 -6q-14 0 -27.5 -2t-29.5 -2q-6 -6 -13 0q-25 31 -43 65.5t-47 63.5q-8 10 -20.5 13t-22.5 9q-49 25 -85 40.5t-72.5 23.5t-78.5 8t-102 -6q-23 -2 -43 -2t-37 -4q-10 -10 -30.5 -17.5t-40.5 -15.5q-10 -10 -17 -6q-4 -2 -6 -2t-4 -2l-39 -23 q-16 -14 -32.5 -29.5t-30.5 -31.5l-9 -9q4 -6 -2 -12q-6 -10 -13 -16t-15 -13l-23 -38l-2 -5l-2 -2l-6 -12q0 -6 -4 -10l-12 -29l4 2q-4 -6 -5.5 -13t-5.5 -15l-2 -2l-6 -25l2 2l-6 -37l-2 -2q-6 -53 -6 -115v-6l-2 -2q0 -20 1 -39.5t3 -40.5q6 0 10 -6q2 -16 2 -33.5v-33.5 h2q12 -25 18.5 -54.5t6.5 -58.5q0 -12 -8 -12q2 -12 4 -23.5t6 -21.5h8q14 -6 17.5 -23.5t-1.5 -32.5l3 -4l-3 -2q10 -18 31 -39.5t41 -44.5q2 0 6 -4l4 -6v-4l7 -6q10 -10 18 -23.5t23 -21.5q39 -25 88 -38t94 -24q8 0 10 -4q51 -6 124 -1t126 22q35 18 66.5 46.5 t35.5 51.5q6 35 8.5 70.5t2.5 72.5q-16 -4 -25 4q-4 8 2 15l23 18l-9 172q0 23 2 43.5t-4 42.5q0 6 2 8h-14q8 -4 9 -10t-9 -10h-2q-16 -2 -33 -2h-35zM39 809q-10 -25 -6 -53q2 0 4 -2z" />
<glyph unicode="H" horiz-adv-x="1345" d="M879 -10q-6 4 -7 10q-6 0 -8 8q-16 49 -6 64.5t31.5 17.5t45 2t36.5 21l2 2l4 2v89t-2 89q0 2 -1 4t1 6v60h-2q-8 4 -8 10q0 18 8 33v34q-4 -4 -8 -4q-6 -4 -8.5 4.5t16.5 36.5v68q-14 -4 -15 8q4 20 15 35v33q-6 14 -15 24q-6 8 -11 13.5t-9 -3.5q-35 -2 -76 -2t-69 2 q-41 -4 -81 -8t-81 -4q-8 4 -8 8h-185q-45 -27 -53 -4q-6 -2 -11 -1t-9 1q2 -2 2 -6q0 -29 -3.5 -58.5t-5.5 -58.5q4 -4 4 -12q0 -18 -1 -35.5t-1 -34.5q2 -8 2 -20l-2 -2v-4q6 -6 7 -12v-64q8 -4 8 -8q0 -10 -8 -25q0 -6 1 -11t1 -9q10 4 10 -13q0 -72 1 -95t1 -29.5 t1 -13.5t1 -44v-8q2 0 4 2q10 2 24.5 5l29 6t25.5 2t15 -9q4 -6 2 -13t2 -11q10 -8 6 -24.5t-8 -25.5q-6 -6 -10 -6q0 -4 -4 -8q-6 -4 -39 -7t-78 -5t-96 -2h-97h-80h-42q-8 4 -7 10t9 10h10l2 2q-12 4 -17 16.5t-14 22.5q-2 6 -2 12q8 16 23.5 20.5t33 5.5t34 2t26.5 13 q4 43 6 85t4 87v17q-18 -4 -28 2q-10 8 -2 16q14 20 30 35q-2 20 -3 40t-1 40q-6 0 -6 10l6 148q-10 -4 -10 10q0 61 3 121.5t3 122.5v2q6 16 15 8q-2 4 -2 16l2 2q0 10 -1 21.5t-1 21.5q0 2 -1.5 5.5t-1.5 7.5q-6 0 -6 10l9 92l-5 -2v39q2 0 2 1t3 1v20q-2 -6 -8.5 -8 t-10.5 8l-8 115q-4 0 -4 8v146q-2 -2 -4 -2q-29 -4 -42.5 4t-21.5 22q-2 -2 -4 -2t-3 6t-3 13q-8 16 -14 24q-4 8 1 14.5t11 2.5q2 0 2 1t2 1q23 4 47.5 2t46.5 -2q86 0 169 1t169 1h2l4 -4q10 4 11 -13q-2 -23 -6.5 -32t-11.5 -10t-16 2t-20 3q-2 -2 -4 -2h-8q-10 0 -18 -8 q-10 -8 -15.5 -18t-9.5 -23q6 -8 0 -14q-2 0 -2 -2q-4 -10 -7 -19.5t-7 -17.5v-211l-2 -2q2 -31 3 -60.5t1 -60.5h14q16 -6 4 -18l-20 -19q-4 -41 -13 -75q51 2 100.5 10t100.5 10q6 -2 8 -8q35 2 72 1t76 -1q6 -2 8 -8l184 6q18 0 31.5 5t30.5 1q10 33 14 84v4q0 10 1 19.5 t1 19.5l-2 -2v16h2v30.5t-2 29.5q0 -2 -2 -4v14l2 2q0 6 -1 12t-1 12q0 -2 -2 -2v33q-10 -4 -10 10q0 16 2 51t2 74v13q-16 -4 -25 -4q-10 6 -8 14q10 23 31 39l-6 31q-2 2 -3 6q-41 -4 -59 0t-33 51q-4 10 4 14h-2q-8 4 -7 10.5t9 10.5h86t86 2h7q35 2 70.5 3t72.5 1l8 4 l6 -4q25 2 49.5 2h49.5q4 6 14 0v-4q8 -4 4 -8l8 -19q0 -10 -2 -14q10 -10 -8 -15h-8q-45 -4 -76 -21t-35 -69l-4 -6v-303l-4 -4v-14l4 -2l-6 -4q-2 -29 -5 -59t-5 -60h2v-29l-4 -4v-18q10 4 10 -13q0 -53 -1 -106t-1 -107q6 -6 6 -12v-162l2 2v-26.5t2 -26.5l-4 -4v-49l4 4 q0 -4 1 -5t1 -3l-6 -6v-7q8 -4 8 -14q0 -29 2 -50.5t5 -41t6.5 -38.5t3.5 -46v-2q20 2 36.5 6t28.5 2t18.5 -13.5t6.5 -35.5q0 -2 4 -14q6 -4 6 -13v-6q-2 -2 -2 -4q-4 -2 -12 -2q-2 0 -5 2q0 -2 -8 -6q-84 -4 -166 -3t-168 1q-20 0 -38 -7t-41 3z" />
<glyph unicode="I" horiz-adv-x="505" d="M371 813q2 -2 -11 -10q0 -8 -1 -14.5t-1 -14.5q29 6 24 -3t-24 -26l2 -51v-4l2 -8l3 -33q2 -2 2 -6q0 -29 -3.5 -58.5t-5.5 -58.5q4 -4 4 -12q0 -18 -1 -35.5t-1 -34.5q2 -8 2 -20l-2 -2v-4q6 -6 7 -12v-64q8 -4 8 -8q0 -10 -8 -25q0 -6 1 -11t1 -9q10 4 10 -13 q0 -72 1 -95t1 -29.5t1 -13.5t1 -44v-8q2 0 4 2q10 2 24.5 5l29 6t25.5 2t15 -9q4 -6 2 -13t2 -11q10 -8 6 -24.5t-8 -25.5q-6 -6 -10 -6q0 -4 -4 -8q-6 -4 -39 -7t-78 -5t-96 -2h-97h-80h-42q-8 4 -7 10t9 10h10l2 2q-12 4 -17 16.5t-14 22.5q-2 6 -2 12q8 16 23.5 20.5 t33 5.5t34 2t26.5 13q4 43 6 85t4 87v17q-18 -4 -28 2q-10 8 -2 16q14 20 30 35q-2 20 -3 40t-1 40q-6 0 -6 10l6 148q-10 -4 -10 10q0 61 3 121.5t3 122.5v2q6 16 15 8q-2 4 -2 16l2 2q0 10 -1 21.5t-1 21.5q0 2 -1.5 5.5t-1.5 7.5q-6 0 -6 10l9 92l-5 -2v39q2 0 2 1t3 1 v20q-2 -6 -8.5 -8t-10.5 8l-8 115q-4 0 -4 8v146q-2 -2 -4 -2q-29 -4 -42.5 4t-21.5 22q-2 -2 -4 -2t-3 6t-3 13q-8 16 -14 24q-4 8 1 14.5t11 2.5q2 0 2 1t2 1q23 4 47.5 2t46.5 -2q86 0 169 1t169 1h2l4 -4q10 4 11 -13q-2 -23 -6.5 -32t-11.5 -10t-16 2t-20 3 q-2 -2 -4 -2h-8q-10 0 -18 -8q-10 -8 -15.5 -18t-9.5 -23q6 -8 0 -14q-2 0 -2 -2q-4 -10 -7 -19.5t-7 -17.5v-211l-2 -2q2 -31 3 -60.5t1 -60.5h14q16 -6 4 -18l-20 -19q-4 -41 -13 -75v-21h-8q-2 -2 -4 -2v66l2 4l-2 -2q0 10 1 18t1 18l4 5v4l-4 -2v24q0 -2 2 -4l4 2v27 q12 8 12 -13q0 -37 -1 -73.5t-1 -71.5h2l-2 -2v-6l11 8v0z" />
<glyph unicode="J" horiz-adv-x="706" d="M82 14q-8 2 -8 11q-10 0 -20.5 2t-20.5 12q-8 10 -14.5 21.5t-10.5 21.5l-6 8l-2 2q-2 4 -4 10.5t-2 12.5q-8 0 -8 10v4q2 4 4 5t4 3q2 20 10 36.5t25 23.5l2 2q6 10 15 18t22 6l22 -4q4 10 16 6q33 -25 75 -30t83 -5l6 -4q27 6 42.5 20.5t37.5 35.5q2 2 6 2 q16 23 19.5 39t3.5 39h-4q-8 2 -6 14l6 14q-2 12 -3 28.5t-1 37.5v16q-6 0 -6 10l6 148q-10 -4 -11 10q0 61 3.5 121.5t3.5 122.5v2q0 6 -2 8h2q-2 0 -2 2v14l2 2q0 10 -1 21.5t-1 21.5q0 2 -1.5 5.5t-1.5 7.5q-6 0 -6 10l9 92l-5 -2v39q2 0 2 1t3 1v21q-2 -6 -8.5 -8.5 t-10.5 8.5l-8 114q-4 0 -4 8v146q-2 -2 -4 -2q-29 -4 -42.5 4t-21.5 22q-2 -2 -4 -2t-3 6.5t-3 12.5q-8 16 -14 24q-4 8 1 14.5t11 2.5q2 0 2 1t2 1q23 4 47.5 2t46.5 -2q86 0 169 1t169 1h2l4 -4q10 4 11 -13l-7 -32q6 -6 -2 -15q-16 -12 -45.5 -20t-52.5 -14q-2 -2 -2 -7 q6 -8 0 -14q-2 0 -2 -2q-4 -10 -7 -19.5t-7 -17.5v-211l-2 -2q2 -31 3 -60.5t1 -60.5h14q16 -6 4 -18l-20 -19l-7 -49l15 -47h2l-2 -2v-6l10 8q2 -2 -10 -10q0 -8 -1 -14.5t-1 -14.5q29 6 23.5 -3t-23.5 -25l2 -52l10 7l-8 -19v6l-2 2l2 -8l2 -33q2 -2 2 -6q0 -29 -3 -58.5 t-5 -58.5q4 -4 4 -12q0 -12 -1 -23.5t-1 -23.5l2 -2q10 -16 9 -33.5t-5 -34.5h4l-4 -2q-2 -10 -5 -19t-5 -20v-2l-2 -2q0 -4 -1 -8t-1 -8q-2 -23 -1 -48.5t-8 -49.5q-6 -23 -21 -39.5t-32 -36.5q-16 -20 -32.5 -46t-38.5 -42q-61 -49 -145.5 -64.5t-162.5 -1.5h-59v0z" />
<glyph unicode="K" horiz-adv-x="1308" d="M451 907q-8 4 -7.5 10.5t9.5 10.5q27 8 45 29.5t34.5 44t34 43t43.5 30.5h8l5 4l2 2l45 39q8 10 15 19.5t17 15.5l21 19q6 4 8 2q39 41 68 67l2 2q6 6 16 19.5t22.5 29t26 31.5t25.5 27q-6 0 -8 6l-4 -2h-5l7 6h-9h-6q-10 -2 -24.5 -14.5t-30.5 -8.5q-23 4 -26 23.5 t-1 38.5q-8 8 0 14v2q2 8 7.5 8t9.5 -4q16 4 46 10.5t58.5 10.5t51 7t24.5 3l4 -4q27 2 51 0q47 0 96.5 2t96.5 2q8 4 14 -2q2 -2 2 -4q2 0 6 -6v-10q4 -10 4 -35l-4 -4q0 -6 -2 -9q10 -10 -8 -14q-20 0 -29 -2l-8 -6h-2l-49 -4q-6 0 -6 4l-8 -4q-4 -2 -27 -25q0 -4 -4 -8 l-47 -47q-16 -23 -34.5 -45.5t-33.5 -36.5l-6 -6q8 -4 7 -9t-11 -10h-2q2 -8 -10 -12q-4 -4 -8.5 -5t-8.5 -5q-29 -23 -67.5 -61.5l-69.5 -69.5q0 -2 -4 -6h2l-6 -4l-16 -17l-9 -12h-2q-8 -8 -12 2q-8 -10 -16.5 -17.5t-18.5 -15.5q4 -31 -21.5 -47t-56.5 -25l-2 -2l-26 -20 l-2 -2l-25 -19q18 -6 6 -18q-8 -8 -15 -13t-18 -12l-28 -32l-2 -2l8 -4q8 -16 14 -25h8q18 -16 28.5 -26.5t31.5 -32.5v-4q2 6 12 2q14 -12 26.5 -26.5t22.5 -31.5l15 -16v-2h2q12 -8 27.5 -16.5t15.5 -24.5q0 -10 -6 -12l32 -37q4 -2 5 -4t4 -5q2 -4 10 -12v-8l8 -6 q4 4 10 0v-2l2 2l8 -10q14 -10 26.5 -23.5t25.5 -28.5l71 -82l17 7l8 -4q6 -10 -2 -29q20 -23 35.5 -38t25.5 -24q23 -23 46.5 -42t43.5 -42q16 -10 29.5 -33.5t30.5 -33.5q2 0 3 1t5 1q27 6 53.5 5t48.5 -15q6 -8 2 -13l2 -6q2 0 2.5 -1t2.5 -1q-4 -10 -4.5 -19t-0.5 -20 q-2 0 -2 2q-25 -25 -71 -24l-8 -4h-46.5t-46.5 6h-2v2h-48t-44 4q-2 0 -2 2q-4 0 -9 -1t-9 -1l-8 -6q-33 -6 -62 -2t-59 6q-4 -8 -12.5 -5t-4.5 13v2q-4 2 -4 10v2q-4 -6 -6 -6q-4 -4 -4 -6h-4v2q-2 2 -6 8q-16 51 7 62.5t62 11.5l-8 12q-14 8 -26 25q-14 10 -25.5 24.5 t-22.5 26.5h-4l-2 2l-16 17q-4 0 -4 4q-14 12 -23.5 24.5t-19.5 26.5q-6 0 -10 2q-6 4 -18.5 14.5t-26 22.5t-24.5 24.5t-11 22.5q-8 8 -21 24q-4 -8 -14 -2q-16 16 -32.5 34t-29.5 38q-29 23 -60.5 50.5t-43.5 52.5l-31 28q-8 -8 -14 -6q-12 4 -19.5 12.5t-13.5 18.5 q-6 -2 -16 -2q-6 2 -8 8q-2 2 -2 8l-7 -76q4 -4 4 -12q0 -18 -1 -35.5t-1 -34.5q2 -8 2 -20l-2 -2v-4q6 -6 7 -12v-64q8 -4 8 -8q0 -10 -8 -25q0 -6 1 -11t1 -9q10 4 10 -13q0 -72 1 -95t1 -29.5t1 -13.5t1 -44v-8q2 0 4 2q10 2 24.5 5l29 6t25.5 2t15 -9q4 -6 2 -13t2 -11 q10 -8 6 -24.5t-8 -25.5q-6 -6 -10 -6q0 -4 -4 -8q-6 -4 -39 -7t-78 -5t-96 -2h-97h-80h-42q-8 4 -7 10t9 10h10l2 2q-12 4 -17 16.5t-14 22.5q-2 6 -2 12q8 16 23.5 20.5t33 5.5t34 2t26.5 13q4 43 6 85t4 87v17q-18 -4 -28 2q-10 8 -2 16q14 20 30 35q-2 20 -3 40t-1 40 q-6 0 -6 10l6 148q-10 -4 -10 10q0 61 3 121.5t3 122.5v2q6 16 15 8q-2 4 -2 16l2 2q0 10 -1 21.5t-1 21.5q0 2 -1.5 5.5t-1.5 7.5q-6 0 -6 10l9 92l-5 -2v39q2 0 2 1t3 1v20q-2 -6 -8.5 -8t-10.5 8l-8 115q-4 0 -4 8v146q-2 -2 -4 -2q-29 -4 -42.5 4t-21.5 22q-2 -2 -4 -2 t-3 6t-3 13q-8 16 -14 24q-4 8 1 14.5t11 2.5q2 0 2 1t2 1q23 4 47.5 2t46.5 -2q86 0 169 1t169 1h2l4 -4q10 4 11 -13q-2 -23 -6.5 -32t-11.5 -10t-16 2t-20 3q-2 -2 -4 -2h-8q-10 0 -18 -8q-10 -8 -15.5 -18t-9.5 -23q6 -8 0 -14q-2 0 -2 -2q-4 -10 -7 -19.5t-7 -17.5 v-211l-2 -2q2 -31 3 -60.5t1 -60.5h14q16 -6 4 -18l-20 -19l-7 -49v-47h2l-2 -2v-6l11 8q2 -2 -11 -10q0 -4 -1 -6t-1 -6l39 51q-8 -4 -14 -6t-14 -5q-8 4 -7.5 10.5t9.5 10.5q16 4 29.5 10t29.5 17q6 8 12.5 15t14.5 15q-2 -2 -6 -2zM889 70v-2q2 0 2 1t2 1h-4zM711 922 q-4 -2 -4 -3t-2 -4zM913 63q2 0 5 3q-2 0 -2.5 -1.5t-2.5 -1.5h-2h2z" />
<glyph unicode="L" horiz-adv-x="1138" d="M475 -16q-10 4 -6 12l-121 -2q-25 -4 -49.5 -11.5t-46.5 -17.5q-10 -4 -13 4t5 13l26 12l-92 -2l-14 -12q-8 -4 -12.5 1t0.5 11q-31 0 -62 -1t-59 -1q-6 2 -6 6q-6 -2 -11 6v4l4 4q0 10 -4 31q0 4 6 10q4 8 17 6q8 -6 29 -6v2q16 8 28 17.5t29 15.5q0 12 4 20l-2 3l2 4 q2 12 7 23t9 22l2 10q-6 31 -2 70q-2 10 -1 22t3 23q0 12 2.5 22t6.5 21q-10 45 -11.5 94t-1.5 96l-2 2v53q-8 -2 -10 3.5t2 13.5l6 6q-4 31 6 59q-8 0 -8 9q-4 16 -2 35.5t6 37.5l8 41q0 2 -1 2t-1 2q-6 12 -9 38t-4 55.5t-2 58.5t-3 45q0 10 6 10q-6 45 -10 91t10 85 q-8 0 -10 2q-8 6 -2 17l18 16v47q-4 6 0 10q0 10 2 15q-10 25 -16 50.5t-10 47.5q0 10 8 10q-12 8 -21 11q-14 0 -27.5 1t-25.5 1q-6 -6 -10 0q-4 -4 -4 -5q-2 0 -2 -2h-8q-4 4 -5 11v43h-14q-8 4 -7 10t9 10h17q6 4 10 0h22q59 2 121 0t121 2q10 4 17.5 6t17.5 4q8 -2 8 -8 l141 6q16 -8 4 -16l2 -4q0 -14 -1 -18.5t-7 -16.5q18 -10 -4 -18q-29 0 -66.5 -14.5t-66.5 -34.5l14 -230l13 -205l-4 -4v-4q4 -4 0 -12v-35l8 -4q-2 0 -1 -21.5t3 -48.5q0 -2 -2 -2h2q0 -31 -2 -61.5t-13 -44.5q4 -33 5.5 -66t-2.5 -67q-2 -2 -3 -4v-7h3q-2 -2 -3 -4v-86 q2 0 3.5 1t3.5 1l8 -4q0 -2 1 -3t1 -3q4 -6 -2 -14l-15 -12q0 -29 1.5 -58t3.5 -57h2q6 0 8 -4l2 -4q4 -6 -2 -13q-2 -6 -8 -8q0 -2 2 -4l8 -100q0 -4 -4 -8h2q33 -2 63.5 -3.5t63.5 -5.5h24.5t24.5 2l2 2q0 2 2 5l6 4q18 0 36.5 -1t37.5 -3q66 4 130 8t130 8h6 q31 20 60.5 53t44.5 66q0 2 1 3t1 3q-4 8 2 14v2q4 10 9 9t7 -7l45 -4h23q6 -4 6 -6q14 -4 2 -16l-8 -7l-6 -10q-2 -10 -13 -20q-4 -29 -6 -60.5t-12 -60.5q-4 -6 -8 -6q0 -4 -4 -13q0 -4 -5 -16h2v-8q-2 -2 -4 -2q-2 -4 -3 -7t-1 -7q0 -2 1 -3.5t1 -5.5q0 -2 -2 -4h2 q0 -2 -1 -3t-1 -3t-1 -2t-1 -2q-4 -20 -8 -29v-4q0 -2 -2 -2v-2q-2 0 -3 -1t-3 -1q-8 -4 -10 -2h-17v-2q-16 -10 -21 -14t-22 -4q-8 6 -6 14q0 2 2 4h-207l-6 -4q-18 0 -36.5 1t-37.5 1h-92q-2 -4 -10 -8q-18 -4 -39 -7t-41 1zM489 1448q2 4 2.5 0t0.5 -2z" />
<glyph unicode="M" horiz-adv-x="1536" d="M580 776l4 2q8 2 12 -4v-6l-4 -6q-4 -4 -6 -4l22 -68l8 -18q-2 0 -2 -2l2 -4q0 4 5 -9l-5 5l2 -7q4 4 11 -2q14 -14 25.5 -40.5t18.5 -58.5t13 -65.5t10 -62.5h2v-4q2 -8 3 -14.5t1 -12.5q2 0 2.5 1t2.5 1l8 -16l-6 -6v-2q0 -6 4 -15l8 7l6 -23q-2 -2 -6 -2l6 -18 q2 0 3 1t3 1l17 -41h-2l8 -25q8 12 16 23.5t14 25.5q10 27 18.5 53.5t18.5 55.5l25 86q0 2 -1 4t1 6q4 8 8 12l8 31q-8 6 -2 16l12 13q6 18 13.5 35.5t15.5 33.5q0 4 2 6v3q0 2 4 10q2 2 2 6q0 6 2 8q2 0 2 2q0 4 3 8q-6 4 -5 13l2 4q-4 6 0 10q4 10 8.5 20.5t8.5 20.5 q-8 0 -8 10v6l2 2l8 23v4l2 2l18 57h-2q-12 4 -4 17q4 4 9.5 10t11.5 10q6 47 16 84q4 18 15.5 35.5t21.5 34.5q-4 -2 -6 4t2 12q12 16 19 33.5t14 36.5q-8 6 -2 16l2 2v2h2l6 6q8 25 24.5 65t30.5 81t23.5 71.5t7.5 36.5q-4 6 0 12.5t8 6.5q14 6 39 6t47 -2h31v-2 q6 -4 8 -6q16 0 27 -2l2 2q2 0 2 -1t2 -1q8 0 15 -1t15 -1h9q14 0 27.5 -1t27.5 1q4 4 6 4v2h27l4 2h28l5 -2h20v-2l2 -2q2 2 4 2q10 10 15 -4v-6q4 -10 3 -23.5t-3 -24.5q2 -6 -3 -10v-2h-2q-8 -10 -16 -2h-31q-8 0 -10 -2h-2q0 -2 -2 -4q-4 -4 -12 -4l-21 -10 q-16 -20 -21 -49t-7 -56v-2q-2 -41 -4.5 -83t-6.5 -85h2q2 -2 2 -10v-168q2 0 2 -1t2 -1q10 -23 6.5 -53.5t-1.5 -55.5q2 -51 6 -105t0 -108q0 -10 -4 -26q0 -2 1 -2t1 -2q8 0 12 2q6 0 8 -4l4 -4q4 -10 -4 -15l-18 -16q2 -33 5 -63.5t7 -61.5q0 -8 -2 -13.5t-4 -11.5 q0 -66 1 -131t1 -131q12 4 26.5 7t28.5 -1q12 2 23.5 3t23.5 1q8 -4 9 -8q2 -2 2 -8q0 -16 3 -30.5t3 -30.5q-4 -4 -4 -5v-14q0 -2 -1 -3t-1 -3q-2 -2 -2 -4h-3l-8 -6q-49 -2 -99 -4t-101 0q-10 -8 -18.5 -15.5t-18.5 -13.5q-14 -4 -15 10q2 12 9 23l-39 8q-23 -2 -47.5 -4 t-46 -5t-37 -6t-19.5 -8q-8 -4 -11 1.5t1 13.5q0 2 2 2q-8 6 0 14q-14 29 -4 45q0 6 6 10l14 7q16 8 40 10t44 8v23.5t2 21.5q-2 -2 -6 -2q-12 4 -4 16l12 19l-6 80q-6 4 -4 14v2q-12 4 -2 16q4 2 2 8.5t-2 10.5v20q-4 4 -4 7q-2 10 4 22v51h-6q-10 6 -4 19l10 14v47 q-6 4 -2 12l-2 5q-2 18 6 32v6q-2 -2 -8 -2q-8 4 -8 11q4 20 14 34q-2 23 -5 48.5t-5 50.5h-2q-12 4 -4 16l2 2v2h2v10q-4 -6 -11.5 -6t-7.5 11q2 8 6.5 15t8.5 15v33.5t2 28.5v2q0 12 8 22v27l-2 4q-2 8 4 23l2 38h-6l-14 -32q-4 -14 -3 -29.5t-6 -32.5 q-12 -37 -28.5 -74.5t-32.5 -74.5q8 -4 0 -13l-10 -12v-2q-6 -14 -12.5 -44t-16.5 -50q-2 -29 -11 -57.5t-22 -55.5q-10 -29 -15 -56.5t-5 -59.5q-4 -6 -10 -7h-5l-4 4q0 -2 -2 -2q4 -4 4 -8l-12 -28q4 -4 4 -13q-4 -8 -7 -16t-7 -16q-6 -10 -14 -7v-2q4 -4 4 -12l-4 -8 q-4 -10 -9 -27q0 -12 -6 -24q6 0 6 -13q-2 -12 -7 -23t-9 -22q-2 -10 -7 -21t-9 -24l-7 -6l-6 -16q-6 -10 -16 -4q0 -10 -2 -15v-8q2 -4 -2 -12q-29 -10 -65 -5t-68 9q-4 -4 -11 0h-6q-6 4 -7 8t3 8q-4 10 -8 18.5t-8 18.5q-4 2 -2 14l-25 84q-4 6 -8 19q-2 0 -4 2 q-23 37 -35 74q-4 0 -4 4q-8 20 -10 39.5t-8 38.5l-2 2h-3q-10 6 -8 14l2 4q-8 14 -15 26.5t-11 28.5q0 10 8 12.5t10 -8.5l4 3l-24 32q-8 0 -11 8q0 23 -14 52q-14 -2 -17 7t1 21q-6 12 -11.5 24.5t-7.5 29.5q0 6 4 10l-6 14l-6 6q-2 2 -2 8q-2 4 -4 10.5t-4 14.5 q-6 0 -8 6v2q-2 14 -16.5 39t-26.5 53q-6 -2 -17 -2l-22 -14l-6 -43q2 -16 3 -52t1 -78t-1 -81t-5 -61q0 -35 -1.5 -68t-1.5 -68v-32q0 -6 -6 -13q0 -4 -1 -8t-1 -8l4 4v-51l2 2v-16q4 -18 5.5 -37t-3.5 -35l3 2q23 0 44 4t44 8l4 -4q12 4 12 -12q0 -12 1 -24.5t3 -24.5 q10 -6 4 -15q4 -8 -10 -12q-35 0 -68.5 -1t-68.5 -3q-10 -4 -18.5 -6t-18.5 0q-4 4 -6 4q-47 -2 -95.5 -4t-95.5 -2l-8 6h-84q-8 4 -7 10t9 10h2q-8 16 -10 27q-2 8 2 12q0 8 10 15q27 2 51.5 10t51.5 12q12 -4 8 -12h4l4 8q-14 0 -8 14q8 18 10 39t0 41h-6q-8 2 -8 8.5 t6 10.5q4 12 4 22v17q0 4 4 8v26q-4 23 -1 48.5t3 29.5l4 -4h4v29q0 4 -1 8t-1 8q0 8 -1 16.5t-1 16.5q-8 2 -8 12q0 8 8 21v19t2 20q-6 0 -18 4q-4 4 -4 10q2 10 8 18.5t16 18.5v24l-8 31q0 10 8 10q-12 6 -10 35q0 12 10 29v2l-2 -2v12h2v21q-2 2 -2 8q-10 2 0 18 q-10 18 -10 39t2 41q-4 16 -4 31q-6 -2 -8 4t2 12q0 2 4 6v31q-8 4 -8 10q4 12 10 21v29q-8 -4 -16 -5l-7 3q-4 8 1.5 21t17.5 30q-4 14 -4 27.5v27.5v2q0 4 2 4v26.5t2 24.5v29.5t4 32.5q-2 6 -2 18l4 4l2 4q-2 6 -2 21q-2 0 -4 -2v33h2q0 8 -1 15t1 15q-2 0 -4 -2v17 q2 0 6 4v2l-6 12q-2 2 -2 10v2q-6 -6 -10 -6l-68 10q-10 -2 -23 3q-4 4 -4 10v6q-2 2 -2 8q0 25 6 53v4q2 2 2.5 4.5t2.5 6.5q4 8 8 6t6 -8h323q16 -6 3 -19l2 -2v-16l4 -6q-2 0 -2 -2q2 -10 3 -18.5t5 -18.5l6 4l10 -31q-4 -4 -6 -4l8 -18l4 4l7 -17l-5 -4l9 -16l10 -27 l2 2v-4q6 4 12 -2q16 -25 16.5 -53.5t8.5 -57.5q0 -4 1 -6t1 -4q2 0 4 2l2 -8q-2 0 -2 -2l6 -16h2v-2q16 -43 35.5 -84t28.5 -88q16 -4 8 -17l-2 -2q2 -2 2 -10q0 -4 -2 -6z" />
<glyph unicode="N" horiz-adv-x="1298" d="M530 1157q14 -16 17.5 -41.5t19.5 -42.5l13 -12q-10 -6 -5 -14l33 -52q4 -8 9.5 -16t9.5 -14q0 -2 4 -2q2 -4 4 -7.5t4 -7.5q0 -4 1 -5t1 -3q16 -25 28.5 -50.5t16.5 -51.5l4 -4l2 -3q18 -23 27 -40q4 0 8 -5v-2q0 -4 2 -6q8 -18 19.5 -37.5t21.5 -38.5q4 0 8 -4 q2 -2 2 -6v-8l4 -4q2 -2 4 -2l5 -6q2 -6 8 -6l8 -11v-2l18 -28l19 -31l2 6q0 -2 2 -2q0 -10 6 -18l-6 -9q4 -4 4 -8q6 -8 12 -15t11 -16h4l10 -14q4 -16 14 -32.5t21 -30.5l16 -36t23 -34q2 -2 6 -2q6 -10 11 -18.5t11 -16.5q6 6 8 6h3l2 2q0 4 1 8.5t1 8.5v2q0 6 -1 12 t-1 12q-2 0 -3.5 -1t-3.5 -1q0 10 -1 21.5t1 23.5q0 20 -2 31q-12 29 -10 84t10 100l-4 5v22q0 14 -1 27.5t1 27.5v86q-6 2 -2 13l6 12q-2 0 -2 4t-1 8t-1 8q2 41 4 84t-8 84v25q2 16 3 30.5t5 30.5q-10 31 -10 62q-2 2 -2 8q0 35 -2 76t8 76q0 4 -4 8q-16 -8 -29 -8h-6 q-18 -2 -32 0q-2 0 -2 -3q-4 -4 -9.5 -2t-7.5 7q-4 16 -9 36.5t9 32.5v10q-2 4 0 13l8 6h72q0 2 4 6v2h10q49 0 90 -8h21l-2 -2h26q4 4 5 4v2h4l39 4q6 0 10 2h2v-2h2q16 0 34.5 1t35.5 5q8 -2 8 -12l4 2q4 -2 8 -8l2 2q4 8 12 4q4 -4 4 -8v-49q0 -6 5 -15q2 -8 -7 -16v-4 q-12 -16 -18 0q0 2 -1 3t-1 3q-10 0 -20.5 -1t-20.5 -1q-4 0 -10 -1t-10 1h-21l6 -27q0 -10 1 -18t1 -19q-4 -4 -4 -6q-2 -10 -2 -30l-2 -3v-2q-10 -47 -13 -103t7 -103q0 -20 1 -40t3 -40q-2 -2 -6 -2q0 -2 -1 -3t-1 -6l6 5v-21q-2 -2 -6 -2q0 -4 1 -8t1 -8l2 -4l4 -25 q-10 -43 -5 -89t17 -87q0 -10 -2 -19.5t-6 -19.5v-2q6 0 6 -6q0 -4 4 -13q-8 -33 -2 -71q0 -4 -1 -6t-1 -4l2 -5q0 -2 1 -4t1 -4v-35q0 -2 -2 -4v-12l2 2v-113l-4 -4q0 -20 -2 -30q0 -8 1 -14.5t1 -14.5v-45q0 -47 3 -95t3 -98q0 -6 -4 -10v-16l-6 -6v-9l2 2h4l6 -4 q0 -2 1 -2t1 -2v-12q8 -4 9 -14q0 -2 -4 -11q-4 -6 -9 -6q0 -2 -1 -2t-1 -2v-2q0 -2 4 -2q12 -10 -8 -18q-35 -2 -80 -4t-80 14h-10q0 -6 -4 -10t-12 0l-8 14q-12 0 -6 10l-7 17l-8 10l-2 2q-41 31 -45 80v4l-6 16q-6 8 -14 25l-4 6l-3 2q-20 23 -35.5 50.5t-31.5 60.5 q0 2 -1 3t-1 3t-2 2q0 2 -2 4l-33 53q-2 -2 -10 2q-10 16 -21 39l-8 17q-2 2 -2 6l-18 30q-4 -4 -9 2l-20 35q-6 0 -6 10h-2q-12 4 -4 17q-6 10 -11.5 22.5t-9.5 24.5q0 4 -2 4q0 4 -4 8l-6 10l-19 35q-2 2 -2 4l-22 37q-12 16 -23.5 33.5t-21.5 36.5l-2 2v4l-13 18 q-6 0 -10 3q-12 23 -22.5 45t-20.5 45l-2 4q-4 0 -6 2q-8 14 -17.5 27.5t-13.5 29.5l-22 33q-6 0 -10 2q-16 16 -33 51t-31 64v10l-18 26v-55h10q16 -6 4 -18q-4 -2 -7 -4t-7 -4v-60l-2 -2q2 -23 3 -43t-1 -43l-9 -84l2 2v-2q6 -6 7 -12v-24.5t4 -24.5v-21l-2 -4 q-2 -25 -7.5 -53.5t0.5 -54.5q-2 -10 -2 -19.5v-19.5v-6q0 -18 1 -37t4 -37q2 0 6 -6q8 -31 8 -72q0 -6 -4 -10t-8 -2l-5 -35v-12q4 -4 5 -11q0 -14 -1 -26.5t-4 -26.5l3 2v-33q4 -16 0 -32v-23l4 -4q4 -25 -2 -43l2 -23q0 -2 1 -3t1 -5q8 4 14 4l2 2h21q8 2 15 3t17 1 q8 0 9 -6l12 -6q6 -4 3 -9t-9 -9h-2q2 -12 1 -24.5t1 -24.5q2 -2 2 -9v-4l-4 -4v-10q-6 -8 -15 -4v-2h-2q-10 -6 -16 0q-16 0 -39 -1t-47.5 -2t-50 -1t-45.5 2q-14 -2 -33 -2h-39h-6l-15 -4v4h-4l-26 -2l-9 -8v-3h-2l-2 -2q-14 -4 -14 9v2l-16 -2h-6q-6 -10 -19 -15l-6 2 q-12 16 -14 39t-2 43q0 8 10 13l45 8q12 10 30.5 13t34.5 1l9 6h2v78q0 2 4 6l2 2q0 6 2 10v7l-4 4v88q-2 0 -2 4q-2 12 -5 33.5t-4.5 46t0 48t7.5 40.5q-4 51 -8.5 100t-6.5 101q-2 2 0 8v2v64.5t2 66.5v14q-16 0 -22 2q-8 2 -6 15q6 12 28 36v7h-4q-10 4 -8 14q8 18 19 33 q0 2 4 14q-12 -4 -13 10q6 29 7.5 71t-3.5 87q-2 0 -3 -1t-3 -1q-14 -4 -18 -1t-1 11t10 17.5t13 15.5q-4 55 -5 106.5t9 85.5v7q-4 8 -4 10q-2 2 -2 4q-6 2 -22 2q-35 -16 -56.5 1t-11.5 56l6 6v5l2 2v12q4 10 8.5 9t8.5 -7l6 4q4 -2 12 -2q29 6 59.5 6h59.5h27l4 -2v-2h26 q4 0 9 2q16 4 20 4q8 -4 8 -6q8 0 14.5 1t14.5 1q4 4 12 -2h-2q6 -4 3 -9t-9 -9q-8 0 -15.5 -1t-15.5 -1l-12 -9q2 0 3 -1t5 -1q2 0 6 -4q4 -2 4 -10v-2l50 35v-2q4 2 10 0q23 -12 35 -38t22 -50l8 -7l-2 -2q16 -20 23 -43q0 -2 2 -2q0 -10 -6 -12q8 -10 10 -22h6 q18 -16 34.5 -45t22.5 -58zM287 1413h-2l4 2q-2 0 -2 -2z" />
<glyph unicode="O" d="M1153 801q6 2 6 10q-20 68 -48 143.5t-64 141.5q-27 35 -52.5 70.5t-60.5 64.5t-84 48t-123 19q-80 -10 -164 -43.5t-153 -87.5l-37 -73q-4 -10 -13 -9h-2q-6 0 -6 7l-8 -19q4 -4 4 -12q-4 -14 -13 -23.5t-20 -19.5q0 -4 -1 -5t-1 -3l-2 -2q-23 -55 -35 -125t-18 -135v-3 l2 3v-23q4 -41 9 -82t22 -82q8 -31 24 -67l23 -29l2 -10h12q8 -2 8 -15q0 -6 -1 -11t-3 -11q16 -33 41 -66q8 -4 13 -12v-6q31 -43 67 -74l4 -2l8 4q4 -2 9 -8q39 -12 69.5 -36.5t67.5 -35.5q25 -10 53 -12l-26 12q-2 0 -3.5 1t-3.5 1q16 -2 29.5 -3t28.5 -1q6 -2 2 -3 t-10.5 -3t-10.5 -3t2 -1h4q0 -2 2 -2h17q49 4 83 13t77 24q31 16 69.5 42.5t79.5 55.5q8 10 15.5 23.5t21.5 27.5q2 4 5 6t7 7q8 8 10 12v-2q10 10 20.5 18t16.5 19l6 6v2l19 27l8 22l-12 -8l14 41q-4 8 0 12q8 43 12.5 88t2.5 90q-10 -4 -11 11v26t2 29q-2 2 -2 10z M1028 1405q12 -4 8 -12q43 -23 87 -61t83 -81l2 2v-2q35 -35 61.5 -68.5t43.5 -54.5q35 -49 56.5 -101t29.5 -105q2 -14 2 -34v-40q0 -2 2 -4l-2 -2v-23l6 2v-2l-6 -2v-16q4 0 8 4v-19q-4 -4 -8 -4q0 -6 2 -12t2 -10l8 4v-49q4 -18 8 -25q4 -8 -2 -13t-18 -1q-4 6 -8 18h-2 q0 -8 -1 -15t-1 -15q16 4 28 4q10 -2 10 -15q-4 -6 -9 -12t-13 -12v-11l-21 -12q0 -6 -1 -12t-1 -14l17 12l-8 -49l-15 -8q-4 -16 -4 -25l12 8l-8 -31l-12 -8l-18 -61l2 2l-5 -12q-23 -66 -56.5 -120.5t-86.5 -88.5l-4 -4q-43 -41 -92 -74t-109 -58q-25 -14 -49 -25t-51 -18 l-23 -6q-18 -6 -38 -6q-10 -2 -17.5 -3t-13.5 -1q-8 -10 -30.5 -13t-52.5 0t-60.5 10t-53.5 19l-43 13h2l-26 8q-27 8 -43 18l-19 7l-18 8q-59 25 -112.5 54.5t-94.5 64.5h-12q-6 2 -9 8q0 4 -1 6t1 6l-14 16l-2 2q-23 20 -47 52h-6q-16 6 -10 18v2l-7 12q-10 -8 -19 -14 t-20 -10l-2 2h-2q-2 10 -10 26q-2 0 -4 3q0 2 -2 4v2q6 10 13 18t18 19q-37 70 -59.5 139t-30.5 129q0 6 5 10t9 0v19l2 2q0 6 -1 12t-1 12l-2 -2q0 10 -1 18.5t-1 18.5q-4 29 0 61q0 6 1 12.5t1 12.5v2q4 12 4 18q0 -2 -2 -2q0 6 1 12.5t1 12.5q4 0 8 4l8 31l-10 -6l4 16 l10 4l9 31q-4 -4 -13 -8q2 10 4.5 21t6.5 24l16 12v8q-10 -4 -10 8q4 18 11 38t15 42q0 4 2 7t2 8q4 8 7 8l26 53l2 2q2 6 11 19q23 31 47 59.5t53 52.5q-10 4 0 14q4 8 24.5 19.5t49.5 26.5q2 0 4 2l86 43q16 12 31.5 21t31.5 13q6 2 14.5 2h18.5q59 20 104.5 33t88.5 15 t89 -8.5t107 -32.5l70 -21l8 2q8 -2 15 -4t16 -6h18z" />
<glyph unicode="P" horiz-adv-x="1062" d="M369 872q-2 -6 -2 -16q8 -4 16 -4q2 0 2 2v2h6q25 8 51.5 5t53.5 -7q6 0 12 1t10 1q25 4 49.5 5t46.5 -3h2q4 2 15 2l2 2l2 4q10 14 30.5 20.5t36.5 2.5l19 12l2 4q8 16 14 25q14 27 25.5 55.5t23.5 44.5q0 2 1 2t1 2q-6 0 -6 8h-2q0 2 4 7q4 23 5.5 33t11.5 32v55 q-4 4 -4 11q-4 8 -9.5 15t-9.5 17q-2 2 -2 9l-6 8q-2 -4 -6 -7t-8 5l-2 2q-4 12 -18.5 18t-22.5 23q-2 4 -1 5t1 3q-12 8 -25 10q-12 0 -16 2q-10 4 -6 10q-23 4 -41.5 8.5t-40.5 6.5h-6q2 -6 -9 -12h-2q-53 0 -100 7t-98 -1v-4q-6 -25 -7 -45q0 -2 3 -5v-4v-43t2 -43 q6 4 10 -6q4 -20 2 -39.5t-6 -40.5v-12h2q0 -2 -2 -2q2 -10 2 -19.5v-19.5l2 -2q8 -23 9 -64.5t-15 -62.5v-23zM373 205q-4 0 -6 -2q6 -29 0.5 -54.5t11.5 -52.5q6 -8 23.5 -10t34 -8t23.5 -23.5t-9 -58.5q-8 -8 -15 -6q-6 2 -6 6h-63l-2 4q-33 0 -66 1t-66 1q0 -2 11.5 -2 t9.5 -2v-2h-2q-18 -2 -40 -6t-40 2l-4 4q-23 -4 -47.5 -5t-46.5 -1l-8 6l-35 4q-12 -12 -17 -2v2q-4 16 -7 38.5t16 33.5q6 2 10 -2q61 2 83.5 13t25.5 32.5t-1 52.5t9 72q2 10 2 18v18h-5q-4 0 -6 3l-2 2v14l-2 2q-12 14 4 35q2 20 4 39.5t2 40.5q-8 0 -10 8q-4 16 -8 44 t16 40q0 2 -1 4t-1 6q-2 0 -2 -1t-2 -1h-6q-12 4 -4 16l10 9l-4 24q-4 10 -8 31h-4q-12 4 -4 16q2 2 3 4t5 4v25q-2 6 -2 16q-2 12 0 26.5t6 27.5q0 8 4 10q0 8 2 12q0 2 4 6q-2 10 -3 19.5t-1 15.5q-2 0 -2 2q-6 4 -5 9.5t5 9.5l2 2q0 12 1 29.5t1 50.5q-2 14 -2 27.5v27.5 q-12 -2 -20 0q-14 4 -6 16l4 2v2l22 17v61l4 8q-4 35 -9 71t-7 73q0 4 4 8q-2 16 -2 30.5v30.5v4q0 33 1 45.5t-1 18.5t-6 14t-15 33q-6 4 -10 8l-8 8h-6q-6 0 -6 4q-18 2 -45 -4q-10 2 -6 13q-4 0 -5 8v37q-16 12 5 20h6q6 12 14 0q33 2 75 8.5t87 10.5q31 10 49 15t49 5 q8 -2 8 -14l-4 -8q6 0 15 -4q39 2 77.5 -0.5t75.5 -6.5l109 13q8 -2 8 -11q6 0 12 -1t12 -1q68 6 138 0h2v-2q6 -4 6 -8q37 -6 66.5 -18.5t52.5 -26.5q6 -10 0 -16q29 -14 54.5 -34t20.5 -46q4 0 9 -6q2 -23 12 -39.5t22.5 -32.5t23.5 -34.5t15 -41.5q0 -16 -14 -12 q2 -18 3 -37.5t-1 -38.5q-2 -16 -14 -39l8 4q-4 -16 -7 -30.5t-7 -28.5q0 -4 1 -7t-1 -7q-4 -4 -7.5 -11.5t-7.5 -13.5q-2 -20 -18 -31q-2 0 -2 -2q-16 -23 -35 -41l-4 -2q0 -4 -2 -6q-6 -10 -7 -11t-7 -5v-6q-8 -23 -37 -37l-2 -4q-35 -23 -64 -45q-16 -8 -31.5 -16.5 t-27.5 -16.5q-2 -2 -4 -2l-25 -13l-39 -6q-29 -10 -58.5 -11t-58.5 -3l-22 -2h-2q-27 -2 -54.5 1t-52.5 -5h-26q-2 0 -2 2q-12 -2 -24.5 -3t-25.5 -5q0 -10 -2 -21.5t-6 -21.5q10 4 15 0q14 -14 11 -43t-7 -54q0 -20 -2 -30l2 -4q6 -2 6 -13v-4l-4 -4v-18t-2 -19h4l-2 -14 v-12q0 -47 -8 -86q0 -6 -1 -12.5t-1 -12.5q0 -2 2 -2q0 -10 1 -18.5t1 -18.5q0 -2 1 -3t1 -5v-2q2 -6 3 -14.5t-1 -18.5q2 -2 2 -6v-6z" />
<glyph unicode="Q" d="M1237 -225q-8 2 -8 10q-121 33 -225 94q-8 4 -27 19.5t-41 38.5q-10 0 -12 6q-2 4 -2 8l-35 37h-2q-12 4 -8 12l-7 12q-10 -4 -18 -4h-18q-10 -2 -17.5 -3t-13.5 -1q-8 -10 -30.5 -13t-52.5 0t-60.5 10t-53.5 19l-43 13h2l-26 8q-27 8 -43 18l-19 7l-18 8 q-59 25 -112.5 54.5t-94.5 64.5h-12q-6 2 -9 8q0 4 -1 6t1 6l-14 16l-2 2q-23 20 -47 52h-6q-16 6 -10 18v2l-7 12q-10 -8 -19 -14t-20 -10l-2 2h-2q-2 10 -10 26q-2 0 -4 3q0 2 -2 4v2q6 10 13 18t18 19q-37 70 -59.5 139t-30.5 129q0 6 5 10t9 0v19l2 2q0 6 -1 12t-1 12 l-2 -2q0 10 -1 18.5t-1 18.5q-4 29 0 61q0 6 1 12.5t1 12.5v2q4 12 4 18q0 -2 -2 -2q0 6 1 12.5t1 12.5q4 0 8 4l8 31l-10 -6l4 16l10 4l9 31q-4 -4 -13 -8q2 10 4.5 21t6.5 24l16 12v8q-10 -4 -10 8q4 18 11 38t15 42q0 4 2 7t2 8q4 8 7 8l26 53l2 2q2 6 11 19 q23 31 47 59.5t53 52.5q-10 4 0 14q4 8 24.5 19.5t49.5 26.5q2 0 4 2l86 43q16 12 31.5 21t31.5 13q6 2 14.5 2h18.5q59 20 104.5 33t88.5 15t89 -8.5t107 -32.5l70 -21l8 2q8 -2 15 -4t16 -6h18q12 -4 8 -12q43 -23 87 -61t83 -81l2 2v-2q35 -35 61.5 -68.5t43.5 -54.5 q35 -49 56.5 -101t29.5 -105q2 -14 2 -34v-40q0 -2 2 -4l-2 -2v-23l6 2v-2l-6 -2v-16q4 0 8 4v-19q-4 -4 -8 -4q0 -6 2 -12t2 -10l8 4v-49q4 -18 8 -25q4 -8 -2 -13t-18 -1q-4 6 -8 18h-2q0 -8 -1 -15t-1 -15q16 4 28 4q10 -2 10 -15q-4 -6 -9 -12t-13 -12v-11l-21 -12 q0 -6 -1 -12t-1 -14l17 12l-8 -49l-15 -8q-4 -16 -4 -25l12 8l-8 -31l-12 -8l-18 -61l2 2l-5 -12q-23 -66 -56.5 -120.5t-86.5 -88.5l-4 -4q-16 -14 -30.5 -26.5t-30.5 -25.5q6 -20 16 -35.5t25 -33.5l18 -21q-2 0 -2 -2l6 -10l4 2v-2l-2 -2l12 -12l2 2l7 -6q-2 -2 -4 -3 l7 -7l7 -7l2 2l8 -10h-2q23 -23 50.5 -40t62.5 -36q2 0 4 -1t6 -1l20 6q6 0 9 -4q6 0 18 -4q4 -4 4 -12l-2 -4q35 -14 66.5 -27.5t66.5 -24.5q23 -6 45.5 -6t42.5 -8q23 -8 54.5 -6t61.5 1t51.5 -12.5t23.5 -45.5q0 -8 -7.5 -11.5t-11.5 7.5q0 2 -2 4l-6 -4q-8 -12 -14 -17 q-51 -31 -141.5 -27.5t-186.5 17.5q-18 0 -29 2v2q-16 4 -26 4l-2 -4q-8 2 -14.5 3t-12.5 1l6 4q-16 4 -22 4q-2 0 -6 -4l-41 8v5q-18 4 -36 5t-34 3zM1153 801q6 2 6 10q-20 68 -48 143.5t-64 141.5q-27 35 -52.5 70.5t-60.5 64.5t-84 48t-123 19q-80 -10 -164 -43.5 t-153 -87.5l-37 -73q-4 -10 -13 -9h-2q-6 0 -6 7l-8 -19q4 -4 4 -12q-4 -14 -13 -23.5t-20 -19.5q0 -4 -1 -5t-1 -3l-2 -2q-23 -55 -35 -125t-18 -135v-3l2 3v-23q4 -41 9 -82t22 -82q8 -31 24 -67l23 -29l2 -10h12q8 -2 8 -15q0 -6 -1 -11t-3 -11q16 -33 41 -66 q8 -4 13 -12v-6q31 -43 67 -74l4 -2l8 4q4 -2 9 -8q39 -12 69.5 -36.5t67.5 -35.5q25 -10 53 -12l-26 12q-2 0 -3.5 1t-3.5 1q16 -2 29.5 -3t28.5 -1q6 -2 2 -3t-10.5 -3t-10.5 -3t2 -1h4q0 -2 2 -2h17q49 4 83 13t77 24q31 16 69.5 42.5t79.5 55.5q8 10 15.5 23.5 t21.5 27.5q2 4 5 6t7 7q8 8 10 12v-2q10 10 20.5 18t16.5 19l6 6v2l19 27l8 22l-12 -8l14 41q-4 8 0 12q8 43 12.5 88t2.5 90q-10 -4 -11 11v26t2 29q-2 2 -2 10z" />
<glyph unicode="R" horiz-adv-x="1318" d="M367 872q-2 -6 -2 -16q8 -4 16 -4q2 0 2 2v2h6q25 8 51.5 5t53.5 -7q6 0 12 1t10 1q25 4 49.5 5t46.5 -3h2q4 2 15 2l2 2l2 4q10 14 30.5 20.5t36.5 2.5l19 12l2 4q8 16 14 25q14 27 25.5 55.5t23.5 44.5q0 2 1 2t1 2q-6 0 -6 8h-2q0 2 4 7q4 23 5 33t12 32v55 q-4 4 -4 11q-4 8 -9.5 15t-9.5 17q-2 2 -2 9l-6 8q-2 -4 -6 -7t-8 5l-2 2q-4 12 -18.5 18t-22.5 23q-2 4 -1 5t1 3q-12 8 -25 10q-12 0 -16 2q-10 4 -6 10q-23 4 -41.5 8.5t-40.5 6.5h-7q2 -6 -8 -12h-2q-53 0 -100 7t-98 -1v-4q-6 -25 -7 -45q0 -2 2 -5v-4v-43t3 -43 q6 4 10 -6q4 -20 2 -39.5t-6 -40.5v-12h2q0 -2 -2 -2q2 -10 2 -19.5v-19.5l2 -2q8 -23 9 -64.5t-15 -62.5v-23zM963 -2q-6 2 -7.5 7t2.5 9l-4 11q-12 10 -26.5 36.5t-26.5 57.5t-22.5 59.5t-16.5 46.5q-12 37 -49 99q-14 16 -28.5 32.5t-28.5 34.5q-25 35 -48.5 69t-50.5 66 q-25 18 -50 35t-48 39q-8 8 -14 16.5t-13 18.5q-16 10 -29.5 20.5t-25.5 24.5q-16 0 -37 -4h-26q-2 0 -2 2q-12 -2 -24.5 -3t-25.5 -5q0 -10 -2 -21.5t-6 -21.5q10 4 15 0q14 -14 11 -43t-7 -54q0 -20 -2 -30l2 -4q6 -2 6 -13v-4l-4 -4v-18t-2 -19h4l-2 -14v-12 q0 -47 -8 -86q0 -6 -1 -12.5t-1 -12.5q0 -2 2 -2q0 -10 1 -18.5t1 -18.5q0 -2 1 -3t1 -5v-2q2 -6 3 -14.5t-1 -18.5q2 -2 2 -6v-6l-2 -2q-4 0 -6 -2q6 -29 0.5 -54.5t11.5 -52.5q6 -8 23.5 -10t34 -8t23.5 -23.5t-9 -58.5q-8 -8 -15 -6q-6 2 -6 6h-63l-2 4q-33 0 -66 1 t-66 1q0 -2 11.5 -2t9.5 -2v-2h-2q-18 -2 -40 -6t-40 2l-4 4q-23 -4 -47.5 -5t-46.5 -1l-8 6l-35 4q-12 -12 -17 -2v2q-4 16 -7 38.5t16 33.5q6 2 10 -2q61 2 83.5 13t25.5 32.5t-1 52.5t9 72q2 10 2 18v18h-5q-4 0 -6 3l-2 2v14l-2 2q-12 14 4 35q2 20 4 39.5t2 40.5 q-8 0 -10 8q-4 16 -8 44t16 40q0 2 -1 4t-1 6q-2 0 -2 -1t-2 -1h-6q-12 4 -4 16l10 9l-4 24q-4 10 -8 31h-4q-12 4 -4 16q2 2 3 4t5 4v25q-2 6 -2 16q-2 12 0 26.5t6 27.5q0 8 4 10q0 8 2 12q0 2 4 6q-2 10 -3 19.5t-1 15.5q-2 0 -2 2q-6 4 -5 9.5t5 9.5l2 2q0 12 1 29.5 t1 50.5q-2 14 -2 27.5v27.5q-12 -2 -20 0q-14 4 -6 16l4 2v2l22 17v61l4 8q-4 35 -9 71t-7 73q0 4 4 8q-2 16 -2 30.5v30.5v4q0 33 1 45.5t-1 18.5t-6 14t-15 33q-6 4 -10 8l-8 8h-6q-6 0 -6 4q-18 2 -45 -4q-10 2 -6 13q-4 0 -5 8v37q-16 12 5 20h6q6 12 14 0q33 2 75 8.5 t87 10.5q31 10 49 15t49 5q8 -2 8 -14l-4 -8q6 0 15 -4q39 2 77.5 -0.5t75.5 -6.5l109 13q8 -2 8 -11q6 0 12 -1t12 -1q68 6 138 0h2v-2q6 -4 6 -8q37 -6 66.5 -18.5t52.5 -26.5q6 -10 0 -16q29 -14 54.5 -34t20.5 -46q4 0 9 -6q2 -23 12 -39.5t22.5 -32.5t23.5 -34.5 t15 -41.5q0 -16 -14 -12q2 -18 3 -37.5t-1 -38.5q-2 -16 -14 -39l8 4q-4 -16 -7 -30.5t-7 -28.5q0 -4 1 -7t-1 -7q-4 -4 -7.5 -11.5t-7.5 -13.5q-2 -20 -18 -31q-2 0 -2 -2q-16 -23 -35 -41l-4 -2q0 -4 -2 -6q-6 -10 -7 -11t-7 -5v-6q-8 -23 -37 -37l-2 -4 q-14 -10 -27.5 -18.5t-26.5 -18.5q-16 -18 -47 -29q-4 -4 -5 -7t-5 -5l37 -39q4 0 6 2q10 -6 8 -14q8 -8 12 -11l13 -12q2 2 4 2t6 2q8 -2 8 -14q0 -2 -1 -2t-1 -2q2 2 8 2q10 -2 11 -15q0 -4 -1 -5t-1 -3q16 -18 25 -33.5t16.5 -31t16.5 -33.5t23 -43l3 2l10 -14 q8 -16 14 -23l-4 -2l25 -33q2 -2 4 -2q2 -4 3 -4t1 -4l26 -39q27 -55 53.5 -116.5t73.5 -106.5q8 -8 16.5 -14.5t16.5 -12.5q2 0 4 -2q18 -10 40 -15t46 -9q4 6 8.5 5t6.5 -7h2q-10 -10 1 -31t7 -39q-2 -4 -10 -6q-86 -6 -171 -1t-171 5z" />
<glyph unicode="S" horiz-adv-x="1024" d="M481 -23q-8 6 -6 15q-29 2 -56.5 3t-56.5 1q-8 2 -8 10q-8 0 -24 4q-16 2 -33.5 6t-36.5 4q-8 2 -8 9l-41 18q-6 -6 -10 0q-4 0 -6 2q-2 0 -3.5 1t-3.5 1q-4 -4 -6 0q-16 -10 -30.5 -18t-30.5 -8h-2l-2 -2q-10 -4 -28.5 -8.5t-33.5 -4.5q-8 4 -7 9.5t7 9.5 q-2 82 -19.5 159.5t-27.5 155.5q-16 12 4 21q27 8 60 8q6 -4 8 -8.5t-2 -8.5l20 -16l2 2q23 -6 32 -22.5t24 -32.5v-11q4 -6 10 -13t12 -11q0 4 8 8q14 -4 25.5 -15.5t24.5 -11.5q8 -4 8 -9t-6 -9l8 -6q0 6 8 10q8 -2 22.5 -5t28.5 -7t27.5 -9t19.5 -12q4 -8 2 -12 q29 -6 54.5 -3t52.5 -11v-2h47q8 0 15 1t18 3l4 4q31 16 63 18v-2l29 15l6 4t8 6q6 8 11 4l14 10q10 10 21.5 19.5t17.5 19.5q-2 0 -3 1t-3 1q-8 2 -7 14q2 6 8.5 13.5t14.5 15.5q-2 0 -2 8q0 23 -3 43.5t-3 42.5v2q6 12 12 9l-14 34q-8 0 -4 2q-10 6 -4 19l-7 8q0 -2 2 -4 q0 -8 -7 -11t-11 7q-6 27 -30.5 54.5t-53.5 33.5q-8 4 -7 9t7 9l-51 23h-21q-10 2 -6 12l-20 6q-4 -8 -13 -4q-25 16 -54 28.5t-58 16.5q-10 4 -6 11l-25 12q-12 -2 -22 4q-6 2 -7 8q-14 4 -27.5 11.5t-25.5 13.5h-2q-12 6 -24.5 10t-22.5 8q-6 -4 -12 0q-10 10 -19.5 20.5 t-25.5 10.5q-8 4 -7 10t9 10q-10 6 -17 17q-43 35 -73 75q-20 23 -25.5 41.5t-5.5 47.5q-8 16 -10 35.5t0 54.5v22t2 25q-6 -2 -19 -2q-8 4 -8 10t9.5 16.5t25.5 22.5q12 74 43 137l-21 -10q-8 4 -7 10t9 10q6 2 17.5 11.5t23 21.5t22.5 24.5t19 20.5q2 2 9 2q33 31 71 49 l15 7q0 4 2 6q16 16 38.5 19t43.5 5l2 -2q16 4 31.5 7t31.5 8q0 4 8 8l78 -13l31 -4l16 -4q0 2 2 2q31 18 52.5 4t46.5 -30q4 2 10 2l29 -13q27 -8 47 -10h2v-2l4 -4h12q8 -2 8 -10h10q4 0 7 -2h14l4 -4q27 6 31 32q2 8 8 9q2 8 7 11t11 -3h25l4 -2q4 4 12 -2q2 -8 8.5 -43 t12.5 -78t10 -87t2 -73h6q16 -4 8 -16l-12 -15q-4 -8 -4 -16h6q6 -6 2 -13t-12 -5l-18 6q-23 4 -46 -6q-4 4 -4 10q-23 43 -43 77.5t-47.5 59.5t-64.5 41t-92 25q-4 -8 -5 -11q-4 -6 -11 -6t-7 10l4 9q-12 0 -18 2q-4 -8 -15 -2q-2 0 -2 1t-2 1q-4 0 -8 1t-8 1q-4 -8 -12 -6 q-8 4 -11 4q-12 -4 -24 -8.5t-21 -4.5q-53 -8 -87 -34.5t-52 -67.5q0 -2 -1 -2t-1 -2l-2 -2q-8 -14 -14 -39q10 4 13 -2t-3 -12t-19 -15q0 -4 -1 -9t-1 -9q2 0 7 -6q14 -70 45 -119q4 0 6 2q10 -2 10 -14q-4 -4 -4 -7q4 -8 10 -14t12 -14q6 0 9 -2q0 -4 6 -10l2 -3 q6 -6 16 -11t19 -15q2 0 3 -1t3 -1l4 -4h6q12 -4 23.5 -12.5t23.5 -12.5q8 -2 8 -10q12 -8 19 -10l4 2q18 -4 43.5 -11.5t36.5 -23.5v-6l20 -11l2 3q16 -4 38 -10.5t32 -22.5l47 -25q6 6 14 0q4 -4 8.5 -9t10.5 -9l22 -15q4 -2 13 -2q12 -4 8 -12q10 -8 20 -17.5t21 -17.5 l2 -2h2q10 4 13 1t13 -3q8 -2 9 -14q-4 -6 -2 -7t-5 -8q8 -12 15 -18l16 -18q12 -8 15 -21q25 -29 36 -49l11 -25q2 0 6 -6q2 -12 5 -24.5t5 -24.5l2 -2q8 -4 8 -14v-13.5t-2 -13.5q4 -29 -4 -37q-6 -45 -18 -90q2 0 6 -4q2 0 2 -1t2 -1q4 -4 3 -6t-1 -6q-8 -14 -33 -33 q-20 -43 -52 -80t-79 -65q0 -2 -2 -5l-22 -12l-48 -24l-2 -5q-4 -6 -9 -6t-7 4h-2l-21 -4q0 -6 -4 -10q-23 -10 -45 -12t-47 -2q-6 2 -6 6l-20 -4q-4 0 -10.5 -1t-10.5 -1q4 -8 -10 -13h-68v0z" />
<glyph unicode="T" horiz-adv-x="1144" d="M713 1456q53 4 104 7t105 5h14l8 -8h14q47 4 91 0q20 6 41.5 7t39.5 -9q8 -8 -2 -16l-2 -2l-6 -4v-13q-2 -2 -4 -2v-13t2 -13q10 -29 14.5 -56.5t-2.5 -56.5q0 -2 -2 -2q6 -23 9.5 -45.5t-0.5 -48.5q-2 -4 -11 -6q-4 0 -8 1t-10 1l-21 -8q-4 -6 -9 -7.5t-9 7.5 q-2 12 -5 20t-7 18q-2 0 -2 2q-18 6 -30.5 21.5t-31.5 19.5q-12 4 -25.5 2t-27.5 0q-10 6 -4 19l4 4h-45.5t-44.5 -2q14 -4 2 -16q-35 -12 -68.5 -7t-68.5 -4q-8 0 -8 6q-10 0 -23 -4v-63q4 0 8 -6q2 -25 4 -50.5t-2 -52.5q2 -18 2 -36.5v-38.5q4 -31 -1 -67t-3 -65 q-2 -6 -6 -9t-8 1q2 -25 0 -47q0 -4 1 -9t1 -9q2 -16 1 -34.5t-1 -37.5q10 -27 7 -52.5t-7 -51.5q-2 -6 -8 -9q4 -16 6 -31.5t-2 -31.5q-2 -4 -4 -5t-4 -3v-53q4 6 10 3t6 -14v-14q0 -14 1 -31.5t-3 -32.5v-32l-4 -4q4 -14 6 -28.5t-2 -31.5l-6 -6v-59q2 -10 1 -21.5 t-1 -23.5l-6 -7q2 2 10 -2q6 -12 4 -24t2 -27q6 -25 20.5 -34t32 -11t33.5 0t29 0q8 -4 8 -8q4 -10 3 -20.5t-1 -20.5q0 -6 -1 -12t-1 -11h6q10 -4 9 -10t-11 -10h-4q-2 -6 -8 -9t-10 7q0 2 -3 2q-41 0 -79.5 1t-79.5 3h-33q-61 0 -122.5 -3t-121.5 -15q-2 0 -2 -4l-2 -2h-6 t-6 4q-12 33 -14.5 48t6 20t26 6t41.5 5q2 6 8 9h3l16 20q6 2 12 0l4 8q8 12 13 2q0 2 2 2q6 41 10 83t6 83q-4 0 -6 2q-8 2 -8 13q0 18 14 47v35l-2 2q-8 12 2 39v2q-4 0 -6 2q-4 4 -4 10q0 10 10 31q0 10 -1 21t-1 22q-12 -8 -12 8v258q-4 4 -4 10q4 14 4 26.5v24.5 q-2 29 -5.5 56.5t1.5 56.5q0 6 4 18v11q-18 -6 -31 -7q-12 4 -4 17q10 12 21.5 26.5t27.5 30.5q-2 6 -2 21l6 6v18t-2 17l-4 -4v22l2 2q-4 41 -11 80t-12 80l-4 -2h-2q-20 -2 -39.5 -3t-40.5 -1q-6 -6 -8 -6h-155q-16 -6 -37 -6.5t-37 -0.5q-2 0 -3 1t-3 1l-23 -16v-43 q-10 -14 -16 -4l-12 -6v-2q-6 -10 -15 -4q-2 0 -2 -1t-2 -1h-6q-10 4 -6 14q-10 10 -8 38t2 56v2q-6 14 -8.5 28.5t-2.5 31.5q-4 20 -4 39.5v40.5q-12 6 0 18v6q4 10 10.5 9t8.5 -11q4 0 8 1t8 1q2 0 4 1t4 1l6 4h5q18 4 43.5 6t51 2t48 -2t37.5 -2q18 2 36.5 1t37.5 -1 q16 0 33.5 1t35.5 -1q78 0 158 -1t158 -3l41 8z" />
<glyph unicode="U" horiz-adv-x="1277" d="M1245 1380q-43 -6 -71 -28q2 -2 2 -9q-2 -4 -2 -14q4 0 6 -5t-2 -9l-2 -2h2l-7 -6l-2 -2q-4 -20 -3 -41t1 -43q6 -6 0 -13v-30q2 2 4 2l3 2v-2l2 2q10 4 12 -3.5t-4 -13.5l-15 -12v-72q-2 -66 -7 -130t-7 -130q8 -14 8 -33.5t-3 -39t-7 -39t-2 -35.5q0 -10 1 -18.5 t1 -18.5l4 -4q12 -12 -2 -17q8 -121 -8.5 -235.5t-81.5 -220.5q-8 -12 -21.5 -28.5t-29.5 -27.5q-10 -6 -39 -17t-62 -21q-2 0 -3 -1.5t-3 -1.5q-57 -29 -94 -45t-94 -16q-10 -4 -19.5 -6t-15.5 -4q-16 -2 -28.5 5t-28.5 5q-66 -4 -134.5 9.5t-127.5 47.5q-4 2 -8.5 4.5 t-8.5 6.5q-4 2 -7 3t-7 5l-10 6q-76 43 -118 96t-67 131q0 2 -7 13.5t-14 28t-13.5 36t-6.5 39.5v2q0 2 2 4q-6 45 -7 99.5t2 106.5t6 96t5 73q-4 0 -0.5 4t-1.5 6q-8 2 -8 10q4 10 2 17.5t8 19.5v76t-2 72q-2 0 -2 2q-6 6 -4 12l6 14q-2 25 -3 50.5t-1 50.5q-12 -4 -17 -2 t-17 0l-9 4q0 4 -2 4q-4 8 2 14q12 16 18.5 25.5t22.5 21.5q-2 31 -2 60.5v60.5v2q-8 41 -32.5 39t-67.5 -6q-2 0 -6 4h-8q-8 6 -7 14q8 16 15 23q0 10 1 18.5t1 18.5q2 2 2 4q0 4 8 12q2 0 39 1t82 2t85 2t50 1l4 -4h27q8 -4 8 -8q47 4 91 11.5t91 4.5q12 -6 6 -16 q0 -4 -2 -6v-2q6 -6 -2 -14l-6 -5q-2 -8 -2 -24h2q4 -6 2 -12.5t-8 -6.5q0 -2 -4 -2q-45 -2 -66.5 -13t-25.5 -58v-56.5t-2 -56.5q8 2 9 -5t-3 -11l-6 -6q-6 -201 -6 -402q10 -10 -5 -18l-2 -60v-45l-2 4q0 -8 -1 -15t-1 -15l4 6v-25l-4 -4q0 -12 -1 -23.5t-1 -23.5l8 6v-39 l-6 -4v-19.5t2 -19.5v-2l4 4v-24l-2 -2q0 -10 1 -22.5t3 -24.5q2 0 5 2l4 -43q0 -8 2 -11v-4q4 -4 4 -8q4 -10 9 -18.5t7 -18.5l8 -10h5l4 -4v-6q25 -25 53.5 -46.5t40.5 -25.5q27 -10 61.5 -17.5t73.5 -9.5t77 0t70 11l70 37q10 10 19.5 19t17.5 17q14 10 26.5 20.5 t20.5 24.5l8 21v2q0 2 2 4l17 55q2 16 8 31.5t8 32.5v8q2 45 -7 98.5t1 98.5q2 23 5 42t5 42v45q-4 0 -4 2q-6 6 -4 14l6 16l-8 156q-10 4 -2 12v33q0 6 4 10q2 49 -4 99.5t0 101.5q0 33 -1 64.5t-11 62.5q0 2 -5 2q-10 6 -6 12q-16 4 -34.5 -2t-34.5 -10h-6q-8 2 -9 10 q-4 16 -7 30.5t1 31.5q4 8 6 8l6 4q96 0 189.5 4t189.5 4l4 -4q8 0 9 -12q-2 -12 -3 -26.5t-1 -28.5q-2 -4 -4.5 -4.5t-4.5 -2.5q-4 -4 -8 -4z" />
<glyph unicode="V" horiz-adv-x="1460" d="M535 219q-4 8 0 12v7q-4 0 -5 6l-4 16q-4 12 -8 24.5t-8 26.5l-18 33q0 2 -1.5 3t-1.5 3q-10 16 -18 32.5t-14 37.5v20q-14 29 -23 54q-6 16 -12 34.5t-8 34.5l-15 45l-8 13q-10 -6 -10 4l-10 24q-2 0 -6 4q-6 6 -5 15q0 4 2 8v2q-4 0 -6 4l-2 2l-2 6q-16 47 -43.5 110.5 t-34.5 123.5q0 4 2 6q-8 18 -16 36.5t-14 39.5l-17 49q-16 35 -35.5 75.5t-31.5 77.5q-12 6 -6 19q-8 23 -11 39v4q-10 14 -16 27.5t-12 23.5l-4 6q-10 14 -27.5 22.5t-58.5 12.5q-6 0 -7 6q-4 -2 -8 4l-4 8q-6 6 -6 21q-4 25 0 51q6 12 16 6v-2l2 2q4 8 11 4q27 8 87 8 t127.5 -2t127 -3t88.5 10q10 -6 8 -15v-2q0 -6 -2 -32.5t6 -34.5q6 -8 1 -15.5t-13 -3.5h-2q-6 0 -17.5 2t-23.5 3t-22.5 0t-12.5 -7v-4l4 2l-4 -4q2 -10 12.5 -31.5t20.5 -46t19 -49.5t14 -45q8 -18 19 -47t22.5 -59.5t21.5 -62.5t16 -56q4 0 9 -6q4 -18 10 -36t8 -26v-6 q10 -14 18.5 -27.5t12.5 -25.5q10 -33 19 -56.5t18 -46.5l16 8v-2l4 -10l-16 -6q0 -4 1 -6t1 -4q6 2 14 10l6 -16l-14 -11l4 -16q4 -10 8 -19.5t8 -19.5l4 4q2 -14 8.5 -29.5t10.5 -27.5l-2 -2l8 -23q10 2 10 -12l-4 -4q6 -16 10.5 -29.5t8.5 -23.5q12 -4 4 -17 q8 -20 16 -39.5t19 -38.5l2 3v-3q10 2 12 -4t-4 -12q0 -4 2 -6q27 74 66.5 144.5t68.5 144.5v6q0 10 12 22q0 4 2 7q-2 2 -2 8q14 59 35 108t43 97q-2 2 -2 4q6 23 25 45q16 35 27.5 67.5t17.5 67.5q4 10 8 10q10 29 27.5 69t31 76.5t18.5 65.5t-8 35q-8 4 -6 11t11 7 q-10 16 -30 21.5t-42 7.5q-8 4 -7 9t7 9l-2 15q-8 4 -7 10t9 10q10 4 12 -4q4 0 9.5 -1t11.5 -1h28q4 2 11 2h6l-2 -2h6q2 0 4 2q8 6 14 -2q8 2 29 2l2 2h8q10 0 19.5 1t19.5 3l14 6q8 4 13 -4q53 6 100 12.5t80 8.5q10 0 10 -15q0 -12 -3 -25t-3 -28q-6 -6 -10 -6 q-4 -4 -8 -4q-23 -6 -44.5 -18.5t-35.5 -30.5v-6q-10 -41 -27.5 -79t-37 -76l-39 -76t-31.5 -79q-4 -6 -9 -6q-25 -66 -42 -131t-42 -131q-8 -18 -26 -39q-10 -31 -22.5 -69.5t-28 -77.5t-32 -75t-30.5 -62q-14 -63 -47 -112.5t-61 -109.5l-5 -8q2 0 7 4q-8 -16 -13.5 -30.5 t-9.5 -28.5q-4 -12 -4 -14l2 -3q10 -6 2 -14l-12 -12q-4 -16 -8 -31.5t-11 -30.5q6 -6 -2 -14q-2 -2 -4 -2q-14 -31 -26 -49q-8 -6 -13.5 -2t-1.5 12q-33 -8 -66.5 -10t-68.5 -4v-2q-4 -4 -9 -6t-9 4l-11 26q-18 41 -34.5 83t-32.5 83l-2 2q-12 10 -6 29l-6 10v0z" />
<glyph unicode="W" horiz-adv-x="1990" d="M1034 926q-2 6 -4 13t-2 13l-8 -8q-8 -37 -23.5 -71.5t-25.5 -71.5q-4 -12 -4 -17v-4q0 -8 -2 -12q-2 -20 -6.5 -39.5t-8.5 -38.5q2 -2 2 -10q-4 -8 -8 -12q-23 -76 -53.5 -147.5t-44.5 -149.5q-2 -8 -6 -31t-9.5 -48.5t-12.5 -50t-13 -36.5q-8 -31 -20.5 -66t-22.5 -65 q8 0 8 -6q4 -10 1 -14.5t-13 -14.5q-4 -4 -10 -4v-10q4 -4 4 -9.5t-11 -7.5q-4 -2 -10 -2l2 -2h-8q-20 -2 -38.5 -2t-39.5 6q-6 0 -6 6q-14 16 -20.5 41t-12.5 51l-4 13l-14 35l4 2l-12 24h-2l-9 25q-6 10 -10 22.5t-8 22.5q-6 -4 -9 2t1 14l2 2q-4 12 -7 24.5t-8 26.5h-2 l-4 13l2 2v4l-6 14q-2 0 -2 -2l-2 6h2q-10 23 -22.5 44.5t-20.5 43.5q-10 27 -19 60t-20 65q-8 -8 -12 2l-6 13v2q-10 27 -18.5 53.5t-12.5 52.5q0 14 14 10q-2 2 -2 7l-8 -4v2l6 6l-6 18l-6 -6l-4 8l8 6q-4 8 -8 21l-8 -6l-15 37q-4 0 -6 2q-4 2 -5 4t-5 6q-16 0 -25 8 q0 4 -1 5t-1 3q2 14 13 27q-4 16 -6 34.5t-7 34.5q-4 8 -6 14.5t-4 14.5h-2l-4 12h2v2q0 6 2 9l-2 14l-8 -6l-14 35l10 8q-8 20 -15 29l-6 -5q-4 12 -8 23.5t-8 21.5q-18 33 -34.5 66t-22.5 72q0 10 10 10v2h-4q-4 -4 -6 -4l-4 14l-9 19l2 2l-16 32q-51 61 -123 80 q-2 0 -3 1t-3 1h-4q-4 -4 -10 -2h-2q-2 0 -7 4q-10 10 -7 30t-1 32l8 6q0 4 2 8q8 12 32 15.5t48.5 2.5t44 -4.5t23.5 -3.5q53 -4 105.5 -5t105.5 -3h16l-2 -2h39l2 2h23q4 4 12 -2q6 -4 8 -8t-2 -8q2 -10 0 -21.5t-2 -21.5q-6 -10 -12 -6q0 -6 -10 -11q-29 -4 -36 -23.5 t-7 -43.5l4 -17l-2 -2l30 -63q16 -41 28.5 -80t29.5 -80h2q10 -18 20 -41.5t2 -46.5q-4 -6 -6 -6q8 -29 18.5 -55.5t20.5 -53.5q6 0 6 -6v-8q8 -16 15.5 -32.5t13.5 -32.5q2 0 8 -11h2q-2 -2 -2 -6q0 -18 6 -37.5t10 -40.5q0 -2 2 -4q0 -4 -2 -6q20 -55 43 -109.5t43 -107.5 q8 -25 9.5 -46.5t9.5 -37.5q12 47 26.5 94t26.5 94l4 19q-4 8 2 18q-2 2 -2 9q4 41 13.5 78.5t19.5 78.5h-6q-8 4 -8 10q0 18 11 37t28 35l10 41q-6 4 -2 14q6 8 12 41l4 33q2 8 8 10q10 47 20.5 99.5t16.5 87.5q-8 4 0 14v8l-2 -2h-4q-12 4 -4 17l10 10q-2 25 -7 58.5 t-15 56.5q-10 6 -9 14l-8 6q-10 4 -22.5 3t-24.5 -3q-16 -6 -33 -6q-4 0 -6 2h-10q-14 6 -2 18q-16 33 -16 66v2q4 12 12 8h4q0 -2 4 -2v8h16l-10 -10h13.5t15.5 2l8 8h14q-2 0 -2 -2q4 0 8.5 1t8.5 1q18 0 58 3t89 4.5t100.5 1.5t92.5 -7q16 0 28.5 1t16.5 1q-4 -4 -13 -8 l3 -2q4 6 9 4t7 -8q6 -8 0 -14q2 -6 3 -10.5t-1 -12.5v-8q4 -4 4 -6h2q6 -6 2 -13.5t-12 -5.5q-6 4 -8 7q-35 -2 -52 -25v-2q-18 -31 -18 -70l12 -32l-8 -7l6 -28l11 6l4 -12h4q-2 0 -2 -4q-4 -12 0 -31t12 -39v-2q0 -2 1 -2t1 -2q6 -16 14.5 -32.5t14.5 -27.5 q10 -27 20 -53.5t21 -48.5q4 -10 8 -22.5t8 -24.5q6 -23 10 -48.5t10 -54.5q6 6 17 0q0 -4 2 -4q0 -18 6 -32q6 -4 6 -13h10q8 -4 9 -8q0 -8 -13 -20q4 -10 8.5 -17.5t8.5 -15.5v-2l6 -15l2 -6h2q2 -4 6 -4l21 -55q-4 -27 12 -51q10 -47 20.5 -86t30.5 -86q6 35 12.5 70.5 t26.5 60.5q4 41 11 82t18 80q10 35 20 67.5t21 65.5q-6 -4 -9.5 2t0.5 14l17 18q4 10 4 19.5t2 19.5l6 9q10 66 27.5 117t31.5 104q-6 -2 -8 4t2 12q12 14 17 33q0 4 1 8t1 8q0 2 4 6q8 37 12 80t6 76l-8 4q-4 4 -4 10v9q-12 2 -22.5 1t-12.5 -5q-6 -6 -10 -4.5t-4 8.5h-2 q-6 2 -8 8v8q-10 16 -9.5 34.5t19.5 26.5q4 4 8 5.5t8 -7.5v-4h6l2 2h39t52 2l16 11h2l2 2v-2q8 0 8 -11q4 0 7 1t8 1l-27 -16h20q14 0 23 2q16 8 25 14h28q31 10 62.5 13.5t64.5 -15.5q4 4 9.5 1t5.5 -11q-4 -16 -5 -24q10 6 14.5 -0.5t-3.5 -14.5l-9 -8q6 -6 -2 -14v-4 q-4 -6 -10 -6.5t-8 6.5q-8 -4 -13 -5.5t-10 -5.5l-12 -6l-8 -6l-4 -4q-35 -31 -55.5 -71t-34 -83t-21.5 -89t-20 -89q-2 -8 -10.5 -39.5t-20.5 -60.5l-2 -4q-6 -12 -11 -21.5t-11 -15.5q-6 -20 -6.5 -44t-2.5 -38q-4 -29 -15 -50.5t-22 -49.5q-12 -37 -20 -76t-18 -80 q-4 -10 -9.5 -21.5t-9.5 -21.5q-8 -72 -29.5 -139.5t-40.5 -136.5q-14 -53 -22 -103.5t-31 -101.5q10 -4 9 -9.5t-11 -9.5q-4 0 -8 -2q-6 -6 -14 -4l-21 -6q-23 -16 -45 -16q-8 4 -8 8h-10q-2 0 -2 -2l-4 2q-10 0 -19 8q-4 4 -2 9t6 7q-14 35 -18 59.5t-19 53.5 q-39 82 -79.5 167t-69.5 175q-2 4 -2 12q-2 8 -4 14.5t-4 12.5q-10 0 -15 2q-14 6 -11 18.5t15 28.5v10q-8 16 -16 40t-18 48q-4 -2 -13 -2l-6 2q0 4 -4 9q-2 8 2 14l8 12l-41 123q-4 0 -7 -1t-7 -1q-8 6 -6 14l8 19q0 2 -1 4t-1 4l-16 35h-13q-8 4 -8 10q0 11 6 27z" />
<glyph unicode="X" d="M166 135l2 2q-4 4 0 10q10 27 39 48.5t45 44.5q-2 0 -2 2l18 24q16 16 31.5 37t30.5 39q4 4 0 12q14 10 29.5 23.5t25.5 30.5l-14 -11l18 25q-12 4 -4 16l16 17q0 2 2 4l23 26q10 20 20.5 40t24.5 36q8 14 15.5 28.5t19.5 22.5l2 4v-2q2 0 2 1t2 1q20 27 31.5 51.5 t23.5 61.5l6 8q-10 12 -19 25.5t-13 25.5q-10 18 -28.5 37t-20.5 35l-19 19v2l-14 16l-6 12q-4 4 -4 6q-25 -12 -50 0q-4 2 -4 11q6 20 19 39q-4 8 -4 10q-6 6 -15 22q-4 0 -4 2q-8 14 -17 26.5t-18 25.5q-14 16 -24 35.5t-21 37.5l-2 2l-14 17l-16 -6q-6 2 -9 8q-2 8 4 20 q-6 6 -11 13.5t-9 15.5v2l-45 55q-2 0 -6 4q-6 14 -17.5 31t-23.5 33q-6 0 -8 6l-4 6l-9 19l-2 2v2q-6 10 -13 19t-17 13v-2q-12 -6 -19.5 -7t-23.5 3q-2 0 -5 2q-4 0 -5 -1t-3 -1h-2q-10 -4 -14 6q0 4 -2 9q-2 0 -4 2q-8 12 -4 35q-4 12 0 24l2 4q0 8 10 13q20 0 40.5 2 t43.5 -2h45q25 2 48.5 3t49.5 -3q23 4 46.5 6t47.5 2l5 -2h20t21 -4q20 4 39.5 6t37.5 -6v-2q16 2 30.5 4t27.5 0q10 -6 10 -13l6 -2q2 -14 0 -26q0 -10 -4 -23q4 -8 -10 -12q-12 0 -24.5 -1t-24.5 -3q-10 -4 -18.5 -9.5t-8.5 -21.5v-2q12 0 6 -14l2 -2q0 -2 2 -2 q0 -2 1 -3.5t1 -3.5l15 -24q4 -10 9 -19.5t11 -19.5l4 -2q4 -8 8 -14.5t9 -14.5q2 0 6 -4l2 2v-4l26 -35q2 0 6 -4v-2h3v-2l2 -6q4 -4 4 -6l22 -33l-2 -2v-2h8q10 -8 15.5 -18.5t11.5 -20.5v-10q8 4 12 -6l6 -25q8 -18 20.5 -37.5t24.5 -36.5q6 0 11 -2q6 -16 14 -26 q2 0 2 -1t2 -1q2 -2 2 -7q2 2 2 5q6 8 13 12l4 4v6q4 8 9 15.5t11 15.5l2 2l4 4q4 4 4 6q16 18 27.5 38.5t28.5 37.5q2 10 12 23.5t20 23.5q2 2 2 4t1 2t1 2q4 8 10.5 18.5t16.5 22.5q0 4 2 6q4 8 17 21l12 20q2 8 10 25l2 4q8 16 25 33q6 10 11 21t9 22q0 4 2 8 q4 8 11.5 25.5t-3.5 25.5q-4 -6 -10 -6h-15t-16 4q-2 0 -4 2q-23 4 -33 9t-12 40q-6 8 9 17q27 0 53 2t55 -2q29 4 57.5 5t53.5 1v-2q16 2 29.5 3t27.5 -1l8 -6q35 2 69 4t62 -9q8 4 12.5 -1t0.5 -11v-2q0 -2 -3 -4q2 -2 3 -6q0 -12 -6.5 -21.5t-10.5 -19.5q0 2 4 2 q10 4 12.5 -3t-4.5 -13q-23 -10 -49 -18.5t-51 -4.5q4 -6 0 -10q-8 -10 -18 -19h-6l-9 -14q0 -4 -2 -6l-8 -12q-4 -4 -8 -4l-10 -13h-2q0 -2 -2 -4l-2 -2q10 -4 4 -14l-15 -15q-2 0 -4 -2l-4 -4l-4 -8h2l-10 -8l-2 -2q-2 0 -2 -2l-17 -15q27 12 45 19q12 4 13 -12 q0 -2 -2 -4h2q-2 0 -2 -3q-8 -12 -36 -29.5t-65 -37.5l-10 -17l-12 -20l-2 -4l4 -2q-2 -2 -6 -2l-4 -4l-23 -27h2l-14 -12l-8 -8q4 0 6 -2l2 2v-2q2 -2 4 -2q8 -6 -2 -17l-43 -24q2 -2 2 -7q-6 -14 -15.5 -26t-19.5 -25q-14 -29 -41 -55q-12 -23 -27 -33v-2q0 -2 4 -2 q6 -8 0 -14q-14 -18 -36 -39q2 0 2 -2q4 -18 10 -27l20 -35v-2q0 -2 2 -2l21 -30h4v-3l2 3v-3q14 -12 19 -40v-3l10 -20q8 4 14 -2t11 -12.5t10 -16.5q0 -8 -2 -12l10 -16h8q10 -4 18 -23v-8q8 -10 15.5 -19.5t13.5 -19.5q0 -8 -2 -10q2 0 4 -2l2 -2q4 -10 17 -27q2 0 6 -4 q12 -16 24.5 -35.5t18.5 -40.5q0 -4 2 -6l8 -14q6 4 12 -2q27 -31 41 -62q4 -6 -2 -12v-2l2 2l4 -8l4 -4l13 -17l-2 -2q2 0 2 -1t2 -1q12 -12 22 -33v-2q2 -2 4 -2q10 -10 16.5 -20t14.5 -21l2 2v-4q16 -14 26.5 -27.5t22.5 -29.5q4 -10 -4 -14l6 -7q4 -2 5 -4t6 -6 q10 -2 22 -8t18 -10q4 -4 5 -6q16 -4 28.5 0t18.5 10q8 6 14 -2q8 -10 10 -27.5t-2 -34.5q4 -8 8 -12q4 -14 -10 -16q-41 -6 -84 2t-84 10q-2 -4 -10 -8q-18 -6 -47 -2q-6 2 -8 8h-2q-25 -8 -60 -8q-8 2 -8 10h-10q0 -6 -10 -12l-45 10q-6 2 -7 6h-4q0 -6 -8 -8v-2h-2 q-12 0 -25.5 1t-27.5 3q-2 0 -2 2h-47q-6 2 -7.5 7t3.5 9v2q-2 10 -3.5 18.5t1.5 16.5v10q0 6 6 11q4 4 8 3t6 -5q4 0 9 -1t9 -1l5 4h2v2h2q4 2 10 1t12 -1q0 4 -1 10t-1 10l-6 8q-2 2 -2 9q0 2 4 6q-12 12 -23.5 25.5t-15.5 29.5q-2 2 -2 4q-4 6 -8 19q-16 16 -32.5 38.5 t-20.5 40.5q-16 27 -25 48q-14 16 -28.5 35.5t-20.5 37.5l-6 4l-27 -8l-16 29l12 16q-4 4 -8 13v2l-2 2q-4 4 -8 16l-17 23q-4 -4 -8 2q-14 18 -24.5 38.5t-20.5 42.5q-10 -27 -33.5 -62.5t-42.5 -57.5q-2 -4 -8 -4l-25 -31q0 -12 -18 -35q0 -8 -6 -10q-8 -8 -15 -10 q2 -2 -2 -11l-8 -12l-8 -10q-2 0 -2 -4v-2q-6 -12 -14.5 -21.5t-16.5 -19.5q-4 -8 -4 -13l-2 -2q-4 -8 -8 -15t-8 -15q-6 -18 -11.5 -30.5t-21.5 -29.5l-27 -41q-8 -20 -12 -42.5t0 -33.5q8 -4 10 -4q4 2 9 -8q8 0 24 4l6 11q8 10 17 2q4 -10 3 -25.5t-3 -26.5h8v-2 q6 -4 6 -9t-8 -7v-2h-2q-8 0 -13 -2q-6 2 -6 4h-4q-4 -4 -9 -4t-7 4h-15q-16 -12 -43.5 -14t-44.5 2q-6 2 -8 8q-25 -2 -49.5 -2h-48.5l2 -2q-23 2 -44.5 1t-43.5 -3h-14q-12 0 -24.5 -1t-23.5 -1q-2 2 -6 2q-6 6 -6 10q0 12 -2 16v2q-4 12 -7 22.5t-3 22.5q0 6 6 11l4 4 q6 2 12 -4l4 -6l9 6l21 3t13.5 4t14.5 8t22 13l13 15q0 2 1 2t1 2l8 16v0z" />
<glyph unicode="Y" horiz-adv-x="1366" d="M362 1057q-2 2 -2 6v2q-2 0 -2 2h2l-2 2l-6 8h-2l-14 23l-23 26l-2 2q-10 8 -25.5 23.5t-21.5 32.5q-10 14 -22.5 28.5t-16.5 32.5l-39 60q-2 2 -2 6l-8 12q-14 10 -27.5 19.5t-27.5 17.5h-4l-13 8l-2 2q-4 6 -2 10q-12 2 -24.5 0t-24.5 2h-6q-16 10 -19 31t-1 37 q6 16 14 8h4l4 2q37 12 90 8q29 18 70 10t72 -12l4 -2l92 6l6 5h29q0 2 6 2q31 10 53 8h4v-2l4 -4h24.5t24.5 2l2 -2h2q6 -6 5 -13v-4q0 -8 2 -14l-2 -2q0 -12 2 -16h4v-3l2 3v-3q10 -8 4 -14q6 -6 2 -13t-12 -5q-8 4 -11 8q-4 -4 -8 -4q-35 -2 -45 -13v-8q4 -10 7 -18 t7 -19q8 -12 15 -32q0 -2 -1 -3t-1 -3q-2 0 4 -7v-4q6 -8 9 -15t7 -15l6 -11q2 0 4 2l13 7q8 2 11 -4.5t-1 -12.5h-2v-2l-6 -6q4 -8 7 -15.5t7 -15.5t9 -13t10 -9v-2q8 4 10 -2l2 2v-4q18 -23 37 -58q10 10 14 -4q4 -10 6 -18.5t2 -18.5q10 -10 16.5 -21.5t14.5 -21.5 q10 -18 19.5 -38.5t19.5 -41.5h2v-2l6 -8l2 2l6 8q0 4 2 7l4 6l7 6l10 12q4 16 16 34.5t27 39.5q-2 4 -2 10q16 27 37.5 53.5t46.5 42.5l2 2q10 20 22.5 40t28.5 28q0 2 4 6q2 16 8 29.5t17 27.5q-14 0 -11 15q6 16 18.5 31.5t22.5 27.5q0 10 -4 23q-6 -6 -8 4l-37 10 q-8 2 -8 10q-4 0 -6 4q-4 8 2 15q0 4 2 6l-6 -4q4 10 6 18t0 8h2v11q4 10 10 9t8 -11q8 4 15 4q-4 10 8 16q6 0 31.5 1t54.5 0t52.5 -3t27.5 -8q47 4 93 5t93 -9q8 8 12 -6q14 0 21 -5q8 -6 2 -14l-20 -22q-8 -8 -11 -4l-6 -19q8 -4 4 -8q2 -8 -10 -12h-6q-2 0 -6 4 q-10 -2 -19.5 -2t-17.5 -4q0 -6 -4 -11q-8 -8 -19.5 -8t-21.5 -4q-2 -2 -6 -2l-13 -12l-4 -6q0 -8 -4 -13q-12 -6 -18 -12l-15 -18q-14 -23 -25 -50.5t-34 -44.5q-6 -4 -10 0l-35 -53h2l-10 -14l-31 -51l-6 -21q-2 -2 -2 -6h-2q-4 -4 -6 -4l-37 -64q-8 -27 -17 -41v-2h-2 q-6 -6 -10 -4l-10 -18q-4 -4 -5 -8t-5 -9l-4 -4l-19 -28q0 -2 -1 -3t-1 -6l-2 -2q-4 -16 -9 -31.5t-22 -23.5q-6 -4 -10 0q-6 -6 -14 -18v-2q-2 -23 -11.5 -40.5t-17.5 -37.5l6 -35l2 -33q2 -2 2 -6q0 -29 -3 -58.5t-5 -58.5q4 -4 4 -12q0 -18 -1 -35.5t-1 -34.5q2 -8 2 -20 l-2 -2v-4q6 -6 6 -12v-64q8 -4 8 -8q0 -10 -8 -25q0 -6 1 -11t1 -9q10 4 11 -13q0 -72 1 -95t1 -29.5t1 -13.5t1 -44v-8q2 0 4 2q10 2 24.5 5t28.5 6t25.5 2t15.5 -9q4 -6 2 -13t2 -11q10 -8 6 -24.5t-8 -25.5q-6 -6 -10 -6q0 -4 -4 -8q-6 -4 -39 -7t-78 -5t-96 -2h-97.5 h-80h-41.5q-8 4 -7.5 10t9.5 10h10l2 2q-12 4 -17.5 16.5t-13.5 22.5q-2 6 -2 12q8 16 23.5 20.5t33 5.5t34 2t26.5 13q4 43 6 85t4 87v17q-18 -4 -29 2q-10 8 -2 16q14 20 31 35q-2 20 -3 40t-1 40q-6 0 -6 10l2 125q-4 -2 -3 17.5t3 44.5l-8 46t-6 48q-16 37 -36 70.5 t-40 68.5q-4 4 -4 6q-8 6 -11 17q-8 8 -14 20l-14 21l-2 4q-4 4 -4 6q-12 20 -28.5 36.5t-29.5 37.5l-24 38l-11 15v0z" />
<glyph unicode="Z" horiz-adv-x="1157" d="M664 672l18 10q-8 -12 -8 -20v-7l-31 -14l-29 -43l-8 -10q0 -2 -4 -6q2 -2 2 -9l-10 -22l-4 -6l-2 -4l-2 -2q-10 -16 -21.5 -30.5t-23.5 -29.5l-6 -8q0 -6 -3 -8l-2 -2l-28 -33q-4 -10 -10.5 -26.5t-18.5 -24.5l-14 -21l-6 -8l-4 -6l-5 -4l-10 -14q-12 -20 -22.5 -39 t-22.5 -41q4 -4 0 -8q-8 -10 -17.5 -26.5t-21.5 -27.5q29 0 56.5 1t54.5 -1q76 6 135 -10h39.5t38.5 4q6 0 8 -4l2 -2h8q12 0 23.5 1t23.5 1l2 -2q29 2 54.5 3t44.5 5q6 0 8 -4v-2l51 6q8 4 14.5 6t12.5 4l2 2v-2l4 2l8 -6l31 6q29 16 43 39t28 52q-4 10 -8 16t-4 16v2 q0 2 2 4q0 4 6 9q4 0 5 1t6 1q0 4 2 4v2q2 0 3 1t3 1q8 2 18 7t19.5 6t16.5 -2t9 -15q0 -2 -1 -3t-1 -3v-4q0 -4 -1 -5.5t-1 -3.5t2 -4v-2l-6 -28v-58q4 -4 0 -8q0 -35 -12 -61q-2 -10 -3 -18.5t-1 -16.5l-4 -37l4 -2q-2 -4 -2 -10v-15q8 -4 2 -14l-4 -4q0 -12 -9 -33v-2 q0 -2 2 -2q6 -4 3 -9t-9 -9h-84q-98 -4 -191 -1t-190 3h-2v-2q-12 0 -18 2h-53q-10 -2 -25 0h-4v2q0 2 -2 4h-37q-14 -12 -31.5 -12.5t-35.5 4.5h-3v2q-6 2 -6 6h-143v-2h-2q-16 0 -31.5 1t-32.5 1h-47q0 -2 -1 -2t-1 -2q-8 -2 -12 2q-23 -2 -47.5 -4t-48.5 -2l-6 4 q-4 0 -5 6v8q-2 0 -2 2v4l2 2v19q-4 4 -2 8v4q-2 16 -3 30.5t-1 30.5v2q4 12 13 9q0 18 14 36.5t31 36.5q8 16 15 30.5t17 29.5q0 2 5 10l8 10q4 6 10 12.5t10 14.5q-4 14 8 14q8 16 15 25l28 51q-12 12 0 18l19 11q20 37 49 67q0 4 2 6q12 37 41 69t55 62q0 2 2 4l17 21 l10 12q33 45 48 71t40 56q8 18 14.5 35.5t16.5 34.5q14 25 33.5 49.5t35.5 46.5q14 31 40 69t44 56q8 10 16.5 20.5t18.5 20.5q2 2 6 2q0 8 6 14l3 2q-2 4 2 19q-10 0 -15 2q-12 4 -4 16q14 18 51 43q4 6 9.5 13.5t9.5 11.5q4 6 8 10q6 8 10 4q2 2 6 0q2 8 4 15.5t7 17.5 q-29 -4 -73 -1t-69 7v-2h-2q-20 2 -39.5 3t-42.5 5h-2q-6 2 -6 8l-20 3l2 -3h6l-2 -2q6 -4 3 -9t-9 -9h-7q-16 4 -29.5 6t-29.5 4h-4q-14 0 -20 2h-25q-2 0 -2 2q-12 -2 -23.5 -2h-23.5q-2 0 -2 -2h-2q-25 -4 -55.5 -5t-59.5 -3q-14 -4 -27.5 -6t-27.5 -4q-14 -6 -27.5 -9 t-28.5 1q-16 -16 -22 -37q-2 -18 -4 -37t-2 -39q-6 -6 -13 -6h-22q-18 -6 -33 -4q-8 2 -8 8t6 10v6q-4 4 -4 9v8q0 14 2 28.5t4 30.5v4q2 6 2 19q0 6 6 6v14q-2 0 -2 1t-2 1q-8 2 -6 14q2 8 16 23q-2 6 -1 12t1 15v8q2 10 1 23.5t-3 26.5t-1 25.5t10 20.5q-4 4 -3 9t9 10 q23 0 46 -1.5t46 1.5q12 2 25.5 2h27.5l39 6q6 0 8 -4q0 -2 2 -2l52 -7l57 13q8 -4 8 -8q41 2 79 -0.5t73 -2.5l4 -2q0 -2 2 -4q14 2 24 0q2 -2 2 -6q31 0 62 1t61 5q6 -4 6 -6q59 4 116.5 8t117.5 4h2v-2q2 0 2 -1t2 -1h20.5t20.5 -4h2v-2h76q10 2 26.5 1t24.5 5q10 6 14 0 t-4 -14v-2q-4 -18 -1 -36.5t7 -35.5q10 -6 -2 -14q-4 -4 -8 -4q-12 -6 -22.5 -20.5t-18.5 -28.5q-2 -23 -10 -52.5t-33 -39.5q-12 -33 -46 -79t-68 -87v-4l-9 -7l-37 -41l-10 -18q2 -2 -2 -10q-31 -47 -61 -84q-2 -2 -4 -2q2 -2 2 -6q-2 -4 -14.5 -27t-28.5 -47q2 -2 2 -6 q-10 -25 -39 -45l-12 -8q-4 -4 -7 -5q0 -16 -14 -36h12l-14 -23q-8 0 -12 -2z" />
<glyph unicode="[" horiz-adv-x="524" d="M20 1548q4 10 9 11q-8 8 8 16h29q25 6 65.5 11t81.5 8t79 4t56 1q12 -6 6 -14h49l7 -4q16 0 34.5 -1t36.5 -1h8v-14q2 -4 4.5 -8.5t2.5 -10.5q0 -2 2 -4v-14v-23.5t2 -25.5q0 -10 -11 -13q-33 -10 -76.5 -10t-80.5 2q-16 -2 -29.5 -4t-26.5 -6q-10 2 -6 12 q-23 -18 -43 -30v-5l21 13q6 12 12 8l6 4v-16q0 -12 -1 -27.5t-3 -32.5q0 -4 -1 -8t-1 -8q-2 -8 -2 -23l2 2q0 -4 -1 -8t-1 -8q2 -2 2 -8q0 -23 -1 -47.5t-1 -46.5q4 -16 8 -23q4 -16 -8 -16q0 -16 2 -25q4 -29 12.5 -67.5t3.5 -69.5q2 -2 3 -8q-8 -16 -19 -27 q-2 -14 -3 -27.5t-5 -25.5q-2 -41 -3 -84t-1 -80q8 0 8 -12v-6q10 2 10 -13q-2 -6 -6 -13t-8 -15v-7q4 -18 8 -20q2 -6 -1 -12t-11 -4q-2 -23 -4 -47.5t-6 -47.5q2 0 4 2v-12l-4 -4q-2 -8 -2 -23v-12l6 6v-22l-6 -6v-27l6 6v-20l-6 -4v-7q2 -12 4 -23t6 -22q4 -14 -10 -18 v-6l4 4v-2l-4 -4v-31l4 4v-24q-4 -4 -4 -5v-26t-3 -27q10 0 11 -12l-6 -49l2 2v-55l-4 -5v-28q2 0 4 2v-19l-4 -4v-4q10 0 10 -14t-2 -27.5t-4 -27.5v-7l-2 -2q0 -4 -1 -5t-1 -5q2 -2 2 -4v-8h2v-2h-2q0 -4 1 -9.5t1 -11.5q10 4 18 -2q8 -4 7 -30.5t-3 -50t0 -33t19 21.5 q6 10 11 6t5 -14l-6 -12h16q6 6 8 6h42.5t41.5 -2h9l-2 -2q12 -2 24 -3t23 -8q29 -4 36 -12l5 -4q14 -14 14 -38.5t-12 -37.5q0 -2 2 -4q6 -6 6 -14q0 -4 -1 -6t-1 -6q-12 -16 -19 0q0 2 -2 4l-4 -6q-35 -14 -76 -13.5t-79 0.5h-3v2q-6 2 -6 6q-16 -2 -29.5 -2h-27.5 q-47 -10 -99.5 -13t-95.5 7q-12 -12 -16 2v2q-12 6 -4 19l-2 22q-4 -4 -8 -12v45l6 6v37l-6 -8v35l8 8l-2 4l-2 -2q-8 2 -6 14q0 2 2 4q-2 14 0 33v14q0 2 1 2.5t1 2.5l14 45v4q-4 -4 -8 -8.5t-8 -8.5v29q-4 0 -7.5 -1t-5.5 -1q-8 6 -6 14q4 10 9.5 21.5t11.5 21.5v11 q0 -2 -2 -5v7l2 2v24l-2 -2v14h2v19q-4 4 -4 10t2 10v13l2 2v8q0 6 1 12t1 13v2l-4 -5v11q2 0 6 4v24l-6 -4v25l2 2q-2 10 -2 20.5v20.5q-8 4 -4 14q0 2 1 2t1 2q-2 47 -1 92.5t5 92.5v82q-2 27 -3 61.5t3 65.5v2q0 6 1 12t1 12q0 -2 -2 -2v19l2 2l14 8l-6 18l-10 -6v10 q-6 2 -6 11q0 141 -2 284.5t2 284.5q-6 4 -4 14q0 2 4 6q0 4 1 10.5t1 10.5q-8 -8 -13 6q-4 16 -2 45t4 55l-18 -6v21q12 4 20 8v18zM-37 1509l-4 -14q0 6 -2 8z" />
<glyph unicode="\" horiz-adv-x="794" d="M2 1393q-8 4 -7 10t9 10q4 0 8 1t8 1q-4 12 -8 29q-2 2 -2 6q0 2 4 10v2h2l4 2q29 2 56.5 2h56.5q8 4 16.5 6.5t18.5 6.5q10 -4 10 -13h8l4 -4q10 10 15 -4q0 -4 1 -6t1 -6l2 2v-2q18 -16 30.5 -43t18.5 -51h2l-2 -2h2q16 -18 24.5 -45t14.5 -50q0 -4 -4 -12q2 0 8 -6 q0 -4 1 -7t1 -7q2 0 3 1t3 1q8 -4 8 -8q0 -14 -4 -23q4 -10 7.5 -21.5t7.5 -23.5q0 -2 -2 -2q2 -2 2 -8l14 -25q8 2 29 2q8 -4 8 -8q2 -14 -16 -33q0 -4 4 -8q8 0 10 -2t2 -12l-4 -6q10 -23 20.5 -47.5t18.5 -45.5q2 -2 2 -4t2 -6h-2q4 -14 -10 -10l2 -6l-2 -2l6 -13 q2 0 4 1t4 1q4 0 4 -2q8 6 14 0q10 -16 9.5 -35.5t-0.5 -35.5v-4q0 -6 4 -15v-2l4 -8q6 6 14 0q10 -16 12 -28.5t0 -30.5l-4 -4q0 -4 1 -5.5t1 -3.5q2 0 4 2q0 -4 2 -6q4 4 13 -2q4 -4 5 -11t3 -13l4 -17q0 -4 -1 -5t-1 -3q4 -20 8 -31l4 2q2 -2 6 -2q2 0 7 -4v-2l2 2v-6 q8 -18 6 -35q0 -6 2 -10h14q8 -2 8 -14q-4 -14 -10 -23q10 -27 33 -67q4 4 12 -2l7 -17.5t1 -17.5q20 -29 31.5 -59.5t22.5 -65.5q20 -37 40.5 -73t34.5 -77l6 -16q0 -6 -4 -10q27 -39 29 -84v-2l6 -17q4 2 12 2q10 -4 9.5 -10t-11.5 -10h-2l2 -4q6 2 9.5 -3t-0.5 -12 q4 -6 4 -22q0 -6 -7.5 -10t-11.5 4v2l-4 16q-12 -6 -27.5 -7t-31.5 -1q-10 -8 -22.5 -11t-22.5 1q-27 -4 -51.5 -5t-40.5 11q-4 12 2 14h-2q-6 0 -9 -2q-6 2 -8 8q-10 25 -12 47q-6 10 -12.5 20.5t-10.5 22.5q-4 0 -4 7q-10 29 -12 51q-8 6 -15.5 18.5t-11.5 25.5t-6 26.5 t2 21.5l-12 43q-12 27 -27.5 58.5t-15.5 56.5q-4 4 -4 8l6 4l6 6l-12 27l-10 -8q-8 16 -11 24q-2 0 -2 4l-4 19l-2 2l-2 -2q0 2 -1 3t-1 3l-4 4q-4 8 0 12q0 2 -1 3t-1 3q0 -2 -2 -2l-4 15l-15 22q-14 -4 -20 -2q-12 4 -4 16q2 4 10 13q-10 18 -12 39q0 6 2 8l-4 10l4 2 q-8 12 -10 19l-2 4q-8 10 -14.5 22.5t-14.5 24.5h-8q-14 4 -6 16l4 4q-16 29 -31.5 60.5t-26.5 60.5q-16 39 -18 68v4q-2 10 -5 22.5t-7 22.5l-7.5 15t-7.5 16q-4 0 -6 2q-23 41 -46 93t-28 99q-8 4 -2 14h2l-12 37l-35 60h-2q-4 2 -7 6t1 8q-4 6 -5 12t-3 11q-8 2 -6 14 l2 4v12l-10 19q-17 -4 -25 -4z" />
<glyph unicode="]" horiz-adv-x="524" d="M502 -252q-4 -10 -8 -10q8 -8 -9 -17h-28q-25 -6 -66 -11t-82 -8t-78.5 -4t-56.5 -1q-12 6 -6 14h-49l-6 4q-16 0 -35 1t-37 1h-8v15l-4 8t-2 10q0 2 -2 4v15v23t-2 26q0 10 10 12q33 10 77 10t80 -2q16 2 29.5 4t26.5 6q8 -4 6 -12l12 14h-2l-6 -4v17q0 12 1 27.5 t3 31.5q0 4 1 8t1 9q2 8 2 22q0 -2 -2 -2q0 4 1 8t1 8q-2 2 -2 9q0 23 1 47t1 47q-4 16 -8 22q-4 16 8 17q0 16 -2 24q-4 29 -12 68t-4 70q-2 2 -2 8q8 16 18 26q2 14 3 27.5t5 26.5q2 41 3 84t1 79q-8 0 -8 13v6q-10 -2 -10 12q2 6 6 13.5t8 15.5v6q-4 18 -8 20 q-2 6 1 12.5t11 4.5q2 23 4.5 47.5t6.5 46.5q-2 0 -4 -2v12l4 4q2 8 2 23v12l-6 -6v23l6 6v26l-6 -6v21l6 4v6q-2 12 -4 23.5t-7 21.5q-4 14 11 18v7l-4 -5v3l4 4v30l-4 -4v25l4 4v26.5t2 26.5q-10 0 -10 12l6 50l-2 -2v55l4 4v29q-2 0 -4 -2v18l4 4v4q-10 0 -11 15 q0 14 2.5 27t4.5 28v6l2 2q0 4 1 5t1 5q-2 2 -2 4v9h-2v2h2q0 4 -1 9t-1 11q-10 -4 -19 2q-10 4 -8 30.5t4 50.5t0 33t-18 -22q-6 -10 -11.5 -6t-5.5 14l6 13h-16q-6 -6 -8 -6h-42.5t-41.5 2h-8l2 2q-12 2 -24.5 3t-22.5 7q-29 4 -37 12l-4 4q-14 14 -14.5 39t12.5 37 q0 2 -2 4q-6 6 -7 15q0 4 1 6t1 6q12 16 19 0q0 -2 2 -4l4 6q35 14 76 13t80 -1h2v-2q6 -4 6 -6q16 2 29.5 2h27.5q47 10 99.5 13t95.5 -7q12 12 16 -2v-2q12 -6 4 -18l2 -23q4 4 9 12v-45l-7 -6v-37l7 9v-35l-9 -8l2 -5l2 2q8 -2 7 -14q0 -2 -2 -4q2 -14 0 -33v-14 q0 -2 -1.5 -2t-1.5 -2l-14 -45v-4l8 8t9 8v-29q4 0 7 1t5 1q8 -6 6 -14q-4 -10 -9 -21.5t-12 -21.5v-10q0 2 3 4v-6l-3 -2v-25l3 2v-14h-3v-19q4 -4 5 -10q0 -6 -2 -10v-12l-3 -2v-9q0 -6 -1 -12t-1 -12v-2l5 4v-10q-2 0 -7 -4v-25l7 4v-24l-3 -3q2 -10 2.5 -20t0.5 -20 q8 -4 4 -15q0 -2 -1 -2t-1 -2q2 -47 1 -92t-6 -92v-82q2 -27 3.5 -61.5t-3.5 -65.5v-2q0 -6 -1 -12.5t-1 -12.5q0 2 2 2v-18l-2 -2l-14 -8l6 -19l10 6v-10q6 -4 7 -10q0 -141 2 -284.5t-2 -284.5q6 -4 4 -15q0 -2 -4 -6q0 -4 -1 -10t-1 -10q8 8 12 -7q4 -16 2 -44.5 t-4 -55.5q10 4 18 6t19 6q4 4 10 4q4 0 8 2q6 -4 7 -10t-5 -10q-41 -12 -59 -20v-19zM274 -141q-2 0 -2 -2l11 6v4z" />
<glyph unicode="^" horiz-adv-x="733" d="M451 1661q-35 12 -56.5 41t-44.5 55q-2 -8 -18 -24q0 -4 -2 -9h2l-8 -6q-16 -16 -35 -36.5t-37 -43.5h2v-2q18 -8 0 -18h-2l-19 -4l-4 -4q-12 -20 -25.5 -35.5t-23.5 -34.5q-2 -2 -2 -6h-2q-4 -6 -11 -4t-7 10q0 -2 -2 -2q-4 -8 -9 -8q-12 -8 -12 4q-25 14 -39 29 q-20 12 -34.5 30.5t-34.5 30.5q-6 2 -7 12h-2q0 2 -1 3t-1 3l-4 7q-4 6 -1 11t9 3q4 8 9 10q0 4 2 6l4 4q16 20 39.5 38t48.5 34q14 16 31.5 31.5t38.5 19.5l40 33q8 8 16.5 14.5t18.5 14.5q-4 6 4 12q16 10 25.5 21.5t19.5 23.5q8 4 13 0q23 4 54.5 2t41.5 -2q4 -2 5 -4 t3 -4q23 -8 46.5 -29.5t39.5 -34.5q0 -2 1 -3t1 -3q12 -6 21 -14q27 -16 52.5 -35.5t35.5 -42.5v-8q4 -4 10 -9t10 -12l49 -45l2 -2l9 -6l-2 -2v-2h2q2 0 4 1t4 1q16 -6 4 -18l-6 -4l-2 -4h2q-4 -4 -4 -5q-4 -4 -8 -4q-4 -2 -5.5 -4t-3.5 -4q-23 -25 -44 -52.5t-56 -33.5h-2 l-12 -12h-4l2 2q-2 -2 -7 -2q-4 -6 -6 -6q-6 -4 -11 0t-1 10l-8 16q-10 10 -16.5 19.5t-14.5 19.5q-16 16 -33.5 34t-31.5 38z" />
<glyph unicode="_" horiz-adv-x="931" d="M33 20q-14 6 -2 19q-4 20 -5 45t3 45v23q0 2 2 4q-8 8 8 16q10 -2 20.5 -2h20.5l2 2v-2h24l5 4h20l4 2v2h2q16 2 34.5 3t37.5 -1q37 4 72.5 7t68.5 -9q8 -8 -2 -16q-4 -4 -6 -4h4l16 14l-14 -14q6 0 12.5 -1t12.5 -1l18 18h8l-20 -18h22l7 6q0 4 2 6v-2l2 2q8 4 10 2 q0 2 2 4h16l-14 -14q8 0 14 1t15 1l12 12h2l-10 -12q6 2 18 2l10 10h29l-6 -6q10 2 20.5 3t20.5 1l2 2h8q23 2 43.5 4t42.5 2h21.5t21.5 -2q8 6 15.5 11.5t15.5 9.5l4 4v-2q8 2 9 -5.5t-3 -11.5q-2 -2 -4 -3t-4 -5q41 -2 84 -2t78 10l4 -2q6 2 12 -6v-10q2 -2 2 -8 q0 -10 -1 -22.5t-3 -24.5q10 -23 9 -49.5t-7 -51.5q2 -4 -2 -8q-2 -4 -2 -8q-4 -4 -10 -6h-2q-8 2 -8 10q-23 -2 -45.5 -6t-45.5 0q-53 -4 -108 2t-111 8h-26q-6 0 -6 4l-50 4q-45 -6 -71 2q-8 2 -8 11h-21q-4 -4 -4 -5h-25q0 2 1 2t1 3h-24v-3h-2q0 -4 -4 -4v-2h-4 q-23 -2 -47.5 -2h-47.5l-4 -4q-18 -8 -38.5 -5t-41.5 9l-92 8q-4 -14 -16 0h-4v0z" />
<glyph unicode="`" horiz-adv-x="645" d="M16 1712q-8 -8 -12 -2t0 14q41 47 95.5 76t97.5 70q8 4 12 0q0 8 10 12q10 2 30.5 -10t44 -28.5t46 -36t39.5 -31.5q35 -20 72.5 -40t72.5 -42l29 -21q33 -23 53 -41v-6q4 6 3 5t-1 3q6 10 10.5 5t4.5 -15q0 -2 -2 -2h2l2 2v-2q6 4 10 -1t0 -11q-23 -29 -50.5 -66 t-66.5 -49q-8 2 -8 8t6 10q-18 8 -35 25l-12 6q-2 0 -3 -1t-3 -1h-2q-4 0 -4 2q-25 8 -65 20.5t-68 28.5q-20 6 -45 15.5t-47.5 18.5t-41 18.5t-24.5 13.5l-4 4l-62 27q2 -6 -3 -10.5t-13 -0.5q-8 6 -8 21q-4 0 -6 2q-6 0 -9 2v4h-6q-8 -4 -14 -4q-8 4 -8 10q4 12 8 21 q-8 -4 -13.5 -10.5t-11.5 -12.5z" />
<glyph unicode="a" horiz-adv-x="1044" d="M696 698q-4 -6 -11 -6t-7 10v9q-6 12 -14.5 30.5t-16.5 38.5q-27 37 -48 59.5t-50 30.5q-43 -20 -43 7q-39 -2 -105 -31q-18 -8 -31.5 -22.5t-26.5 -29t-27.5 -26.5t-36.5 -14q-18 -4 -35 0q-4 -8 -29 -4l12 8l-22 6l10 -16q0 -10 -10 -13q-18 -4 -33.5 13.5t-19.5 33.5 q0 6 8 11q-14 10 -18.5 18t20.5 29q0 6 4 14l16 8q-8 4 -2 17l2 2q0 2 2 2l9 6q-10 10 2 20q16 10 28.5 17.5l22.5 13.5q16 16 32.5 30.5t36.5 24.5q8 2 25 11l61 45q10 6 14.5 -0.5t-3.5 -14.5q-6 -4 -11.5 -8t-11.5 -8q35 6 70 10t65 8q16 10 33 15l10 -9q33 2 53.5 0 t36 -9t27.5 -19t31 -27l2 2q4 -4 10 -5t12 -5q-4 -4 -8 -4l23 -19l10 7q8 -8 16 -14.5t17 -16.5q25 -14 37 -27q33 -41 50 -88t27.5 -97t14.5 -101.5t10 -100.5q4 -25 0 -64.5t-27 -58.5q0 -10 -1 -17t-1 -15l4 2q8 4 11.5 -3.5t-2.5 -13.5h2q-2 -2 -7 -2l-8 -10 q-4 -12 -4 -19l-4 -57q6 -20 11 -41.5t8 -44.5q20 -6 25 -32.5t1 -47.5l23 -12q4 2 18 2q4 0 6 2q12 -6 6 -14q25 6 34 0t7 -20.5t-12 -31t-22 -30.5l-13 -25q-6 -6 -14 -2l-2 2q-4 -4 -14 -4q-6 2 -9 8l-4 17q-39 -33 -51 -35q-23 -8 -49 -2q-8 -2 -31 -2q-14 8 -6 16 q-31 16 -57.5 38t-40.5 40q-2 8 0 12q0 2 1 3t1 3q6 8 14 5l4 -3l-2 7q-4 0 -4 2q-8 4 -8 12q0 10 4 16l-6 19l-2 2q-10 6 -5 14t15 4q2 -2 4 -2l2 2l-4 13q-4 -4 -12 -9q-2 6 -2 17v6l-13 -12q8 2 11.5 -4.5t-2.5 -12.5l-41 -33q-10 -16 -26.5 -29.5t-29.5 -23.5 q-10 -4 -12 2q-18 -16 -38.5 -29.5t-39.5 -21.5q-4 -2 -12 0q-4 8 -4 12q-49 -23 -103.5 -38t-107.5 -18t-100.5 7t-81.5 41q-27 8 -50 35q-2 4 0 10l7 15q-4 10 -9 26q-18 10 -25 34t-3 54q-6 0 -6 10q0 63 4 92t14 42q4 63 47 110q4 2 10 2l13 8q33 43 98 74 q55 37 106.5 62.5t108.5 43t125 26.5t156 12l6 10v6q0 2 -1 3t-1 3q-8 -8 -15 6q-2 2 -2 8zM530 494q-12 -8 -24 -13.5t-25 -3.5l-14 -8q-16 -10 -32.5 -14t-33.5 -11q-2 0 -2 -2q-43 -23 -63.5 -55.5t-30.5 -69.5q0 -16 -3 -30.5t-7 -30.5q14 -23 18 -52.5t-6 -49.5 q0 -6 -2 -11q12 -16 25.5 -28.5t29.5 -12.5q14 -2 34 5.5t39.5 18.5t41 21.5t39.5 14.5q16 14 32.5 26.5t31.5 24.5q76 66 84 158q-4 -4 -8.5 -3t-6.5 7q-4 29 -4 57.5t-4 56.5q0 8 4 11q-29 0 -56.5 -1t-56.5 -5z" />
<glyph unicode="b" horiz-adv-x="1081" d="M348 651v-10q4 -4 4 -12q0 -37 -2 -74t-2 -76v-22l-4 -4v-39l6 4v-15l-6 -4v-22l6 4q2 -23 2 -42.5v-37.5l-22 -14v-21q2 0 2 -1t2 -1l20 12v-20l-22 -12v-4q2 -4 4 -5.5t6 -5.5l2 -2l10 -6v10q0 8 6.5 11.5t12.5 -2.5q10 -18 18 -42t10 -44l11 6l4 -6l-6 -4 q23 -6 41 -15q4 -8 4 -10l22 -10l-2 -2l14 -7l5 3l18 -7l-4 -2q8 -4 10 -4v-2q23 4 42.5 9.5t35.5 15.5q0 6 8 10q4 0 5 1t3 1q10 -6 9 -10q18 -6 32 -4q2 4 9.5 18.5t16.5 30.5t19.5 29.5t22.5 17.5q10 -2 10 -12l-2 -15q12 16 21.5 36t23.5 36l6 23l-14 6q-10 8 -2 16 q8 12 14 19q-10 31 -8 69.5t6 71.5l2 4v4q-2 0 -3 1t-3 1q-6 2 -8 8q-6 18 -2 40t14 42v17l-10 82q-6 4 -2 16q-4 23 -6 44t-4 44q-16 27 -34 49.5t-42 38.5q-6 2 -6 8q-23 4 -47.5 6t-46.5 9h-3q-6 2 -6 10q-53 -14 -97 -52t-87 -73q-12 -23 -19.5 -47.5t-11.5 -57.5z M20 1358l-20 -8t-20 -9q-8 -4 -11.5 1.5t-1.5 11.5l2 2l-2 2h4q10 10 27 20h-4q-6 4 -7 9.5t5 9.5h2v2h2q20 12 43.5 20t46.5 11q10 4 19.5 9t19.5 11h2l2 2v-2h2q35 16 78 26.5t78 2.5q6 4 12 -2q0 -2 1 -2t1 -2l8 4q8 -4 15 -13l-5 -2l7 -8q0 -8 -2 -12l6 4q0 -4 1 -5 t1 -3q27 -14 23.5 -44t-19.5 -51v-4q-2 -4 -10 -6q0 -2 -2 -2l-5 -6v-25l15 7v-25l-15 -8v-23l15 9v-33l-15 -6v-15l15 6l-15 -8q0 -6 1.5 -12t1.5 -12l14 6v-21l-12 -6v-24.5t2 -26.5q0 6 1 11t3 11v3l2 4q4 6 10 3t6 -14l-6 -30l-4 -35q2 -2 4 -2q4 -14 5 -27.5t1 -30.5 q0 -10 1 -22t1 -25q14 8 27.5 16.5t30.5 14.5q8 0 10 -2q31 12 77 30.5t91 31t79.5 12.5t41.5 -25q0 -4 -2 -6h26q6 -4 6 -6q2 0 2 -2v-2q27 -14 43 -27q2 -2 2 -4q18 -8 35 -22q6 6 15 4l47 -39q6 -4 11 -7t9 -8l-14 -8l8 -16q6 6 14 4q2 0 3 -1t3 -1h-2q4 -4 5 -6l12 4 l6 -6l-8 -4v-9l8 -10h2l12 6l17 -20l-2 -2l8 -17l4 2l6 -8l-6 -4q2 -2 2 -6h4l2 -12l8 -13l6 5l2 -5l-6 -4l21 -22q2 -6 0 -12l2 2q2 -6 3 -13.5t5 -13.5l-16 -6q0 -4 2 -4q4 -6 -2 -13q-4 -4 -4 -8q8 2 24 10l6 -30l-12 -8v-9q4 12 11 9.5t7 -13.5v-43q2 0 7 -8v-90 q0 -2 -2 -2v-2q-2 0 -3 -2l-4 -29h2q0 -4 -1 -6t-1 -4q-2 -6 -2 -14q-12 -16 -18 0h-4q-2 -10 -3 -19.5t-1 -19.5q4 4 10 5t12 5l-4 -14q6 -4 6 -13q-2 -4 -5 -15t-9 -28q8 -4 -2 -14l-6 -6t-4 -6q-4 -8 -7.5 -15.5t-7.5 -15.5l2 2l-18 -43l-10 -6l-2 -2v-2h-2q-8 -8 -9 -8 h-2l-12 -21l21 10l-7 -12l5 -4h4q-2 -2 -2 -4v-2l-11 -19q-8 -16 -17 -32.5t-26 -24.5q-18 -23 -41 -41q0 -2 -1 -2t-1 -2h-2l-2 -2q-2 -2 -6 -2q-25 -18 -54.5 -34.5t-59 -31t-55 -22.5t-42.5 -8q-6 2 -6 4q-2 0 -4 -1t-4 -1l-6 -7h-9q-14 -4 -28.5 -6t-26.5 -2 q-18 8 -2 21q4 4 6 4q-2 2 -6 2l-2 2v-2q-29 0 -63.5 2t-63.5 10l-4 -8q-8 -8 -14 -6q-29 12 -49.5 34.5t-43.5 39.5q-10 -10 -18 -18.5t-14 -12.5q-20 -33 -60 -45q-2 -6 -8 -8v-2h-2q-16 -2 -40.5 -5.5t-47.5 -3.5q-33 -6 -61 7q-16 0 -11 12v4q-4 4 -3 9t7 7v2h2l5 2 q8 14 24 27q14 20 33 29q0 10 5 16t11 14v39q2 25 3 48.5t-3 48.5q-4 0 -6 -2q-6 2 -8 8q-4 29 -7 61.5t-1 63.5q-4 49 -4 99t8 97q4 8 8 8l4 54v14h2q0 12 1 24.5t1 26.5q-10 29 -14 77t6 81q-4 72 0 145.5t12 143.5q-6 43 -6 90q-10 -4 -22.5 -9.5t-24.5 -9.5q-12 4 -4 17 l41 41l-4 18q-31 -14 -45 -4q-8 6 -2 16q10 16 30 33q-2 2 -2 4h-8q-12 4 -4 17q0 2 -1 2t-1 2v2h-70z" />
<glyph unicode="c" horiz-adv-x="886" d="M516 -49q-6 -2 -18 -2q6 4 11 6t11 4l-55 -6l-16 -8q-63 0 -116.5 12t-80.5 41q-10 10 -17.5 20.5t-15.5 20.5q0 -4 1 -5t1 -5q0 -6 -4 -10.5t-12 -0.5q-33 37 -54.5 65t-36 52.5t-23.5 49t-15 53.5q-2 -4 -2 -9q-12 -14 -19 2q-6 29 -11 78t-7 103l-4 6q-8 0 -8 10v60.5 t4 64.5q4 23 17 76t32 106q0 6 2 8l-2 2q-6 6 -4 15q4 8 9 15t11 16q18 47 54 92t80 81.5t92.5 59.5t93.5 25t89 -7.5t87 -21.5q37 -4 66.5 -7t45.5 -5h7l-2 -4q12 -8 -5 -17v-2q33 -10 68 -12l4 -4q4 0 9 -1t10 -1h2v-2q8 -4 7 -9.5t-9 -9.5h-9v-8q4 -2 13 -10l-9 -4l7 -17 q4 0 12 4l2 -2l-12 -6q-2 0 2 -4q0 2 2 2q8 2 12 -8v-53q0 -2 1 -4t1 -5q-2 -2 -2 -4v-14h-2q-4 -6 -8 -6q-10 -25 -27 -41l-6 -14v-2h-2l-4 -5q-10 -14 -26.5 -12t-20.5 12h-6q-2 0 -3 1.5t-3 1.5l-11 2q-6 2 -8 8q0 2 -1 3t-1 3v47l-6 18q-12 12 -27.5 30t-32.5 34h-6 q0 -8 -8 -10h-2q-70 12 -123 -2v-2l-20 -11l-15 -6q-10 -6 -20 -13t-21 -15q-10 -18 -40.5 -51t-59.5 -50q0 -4 -2 -4q6 -16 2 -39.5t-13 -47.5t-18.5 -45.5t-13.5 -35.5q-4 -12 -5 -23.5t-3 -23.5q4 12 4 16q4 12 4 21q2 4 2 10q4 10 11.5 7t7.5 -13l-5 -14q-6 -41 -8 -79 t2 -77v-10q0 -2 2 -2q4 -16 6.5 -30.5t4.5 -31.5l6 -30q16 -41 44.5 -73t65.5 -48q0 8 9 10q16 -2 34.5 -6t24.5 -19q4 0 10 -1t10 -1q16 6 37 7.5t37 -0.5q16 4 31.5 8t32.5 8q0 6 6 10v2h2q23 12 47 23.5t47 13.5l14 21q-2 0 -2 8l-4 2l41 39q0 4 8 8h2l9 -6q25 10 34 -15 q18 -8 19 -51v-6l6 -20q0 -2 2 -2l-2 -3q0 -14 -12 -10q-6 -29 -25 -49v-4l-4 -6q2 -2 2 -8q-10 -31 -33.5 -54.5t-55.5 -41t-70 -29t-76 -19.5l-62 -18v0z" />
<glyph unicode="d" horiz-adv-x="1056" d="M727 555q-4 18 -6 37.5t-2 40.5v12q-4 43 -27.5 69.5t-52.5 46t-53.5 35t-26.5 31.5v4q-10 4 -17 7.5t-16 7.5q-2 2 -4 2l-2 -6q-2 -4 -10 -6q-31 -4 -50.5 4t-33.5 15t-27.5 8t-33.5 -17l-15 -29v-4q-10 -82 -43 -154q-8 -8 -16 -6l-4 -28q2 -55 0 -90t-11 -91 q4 -20 6.5 -38.5t8.5 -36.5q8 -25 21.5 -45.5t23.5 -42.5v-2q2 -8 -2 -13l28 -43q31 -25 62 -33q45 -6 96 -6q8 -4 9 -10t-9 -10h-2q-27 -8 -65 -4l14 -4h18l62 10q20 23 48 37t56 24q10 14 20.5 30.5t20.5 33.5q4 6 9.5 6t7.5 -6q0 -4 2 -6v8v42t2 42v2l2 74v6q0 4 2 6 q2 16 3 25.5t3 18.5t3 19.5t1 26.5zM563 27q-2 0 -3 1t-3 1q-35 -20 -83 -32.5t-87 -0.5q-4 4 -4 6q-18 4 -34.5 10t-26.5 11q-23 10 -52.5 22t-50.5 29q-8 6 -23.5 24.5t-31.5 40.5q-14 10 -23 25q-4 4 -7 10t-7 10h-6q-29 59 -43.5 112.5t-36.5 113.5q-2 0 -2 2v39 q-16 49 -2 94q-4 4 -4 10v27v67.5t2 67.5q4 6 8 8t8 -4q20 76 80 151l31 33q20 37 43 66q10 8 14 -8q45 37 91 49t93 8q10 2 22.5 1t23.5 -1q10 2 20 3t27 -3q23 -4 46 -15.5t50 -25.5q0 10 10 12q39 -4 77 -31.5t66 -54.5q-2 39 -2 79t7 79q2 6 8 8v24.5t2 26.5 q-6 10 -11.5 28.5t-9.5 40t-12 42t-20 37.5l-9 10q0 6 2 3t7 -3q-29 20 -50.5 35.5t-64.5 -4.5q4 -12 -4 -10t-4 18q0 4 -5.5 0t-3.5 0t-11 16.5t-9 16.5q14 10 35.5 23.5t38.5 23.5q8 4 15 10t18 10q8 8 25.5 11.5t27.5 9.5q29 16 55.5 18t48.5 6q2 -2 6 -2q18 -4 39 -20h2 q8 -16 17.5 -29.5t15.5 -34.5q-2 -20 1 -40.5t3 -34.5q2 -8 8 -9q0 -4 1 -6t1 -6q0 -86 -2 -168t-6 -168q14 -31 18.5 -77t3.5 -96t-5 -96t-7 -75q-6 -10 -12 -6v-78q2 -2 2 -6v-307l-6 -6q-2 -20 -1 -29.5t9 -16t24.5 -11.5t47.5 -15q-2 10 5 14t13 -2q4 -10 14.5 -11 t20.5 -1q16 -6 4 -18l-6 -7q0 -2 -4 -6l-6 -4q-16 -16 -44 -37.5t-58.5 -41t-61.5 -33t-53 -11.5q-25 -10 -39 4q-23 -6 -33 11q-2 -8 -8 -11.5t-10 7.5q-2 27 -10.5 51t-12.5 51q-29 -18 -61.5 -31.5t-65.5 -23.5z" />
<glyph unicode="e" horiz-adv-x="997" d="M645 817q-2 0 -2 2q-4 2 0 6q-20 20 -39 31q-23 10 -48.5 18.5t-43.5 24.5q-18 8 -39 12h-4q6 -8 10 -16q0 -6 -4 -10q-14 -12 -24.5 -17.5t-19.5 -6.5t-18.5 -3t-17.5 -8q0 -4 -1 -5t-1 -5q-4 -6 -10 -6q-8 -12 -10 -19l-41 -76q-12 -27 -27 -63q12 0 4 -12 q53 14 128 14t143 -4l141 4q-10 41 -31.5 69.5t-44.5 69.5zM371 207q-18 0 -29 10q8 -10 18.5 -16t20.5 -13q4 0 6 5l19 -13q4 -6 14 -8q2 -2 10 -2l6 -4q18 -6 43 -13.5t48.5 -12.5t43 -8t29.5 -1q55 6 113.5 41t101.5 76l16 18v-2q10 10 19.5 18.5t21.5 12.5q-6 0 -6 4h-2 q-2 0 -2 2q-6 4 -5 10t9 8q35 4 48.5 -5t13.5 -27q6 4 12 -2q27 -27 9.5 -53.5t-44.5 -49.5q-27 -49 -75 -88t-103 -65l-22 -15q-35 -10 -68 -22q-31 2 -69 -1t-66 -20l-58 19q-41 0 -88 26q-41 16 -71 41q-2 -2 -6 -2q-51 0 -68.5 28t-38.5 71q-12 16 -22.5 32.5 t-20.5 32.5q0 -12 -2 -16q-6 -10 -16 -4q-31 39 -37 98l-47 98q-4 14 8 15q-14 20 -11 75.5t14 118t26.5 118.5t25.5 81q4 6 10 6t9 -8v-31q0 2 4 6q20 39 32.5 72t32.5 59q-2 4 -2 15q29 41 76 63.5t90 40.5h4q43 20 87 29.5t69 -11.5q4 -4 4 -8q20 10 31 11 q33 2 64.5 -10.5t53.5 -22.5q-4 -6 7 -13h2l36 -12l23 -10l-4 -6l10 -12h2l2 -3l-2 -2l17 -18l6 4l16 -18q2 2 6 2v2q-10 12 -21.5 24.5t-21.5 22.5l35 -14l20 -33q4 0 6.5 1t6.5 1q8 -2 8 -12q-4 -8 -8 -13l12 -22q31 -35 45 -68q16 -16 30.5 -31.5t12.5 -38.5 q10 -23 14.5 -50t4.5 -56q4 0 6 -2q4 -10 4 -19.5t-10 -13.5v-55q0 -6 -5.5 -10t-9.5 0l-4 -4v10q-12 -18 -29.5 -24.5t-43 -4.5t-57.5 6t-71 4h-30q-43 -23 -91.5 -31t-95.5 3q-14 -4 -43.5 -4t-64.5 4q-20 -2 -40 -3t-40 3q0 -6 1 -12.5t1 -12.5q-8 -18 -10 -33v-51 q2 -20 0 -41q2 -41 18 -74l10 -14q-10 18 -16 40t-10 40q6 -14 18 -27l31 -67v-2q0 -2 2 -2q4 -8 9 -4t7 10l2 2q8 -12 15 -19q4 -16 -8 -16z" />
<glyph unicode="f" horiz-adv-x="737" d="M397 1126q0 6 2 11q0 -8 1 -15.5t1 -17.5l-8 -19q4 -18 6 -34.5t4 -32.5h50q37 4 72.5 4t72.5 2h2v-2q10 -4 6 -12h2q8 -4 8 -9q16 4 27 5q10 -2 10 -13v-53l4 -22q0 -4 -4 -9v-16q4 -12 4 -21.5t-10 -13.5q-33 -10 -72 -14q-2 -2 -8 -2q-10 0 -14 2q-12 -2 -23.5 -1 t-23.5 1q-23 0 -43.5 -2t-36.5 12q-2 2 -2 6q-16 -4 -25 -12q-6 -4 -10 0q2 -29 6 -62.5t0 -64.5q2 -16 2 -32.5v-33.5v-23t2 -24q4 -12 4 -20v-242q0 -16 1.5 -33.5t1.5 -33.5l6 -7v-2h2q8 -16 3 -32.5t-16 -32.5q-2 -6 -2 -15h2q18 -10 14.5 -21t-7.5 -24l12 -24 q8 -4 21.5 -3t31.5 1q4 8 10 5t6 -13v-2h3l4 -9v-16q4 0 6 -5t-2 -9t-4 -7v-20q12 -6 0 -16v-4q-12 -14 -19 2q-10 0 -20.5 1t-20.5 1q0 -8 -10 -13q-53 -4 -119.5 -8t-122.5 10q-37 -4 -68.5 -4t-49.5 4q-2 -2 -4.5 -3t-4.5 -5q-8 -4 -11 1t1 14l4 6l2 2q4 8 13 10 q-6 16 -7.5 34.5t17.5 26.5q12 2 12 -8q0 2 2 4q2 6 8 6q23 12 49.5 15.5t36.5 13.5q12 10 16.5 45t2.5 82q0 4 -1 10t-1 13q0 4 2 6l-15 160v2q-4 20 -6 32.5t-4 24.5t-2 26.5v36.5q4 -16 8 -26v-2q4 -10 11.5 -6t7.5 12q-4 25 -9.5 48.5t-11.5 45.5q0 8 -2 12q4 35 2 62.5 t-14 40.5l4 49q0 6 -1 13t1 14l-16 20q-25 -4 -53.5 -3t-45.5 1h-4q-12 -8 -22.5 -12t-20.5 2q-6 0 -8 4v2q-2 0 -2 -1t-2 -1q-6 4 -7 9t5 9h2v2h2l-4 21v26.5t4 24.5l-10 27q0 8 10 12q12 -4 23 -4q0 2 1 4t1 4v2q2 -2 22 -2v4l2 2l2 2l4 2q2 0 15.5 2t32 3t36 1t29.5 -2 v28.5t2 29.5q-8 -2 -14 6q-2 10 3 5t13 5q6 82 23.5 152.5t58.5 124.5l-4 2q4 0 8 4l10 10q14 23 45 43q14 12 41 23.5t57.5 20.5t61.5 16.5t57 11.5l9 6q4 -2 9 -1t9 -1q6 2 16 2l5 -4q16 -4 30.5 -7.5t32.5 -13.5t38.5 -29.5t33 -44t14.5 -50t-16 -46.5q-14 -18 -34 -22 t-44.5 -1t-50 11t-52.5 16q-14 0 -20 2q-25 -4 -48.5 -11t-37.5 -23q-4 -4 -8 -17q-6 -6 -9.5 -14t-7.5 -19v18.5t2 18.5q-16 -35 -15 -70.5t5 -70.5zM178 864l-4 -4l4 -4h8l-2 2q0 2 -2 4q-2 0 -2 1t-2 1z" />
<glyph unicode="g" horiz-adv-x="1030" d="M289 342q0 4 4 7t8 1l12 8q-16 -2 -26 4l-15 -10q-8 2 -20 0h-4q6 6 0 15q-12 4 -15 4l-2 2l-14 6q-12 16 -29 16q-2 0 -2 2t-2 2q-2 2 -2 9q0 6 2 8q0 2 -1 2t-1 2l-8 6l-43 43l-2 2l-8 8l6 6q-16 29 -22.5 61t-2.5 83q0 12 1 25.5t3 27.5q-10 6 -4 18l9 7q0 4 2 8h-7 q-6 0 -6 4q0 8 4 16l17 15q4 16 11 30.5t15 28.5l11 16q-2 0 -2 2l12 15v2q10 20 25.5 34.5t31.5 24.5l33 39q16 14 28.5 26.5l22.5 22.5q41 16 68 23l37 8q-2 4 6 12v2h4q8 0 24.5 1t36 1t36 -4t24.5 -12q10 -2 21.5 -4t21.5 -6q2 2 2 6q4 14 14 6q27 -12 55.5 -24.5 t57.5 -26.5q10 -2 18 -4t13 -11l8 -4t8 -6q6 -6 0 -12h2q2 0 2 1t2 1q10 4 21.5 11t23.5 14q10 4 21.5 5t21.5 1q33 16 61.5 28.5t65.5 28.5q12 4 12 -12q0 -25 -2 -49.5t-4 -49.5q8 -2 8 -12q0 -2 -2 -6t-3 -7t-3 -5q4 -23 7 -45.5t8 -42.5q0 -10 -11 -13q-10 2 -24.5 3 t-30.5 1q-14 -4 -27.5 -8t-23.5 -2q-8 4 -8 13v6q-20 4 -27 12q-4 6 0 12h-16q-4 0 -4 2q0 -8 2 -12q4 -4 4 -6q0 -12 2 -19l2 2l8 -32q-2 0 -2 -2q10 -20 17 -50t10.5 -61t3.5 -58.5t-2 -41.5l-5 -13q0 -8 -2 -12q2 -8 2 -22q-2 -10 -24 -33q4 -4 0 -8q-16 -18 -31.5 -39 t-38.5 -31q-12 -12 -24.5 -22.5t-28.5 -20.5q-12 -8 -24.5 -9t-24.5 -5q-4 -2 -6 -2t-4 -2h-4q0 -23 -25 -33t-63.5 -14.5t-84 -3.5t-85.5 1q-6 0 -9 2q-6 -16 -21.5 -24t-29.5 -16q-4 -14 -9 -30t-13 -26q10 -8 19 -14t19 -10q23 -2 44.5 3t44.5 1q18 -2 37.5 -6t37.5 -9 q47 -4 88 -11t68 -23q0 4 8 8q61 10 118.5 -23t102.5 -73q4 4 13 -3l20 -40l8 -9l15 -10h-2q4 -10 -9 -14q2 -2 1 -3t1 -3l3 -4h-3q0 -2 1.5 -2.5t1.5 -2.5l6 -8q0 -4 1 -7t1 -7q10 4 12 -6q4 -16 1 -31.5t-7 -32.5q4 0 7 -5t-1 -9l4 2l2 -2q12 6 12 -12q-10 -16 -14 -25.5 t-14 -17.5l-31 -43q0 -4 -4 -9l2 -2q-4 0 -4 -2l-10 -6q-18 -23 -40 -41t-46 -26l-21 -15l-2 -4q-16 -23 -58 -43t-73 -22q-25 -20 -68 -26.5t-90 -6.5q0 2 -6 -4v-2h-2q-80 -12 -158.5 6t-148.5 41q4 8 0 13t-12 -1l-9 -6l-12 6l-4 4q-12 10 -37 21l-10 6h4q2 0 2 1t2 1 q-53 37 -61 96l-4 4v-8q0 -8 -7.5 -11t-11.5 7q-2 10 -3 18.5t-1 18.5q-4 27 -11 54.5t-3 51.5l-13 -6l15 58l31 32q2 4 4 5t4 3q0 2 1 2.5t1 2.5l6 6q25 35 55.5 59.5t71.5 34.5q-20 6 -35 20q-4 6 0 13q-16 27 -16 59q-4 16 -4 32.5t4 35.5v2q2 6 10 6q12 41 37 69 q10 10 20.5 16.5t20.5 14.5l16 15q0 2 2 4v-2q8 4 13.5 -0.5t-1.5 -12.5l-2 -2h2q-2 0 -2 -2l-14 -16q8 6 15.5 14t11.5 19l-6 -5l6 7q2 2 2 10q-2 0 -2 1t-2 1v2q2 0 4 2zM393 821q-4 -10 -11 -17t-15 -16q-4 -53 -8.5 -104t-14.5 -104q10 -23 21 -58q6 -14 9 -30.5 t5 -30.5q16 -6 30.5 -15.5t30.5 -17.5q31 6 65 11t62 7q25 25 43 50q35 80 40 130t-5 103q-4 4 -4 8v8q-6 0 -8 9q-6 20 -11.5 39.5t-9.5 42.5q-20 27 -43 47l-2 -2q-6 -4 -21.5 -4t-33.5 1t-37.5 1t-36.5 -2q-16 -12 -35 -33q0 -4 -1 -5t-1 -3q4 -11 -8 -15zM408 -295 q31 0 61.5 1t60.5 3q8 2 16.5 2h18.5h2q10 0 15 2q31 14 66.5 27.5t62.5 13.5l18 13l27 28q6 16 3 33.5t-22 38.5l-53 57q-12 4 -26.5 7t-28.5 8q-4 0 -5 1t-6 1q-2 0 -2 2q-55 -10 -115.5 2t-117.5 18q-8 6 -6 14q-8 -2 -14.5 -3t-12.5 -1l-4 -8q-18 -12 -33 -35v-2l-8 -10 q-6 -12 -11 -23.5t-9 -21.5q0 -20 -2 -44t-13 -44v-2h21q8 -2 8 -14l-10 -15l6 -8q18 -6 36.5 -14t37.5 -17q4 4 14 9q8 2 12 -3l4 -8v-6q2 0 4.5 -1t4.5 -1zM266 328h4h-4z" />
<glyph unicode="h" horiz-adv-x="1050" d="M688 6q-8 0 -14 1t-12 1q-2 2 -3 4h-6q-10 2 -6 15v4h4q-2 16 7.5 29.5t31.5 17.5q8 4 12 8q0 12 15 8l4 2q0 2 1 3t1 5q-2 0 -3 -1t-5 3q-14 14 -10 44h-3q-4 -4 -9 -2t-5 10q2 18 3 36.5t5 36.5q4 41 7.5 85t13.5 75q-2 72 0 146q-6 -4 -10 4q0 4 -1 5t-1 3q-4 10 4 14 q0 8 1 15.5t1 13.5v14q-8 -4 -13 6q-2 29 -3 58.5t3 58.5q-6 31 -18 58.5t-33 43.5q-4 -8 -12 -6q-10 4 -18.5 8.5t-18.5 8.5q-12 0 -20.5 5t-18.5 11q-20 4 -39.5 1t-38.5 -11q0 -2 -1 -2t-1 -2q-12 -18 -31.5 -40t-41.5 -46q-6 -29 -35 -45q-6 -8 -15 -25v-29l9 39 q4 12 11 9.5t7 -13.5q-4 -37 -15.5 -70.5t-17.5 -68.5v-12q-2 0 -2 -2q-2 -6 -2 -19v-2l2 2v-18l-12 -4q0 -6 1 -11.5t1 -9.5l10 4v-6l4 -6q6 -31 7 -64.5t-3 -68.5q8 -23 6 -50.5t-6 -51.5l2 -5q6 -33 2 -73q2 0 7 -6q4 -16 3 -28.5t-3 -27.5q8 -16 22 -28.5t21 -32.5 q4 6 10 3t6 -13q0 -8 -1 -12.5t-5 -12.5q-8 -8 -14 -6q-10 8 -11 16q-10 -4 -20 -6t-21 -4q-2 -6 -8 -9t-10 7q-10 0 -17.5 1t-15.5 1h-14q-2 -2 -8 -2l-29 -4q-23 -6 -47 -6q-14 0 -23 -2l-22 -4q-4 0 -8.5 1t-8.5 1t-8 -1t-8 -1l-8 6q-29 -8 -53 -2q-4 2 -4.5 3t-2.5 3 q-4 -12 -14 -8q-12 -8 -12 8q0 4 1 5t1 3q0 4 -1 10t1 13q0 8 6 8q2 4 3 4t3 2q0 6 2 8q-4 4 2 12v2l7 10.5t8 8.5q6 6 12 0l12 6q0 4 2 6q25 43 30 84t11 92q2 8 10 8v48h2v6h-4q-4 0 -6 2l-2 2v157l6 127q-4 39 -8 89.5t-7 100.5t-3 96t4 77h-2q-4 -4 -6 0q-4 0 -4 8v2 q0 72 -5.5 143.5t5.5 143.5q-2 31 4 67q0 2 4 7h-2q-31 -8 -60 -13l-32 -10h-2q-4 4 -5 4l-30 -14q-10 -4 -13.5 4t5.5 12l12 6q-8 8 6 17q20 4 29.5 7t27.5 13q2 0 6 4l-49 -16q-6 2 -6 6q0 6 32 20.5t79 28.5q12 10 25.5 18.5t27.5 14.5q18 8 39.5 14.5t43 7.5t40 -5.5 t29.5 -20.5l4 2q0 -2 2 -4l-2 -2h2q0 -2 1 -4t1 -4v-4q0 -2 1 -4.5t1 -4.5h2v9l6 -7q12 4 12 -12v-10q2 0 6 -6q6 -74 -4 -156l-2 -2v-104q4 -4 4 -11l-4 -24v-119l6 12q4 8 9.5 6t7.5 -8h4q-2 -2 -2 -4v-2l-10 -33h2q23 14 69 37l25 19q4 8 10 10h4l2 2q6 6 8 6h13 q14 6 30 6v-2q2 0 2.5 1t2.5 1v-2q0 -2 2 -4q16 4 33.5 7t27.5 -1q53 0 98 -5t86 -40q2 -4 2 -10q16 -14 29.5 -28.5t26.5 -28.5q12 -10 12 -24.5t8 -31.5l4 -2q8 -8 20.5 -23.5t23 -31.5t14.5 -31.5t-4 -25.5v-13q2 0 6 4v-14q14 -57 13 -112.5t-3 -114.5q-4 -78 -6 -155 t-8 -155q0 -4 1 -8t1 -8q6 4 12 -2l2 2v-4q12 -35 31 -68q4 8 10 5t6 -13q-2 -4 -2 -6t-2 -4q23 -39 57 -59q6 -4 2 -12.5t-12 -4.5q-6 2 -11 4t-9 4q-6 -16 -66 -18q-12 0 -40 1t-42 1q-18 2 -27.5 4t-27.5 8q-12 4 -8 13h-2q-2 -8 -11 -17q-14 0 -27.5 -2t-27.5 -6 q18 6 43 25h-8l-49 -19h-27z" />
<glyph unicode="i" horiz-adv-x="518" d="M35 903q-8 4 -7 9.5t7 9.5q-8 8 4 24q2 2 8 6h8q8 -4 8 -8q0 -2 1.5 -3t1.5 -3l28 12q-6 4 2 13q16 16 39 22t47 14l17 7q20 20 49 26l4 2q6 2 10 -2q4 0 12 -4l2 2v-2l3 2l6 -4q4 -4 8 -4q4 8 12 4q6 2 19 2q39 -4 54 -29.5t18 -60.5t-2 -72t-7 -61q-2 -8 -2 -19.5 v-23.5q4 2 7 -3t3 -9q0 -31 -10 -66q-2 -35 1 -70.5t-1 -70.5q0 -31 -3 -62.5t-11 -50.5q0 -14 -1 -28.5t-1 -28.5l-2 -2v-23q-4 -4 -5 -4q-2 0 -2 -2h-4q-4 0 -6 2l-2 2v4l-4 -24l25 10v-37h-2q0 -4 1 -10t-1 -10h2v-68q2 0 6 -4l6 -21q4 -2 4 -12v-37q10 -10 19.5 -22.5 t9.5 -24.5q18 -10 24 -27q4 -2 6 -1t7 -1v2q0 10 8 12.5t10 -7.5v-11h2q8 -8 0 -16v-4q4 -16 2 -33q-8 -12 -18 -2l-2 -2h-11l-18 -4q8 -6 -6 -16q-100 -2 -201 0h-2v2q-2 0 -4 2q-14 -2 -33.5 -4.5t-40 -3.5t-40 0t-31.5 8q-4 -4 -9 4h-2v2q-8 4 -8 12q-2 6 -2 14 q-2 2 -2 4.5t-2 6.5t2 12l25 24q4 4 8 7.5t8 7.5l10 8q10 6 14.5 -1t-4.5 -15q-8 -8 -12 -11q6 0 18.5 8.5t26.5 12.5l2 2q-2 12 11 29q-4 4 -5 10q2 10 5.5 18t7.5 19q2 6 2 18h-6l-4 4v6q0 10 -2.5 33t2.5 39v78q0 16 2 31.5t6 31.5q-6 49 2 110.5t14 123t3 117t-32 94.5 q-14 0 -26 6q-8 6 -2 16q0 2 1 2t1 2q-29 23 -84 33zM315 1362q33 -2 50 -14q51 -20 47 -57.5t-78 -90.5q-16 -10 -33.5 -23.5t-40.5 -17.5q-18 -2 -37.5 6.5t-36.5 16.5q-4 4 -4 6q-33 10 -47 47q-29 39 21 90q6 16 18 29l4 8q2 6 8 6q25 4 49.5 3t49.5 -5z" />
<glyph unicode="j" horiz-adv-x="538" d="M115 961q4 10 9 10t7 -8q35 14 72 26t76 21l16 8v-2q6 0 8 -2l27 4l4 -4l2 2h8q4 4 12 -2q16 -29 21.5 -69t5.5 -87q4 -45 2 -91t-6 -89l-6 -6v-25q4 0 6 1t6 1q8 -2 8 -14q-6 -16 -20 -31v-22l-11 -4v-39l11 4v-43l-8 -4v-15l8 4v-18l-8 -4q0 -6 1 -11.5t1 -11.5l6 4 v-16l-6 -4q0 -6 1 -11t1 -10l4 3v-41l-2 -3v-36l2 2v-47l-2 -2v-23l2 2q0 -6 -1 -12t-1 -13h-2v-20h2v-12l-2 -2v-21l2 2v-6q6 -4 6 -14q-4 -10 -8 -15v-2l2 2v-34l-4 -2v-19q2 0 4 2q0 -10 -1 -17t-1 -16q-2 -2 -4 -2v-28q2 0 4 2v-2q-2 -2 -4 -2v-27l2 2v-14q8 -4 0 -17 v-16h-2q0 -14 -3 -23h3v-10h-3q-2 -8 -2 -28h2v-27q-4 0 -4 -2q0 -6 -1 -13.5t-1 -15.5q2 2 4 2q0 -20 -2 -28q4 -4 4 -7h3v-2q0 -8 1 -14t1 -14q10 -10 0 -17q-2 -14 -4.5 -26.5t-8.5 -22.5q-8 -41 -29.5 -74.5t-64.5 -68.5q-14 0 -14 6q-4 0 -6 -2q-8 -12 -26.5 -18.5 t-43.5 -8.5q-23 -8 -43.5 -13t-48.5 -5q-8 6 -8 12q-27 6 -58 27q-2 2 -4 2q-6 2 -8 8q-4 4 -9 7t-9 7q-18 6 -29 25q-2 -4 -7 -5t-9 7v20q-2 27 -2.5 60t16.5 47q8 6 14 -2q0 2 2 4q-8 12 2 16l12.5 5t12.5 4q10 -2 10 -13q23 -6 37 -23.5t35 -27.5q14 2 27.5 2h27.5 q27 14 31 33q4 10 9 10t7 -6q4 4 4 10t2 10q-4 -4 -8 -3t-6 8q-4 20 0 43q-4 6 0 10q4 12 4 18q0 2 1 3t1 3q2 29 3 57.5t1 57.5t-3 58.5t-3 58.5q-4 0 -4 6q-2 45 -4 89t-2 91q-2 25 -3 38t-1 30.5t1 42t1 71.5q-4 20 3 40t15 40l-2 31q-16 6 -2 29l-2 49q-8 0 -10 8 q-4 57 0 117h-6q-6 2 -8 8q0 4 -3 6q0 8 3 12l12 11q-4 12 -1 26.5t-1 28.5q-6 16 -16.5 30.5t-18.5 30.5v2q-2 2 -2 5q-8 0 -17 4q-6 4 -7 9t5 9l11 6v15zM319 1358q33 -2 50 -15q51 -20 47 -57t-78 -90q-16 -10 -33.5 -23.5t-40.5 -17.5q-18 -2 -37.5 6t-36.5 17 q-4 4 -4 6q-33 10 -47 47q-29 39 21 90q6 16 18 29l4 8q2 6 8 6q25 4 49.5 3t49.5 -5z" />
<glyph unicode="k" horiz-adv-x="1017" d="M907 961q10 -4 9 -10.5t-11 -10.5l-35 -12l-14 -13h-4l-6 -8l-29 -28q-4 -4 -4 -7l-12 -16q0 -4 -4 -8q-2 0 -2 -2l-90 -64q-25 -29 -54.5 -55.5t-58.5 -48.5l-25 -29q-16 -35 -45 -51l-16 -16q-8 -8 -12 -2l-5 -2h3q-2 -2 -5 -3l-20 -14l-29 -29l-4 -6q20 8 25 9 q0 6 10 10q2 -2 6 -2l4 4q0 -2 4 -6q-4 8 -4 12q0 10 8.5 12t10.5 -8q2 -23 24 -45l23 -18l30 -25q10 -14 -6 -18q31 -29 52 -54v-10q6 -6 12 -13t14 -14q4 -18 -12 -14v-2q-2 0 -2 2q-2 0 -2 2q-4 0 -4 4l-4 -4v-2l16 -18l6 6l2 -4l-6 -6l2 -2q6 0 8 -5q0 -2 1 -3t1 -3 l17 -16l4 2l4 -6l-2 -2q0 -2 4 -6q2 2 10 2q10 -2 10 -13l-4 -8q53 -55 102.5 -101t71.5 -63q23 -16 51.5 -20t49.5 -25q12 0 16 -4q6 0 8 -2l6 -29v-6q0 -8 -6 -11t-10 3h-4v-10q-2 2 -4 2q-4 -4 -9 -2t-5 8h-31q-10 -4 -20.5 -4h-20.5q-33 -6 -62.5 -9t-40.5 1 q-14 -2 -28.5 -2h-28.5q-10 4 -6 12h-18q-8 0 -13 -2q-4 0 -6 -2h-10v2h-4q-6 0 -10 2l-13 16q-4 0 -6 7v2l-10 28q-6 0 -8 2q-10 10 -23.5 26.5t-27 35t-24.5 39t-17 39.5q-16 20 -37 46.5t-41.5 52.5t-37 50.5t-20.5 40.5q-4 6 -7 11t-5 10l-2 2q-12 16 -24.5 29.5 t-28.5 23.5q0 -10 1 -22.5t3 -24.5q6 2 10 -2q8 -14 12 -41q-4 0 -4 2q-10 4 -14 -4q-2 -2 -2 -4q-4 -4 -4 -5q4 -23 8 -43t8 -51q4 -51 0 -99t4 -95q4 0 6 -5.5t-2 -9.5q0 -4 1 -6t1 -6q10 4 13 -6q0 -4 1 -6t1 -6q14 -8 14 -21h10v-2q16 -6 0 -16v-2h-2q-6 0 -12 -1 t-10 -1l-4 -4q-4 -2 -13 0q-18 -8 -43 -2h-16q-20 -14 -33 0h-24q0 -2 -9 -9q-6 2 -13 2h-13q-59 -6 -121 -6q-2 0 -2 1t-2 1q-14 0 -27.5 -1t-27.5 -1q-14 6 -4 17q-18 4 -19 18q-8 4 -2 16l2 2l27 23q10 6 14 -4q2 2 4 2l12 12v2l19 60v4q12 31 18 67h2l2 -2q2 10 2 31 q0 2 1 3t1 3h-2q4 33 3 61.5t-1 51.5q0 10 1.5 21.5t1.5 23.5l4 4v-49.5t2 -48.5q4 4 10 0v34q0 6 1 12.5t1 12.5q-2 -2 -4 -2v33q2 0 2 1t2 1v45l-4 -2v18l4 4v13q-8 0 -10 8v12q0 6 -4 10q6 35 10 69t0 67q-4 6 -6 6h-4v82q4 27 4 55.5t-8 46.5q0 33 -1.5 64.5t-3.5 64.5 v27h-2l2 -27q-4 16 -5 33.5t-3 34.5v24l4 -33q-2 23 -1 45.5t-5 45.5v-3l-8 37v13h4q-2 8 -2 24q0 14 14 10q8 -4 13 -8l-6 21l-5 -2l-2 22l-6 19l-20 71q-2 8 -4 14.5t-4 10.5q-2 0 -2 1t-3 1q-10 4 -6 12q-12 4 -24.5 4h-22.5q-10 -4 -26 -8l-7 6h-2q-8 4 -7 10.5t9 10.5 h17v2q20 20 42.5 33.5t45.5 27.5q18 16 36.5 32.5t41.5 27.5q8 2 12 -11q16 4 27 2q20 10 45.5 12.5t36.5 -18.5q0 4 8 9q23 -4 30 -18.5t7 -37.5q0 -12 -7 -12q-4 -31 3 -51l-3 -2q-4 -12 -8 -52q0 -29 1 -47t-1 -55v-37.5t-2 -38.5l6 -75q-4 -43 -3 -85t10 -77 q-2 -14 -1 -26.5t1 -27.5v-12l-5 -8q2 -2 2 -4q2 -4 0 -12l-8 -11q-6 -29 -2 -63l-4 -10l-2 -2h-2q0 -10 -1 -18.5t-3 -18.5q6 -10 10 -13q8 -2 12 0l15 9v-13l14 7q16 18 33.5 34.5t38.5 28.5q16 14 33.5 28.5t33.5 30.5q0 4 2 9q18 20 39 44.5t47 32.5q6 10 11.5 20.5 t9.5 20.5q8 12 12 2q18 29 17 41q-33 0 -41.5 10.5t-3.5 51.5q2 8 10 10h82q16 6 36.5 4t34.5 -10l52 6q23 12 45 17.5t45 -5.5q8 -8 0 -16l39 -6q2 0 3 1t3 1q16 4 26 -12q4 -12 -2 -15l4 -6q4 -8 -4 -15t-12 3q0 2 -2 2q-4 -2 -12 -4q-6 -2 -13.5 -5t-15.5 -8q6 1 8 3z " />
<glyph unicode="l" horiz-adv-x="518" d="M150 -27q-2 2 -5 2l-16 -12q-16 -4 -12 8q-2 2 -6 2l2 2h-2h-7v5l-18 -7q-8 4 -7 10.5t9 10.5l8 4h-2l-6 6h-6q0 14 6 29.5t14 25.5v4q-4 10 2.5 16.5t14.5 -1.5q4 -12 31 -8q0 10 10 10q55 43 63 86l-10 -6l10 8q0 4 1 6t1 6q-4 4 -4 10v3l-14 -9v27l14 8v23l-12 -9v25 l10 6q0 4 -1 9.5t-1 9.5l-8 -4v2l6 4q0 14 -2 20l-4 -2v23h2q-6 49 -6 116v2l4 9q-4 0 -4 6v6q0 78 -2 156.5t-4 158.5v8q0 47 -1 94.5t-1 94.5q-10 84 -10.5 160.5t1.5 162.5q-2 2 -2 5q-10 14 -21 21t-23.5 11t-25 10.5t-20.5 16.5q-2 0 -2 2q-6 0 -6 8q-4 4 -4 8 q-6 -4 -11 -1t-1 14q16 39 61 55t96 23q14 8 33 16t37 12t37.5 2t36.5 -16q8 -8 0 -17q14 -8 22 -20q2 0 4 2l7 -12q-4 -4 -5 -4q4 -8 5 -19l4 2v-12h-2l6 -45q0 -6 -4 -10q-2 -8 -2 -17v-6q-2 -4 -2 -8v-16l-5 -2v-21l5 2v-18l-7 -4v-23l7 2v-27l-5 -4v-20l2 2v-23h-2v-8 q12 8 13 -12q0 -90 -3 -179t-5 -182q8 -4 8 -14q-2 -61 -6.5 -122.5t-8.5 -121.5v-104q0 -33 1 -63.5t1 -61.5q4 -4 5 -10q0 -8 -1.5 -14.5t-1.5 -14.5q0 -25 1.5 -49.5t1.5 -48.5q-4 -4 -5 -4l5 -8l2 2v-21q10 -16 26.5 -24.5t26.5 -22.5q4 6 10 3t6 -13t-8 -17q4 -2 16 -2 q8 -4 9.5 -9t-7.5 -9q4 -10 6.5 -17.5t0.5 -15.5h-5v-2q6 -8 0 -14v-4h-6q-16 0 -34.5 -1t-34.5 -1h-6q-59 0 -129 -5.5t-129 -5.5z" />
<glyph unicode="m" horiz-adv-x="1519" d="M1391 895q10 6 14 0t-4 -14q-10 -10 -18.5 -16.5t-18.5 -14.5l6 -10l-6 -2l6 -25q2 2 4 2t6 2l6 -20l-12 -6l6 -31q2 0 11 4l6 -57q-8 -4 -11 -5q0 -18 3 -26l10 4v-14l-10 -4q2 -8 1 -15.5t1 -15.5l4 -4v-4l6 2q0 -23 2 -33l-17 -10q0 -10 -1 -17.5t1 -17.5l7 4q2 0 4 2 t4 0l2 2v-2q4 0 4 -4q2 -2 2 -8v-78q0 -2 -1 -3t-1 -3v-11l-4 -32l2 2v-10q-2 0 -2 -1.5t-2 -1.5q0 -8 -4 -24q4 -12 4 -17q2 0 2 1.5t2 1.5q0 -12 1 -23.5t1 -22.5q0 -2 1 -3t1 -3v-131v-19t-4 -20v-6l6 2q0 -16 2 -22l-8 -4q0 -14 2 -21l6 4q0 -10 4 -18q25 -4 45 -12 q8 -6 -2 -17l-2 -2h4l-2 -2h4l-2 -2q6 -6 2 -10q8 -4 9 0q4 -4 4 -8l6 4v-19q-2 -2 -6 -2h-15q-4 -12 -16 -4q-2 0 -23.5 -1t-54.5 -3q-23 -4 -47.5 -8t-46.5 0q-6 2 -6 4q-10 -2 -19.5 -1t-19.5 -1q0 -2 -2 -2v-2h-39q-16 -2 -32.5 -4t-33.5 2q-6 2 -8 8q-4 29 24.5 45 t59.5 27q4 12 7 37.5t4 57.5t2 63.5t1 54.5q-2 0 -2 4q-4 12 -6 52t4 75q-8 0 -12 2q-8 2 -6 14q6 20 31 39v16q-2 12 -2 25.5v28.5h-5l-4 4v6v47t4 45q-12 27 -18 54.5t-14 54.5q-10 0 -17 2q-8 2 -8 12q0 8 8 20q-23 35 -59.5 63.5t-83.5 33.5v6q0 6 2 10l-23 8 q4 -6 9.5 -14t9.5 -10h-16.5t-16.5 -2q-14 -20 -18 -34t-17 -24q-16 -10 -27.5 -25.5t-21.5 -31.5q-6 -8 -13 -6t-7 10l-4 -4q-10 -23 -18.5 -63t-12.5 -66v-2l4 2v-37l-10 -4v-23l8 4q0 -10 -1 -20t-1 -21l-4 -2q2 -6 2 -20l2 2v-12q4 -66 5 -131.5t1 -130.5q0 -2 2 -5v-2 q-12 -25 -2 -59v-22l23 -33q-2 8 -3.5 16t-5.5 17q0 2 4 2q0 -2 2 -2v-7q0 -12 3 -18q8 -8 10 -6q4 -6 8 -2q2 -6 1 -12.5t-1 -10.5q2 0 2 -2q23 12 41 -6q4 -2 8 -6t8 -17q4 -12 4 -22v-25q0 -4 -1 -5t-1 -3q0 -8 -4 -8l-4 -4q-2 0 -2 -1t-2 -1q-8 0 -8 6q-2 2 -2 6 q-2 8 2 29v14l-41 -20q0 -6 -4 -11h6q16 -6 4 -18q-2 0 -3 -1t-3 -1q-4 -6 -9 -7t-9 7v2q0 -2 -19.5 -3t-50.5 -3l-100 -4q-12 -2 -23 -10l-18 6h-34t-34 -2q-10 4 -6 16h-2q0 2 -4 2q-8 2 -8 10v2q-4 0 -5 2v13l5 2q4 16 4 26l-7 -4v-4q-4 -6 -11 -6t-7 10q0 33 15.5 53.5 t48.5 22.5l2 -2q6 14 15 34.5t13 35.5q6 27 4 56.5t-6 58t-5 58t7 56.5q0 2 1 2t1 2l-8 102q-2 2 -4 3q-10 -4 -12 6v4q0 47 -3 74.5t-10 62.5q-4 25 0.5 49.5t1.5 48.5q-10 10 -17 25.5t-15 32.5q-4 4 -6 5t-5 5q-2 2 -3 2t-3 4l-13 13t-15 12q-25 4 -53.5 -9.5 t-59.5 -33.5q-10 -10 -21.5 -19.5t-19.5 -21.5q-8 -10 -18 -45v-2q-4 -41 -15.5 -86.5t-36.5 -79.5l7 -15l4 2v-14q-2 0 -2 -2q0 -8 1 -14.5t1 -14.5q2 -2 2 -10q-2 -2 -2 -6q0 -6 -1 -12.5t-1 -12.5q0 -23 -1 -45t-1 -45l-13 -6q-2 -8 -2 -22l15 8v-2l-15 -9v-22l15 8v-6 l-15 -8v-21l15 9v-19l-15 -6q0 -6 1 -10t1 -11l13 7v-35q-8 -4 -11 -4q2 -8 2 -25l9 4v-35l-5 -2l5 -22l2 2v-10l-2 -2q10 -16 18 -32t18 -30l11 -8q8 -2 16 -3t19 -5q8 -2 8 -13l-6 -18q4 -10 4 -21.5t-2 -21.5q-12 -12 -19 -2q-8 0 -10 4q-2 2 -2 8q-18 0 -29 2 q2 -8 -10 -12q-29 -6 -66.5 -6t-68.5 4l-45 -10q6 -2 18 -10h-43l-18 4q-12 0 -17 -2q6 0 23 -5h-13.5t-11.5 -2q-4 0 -9 1t-9 1l-12 -6q-12 4 -24.5 7.5t-25.5 7.5q0 2 1 2t1 2h17v2q-4 12 -4 25.5v27.5q-2 4 -2 18q0 8 6 10.5t10 -1.5q-8 6 0 14v2h2l2 2q16 8 32.5 17.5 t35.5 15.5l4 4l6 12q2 10 2 47v4q-4 6 0 15v78l-8 -15v37v35.5t2 36.5q2 51 3 100t5 98q-4 47 -8 95.5t-6 95.5h-8q-8 2 -7 14q2 6 5.5 11.5t7.5 9.5v29.5t2 29.5q-4 10 -10.5 20.5t-10.5 18.5q-12 0 -23.5 2t-17.5 12q-2 2 -2 9q-10 10 -22 16q-4 -4 -10.5 -4t-6.5 10 q2 4 2 8q2 8 9 9q0 4 8 8h22.5t24.5 2q25 12 48.5 21t49.5 14q14 4 36 10t40 10q6 -4 6 -6q20 4 35.5 3t21.5 -11q10 4 11 -13v-84q10 8 19 16.5t20 12.5q45 27 75.5 43.5t65.5 38.5q10 6 13 0t-3 -14q2 2 4 2l4 4q10 6 19.5 9t19.5 7l13 4l-7 -8l2 -2q6 2 21 2q2 2 6 2v2 l4 -2q0 -2 4 -2q2 0 3 -1t5 -1h3v-2q6 -4 6 -6l16 -6q4 4 10 0l2 -2l21 -15q0 -2 1 -2t1 -2l4 2q0 10 14 6l17 -18q6 2 22.5 1t22.5 -1q8 -2 8 -14l-6 -11l18 -14q16 -4 26.5 -18.5t16.5 -30.5q23 25 60 45q-2 4 2 8v2l8 4t8 7l16 12q23 18 46.5 36.5t54.5 28.5h8 q27 12 45 14.5t34.5 -3t34 -15.5t42.5 -22q2 2 4 2q43 0 59.5 -15.5t32.5 -37.5h4q23 -10 40 -32t30 -50q2 0 2 -5l4 -8l35 29v0z" />
<glyph unicode="n" horiz-adv-x="980" d="M324 25q8 -4 8 -9l10 7q0 10 2 16q2 0 2 2l2 2q-2 -10 -2 -22.5v-22.5q-4 0 -4 8h-16q-2 -2 -4 -2h-17v-2h-33l-32 -2q-55 4 -110.5 6t-98.5 -8q0 2 2 4q-6 -4 -13 0q-8 14 -8 25.5t-2 27.5q0 14 15 11v4q0 8 6 8q6 2 8 0l4 -6q0 -4 1 -5t1 -4l27 17q16 4 32.5 11 t26.5 20v2l2 2v2q-16 -12 -35.5 -17.5t-36.5 -21.5q-6 -6 -10 -3t-4 7q-6 4 -5 11t9 9q39 12 56.5 59.5t23.5 104.5v6q-12 4 -4 17q0 2 4 6v135q-4 -4 -9 -2t-5 10q6 47 8 93.5t0 93.5q-8 -4 -8 10v20q-8 4 0 15q0 35 1 70.5t3 70.5q-4 -2 -10 -2q-12 4 -5 16l11 15 q-4 29 -16.5 51t-39.5 33l-10 -4q-2 0 -2 -2h-2q-6 0 -9 4t-1 8q-6 4 -5 10t9 10q4 0 8 -2l2 2h2v2h4q8 4 11 4q10 4 19 8.5t19 6.5l31 14q23 16 48.5 26.5t47.5 16.5l5 -2h2q43 23 61 0q2 0 6 -6v-2q10 -18 10 -46t-4 -46q12 27 38 48t58.5 36.5t65.5 24.5t62 14 q8 -4 8 -11q31 6 59.5 2t50.5 -22q4 -8 4 -10l15 -4l4 2q61 -10 108.5 -54.5t71.5 -103.5q2 -2 2 -4t2 -6l6 -23l2 2l7 -16q4 -12 4 -19l-2 -2q4 -12 4 -20l2 2v-4q0 -6 1 -11.5t1 -11.5l2 2v-24q0 -4 1 -10.5t1 -10.5l2 2v-4l-2 -2v-24l4 2v-13l-4 -2v-57l6 4v-16l-6 -4 q0 -6 -1 -11.5t-1 -9.5l8 4v-55q0 -8 -1 -15.5t-1 -15.5v-2q-2 -6 -2 -20l2 2l-4 -78l-12 -6l-2 -13q0 -6 1 -13t1 -15l10 6q-2 -10 -2 -27l-6 -4v-20l4 2q-2 -25 -3 -46.5t-1 -41.5l-4 -2q0 -12 -1.5 -25.5t-1.5 -28.5l5 2v-14l-5 -2v-14q0 -2 1.5 -3t1.5 -3l2 2v-5l10 -20 h6q0 -2 1 -3t1 -3q4 -4 12 -8v-2q10 -2 33 -2q10 6 14 -5l5 -28q0 -8 -3 -10q4 -12 -8 -15h-14l-8 -4h-72l6 2h-24l-23 -2h-8q-18 -4 -38.5 -5t-39.5 1q-18 -2 -35.5 -1t-29.5 7q-6 -4 -11 8q-2 2 -2 4h-2v3q-2 2 -2 4q-4 8 0 12v2q0 2 -4 6q-2 4 -2 10q6 12 17.5 21.5 t15.5 19.5t8 21.5t6 23.5q6 53 7 103.5t-3 101.5q0 2 -1 2t-1 2q-4 8 0 13q0 4 1 5t1 5l-4 49q0 4 -1 8t-1 8q-4 4 -4 9q-4 12 -4 18q0 104 -6 213q0 2 -4 6q0 4 -1 7t-1 7h4q-4 25 -13.5 46.5t-21.5 44.5q-4 6 0 12t8 6q-10 14 -27 20q-6 2 -6 9l-16 6q-41 2 -76 6t-76 -10 q-4 -2 -8 -2q-29 -29 -56.5 -52.5t-53.5 -50.5q10 2 19 2h19q20 -4 7 -18q-23 -23 -58 -43q-4 -12 -6 -23.5t-4 -23.5l-2 -27l-4 -2l-2 -4v-2q4 -4 4 -12v-4l2 2v-2l-2 -3q0 -47 -1 -96t-7 -96l2 2v-2l-2 -2v-23l2 2v-12q2 -31 3 -60.5t-1 -60.5l-2 -4v-10q4 -29 14 -51.5 t14 -61.5q0 -6 -4 -10l9 -6q12 -4 22 -4q4 -4 6 -4q-2 -8 -3 -14.5t-1 -14.5h-2l-41 -22h19v0z" />
<glyph unicode="o" horiz-adv-x="976" d="M487 82q23 4 48.5 8t42.5 12q35 10 56 27.5t36 42.5l59 31v2q-6 2 -6 8q-10 -4 -31 -8l-12 -6q14 39 18 85t11 99q-6 6 -7 8q-2 23 4.5 39t10.5 37q0 14 1 28.5t1 28.5q-6 57 -18.5 119t-24.5 107q-31 29 -55.5 68.5t-59.5 58.5q-10 6 -14 10t-6 7t-6.5 5t-16.5 6 q-16 -6 -35.5 -8t-40.5 -6l-63 -39q0 -6 -4 -10q-8 -8 -16.5 -14.5t-16.5 -12.5q-33 -33 -47 -72l-10 -20q8 6 14 0q-8 -14 -15.5 -30.5t-11.5 -37.5q-6 -18 -6 -37q-4 -18 -5 -36.5t-3 -36.5q-10 -6 -12 -15q4 18 5 38t3 40q-6 2 -8 8q-2 -6 -2 -16q0 -4 -1 -6t-1 -6 q-2 -35 -2 -68v-67q2 -4 2 -11l6 -6q0 -4 1 -9t1 -9q2 -14 10 -29q0 -8 -1 -16t-1 -17v-34q14 -8 20.5 -22.5t2.5 -31.5q-4 -6 -13 -6q8 -18 18.5 -38.5t20.5 -37.5q10 -10 19.5 -22t19.5 -23l37 -18q8 2 12 -10l6 -7q14 -4 39 -5t41 -3q14 2 32.5 1t33.5 -1l-60 -12v-4z M135 834q27 35 46.5 61.5t54.5 48.5q29 18 58.5 32.5t59.5 24.5q4 4 4 5v2q2 0 4 2q31 16 72 23t76 9h2q29 0 65.5 -4t67.5 -12h4v-2q10 -4 6 -10q57 -16 101.5 -51t103.5 -91q6 -6 3 -11t-11 -7h-4q14 -16 28.5 -51t25.5 -75t19.5 -76t12.5 -56q6 0 10 -10v-27 q4 -23 4 -50.5t-12 -41.5q-4 -37 -10 -73t-17 -70q8 -4 9 -15l-3 -2q2 0 11 4q10 4 12 -3t-4 -13l-31 -12l-12 -29q-2 -2 -2 -4h-2l-6 -4l-4 -6q4 -4 4 -9q-8 -16 -23 -30l-27 -43l3 2l-5 -6q-18 -29 -38.5 -53.5t-45.5 -47.5q-2 -10 -12 -22q4 -4 4 -9.5t-10 -7.5 q-2 0 -4 1t-6 1q-2 0 -8 7q-14 -10 -30.5 -18.5t-35.5 -18.5q-23 -10 -47.5 -13.5t-48.5 -7.5l-19 -2h-4l-8 -4q2 -6 -4 -10q-4 -2 -10 -2h-19q0 4 2 4q-39 4 -82 10t-77 16h-4q-6 4 -19 9q-20 10 -39.5 19t-38.5 26q-27 16 -39 36.5t-30 43.5l-11 10v6q-12 29 -29.5 52.5 t-33.5 47.5q-10 25 -19.5 56.5t-17.5 61.5t-13 56.5t-5 42.5v13q8 8 16 0q0 -4 2 -6q-4 31 -5 61.5t-7 60.5q4 45 -2 78q27 86 90 166z" />
<glyph unicode="p" horiz-adv-x="1046" d="M381 205q0 -2 1 -3t1 -3q55 -47 104 -68q70 -6 140 6q8 4 15 7t17 8v2q4 18 20.5 38.5t39.5 36.5q12 68 27.5 137.5t23.5 139.5q0 6 1 12t1 12q-2 14 -4 27.5t-6 28.5v8l2 12q-8 39 -21.5 74t-29.5 72q-2 0 -6 4q-10 18 -18.5 36.5t-16.5 36.5l-39 35q-23 4 -48.5 11.5 t-54.5 11.5l-34 -15q-16 -14 -33 -27.5t-33 -23.5q-2 -2 -6 -2l-6 -4q8 -2 8 -12q-10 -27 -27.5 -55.5t-40.5 -53.5q-2 -8 -10 -24q2 -2 2 -8q0 -49 -11 -96.5t-15 -94.5q6 -37 8 -80t4 -82q4 -16 6 -31.5t6 -31.5q6 -8 13.5 -16.5t11.5 -22.5l6 -4q-4 8 -4 12zM354 936 q-2 -2 -2 -6q23 16 56.5 39.5t67.5 43t64.5 30t49.5 4.5q6 0 18 -5q35 4 62 0q25 6 56.5 -3t41.5 -27q2 -12 -6 -15q14 -8 26.5 -17t22.5 -19q2 0 3 -1.5t3 -1.5q18 -8 29 -20q16 -8 29.5 -24.5t19.5 -30.5v-11l25 -36l-9 -5l2 -2q6 0 9 -2l4 -10q4 -8 4 -10q8 4 14 -2 q8 -20 8 -35q10 -8 13.5 -20.5t5.5 -22.5v-2l6 -8h-2q2 -6 -2 -10l4 -15q-2 0 -4 -2v-6l4 4q12 8 14 -4q2 -25 -10 -37v-16l-4 -4q0 -14 2 -21q2 0 4 2l2 2q4 6 10 6t9 -6q4 -16 4 -34.5t-4 -34.5q0 -4 4 -4q4 -4 4 -13q-2 -6 -3 -13t-5 -13q2 -25 -9 -58q0 -2 2 -4v-2h2 l-2 -2q-6 -72 -30 -135q4 -4 4 -10q-12 -35 -31.5 -75t-46.5 -79t-58.5 -70.5t-68.5 -48.5q0 -2 -2 -2h-2v-2l-10 -4q-23 -10 -35 -15t-35 -9q-8 2 -8 12q-6 -2 -23 -2q-20 -8 -42.5 -9t-45.5 3h-18q0 2 2 2q-16 4 -21 4q4 -8 -8 -12v-3h-2q-18 4 -39.5 10.5t-42.5 14.5 q0 -2 -2 -2l-16 6l2 2l-12 6q-4 4 -5 4h-2l-8 7q-12 0 -29.5 8t-33.5 18v-2q0 -2 1 -4t1 -6q-2 -2 -2 -6q0 -2 1 -4t1 -4l-4 -48l4 -8q2 -16 2 -33.5t-4 -33.5q-6 -6 -13 -4l-4 -23l2 -2t2 -8v-72q8 0 9 -14q0 -14 -7 -33q0 -4 -1 -8t-1 -8v-13l-2 2q8 -31 21.5 -55 t36.5 -37q6 0 10 -6l6 -8h4l4 -8q4 -2 13 -11q4 -4 3 -6t-1 -6q-4 -23 -17.5 -27t-23.5 11q-18 -4 -36 -3t-36 5h-31v-2q6 -6 -4 -12v-5h-26q-35 -2 -72 -5t-72 -3h-2v2q-6 2 -6 6q-25 -4 -39 9q0 -2 -1 -2t-1 -2q-2 0 -3 -1.5t-3 -1.5q-4 -2 -12 0q-16 20 -11.5 31.5 t19.5 20.5v2q-2 0 -2 4q0 6 10 10h4q12 0 16 2h5q8 4 10 -2h6q2 0 3 -1t3 -1t4 1t4 1q0 20 13 43v13.5t2 13.5q-10 4 -8.5 15t10.5 28q2 45 2 90t-1 85t-2 70.5t-1 45.5q0 117 4 234.5t8 236.5q-6 2 -6 10l6 18q2 12 2 23.5v23.5q-2 2 -2 11q0 8 2 14q0 10 1 18.5t1 18.5 q-2 20 -2 39.5v42.5q0 12 -5 42.5t-1 57.5q-12 10 -23 35q-2 10 8 14l5 -2q-4 4 -3 12q0 2 3 5q-25 -10 -49.5 -16.5t-49.5 -10.5q-6 2 -7 7t3 9q0 2 -1 3t-1 3q-6 18 4 34t28.5 26t41 18t41.5 13q16 10 35 18l2 2v-2l2 2h4q12 8 24.5 14.5t24.5 12.5q20 20 45 39 q16 10 16 -11l-6 -8q35 -6 56.5 -12t21.5 -51v-4l10 6q2 0 2 -1t2 -1q4 -2 15 -2q-4 -10 2 -13q-12 -8 -19 -14h-2v-2z" />
<glyph unicode="q" horiz-adv-x="1038" d="M307 254q0 -4 4 -12q18 -29 39 -55.5t37 -49.5q25 -10 54.5 -22.5t58.5 -16.5q10 0 14 2q2 0 4 2h2v2h2q23 12 44.5 24.5t43.5 16.5l6 -4l37 19q-12 4 -4 16q12 16 34 35.5t44 24.5l2 2l6 2l2 2q-16 12 -9 30.5t24 30.5l2 8q-16 -4 -25 2q-4 4 -4 13q6 16 23 32v15l10 4 v8l-2 2q-2 8 2 14v11l-2 4l-8 -4q-2 12 -2.5 24.5t-0.5 26.5q-16 -4 -30 0q-12 4 -4 16q6 8 13 14.5t15 14.5q-4 -2 -8 4q-4 8 -4 12v11l4 4q4 35 3 71.5t-3 71.5q-4 8 -10 6q0 6 4 19l-2 2q-10 6 -8 14q8 12 14 18q-23 23 -41 43.5t-39 38.5q-2 0 -4 2q-6 2 -8 9 q-53 43 -109.5 51t-132.5 -51q-27 -23 -42 -39.5t-25.5 -34t-18.5 -36.5t-18 -50q-12 -14 -19 2l-2 2l-4 -27l6 4q2 2 7 2h2q6 0 6 -8q0 -4 -2 -6l-2 -2q-4 -4 -7 -4l-22 -21l-4 -22l4 -4q8 -29 8 -74v-92l2 2v-2l-2 -2v-25l6 4l6 -34q10 -16 14.5 -38t4.5 -44l2 2l6 -17 l-8 -4l10 -14zM117 178q-10 12 -14.5 24.5t12.5 24.5v2l-9 -4l-4 8l15 7l6 12h-2l-33 -6q4 -29 11 -55.5t18 -51.5l-13 8q-6 6 -10 7h-2q-14 41 -24.5 89t-16.5 99h-4q-6 2 -8 8q-6 12 8 33q-10 84 -6 160q-4 0 -6 -1t-6 1q-8 2 -9 12q2 14 23 37q2 10 3 20.5t5 20.5l-6 4 q0 4 -4 4q-2 8 0 12q8 18 27 37q14 39 36 80q18 37 42 78t55 72l2 2q37 37 86 49q14 4 36.5 7t39.5 9q6 6 13 11.5t15 9.5l25 18h67v-2q4 0 7.5 1t7.5 1h30q10 0 18.5 -1t18.5 -1q0 8 8 10q18 4 35 -3t31 -17h2q39 0 64 -25q0 -2 1 -2t1 -2q45 -23 77 -49l54 27q23 16 45 27 t51 7q6 0 8 -4l4 -10q0 2 4 10q6 10 11.5 6t5.5 -14q-6 -12 -7 -30.5t1 -38t4 -40t0 -34.5q-2 -29 -6.5 -55.5t-8.5 -55.5v-2q-4 -53 -10 -106.5t-12 -106.5v-35l2 37q4 12 11 9t7 -13v-16q-6 -16 -2 -37q-4 -57 -12 -112.5t-16 -110.5l4 2v-27h8v-2q16 -6 -2 -18 q-2 0 -3 -1.5t-3 -1.5q0 -10 -1 -18t-1 -16l-2 -2q0 -10 -1 -21.5t-1 -23.5l4 2q0 -4 -1 -9.5t-1 -9.5l-2 -2q0 -8 -1.5 -15t-1.5 -16l5 2v-32q-2 -2 -5 -2q0 -6 -1 -12.5t-1 -12.5q4 0 7 2v-22q4 16 7 27t5 28l4 8q-6 -41 0 -78q0 -2 4 -6q-6 -41 -12 -90t-5 -95t12 -82 t40 -50q12 -4 25.5 -5t25.5 -6q10 -4 9 -10t-11 -10q-2 2 -6 2q8 0 8 -14q-6 -33 -29.5 -45.5t-54.5 -12.5t-64.5 5.5t-64.5 5.5l-25 -13l-26 6q0 4 -6 4q-4 0 -7.5 -1t-7.5 -1h-6v-4q-2 2 -2 4q-23 -2 -47 -2h-47q-8 4 -7 10.5t9 10.5q29 0 59.5 1t61.5 3q0 4 8 8h12 q2 6 9 6q6 0 18 4l-41 -4h-2l-31 -14l-71 -2l-17 -2v2q-6 2 -8 8q-10 33 -4 64q4 14 14 6q10 -2 19 -19q4 2 18 2q-8 4 -7 10.5t9 10.5q29 8 41 34.5t16 65.5q-4 33 -6 81t-4 97q-2 0 -3 -1t-3 -1q-10 6 -8 15q2 6 5 11t7 9v94q-2 0 -4 2h-2q-10 -4 -24.5 -11t-28.5 -11 q-12 -6 -25.5 -11.5t-25.5 -9.5q-10 -10 -27.5 -15t-40.5 -9v-6q-10 -23 -41 -23t-53 -4q-20 -2 -36.5 -2h-33.5l-59 12l-15 6h-12q-8 4 -8 9q-8 4 -14.5 6t-14.5 4l-6 -6q-14 0 -14 8q-2 2 -4 2q0 2 2 2q-16 10 -33.5 21.5t-38.5 19.5q-8 16 -20.5 35.5t-22.5 36.5v4 q0 2 -1 2t-1 2l2 2q-2 2 -2 10q-10 22 -12 45z" />
<glyph unicode="r" horiz-adv-x="712" d="M494 811q2 -6 -5 -12q-18 -12 -37.5 -23.5t-33.5 -32.5q-6 -6 -12 -4l-23 -32l-4 -9l-2 2l-4 -4q-2 0 -2 -2q4 -4 4 -12q0 -14 -10 -35q4 -6 -3 -12l-4 -4l-18 -39q-4 -8 -4 -12q8 -39 5 -80t-7 -80l-4 -6q0 -4 -1 -7.5t-1 -7.5l4 2q0 -14 1 -26.5t1 -24.5q-8 -4 -10 -4 q0 -6 -1 -11t-1 -11l12 6v-21l-12 -6q0 -6 -1.5 -11t-1.5 -11q4 2 7.5 4t7.5 4v-15q-4 -2 -7 -4t-8 -4v-22l17 8v-19l-17 -8v-22l17 8q2 -10 2 -18.5v-18.5q-4 -2 -7 -4t-7 -4v-16q2 0 2 -3l14 7q0 -20 2 -31l-10 -6l2 -8q12 4 20 -2.5t11 -30.5q2 0 3 -1t3 -1h4v-2l2 2l4 2 q12 4 22 4q4 6 8.5 5t6.5 -7h2v-2q14 0 14 -9.5t-4 -41.5l2 -5q10 -4 9 -10t-11 -10h-18q-88 -2 -175 -8t-178 -8h-6q-8 6 -6 14q-2 10 -1 17.5t3 17.5l6 8q6 16 28.5 21.5t33.5 23.5v2q0 6 8 23v18t2 18q2 4 4 5.5t4 3.5q0 2 1 2t1 2t-2 2q-4 4 -4 8v2q0 6 1 12t1 11v4 q0 4 1 9t1 9q-4 27 -4 51.5v48.5q2 78 6 156t-6 156q-4 33 -15.5 77t-0.5 78q-4 20 0 41q-4 10 -6.5 22.5t-2.5 26.5q-14 8 -31.5 4t-33.5 -4q-8 4 -8 9q-2 0 -4 2q-8 8 -9.5 14t-3.5 16q-4 2 -5 8.5t5 10.5l13 6q4 12 14 8q12 4 24.5 9.5t24.5 9.5q27 10 47 16l2 2h2l2 2 v-2q8 0 9 -10q16 6 35.5 11t37.5 9l17 4l4 5v-3q31 8 56.5 5.5t39.5 -31.5q6 -12 6 -27l4 -6q4 -45 -2 -82q10 12 21.5 23.5t23.5 19.5q39 49 94.5 84t110.5 27q18 -4 40 -21.5t37 -41t16 -47t-23 -38.5l4 -4q6 -16 -3 -31.5t-26.5 -26.5t-37 -14.5t-34.5 7.5q-2 -2 -6 -2 q-29 -4 -38 2t-13 10q-6 2 -11 3t-11 1h-2z" />
<glyph unicode="s" horiz-adv-x="768" d="M250 160q2 0 4 -1t6 -1h18.5t28 1t27.5 2t18 1l10 6q6 0 9 -2q4 6 10 0l20 4l-6 2q20 8 51 12q63 27 86 66q-2 16 -5 32.5t-7 32.5v4q-8 -4 -10 5q-6 25 -45 42t-87 33.5t-94 34t-69 41.5l-22 19l-3 2q-18 10 -35.5 20t-31.5 23l-4 4h-6l-2 2q-12 12 -23 33l-6 -13 q-8 -8 -14 0q-6 10 -9.5 26.5t-7.5 39.5q-16 23 -26.5 43t4.5 37v4q-2 6 -2 20q-10 0 -11 10q4 23 11.5 49.5t19.5 49.5q0 4 2 8t4 5t6 5q2 6 11 15l4 8t6 8q-4 8 2 14q27 35 73 60.5t98 39t105.5 17.5t96.5 -4q33 -6 73 -23q2 2 9 -4q27 -10 53 -20t57 -15q-2 10 4 25 q-4 4 -1 8t7 6v2l9 7q4 0 4 -2h6q14 2 24 0h7v-3l2 3v-3q2 -2 4 -2h6l-2 -6q10 -18 4 -43q2 -2 2 -10q0 -10 -3 -17.5l-7 -17.5v-2q-2 0 -2 -2q-2 0 -2 -2v-2q4 0 4 -6h2v-27q0 -12 -2 -18q0 -16 -1 -29.5t-3 -28.5q0 -29 -7 -49v-12l-12 -6q-16 -14 -45 -16q-6 0 -6 4 q-14 2 -17.5 11t-3.5 30q-4 6 -8 22q-6 0 -8 4l-2 -2q0 4 -1 5t-1 5q0 2 -1 3t-1 4q-4 12 -4 18q-20 4 -27 22l-33 15h-2q-14 -4 -14 6q-2 2 -6 2l-16 -14q-6 -6 -12.5 -2t-2.5 12l6 12q-31 6 -61.5 3t-58.5 -21q-6 -4 -18.5 -8.5t-26 -7.5t-24.5 -7t-15 -8 q-4 -16 -11.5 -33.5t-13.5 -34.5v-4q6 -8 0 -14v-22q0 -4 2 -5l-2 -2q0 -2 2 -4q4 4 10 -2l6 -6l19 -20v-2q2 0 2 -2q16 -8 53 -17.5t53 -15.5q18 -8 49 -19.5t66 -27t68.5 -35t62.5 -41.5q10 -2 18.5 -7t10.5 -22l12 -16h-2l10 -15l4 3q6 -8 15 -25q4 -10 8 -31l2 2l6 -20 q-4 -4 -6 -4v-2q6 0 10 -11v-8q0 -6 1 -13t1 -13q-2 0 -2 -2q0 -6 -1 -12.5t-1 -12.5q2 0 2 1t2 1q0 -8 -1 -14t-1 -15l-4 -2q0 -6 -1 -11t-1 -11l-4 -17q-4 -25 -8 -39v-4q-6 -25 -19 -43q-4 -6 -10 -11t-12 -11q0 -4 -2 -6q-31 -35 -58.5 -60.5t-74.5 -36.5q-6 2 -6 7 l-13 -2q-10 -8 -20 -14.5t-21 -12.5q-23 -10 -52.5 -13t-62 -1t-65.5 10t-59 20l-9 -2q-4 -2 -5 -1t-3 -1q-6 2 -6 6q-16 2 -28.5 11.5t-24.5 19.5t-24.5 18.5t-28.5 10.5q-2 -8 -2 -19v-8l-11 -4q-4 -20 -14 -35.5t-31 -1.5q-4 4 -9 8t-7 11q-4 18 -2 36.5t2 34.5l6 8v2 q-4 -2 -10 -2q-8 2 -6 15q4 14 12 24v17h-8q-8 4 -8 12q2 14 12 31q-2 18 -3 36.5t-1 39.5l-4 16q-14 6 -2 18v11h-9q-14 4 -6 14l49 14h5q4 2 10 2h6l8 -12q4 0 4 -6h2q2 4 6 5t9 -3q0 -2 2 -4q0 -2 -1 -3t-1 -3t-1 -3t-1 -3q2 0 2 -1.5t2 -1.5q8 -8 8 -18v-20 q12 -23 14 -38.5t8 -29.5q4 0 5.5 -1t3.5 -1l2 2q8 -8 14 -10v-17l2 -2l10 4v2h2v3q23 -10 48.5 -15.5t52.5 -7.5l-17 -4q-2 -2 -6 -8v2l2 2h-4v-2q-4 0 -8 4v-4z" />
<glyph unicode="t" horiz-adv-x="612" d="M147 1020q4 -4 5 -4h10l2 2l20 10q0 8 -4 21l-12 -7l2 13q-2 0 -2 1t-2 1t-6 4v65h2q2 4 6 4v3q-23 -6 -35 -7q-12 6 -6 19q10 8 21.5 16t25.5 17v8h2q6 6 10 4q0 14 2 24q6 16 15 7h2l4 4q2 0 4 2q16 20 51 28.5t58 16.5q8 2 12 -4v2q8 6 13 1t-1 -14l-8 -4q-4 -2 -6 -4 t-6 -4q-2 -2 -4 -2h10l35 19v-7l4 5h4q6 -2 8 -9v-22q6 -16 7 -41t0 -49.5t-4 -46t-3 -31.5q-2 -2 -2 -4q-2 0 -3 -1t-3 -1q-6 -4 -10 4v14h-3v-28.5t3 -22.5l2 2q-4 8 6 14v2h30l7 -4q20 -2 40.5 -1t41.5 -1q33 8 49 0h2v-2h2q0 -2 1 -2t1 -2l8 -6q0 4 2 6q4 8 14 4 q23 -23 13 -63q4 -14 3 -28.5t-3 -31.5q-4 -6 -9.5 -6t-9.5 6v2l-2 2q-8 -18 -25.5 -22t-39 -4t-44 1t-40.5 -5q-6 -4 -10.5 -2t-4.5 6h-12q-8 4 -4 14h-12q-2 -2 -4 -2q-2 -2 -5 -2v-59.5t-4 -59.5q-4 -6 -6 -6v-10l-2 -4q4 -2 4 -13l-4 -6l2 2q-2 -18 -2 -37.5v-39.5 l-4 -2v-21l4 2v-6q6 -6 6 -12l-6 -127v-2l-2 -19q8 -4 8 -14l-6 -57l2 2q0 -8 1 -15.5t1 -13.5l-8 -6q-2 -4 -2 -13q8 4 12 -6v-22q6 0 13 -8q10 -16 6 -41t-10 -54l2 -2l2 2v-6q6 -16 20 -39q4 0 8 -6v-8q18 -25 35 -37q10 -6 27 -2l2 2q8 6 13 1t-1 -13l-4 -4h4l4 -2 q10 8 23.5 16t29.5 12q0 2 7 7v2h2l39 10v6q0 6 5 10t9 0q2 0 2 4q2 0 4 2q2 0 2 2q2 0 2 -1t2 -1h2q0 -2 1 -2t1 -2t2 -4v-18q0 -4 2 -4q2 -10 2 -20.5v-20.5q4 -12 4 -15q0 -2 -4 -6v-2q-6 -8 -14 -6q-8 -4 -18.5 -11t-22.5 -14q6 -4 6 -14q-8 -12 -32.5 -23.5t-53 -18.5 t-56.5 -9t-42 2q-20 -8 -27 -8q-10 0 -22 8q-16 0 -38 13.5t-38 31.5q-4 6 -9 12t-9 15q-10 12 -15 28v6q-8 16 -10 25q-4 -4 -10 0q-16 12 -23.5 44t-11.5 69q-2 0 -2 6v18q-4 41 -2 75t2 48v88q-6 0 -8 8q-2 14 -1 36t3 44l-6 74l-7 18q-6 14 7 19q-2 10 -2 21.5v23.5 q0 14 14 10v2q0 8 -2 14v7l-6 28q-6 2 -6 11v4q0 12 12 12v12q-2 10 -4 18.5t-6 18.5q-4 6 0 11t10 3q0 12 -2 17l8 4v4h-16q-4 -2 -6.5 -1t-4.5 1q-2 -2 -4 -2h-12l-6 -6h-2q-10 0 -21.5 -1t-21.5 -1q-6 -2 -19 -2q-18 0 -28 8q-6 0 -9 8q0 2 -1 3t-1 3q-14 20 -8 43v18.5 t2 16.5v10l4 8q6 10 13 5l57 8l2 2v-2h2zM166 1016h10l6 -4h4q0 4 -1 7t-1 7z" />
<glyph unicode="u" horiz-adv-x="980" d="M647 1004q-8 4 -8 8l-10 -6q0 -10 -2 -17l-2 -2q0 -2 -2 -2q2 10 2 22.5v22.5q4 0 4 -8h16q2 2 4 2h17v2h32l33 2q55 -4 110.5 -6t98.5 8q0 -2 -2 -4q6 2 12 0q8 -14 8 -25.5t3 -27.5q0 -14 -15 -10v-5q0 -8 -6 -8q-6 -2 -8 0l-4 6q-4 0 -8 -4q4 -4 4 -6q6 -4 5 -11 t-9 -9q-18 -6 -27.5 -21.5t-14 -38t-6.5 -49t-4 -55.5v-6q12 -4 4 -17q0 -2 -4 -6v-135q4 4 9.5 2t5.5 -10q-6 -47 -22.5 -93t-14.5 -94q8 4 8 -10v-20q6 -4 0 -15q0 -35 -1 -70.5t-3 -70.5q4 2 10 2q12 -4 4 -16l-10 -15q4 -29 16.5 -51t38.5 -33l11 5q2 0 2 2h2 q6 0 9 -4.5t1 -8.5q6 -4 5 -10t-9 -10q-4 0 -8 2l-2 -2h-2v-2h-5q-8 -4 -10 -4q-10 -4 -19.5 -8.5t-19.5 -6.5l-30 -14q-23 -16 -48.5 -26.5t-48.5 -16.5l-4 2h-2q-43 -23 -61 0q-4 0 -6 6v2q-10 18 -10.5 46t3.5 46q-12 -29 -37.5 -49t-58.5 -35.5t-66.5 -24.5t-60.5 -13 q-8 4 -8 10q-31 -6 -59.5 -2t-51.5 22q-4 8 -4 10l-14 5l-4 -2q-61 10 -108.5 54t-71.5 103q-2 2 -2 4t-2 6l-7 23l-2 -2l-6 16q-4 12 -4 19l2 2q-4 12 -4 20l-2 -2v4q0 6 -1 11.5t-1 11.5l-2 -2v24q0 4 -1 10.5t-1 10.5l-2 -2v4l2 2v25l-4 -3v13l4 2v57l-6 -4v16l6 5 q0 6 1 11t1 9l-8 -4v55q0 8 1 15.5t1 15.5v2q2 6 2 20l-2 -2l4 78l12 6l2 13q0 6 -1 13t-1 15l-10 -6q2 10 2 27l6 4v20l-4 -2q2 25 3 46.5t1 41.5l4 2q0 12 1 25.5t1 28.5l-4 -2v14l4 2v14q0 2 -1 3.5t-1 3.5l-2 -2v4l-10 20h-6q0 2 -1 3t-1 3q-4 4 -13 8v2q-10 2 -32 3 q-10 -6 -15 4l-4 28q0 8 2 11q-4 12 8 14h15l8 4h72l-6 -2h24l23 2h8q18 4 38.5 5t39.5 -1q18 2 35.5 1t29.5 -7q6 4 10 -8q2 -2 2 -4h3v-2q2 -2 2 -5q4 -8 0 -12v-2q0 -2 4 -6q2 -4 2 -10q-6 -12 -17.5 -21.5t-15.5 -19.5t-8 -21.5t-6 -23.5q-6 -53 -7.5 -103.5t3.5 -101.5 q0 -2 1 -2t1 -2q4 -8 0 -12q0 -4 -1 -5.5t-1 -5.5l4 -49q0 -4 1 -8t1 -8q4 -4 4 -8q4 -12 4 -19q0 -106 6 -213q0 -2 4 -6q0 -4 1 -7t1 -7h-4q4 -25 13.5 -46.5t21.5 -43.5q4 -6 0 -12.5t-8 -6.5q10 -14 26 -20q6 -4 6 -9l17 -6q41 -2 75.5 -6t75.5 10q4 2 9 2 q29 29 56.5 52.5t53.5 50.5q-10 -2 -19.5 -2h-19.5q-20 4 -6 18q12 12 26.5 22.5t30.5 20.5q4 12 6.5 23.5t4.5 23.5l2 27l4 2l2 4v2q-4 4 -4 12v5l-2 -2v2l2 2q0 47 1 95t7 95h-2v2l2 2v23l-2 -2v12q-2 31 -3 60.5t1 60.5l2 4v10q-4 29 -14.5 51.5t-14.5 61.5q0 6 4 10 l-8 6q-12 4 -22 4q-4 4 -7 4q2 8 3.5 14.5t1.5 14.5h2l41 23h-19v0z" />
<glyph unicode="v" horiz-adv-x="1017" d="M741 936q-12 -6 -12 6q-8 14 -9 30.5t3 33.5h-8q-8 4 -7 10t9 10q70 4 139.5 10t136.5 -4l2 -2q10 4 11 -12q0 -10 3 -21.5t3 -21.5q2 -6 -2 -14q-6 -6 -11 -7q-20 -6 -36 -22v-2q-8 -57 -36 -103.5t-44 -99.5l-6 -31q4 0 6 2q18 -4 4 -18l-19 -14q-10 -31 -20 -52h4 q16 -4 6 -16q-6 -10 -14 -17.5t-19 -15.5q-10 -16 -17 -32.5t-15 -34.5l-9 -23v-4q-4 -8 -4 -12q-2 -20 -12 -39q-12 -57 -31 -109q-6 -16 -15 -33.5t-20 -33.5l-6 -27l-8 -4l-6 -31l2 2l-8 -26l-4 -2l-6 -21l2 2l-9 -26q-6 -25 -6 -41q-6 -6 -12 -7l-6 -22l2 2v-2l-4 -2 q-2 -12 -3 -24.5t-1 -22.5q-4 -4 -11.5 -5t-7.5 7q-6 0 -8 4q-29 4 -57.5 -1t-57.5 -9q-2 0 -2 2h-2l-24 -4q-8 0 -10 8v4q-8 -4 -13 6q-4 33 -8 49q-4 8 -10 16.5t-10 24.5l-2 2q0 4 -3 6q-6 2 -8 9l-12 41q-2 2 -2 8v2q-8 23 -16.5 43t-16.5 43q-4 4 -4 6v6q-2 2 -2 6h-2 q-6 2 -8 8q-10 41 -22.5 85t-26.5 90q-8 -8 -13.5 -3t-1.5 11q-10 16 -14 33.5t-8 35.5q-8 4 -8 11v8q-6 12 -15.5 25.5t-13.5 27.5q-23 55 -40 111.5t-40 109.5q-14 25 -28.5 50.5t-18.5 56.5q-10 10 -16 12q-12 0 -25.5 -2t-24.5 -2q-8 4 -7 10t9 10l-4 25q-2 0 -2 2 q-4 6 0 10q-2 0 -2 2q-6 4 -5 10.5t9 10.5q14 2 27.5 2h28.5v2h2q31 12 67.5 9t67.5 -9l8 4q6 2 30.5 6t52.5 6t49.5 0t25.5 -10v-6l12 -35v-2q8 -12 -8 -16l-31 -7q-2 0 -4 3q-6 -4 -6 -13q16 -8 0 -16q8 -27 20.5 -64t14.5 -47q0 -4 -4 -8q6 -14 9 -26.5t7 -26.5l8 -21 l-4 -2l4 -10q4 -6 6 -11t4 -11l2 2l5 -13q51 -106 90 -211q4 -4 4 -6v-4l6 -16q0 -6 -2 -11q12 -47 36.5 -90t35.5 -92q10 27 23 51.5t24 49.5v8q4 35 17 63.5t26 55.5v6q4 33 14 64.5t22.5 62t22.5 61.5t14 64v2q6 35 18.5 69.5t28.5 69.5l7 45q-20 0 -35 1t-19 -1z" />
<glyph unicode="w" horiz-adv-x="1609" d="M1067 8q2 2 2 4q-4 -4 -8 -5t-8 5l-9 21q-6 10 -8 23.5t-4 25.5q-4 14 -7 26.5t-5 24.5q-4 0 -4 4q-4 2 -8 2q0 31 -20.5 76t-41.5 72l-4 65l-8 25q-8 0 -10 8q-2 6 -4 11t-2 12q-16 29 -28.5 57.5t-25.5 56.5q-8 -8 -14 6q-4 33 -17.5 61.5t-21.5 59.5l-10 17 q-4 -14 -7 -27.5t-8 -28.5q0 -6 -4 -10l-32 -65l4 2q-4 -8 -4 -11l-7 -4q4 -8 0 -12q-12 -16 -16 -27l10 11l-26 -76l-11 -8l-18 -58q4 -8 0 -12l-8 -14l-4 -11l4 4l-4 -10l-4 -4l-7 -16q0 -2 3 -2l-23 -70l-16 -12q-10 -35 -16.5 -71t-22.5 -68l-13 -33q-2 -6 -3 -13.5 t-5 -15.5q8 -8 -8 -14h-4q-4 2 -5 4t-3 4h-4q12 -8 -4 -16v-2h-3q-61 -6 -122 -7q-8 4 -7.5 10.5t9.5 10.5h28q0 2 4 6q-4 0 -4 2q-10 12 -21 43t-21.5 65.5t-18.5 66.5t-12 44q-8 23 -17.5 42.5t-17.5 41.5l-6 8q-6 47 -25.5 95.5t-43.5 98.5t-46.5 105.5t-32.5 118.5 q-8 0 -10 8q-6 29 -20.5 57.5t-28.5 63.5q-2 0 -4 2q-18 31 -21.5 56.5t-30.5 35.5q-6 2 -6 9h-10q-4 -6 -9 -5.5t-7 7.5l-4 -4l-7 -5v2q-2 -2 -6 -2q-12 4 -4 17l13 10q-2 8 -1 13t-2 24q0 6 4.5 9t8.5 1l6 6q4 8 12 4q53 16 109.5 7t111.5 -11l4 -4h23q29 -2 48.5 6.5 t33.5 -2.5q4 12 11 9t7 -13v-10l7 -6v-31h2q10 -4 9 -10t-11 -10t-17.5 -11.5t-13.5 -17.5q6 -31 6 -64q4 -4 4 -10q0 -8 -2 -12l-2 -2l18 -51q4 0 5.5 -6.5t-3.5 -10.5l-4 -4h-2q10 -25 17.5 -48t11.5 -50q18 -31 32.5 -62.5t20.5 -66.5q0 -6 -6 -12v-2q25 -23 43 -57 t35 -68l8 14v8q0 14 12 10l9 15l6 24q-4 2 0 13q16 41 31.5 84t35.5 84q10 25 19.5 50t19.5 52l15 43v8q-6 6 0 16q0 8 1 15.5t1 15.5q2 8 8 8q-4 16 -4 25q-8 8 -12.5 19.5t-14.5 23.5q-8 4 -8 8l-4 4q-2 2 -2 4q-16 4 -23 9v-2q-4 -6 -11 -6.5t-7 10.5v4q-10 6 -2 14 l-6 18q-4 0 -11 7q-6 12 4 16v6q0 10 8.5 12t10.5 -8q0 -10 2 -14q8 -4 14 -4v4l8 -2q-4 10 7 14v2h2q8 2 7 2t7 0q4 -4 6 -4l10 8q12 8 17 -4v-6h18q0 8 6 10t13 -2h14l31 9l4 -5h14q6 6 12 2q20 0 42 1.5t44 1.5q29 6 58.5 8t38.5 -19v-2q29 -10 30 -73q0 -6 -5 -10.5 t-9 -0.5q-4 -10 -12 -6l-11 6q-10 -8 -14 -12l4 -2q6 -6 2 -13.5t-12 -4.5l-4 2v-5q2 -25 7 -51t17 -30q6 -6 2 -13.5t-12 -5.5h-4q10 -29 27 -45q4 -20 -13 -16q2 -2 3 -6l2 2q0 -6 2 -9l4 -12h2q0 -4 1 -5t1 -3q16 -33 32.5 -65.5t22.5 -69.5q4 -16 8 -32.5t8 -33.5 q10 -23 20.5 -48.5t14.5 -57.5q0 -8 -6 -11q0 -2 2 -2l2 2l6 -18q10 -18 21 -33q4 -10 -4 -14q0 -4 2 -6q10 33 24.5 84t34.5 88q2 6 8 6q18 45 25 98l6 8q10 39 27 64q4 47 14 93t33 93q0 2 1 2t1 2l2 7v47q0 2 -4 6q-4 8 4 16v2q-2 -2 -10 2q-8 8 -18.5 6t-18.5 5 q-4 -4 -8 -3.5t-6 7.5q-2 12 -2.5 24t-0.5 25v2q0 2 3 4q-4 6 1 11t13 3q12 -8 45 -4q0 2 6 6h10t17 2q16 4 31.5 6.5t29.5 -0.5q16 2 34.5 3.5t35.5 1.5q20 2 41.5 3t40.5 -3q4 4 9 2t7 -9q2 -2 2 -8q0 -4 -2 -6v-17t2 -18q0 -2 1 -3t1 -5v-6l-4 -6q-8 -8 -16 -2q0 2 -2 2 h-2q14 -12 -7 -19h-12q2 -2 2 -4q-10 -29 -29.5 -49t-31.5 -49q2 0 6 4l-4 -8l-4 -2q0 -2 -2 -4q4 -4 4 -11q-4 -33 -14.5 -62.5t-22.5 -57.5v-15q-2 -4 -4 -5t-4 -3l-19 -37q2 -2 2 -6q-4 -63 -24.5 -129.5t-57.5 -120.5v-2q-4 -37 -16 -70.5t-26.5 -67.5t-28 -68.5 t-17.5 -71.5q-4 -6 -8 -6q-6 -23 -11 -43.5t-7 -42.5q-6 -6 -13 -7q-2 -4 -2 -14q-4 -6 -11 -6t-7 10q-18 -4 -38.5 -5t-39.5 -3q-16 -2 -30.5 -1t-26.5 5q4 0 8 4q2 0 2 2zM829 664q-2 0 -2 2v-4q0 -2 1 -3.5t1 -3.5v9z" />
<glyph unicode="x" horiz-adv-x="1024" d="M739 0q-6 0 -6 4q-16 -2 -33.5 -3t-33.5 -5l-9 -6h-12q-10 4 -6 12h-2l-2 -2v4q-4 10 -7 16.5t-3 16.5t8 12h6l4 2l10 4v4q-10 14 -15 34t-13 34q-2 2 -2 8l-5 12q-6 8 -12 14.5t-10 8.5q-14 8 -2 16q-16 29 -23 52h-2l-6 4l-6 10l-4 4q-2 2 -2 6l-68 133h-2l-16 -35 q-10 -25 -25 -41l-8 -12q-6 -6 -8 -6l-8 -8q8 -4 8 -14q-4 -31 -25.5 -57.5t-44.5 -55.5q-4 -6 -10 -12.5t-10 -14.5l-6 -10q0 -10 -6 -12q-4 -14 -9.5 -25.5t-1.5 -23.5h2q6 6 17 2q8 -10 7 -24.5t-3 -27.5q0 -6 -10 -10q-20 -8 -43 -8h-45l-76 -8q-29 -4 -58.5 -8t-54.5 0 l-43 -4q-10 4 -6 12q0 2 -2 2q-4 10 -6 18t2 17q-4 4 -4 10q4 12 11 16t19 8q12 -4 9 -12q16 6 26 15.5t25 17.5q6 14 26 25h2q2 8 13 8q2 8 7 14t11 14q0 4 4 5l2 2q0 4 2 6l7 6l4 4q-4 8 0 14q10 10 17 21.5t15 21.5q14 31 17 49q4 10 8 10.5t8 -5.5l15 24q-2 2 -3 10 q4 20 14.5 36t23 30t22.5 29.5t14 33.5q2 12 10 9q4 4 7.5 10t7.5 10q-4 8 4 14q2 0 3 1t3 1q18 29 25 58q0 2 1 3t1 3q-14 20 -26.5 45t-16.5 49q0 4 2 6l-2 2q-4 4 -4 11l-17 32l-12 19q-6 -10 -12 -4q-6 -2 -19 -2q-8 6 -6 14q4 12 8 18l-8 17l-12 18q-14 6 -27.5 23.5 t-24 37t-18.5 40t-12 32.5q-2 2 -2 6q-8 10 -16.5 17.5t-14.5 15.5l-2 2t-4 2t-6 2q-2 0 -2 1t-2 1h-4q0 -2 -5 -2q-4 0 -8 -1t-8 1h-22q-8 2 -9 11l-6 6q-4 8 1 14t11 2v2q0 4 -4 12q-2 2 -2 9q-8 4 -7 10t9 10h7q8 8 12 0h43t43 2l29 19q12 4 12 -13q-2 -2 -2 -4h27.5 t29.5 2q37 2 65.5 7.5t50 5.5t33 -12.5t13.5 -45.5v-6l-4 -4q0 -8 -10 -10q-10 0 -17 -6q18 -25 38 -53.5t32 -59.5l6 4q12 4 12 -12q-4 -16 -8 -23l12 -35l13 -32q8 -6 6 -13l6 -12l2 -2q0 -2 1 -3t1 -3v-2q0 4 4 4q16 29 40 56.5t46 56.5q23 37 40 73.5t22 55.5 q-16 0 -25.5 16t-13.5 33h-2q-8 4 -7.5 10t9.5 10q6 6 14 0q37 4 74 13.5t71 -3.5q37 2 80 5.5t64 3.5q4 0 7 -1t5 -1v-11q4 -10 8 -30q8 -2 8 -11l-2 -4v-8h-2v-2q-6 -8 -12 -8q-18 -8 -43 -8q2 -8 -10 -13q-25 -2 -43 -24q-4 -10 -11.5 -17.5l-15.5 -15.5l-6 -8 q-4 -4 -6 -4l-4 -6q-10 -10 -18.5 -28.5t-15.5 -38t-14.5 -37t-17.5 -27.5l-28 -41h-2v-2q-10 -20 -21.5 -39t-19.5 -39l-5 -4q-14 -29 -36 -47q2 -23 14 -41.5t22 -36.5q12 -18 23.5 -38t24.5 -40q0 -6 -2 -10q6 2 9 -3.5t-1 -11.5l-2 -2h2l-2 -2q-2 -2 -2 -4l49 -67v-5 l28 -53q6 -10 7 -8q4 -8 2 -10q14 -33 32 -60l11 -10v-2q4 0 8 -6v-2l24 -31q12 -10 2 -16l25 -23q8 0 8 -8l31 -18h28.5t22.5 -11v-4q6 -6 -2 -14q-4 -6 -5 -15.5t-1 -19.5l-6 -6h-10q-29 0 -56.5 -3t-56.5 -1q-4 -6 -10 -6q-10 4 -18.5 6t-18.5 4h-64v0z" />
<glyph unicode="y" horiz-adv-x="1064" d="M147 -430q-14 6 -4 16q-2 2 -4 2q0 -4 -1 -5t-1 -3q-2 -6 -10 -8q-16 4 -29.5 19.5t-19.5 33.5q-6 2 -8 8q-2 31 14 62t45 41q6 2 8 0q6 4 23 4h2q0 4 2 6q10 8 15 8h22q6 -2 8 -7t-2 -9q25 -4 39 2q0 8 10 8q2 2 8 2q10 10 15 -2l18 4q2 0 3 1t3 1h2l27 25q0 4 2 4 q-2 2 -2 6q0 8 6 11t10 -1q8 10 10 23q-4 8 1.5 15t11.5 3l6 10q8 25 12 48q4 10 8 10t9 -4q10 27 16 53.5t8 42.5q6 16 14 8l5 17q-4 0 -7 2q-29 35 -43 82t-30 88q-33 70 -52 125l-2 4v2q-4 6 -5 12t-3 10t2 12q-10 39 -27.5 75t-33.5 75q-27 45 -45.5 99.5t-28.5 101.5 q0 6 4 10l-16 43q-4 4 -2 10q-16 23 -28.5 43.5t-22.5 42.5l-7 4l-4 4q-2 6 0 15l2 4v14q-2 0 -2 4l-12 15q-2 2 -2 8q-12 -2 -24.5 -6t-24.5 -4q-6 2 -7 7t3 9v4q-4 14 -5 27.5t-1 27.5l-2 2q-6 4 -6.5 9.5t6.5 7.5q0 4 4 8v10q4 12 11 9t7 -13v-4q27 -2 52.5 -4t52.5 -6 l126 8q14 4 28.5 5t29.5 3q14 6 26 6l7 -4q8 0 14 -1t14 -3v4q4 12 11.5 9t7.5 -13v-4q0 -2 4 -2q10 -10 -4 -18q2 -12 4 -24.5t6 -25.5q0 -6 -5 -10t-9 0q-2 0 -3 -1t-4 -1q-25 -2 -22.5 -18.5t4.5 -36.5q4 -18 10 -38t15 -36q10 -6 0 -16l-2 -2h-5q6 -20 10.5 -39t6.5 -39 q0 -2 -1 -4t-1 -4l4 -15h2q0 -2 2 -4l-2 -2q4 -8 4 -14l2 2q2 -2 2 -4l-2 -2l4 -21l4 4q4 -8 4 -12l-4 -2l6 -12q4 0 9 -6q0 -12 2 -17q12 -27 25.5 -53.5t17.5 -54.5q0 -2 1 -4.5t1 -6.5q31 -53 47 -112q4 -4 6 -7.5t6 -7.5q4 6 11.5 14.5t11.5 18.5h-4q0 -2 -3 -2v2h-2 q-12 4 -4 17l4 2v2q8 4 11 8q16 43 30.5 98t42.5 103q-4 2 0 12q23 39 35.5 82t28.5 88q-4 8 2 14l4 2v2q6 14 12 27.5t15 28.5l2 2q4 10 7 20t7 21q-20 0 -38.5 3t-39.5 3q-8 4 -7 10t7 10q-4 4 -4 10q2 8 6 16.5t8 16.5l-6 29q0 8 7.5 11t11.5 -5q31 18 64.5 18t67.5 -4 t67.5 -5t64.5 18q8 4 10 -2.5t-2 -12.5h2q6 0 8 -4l2 -4q10 2 31 2q0 8 6 10t13 -2q10 -35 -2 -65q10 -4 9 -10.5t-12 -10.5q-37 -6 -47 -10q4 -8 -8 -12q-4 -16 -11 -28.5t-15 -24.5q-10 -47 -29 -99.5t-47 -91.5q-6 -14 -13.5 -27.5t-15.5 -27.5q-6 -35 -21.5 -65.5 t-27.5 -63.5q2 -2 2 -8q-4 -55 -31.5 -102.5t-52.5 -94.5q-12 -61 -33.5 -123.5t-54.5 -114.5q-10 -31 -20.5 -59.5t-26.5 -50.5q-2 -2 -2 -6q-2 -16 -8.5 -37t-16.5 -45q-4 -16 -4 -29q-6 -6 -12 -6l-10 -21q-10 -31 -25.5 -63.5t-40.5 -48.5q-10 -31 -37 -64v-2 q-6 -16 -22.5 -27.5t-38.5 -17.5q4 -8 -10 -12q-33 -2 -65 -7t-67 -9q-14 6 -4 16h-82v0z" />
<glyph unicode="z" horiz-adv-x="909" d="M801 201l4 4l4 4l4 4v2h4q10 4 22.5 5t22.5 3q4 4 6 2q12 4 13 -12v-43q0 -31 -2 -60.5t-2 -58.5q4 0 5 -6t-3 -10l-2 -2v-39q-6 -6 -11 -6q-2 0 -2 1t-2 1h-2q0 2 -2 2v18h-4q-51 -2 -101.5 -6t-103.5 -6l-8 -4q-12 -4 -12 6l-33 -2q-72 -6 -143.5 -6t-143.5 2 q-10 -8 -23.5 -14.5t-27.5 -8.5q-6 2 -8 9q-4 12 -4 14q-53 -4 -108.5 -5t-80.5 3l-2 -2q-2 0 -3 -1t-3 -1q-8 0 -8 8v2q0 20 -3 44t5 42l2 2v2q6 16 14 6q0 2 1 2t1 2q4 4 16.5 17.5t28.5 31.5q10 16 21.5 31t24.5 31l24 37q0 4 1 5t1 5q4 10 10 10l33 49l27 19q8 10 14 26 h-2q-4 -2 -7 -4t-7 -4q4 4 7 10.5t7 10.5l2 2l12 20q0 4 5 17q4 10 10 10q27 47 54.5 93t59.5 89q0 4 3 6q2 2 4 3t4 5q8 10 17 22.5t20 23.5h2q6 8 11 15t9 15h-2l8 13q8 12 10 18q0 2 5 10l6 10l16 33q10 16 21.5 44t25.5 44q4 4 8 2l2 2q-98 0 -191 1t-192 3 q-41 -12 -55 -30q-4 -4 -6 -4l4 -4q4 -6 -2 -13q-6 -10 -13 -11t-16.5 0t-17.5 2t-16 -5q-10 -4 -13.5 4t4.5 12q2 0 4 2q-6 0 -6 4q-6 0 -8 9q-6 23 -3 45t7 45q-4 23 -6 41t-2 28v2q0 2 1 3.5t1 3.5q-8 8 8 16q59 0 117.5 1t118.5 3q37 4 82 6t86 2h71.5h42.5q10 -6 9 -14 q14 0 27.5 1t27.5 1q51 6 100 10t101 -2h12q0 -2 4 -2l20 -4q8 0 9 -6l8 -59q8 2 9 -5.5t-3 -11.5q-2 -2 -4 -2q-4 -12 -14 -10l-17 -12q-10 -37 -31.5 -65t-48.5 -56q-2 -2 -2 -6q-4 -4 -6 -4.5t-4 -2.5q-25 -25 -43 -49l-4 -6h-2q-4 -6 -7 -13t-7 -13q-16 -51 -49 -94.5 t-58 -78.5q14 -12 -6 -18q-4 0 -10 -6l-11 -23q-4 -6 -10 -6q-4 -4 -4 -6t1 -4t1 -4q-4 -10 -12 -17.5t-19 -13.5l-4 -4l-28 -43v-8l-9 -10q0 -4 -4 -9l-8 -8q-12 -25 -12 -28l-4 -5q-16 -43 -43 -77q-8 -8 -12 -2l-9 -17q0 -6 -4 -10l-24 -63q12 0 24.5 2t22.5 2h168 q47 4 94 7t94 5q10 2 19 8q2 0 3 1t3 1q0 6 2 8q-12 13 2 17z" />
<glyph unicode="{" horiz-adv-x="595" d="M211 1516l4 2q25 33 66 49t88 20t95 3t89 -1l2 -2q4 10 10 7t6 -13q0 -8 1 -22.5t1 -30t-4 -27.5t-14 -16q-2 0 -4 -2q-2 0 -3 -1t-3 -1q-43 0 -80 -13q8 -8 0 -16q-12 -8 -29.5 -20.5t-40.5 -24.5l-4 -33q6 -35 -4 -71q-4 -8 -10 -9q-4 -39 -6 -77.5t-2 -79.5 q10 4 12 -4q2 -27 -12 -46q-6 -25 -7 -53l9 6v-26l-11 -6v-9h7q2 0 3 -1t3 -1q4 -4 4 -12q-4 -20 -8 -31v-6l4 -8v-16q2 -29 7 -55.5t-9 -49.5q-4 -6 -11 -6l-6 -22q-4 -4 -4 -5l-2 -8l-4 -4q-4 -10 -6 -17t-5 -14.5t-9.5 -14.5t-18.5 -19q-2 0 -2 -2l-10 -9l-29.5 -29.5 t-36.5 -27.5l9 -4v-2h2q4 -4 -0.5 -9t-8.5 -8q2 0 2 -2q4 0 17 -4q12 -12 -2 -16l2 -2l16 14q18 -12 35 -28l-6 -5q31 -14 44 -28.5t17 -61.5l2 2q0 -4 1 -8t1 -8l-2 -2q0 -4 1 -10t1 -13l4 5v-7l-4 -4v-22l9 6v-4l-7 -6q8 -6 5 -25l4 4v-28q4 -10 5 -21.5t-3 -28.5 q6 -33 0 -63q2 -6 0 -10q4 -23 4 -45.5t-6 -44.5q4 -33 4 -67v-69v-2l-6 -10v-4l2 2q0 -16 2 -25q-2 0 -4 -2q0 -23 2 -30l4 2q2 -6 2 -17q-2 0 -2 -1t-2 -1q8 -29 31.5 -47t78.5 -53l4 -2h-2q2 -2 2 -4q12 -6 25.5 -9t26.5 1q8 2 12 -2h8q12 4 12 -7q4 -16 3 -32.5 t-5 -32.5q-2 0 -2 -2q0 2 0 -1t-2 -7q-6 -12 -20 -13q-14 0 -26.5 1t-27.5 1q-10 -2 -20 -2h-20q-8 0 -14.5 1t-14.5 1v-2h-4l-8 -4q-8 -2 -13.5 1t-1.5 10l-22 6l-2 -4q-10 2 -19.5 4t-19.5 6q-2 0 -2 -2q-16 -6 -33 4v-2l-2 2v-2q-16 -4 -12 10l-15 12l-6 -6 q-18 -4 -14 12v3q0 2 2 2q0 2 2 4q-10 10 -16.5 20t-10.5 14q-39 51 -54 109.5t-18.5 121t2 125t5.5 122.5q0 10 1 22t1 25q-2 8 -2 24q-4 14 -5 26.5t1 29.5v6q0 4 6 8v8q0 2 2 4l-6 25q-8 -4 -13 -4l-7 -7t3 7q-6 0 -8 2q-4 4 -4 14q0 2 4 6v13l4 8l-6 20q-6 2 -8 8v11 l-17 20h-4l-6 4q-6 6 -6 10q-2 4 -10 9q-20 4 -39 8t-35 16q-6 12 6 17q0 29 2 39l-2 4q-4 8 0 14t10 2q8 10 22.5 16.5t37.5 14.5q23 6 35 27.5t28 37.5q-4 16 0 35t9 35q-4 0 -5 8q0 4 -1 7t-3 7q0 4 4 9q-4 12 -4 16q0 14 13 10q0 16 -2 25q0 10 10 10q0 4 1 9t1 10 q-12 10 -16 47q-2 2 -3 8q0 2 1.5 4t1.5 6q0 33 8 49q-2 10 -2 27q-2 2 -2 8q0 23 -2 57.5t4 59.5q0 2 2 4h-8q-10 6 -5 18l11 6q-4 41 -5 83t13 89q0 4 2 8.5t4 8.5q-8 4 -4 14q8 20 18.5 32t26.5 26z" />
<glyph unicode="|" horiz-adv-x="337" d="M55 -72v174h-4q-12 4 -4 17l10 14v8l-2 -2v4h2v37q2 10 2 21.5v23.5q-4 0 -6 2q-4 2 -4 11q0 8 8 24v8q0 4 -6 11q0 6 4 14v33l6 8q-2 4 -2 12l-4 4v4q-4 27 -7 64t7 65v27l4 6l4 23q-4 0 -4 6v2l-4 -4v59l2 2v20.5t2 20.5q-6 2 -6 10q0 33 -2 67t8 64q-2 0 -2 -1t-2 -1 v11l13 12v31q-4 0 -5 2l-8 -6v12l6 8v25l-6 -7v17q4 0 6 2v2l-2 2q-6 14 0 31v12l-4 -4v4l4 4q0 6 -1 12.5t-1 14.5l-2 -2v26q-2 27 -2 52.5v52.5q-6 4 -4 14l6 12v7l-4 4v8l4 4q6 33 1 69.5t-5 71.5v21l6 20q0 2 4 15l-6 -5v17q-2 2 -2 4q-2 14 1 25.5t7 23.5q0 2 -1 3 t-1 3q-2 0 -4 -2v15l2 2l-4 20q-6 0 -18 4q-6 6 -6 10q6 20 20 37q0 16 2 32.5t4 33.5v14l2 2v8q0 2 1 3t1 3l9 7v2h2q4 0 7 1t7 1q2 0 2 1t2 1h8h13.5t15.5 2h22.5t35 1t34.5 1h23h4v-4l4 4q12 8 16 -4q2 -4 2 -6t2 -4q6 -8 2 -14.5t-12 -4.5v-2q4 -18 3 -37.5t-3 -38.5v-4 h-2q0 -10 -1 -17t-3 -18l6 4v-22l-6 -4v-25l6 4v-20l-4 -4q0 -20 2 -31l2 2v-29h-2l6 -118q-2 0 -2 -2l-4 -52v-51l2 -2v-4v-12h2q8 -2 8 -15q-2 -4 -2 -6t-4 -6q4 -4 4 -8q0 -12 1 -24.5t-1 -24.5q-2 -2 -2 -4q0 -14 -1 -27.5t-3 -28.5v-18q0 -2 1 -3t1 -5v-37l31 10 q16 -4 6 -16q-18 -23 -37 -37v-2q2 0 8 -10h2q-2 -2 -2 -4q0 -10 -1 -17.5t-3 -15.5v-4q0 -16 -2 -30.5t-4 -31.5q6 -6 6 -12q0 -18 -2 -27q2 -2 2 -6t-2 -6q-2 -16 -3 -29.5t1 -29.5l4 -2q2 0 2 1t2 1v-17q-8 -4 -8 -12q0 -27 1 -51.5t3 -48.5v-23q-6 -23 -7 -49.5t3 -48.5 v-10h-4q2 -2 2 -7v-20q0 -18 4 -35q-4 -4 -4 -10q0 -4 -1 -21.5t-3 -40.5h-2q0 -12 -2 -16l2 -2l2 2v-4q4 -10 -4 -12v-25l2 2q0 -8 -1 -15t-1 -16v-4v-24v-8q0 -31 8 -48v-16q0 -4 1 -9t1 -9v-88l4 -2v-13q18 6 29 6q18 -4 4 -18l-31 -18q-4 -20 -8 -31q2 -2 2 -8v-13.5 t-2 -15.5h-2l2 -2t2 -4q2 -2 -2 -6v-2l-8 -5q-12 0 -32.5 -1t-42 -2t-39 -3t-25.5 -2l-21 -6q-4 0 -4 -2l-2 2l-2 -2q-8 4 -8 8q-4 0 -10.5 1t-10.5 1q-8 4 -7 10.5t5 10.5q-2 2 -2 6q2 8 2 25q0 8 6 12q-2 16 -2 31.5v31.5h-2z" />
<glyph unicode="}" horiz-adv-x="595" d="M377 -209l-4 -2q-25 -35 -66 -50t-88 -19.5t-95 -3.5t-89 1l-2 2q-4 -10 -10.5 -7t-6.5 14q0 8 -1 22t-1 29.5t4.5 28t14.5 16.5q2 0 4 2q2 0 3 1t3 1q43 0 80 12q-8 8 0 17q12 8 29.5 20t40.5 25l4 32q-6 35 4 72q4 8 10 8q4 39 6 78t2 80q-10 -4 -12 4q-2 27 12 45 q6 25 6 53l-8 -6v27l10 6v8h-6q-2 0 -3 1t-3 1q-4 4 -4 13q4 20 8 30v6l-4 9v16q-2 29 -7 55.5t9 48.5q2 6 10 7l6 22q4 4 5 4l2 8l4 4q8 20 10 31.5t29 34.5q2 0 2 2l10 8l29.5 29.5t35.5 28.5l-8 4v2h-2q-4 4 0 9t8 7q-2 0 -2 2q-4 0 -16 4q-12 12 2 17l-2 2l-16 -15 q-18 12 -35 29l6 4q-31 14 -44 28.5t-18 61.5l-2 -2q0 4 -1 8t-1 9l2 2q0 4 -1 10t-1 12l-4 -4v6l4 4v23l-8 -6v4l6 6q-8 6 -4 25l-4 -5v29q-4 10 -5 21.5t3 27.5q-6 31 0 64q-2 4 0 10q-4 23 -4 45.5t6 44.5q-4 33 -4 66.5v68.5v2l6 11v4l-2 -2q0 16 -2 24q2 0 4 2 q0 23 -2 31l-4 -2q-2 6 -2 16q2 0 2 1t2 1q-8 29 -31.5 47.5t-79.5 53.5l-4 2h2q-2 2 -2 4q-12 6 -25.5 9t-25.5 -1q-8 -2 -12 2h-8q-12 -4 -13 6q-4 16 -3 32.5t5 33.5q2 0 3 2q0 -2 0 1t2 7q6 12 20 12t26.5 -1t26.5 -1q10 2 20.5 2h20.5q8 0 14.5 -1t14.5 -1v2h4l8 4 q8 2 13.5 -1t1.5 -9l22 -6l2 4q10 -2 19.5 -4t19.5 -6q2 0 2 2q16 6 33 -4v2l2 -2v2q16 4 12 -10l15 -13l6 6q18 4 14 -12v-2q0 -2 -2 -2q0 -2 -2 -4q10 -10 16 -20.5t11 -14.5q39 -51 54 -109.5t18 -121t-2 -126t-5 -120.5q0 -10 -1 -22.5t-1 -24.5q2 -8 2 -25 q4 -14 5 -26.5t-1 -28.5v-6q0 -6 -6 -8v-9q0 -2 -2 -4l6 -24q8 4 12 4q6 6 7.5 7t-2.5 -7q6 0 8 -2q4 -4 4 -15q0 -2 -4 -6v-12l-4 -8l6 -21q6 -2 8 -8v-10l16 -21h4l7 -4q6 -6 6 -10q2 -4 10 -8q20 -4 38.5 -8t35.5 -17q6 -12 -6 -16q0 -29 -3 -39l3 -4q4 -8 -0.5 -14.5 t-10.5 -1.5q-8 -10 -22.5 -16.5t-36.5 -14.5q-23 -6 -35 -27.5t-29 -38.5q4 -16 0 -34.5t-8 -34.5q4 0 4 -8q0 -4 1 -7.5t3 -7.5q0 -4 -4 -8q4 -12 4 -16q0 -14 -12 -11q0 -16 2 -24q0 -10 -10 -10q0 -4 -1 -9.5t-1 -9.5q12 -10 16 -47q2 -2 2 -8q0 -2 -1 -4t-1 -6 q0 -33 -8 -50q2 -10 2 -26q2 -2 2 -8q0 -23 2 -58t-4 -59q0 -2 -2 -4h8q10 -6 4 -19l-10 -6q4 -41 5 -83t-13 -89q0 -4 -2 -8l-4 -8q8 -4 4 -15q-8 -20 -18.5 -31.5t-26.5 -25.5z" />
<glyph unicode="~" horiz-adv-x="817" d="M252 915q12 0 16 -2q4 10 17 7l10 -5q8 -4 12 -8l10.5 -7l10.5 -7q4 -4 6 -4q4 -4 2 -10q8 -4 12 -5l4 -2l17 -8l2 2q18 -4 36.5 -15t65.5 -28l23 -12h2q0 -2 4 -2q2 -2 2 -6l2 -2h35l4 2v2l35 20q0 4 6 11q8 4 16 9t19 7l4 4q4 4 8 4l6 4q-2 2 2 10q10 14 21.5 24.5 t25.5 14.5q0 6 4 11l6 4q20 -4 45 -17.5t35 -36.5q2 -2 6 -2q18 -8 4 -18q0 -4 -4 -8l-8 -6l-12 -15q0 -2 1 -4t1 -6q-4 -16 -16.5 -24.5t-24.5 -18.5l-18 -18q0 -2 -12.5 -18.5t-59.5 -73.5l-19 -15q-10 -12 -28.5 -19t-39 -11.5t-41 -5.5t-34.5 1h-2q-8 4 -4 15h-2 q-2 0 -4 2l-10 6l-15 8h-6q-4 -4 -10 0l-10 6l-45 29q-2 2 -3 6q-10 4 -26 16q-16 8 -29 23q-10 -2 -22.5 -3t-22.5 -1q-25 -18 -58.5 -35.5t-62.5 -28.5q-23 -16 -51 -32q-6 -4 -10 0q-4 0 -12 4h-2q-2 0 -3 2q-10 10 -14 24.5t-10 24.5q-6 4 -11 4t-10 2q-6 2 -7 7t3 9 q0 6 6 11h3l32 45q-6 4 -6 14t4 14l64 54l10 12v-2q4 2 8 2q0 4 2 8h2v2l6 2q6 4 11.5 8t13.5 9v2h2l4 4q14 14 25 18l2 2v-2l2 2v-2l2 2q2 0 3 1t3 1l2 2v-2l2 2h6l15 4l4 2h10v0z" />
<glyph unicode="&#xa1;" horiz-adv-x="333" d="M285 336q-2 -6 -9 -8q6 0 9 -9v-2q2 -10 3 -20t-3 -18q-2 -14 -4 -26.5t-7 -27.5v-14q2 -2 2 -8t-8 -19q-2 -10 -4 -17t-6 -17l-2 -15l-2 -2q0 -27 -5 -51.5t-22 -40.5l-14 -14q0 -4 -2 -7q-31 -31 -64 -36l-8 4l-4 8l-4 2h-2l-2 2q-25 4 -49 31q-4 -16 -19 -6 q-14 29 -21 41t-10 19t-2 12t3 18q-6 16 -9.5 29.5t-5.5 23.5q-4 23 -3 42t1 42q0 100 6 199q-2 23 -1 43t6 41l4 4l18 159q-2 2 -2 11l4 4q4 29 8 58.5t8 57.5q4 20 10.5 37t12.5 33q-2 0 -3 1t-3 1q-4 4 -3 6t1 6q6 14 16 29v49q-4 -6 -10 -3t-6 13q2 6 2 11.5t4 9.5 q6 33 6 68h-2q-10 10 2 18q-16 -6 -39 -18q-10 -4 -12 3t4 13q27 12 45 18v6h-2q-10 4 -9 10.5t11 10.5q12 2 30.5 10t38 15.5t38 9.5t30.5 -6q4 -8 0 -13l2 -10q10 -8 11.5 -18.5t-9.5 -18.5l7 -63v-25l2 -22q4 -4 4 -11q0 -16 4 -33.5t4 -33.5v-2q-2 -12 -10 -8v-25l2 -37 v-2l2 -41q4 0 6 1t6 1q8 -2 6 -14q-4 -6 -7 -13.5t-9 -13.5q4 -29 5 -58.5t3 -57.5q4 -4 2 -13l6 -65q4 4 6 4q6 4 11.5 0t1.5 -13l-2 -2v-2l-15 -18q2 -29 4 -58.5t2 -60.5q2 0 2 2h4q4 0 7 -2q2 0 2 -6v-92zM272 1432q14 -25 8 -61t-28 -58q-4 -10 -12 -17q6 -6 -4 -14v-2 q-2 0 -2.5 -1t-2.5 -1q-10 -6 -19 -8t-19 -4q-2 0 -3 -2v-4h-6l-28 -9q-8 2 -11 9v4q-39 8 -65 41l-2 -5l-2 9h-4l-11 8q-27 8 -26 45q0 12 8 12v8h-2q-16 6 -4 19l2 2q-2 2 -2 6l6 10q-8 6 0 15l6 6q2 0 2 2q18 10 34.5 17t35.5 11q2 0 2 3h2q16 4 33.5 7t34.5 -3q8 0 8 -9 q4 4 8 2q20 -6 35 -24l8 -4q6 -4 6 -8q0 -2 2 -2q8 2 12 0z" />
<glyph unicode="&#xa2;" horiz-adv-x="888" d="M281 322l10 14v2q10 57 20.5 111.5t59.5 113.5l86 205q-6 -6 -12.5 1t-0.5 13q10 14 23.5 34t24.5 42q-2 0 -5 2h-4v-2l-20 -10l-14 -6q-10 -6 -20.5 -13.5t-20.5 -15.5q-10 -18 -41 -51t-60 -49q0 -4 -2 -4q6 -16 2 -40t-13 -47.5t-18.5 -45t-13.5 -35.5 q-4 -12 -5 -23.5t-3 -23.5q4 12 4 16q4 12 4 20q2 4 2 11q4 10 11.5 7t7.5 -13l-4 -15q-6 -41 -8.5 -79t1.5 -76v-11q0 -2 2 -2zM424 1028q31 2 62.5 -3t64.5 -13l8 16l8 23q6 2 9.5 3t7.5 1l43 119q-10 10 -2 18l12 8v2l10 8l15 2q35 12 77.5 16.5t79.5 8.5q14 0 15 -6 l2 -8q6 -16 -10.5 -55.5t-39.5 -80.5q6 -6 7 -8q0 -16 -16.5 -33.5t-18.5 -23.5q-12 -27 -27 -64q25 -6 49 -6l4 -4q4 0 9.5 -1t9.5 -1h2v-2q8 -4 7 -9t-9 -9h-8v-8q4 -2 12 -11l-8 -4l6 -16q4 0 12 4l2 -2l-12 -6q-2 0 2 -4q0 2 2 2q8 2 12 -9v-53q0 -2 1 -4t1 -4 q-2 -2 -2 -4v-14h-2q-4 -6 -8 -7q-10 -25 -27 -41l-6 -14v-2h-2l-4 -4q-10 -14 -26.5 -12t-20.5 12h-6q-2 0 -3 1t-3 1l-10 2q-6 2 -9 8q0 2 -1 3t-1 3v48l-6 18l-10 6q-16 -72 -52 -144.5t-71 -142.5l-6 -22q-2 -2 -4 -1t-6 -3l-15 -23l6 2l-8 -4l-8 -22q0 -2 1 -3t1 -6 l10 7l-8 -21q-2 0 -2 -2v-2q-4 -16 -8 -33.5t-8 -36.5q12 -4 0 -16l-6 -6q-12 -39 -26.5 -77t-27.5 -77l-16 -35q16 -2 30.5 -6t20.5 -16q4 0 10.5 -1t10.5 -1q16 6 36.5 7t36.5 -1q16 4 31.5 8t32.5 8q0 6 6 11v2h2q23 12 47.5 23.5t46.5 13.5l15 20q-2 0 -2 8l-5 2l41 39 q0 4 9 8h2l8 -6q25 10 35 -14q18 -8 18 -51v-6l6 -21q0 -2 2 -2l-2 -2q0 -14 -12 -10q-6 -29 -25 -49v-5l-4 -6q2 -2 2 -8q-10 -31 -33.5 -54.5t-55.5 -40.5t-69.5 -28.5t-76.5 -19.5l-62 -19q-6 -2 -18 -2q6 4 11 6.5t11 4.5l-55 -7l-16 -8q-72 0 -123 15q-4 -10 -9 -23.5 t-12 -32.5q-8 -23 -11 -47t-15 -51q2 0 6 -4q12 -6 4 -14.5t-25 -4.5q-4 0 -6 2q-16 -6 -40.5 -12t-52.5 -10t-54.5 -6t-44.5 2q0 -2 -4 -2h-11q-23 4 -6 16q0 2 -2 2q0 8 6 13q2 0 4 2q10 45 28 66.5t40 49.5q10 18 14 47q4 10 9.5 10.5t7.5 -5.5q2 4 4 7t4 7 q-16 -4 -22.5 3t4.5 13q18 6 24 28.5t10 33.5q-47 57 -67.5 97t-32.5 91q-2 -4 -2 -8q-12 -14 -18 2q-6 29 -11.5 78t-7.5 102l-4 6q-8 0 -8 11v60.5t4 63.5q4 23 17.5 76.5t31.5 106.5q0 6 2 8l-2 2q-6 6 -4 14q4 8 9 15.5t11 15.5q18 47 54.5 92t80.5 82t92 59.5t93 24.5z " />
</font>
</defs>
</svg>
